<?xml version="1.0" encoding="UTF-8" standalone="no"?>
<!-- Created with Inkscape (http://www.inkscape.org/) -->

<svg
   xmlns:dc="http://purl.org/dc/elements/1.1/"
   xmlns:cc="http://creativecommons.org/ns#"
   xmlns:rdf="http://www.w3.org/1999/02/22-rdf-syntax-ns#"
   xmlns:svg="http://www.w3.org/2000/svg"
   xmlns="http://www.w3.org/2000/svg"
   xmlns:sodipodi="http://sodipodi.sourceforge.net/DTD/sodipodi-0.dtd"
   xmlns:inkscape="http://www.inkscape.org/namespaces/inkscape"
   width="70.837776mm"
   height="54.428574mm"
   viewBox="0 0 250.99999 192.85715"
   id="svg4302"
   version="1.1"
   inkscape:version="0.91pre3 r13670"
   sodipodi:docname="asu_logo_portrait_reversed.svg"
   inkscape:export-filename="asu_logo_portrait_reversed.png"
   inkscape:export-xdpi="215.25002"
   inkscape:export-ydpi="215.25002">
  <defs
     id="defs4304" />
  <sodipodi:namedview
     id="base"
     pagecolor="#ffffff"
     bordercolor="#666666"
     borderopacity="1.0"
     inkscape:pageopacity="0.0"
     inkscape:pageshadow="2"
     inkscape:zoom="1.979899"
     inkscape:cx="188.03434"
     inkscape:cy="68.212817"
     inkscape:document-units="px"
     inkscape:current-layer="layer3"
     showgrid="false"
     fit-margin-top="0"
     fit-margin-left="0"
     fit-margin-right="0"
     fit-margin-bottom="0"
     inkscape:window-width="1920"
     inkscape:window-height="1017"
     inkscape:window-x="-8"
     inkscape:window-y="-8"
     inkscape:window-maximized="1" />
  <metadata
     id="metadata4307">
    <rdf:RDF>
      <cc:Work
         rdf:about="">
        <dc:format>image/svg+xml</dc:format>
        <dc:type
           rdf:resource="http://purl.org/dc/dcmitype/StillImage" />
        <dc:title></dc:title>
      </cc:Work>
    </rdf:RDF>
  </metadata>
  <g
     inkscape:groupmode="layer"
     id="layer3"
     inkscape:label="BG"
     style="display:inline"
     transform="translate(-212.9011,-279.13141)"
     sodipodi:insensitive="true">
    <rect
       style="display:inline;fill:#a30046;fill-opacity:1;fill-rule:evenodd;stroke:none;stroke-width:1.99300003;stroke-linejoin:round;stroke-miterlimit:4;stroke-dasharray:none;stroke-opacity:1"
       id="rect5020"
       width="251"
       height="192.85715"
       x="212.90109"
       y="279.13141" />
  </g>
  <g
     inkscape:groupmode="layer"
     id="layer4"
     inkscape:label="Text"
     style="display:inline"
     transform="translate(-212.9011,-279.13141)" />
  <g
     inkscape:label="Logo"
     inkscape:groupmode="layer"
     id="layer1"
     style="display:inline"
     transform="translate(-212.9011,-279.13141)" />
  <g
     id="g5357"
     transform="translate(-482.60124,-282.03417)"
     style="display:inline;fill:#ffffff">
    <g
       transform="translate(-189.77138,29.294424)"
       id="g5345"
       style="fill:#ffffff">
      <path
         inkscape:connector-curvature="0"
         id="path4884"
         style="display:inline;fill:#ffffff;fill-opacity:1;fill-rule:nonzero;stroke:none"
         d="m 733.9474,416.26094 -0.0625,0 c -0.65067,1.33154 -2.6945,4.14909 -6.96677,4.14909 -2.9124,0 -7.86561,-1.4868 -7.86561,-8.42432 l 0,-11.51686 c 0,-2.35484 -1.51824,-2.54006 -2.54015,-2.6031 l 0,-0.30739 8.36093,0 0,0.30739 c -1.02192,0.0642 -2.50788,0.24826 -2.50788,2.6031 l 0,11.39359 c 0,1.23694 0.12408,2.507 0.58914,3.65096 0.86656,2.10626 2.9114,3.25338 5.01575,3.25338 2.35353,0 4.21174,-1.36267 5.0783,-2.66424 0.83629,-1.26811 0.86656,-3.06463 0.86656,-3.71603 l 0,-11.91766 c 0,-2.35484 -1.51623,-2.54006 -2.53915,-2.6031 l 0,-0.30739 8.3922,0 0,0.30739 c -1.05319,0.0642 -2.54016,0.24826 -2.54016,2.6031 l 0,16.77961 c 0,2.32339 1.51724,2.50703 2.54016,2.54012 l 0,0.30974 -5.82279,0 0,-3.83738 0.002,0" />
      <path
         inkscape:connector-curvature="0"
         id="path4886"
         style="display:inline;fill:#ffffff;fill-opacity:1;fill-rule:nonzero;stroke:none"
         d="m 757.91345,415.98274 0,-11.27531 c 0,-1.81312 -1.22569,-1.9368 -2.01054,-1.98572 l 0,-0.24313 4.87856,0 0,0.24313 c -0.81007,0.0489 -2.00953,0.1726 -2.00953,1.98572 l 0,15.83185 -0.29356,0 -13.06497,-14.70563 0,12.01103 c 0,1.91278 1.24991,1.98529 1.98431,2.00853 l 0,0.24511 -4.82811,0 0,-0.24511 c 0.73642,-0.0232 1.98632,-0.12097 1.98632,-2.00853 l 0,-12.94105 -0.68699,-0.78494 c -0.0252,-0.0249 -0.0746,-0.0488 -0.0978,-0.0982 -1.02999,-1.20067 -1.74018,-1.2499 -2.2809,-1.29882 l 0,-0.24313 4.31565,0 12.10761,13.50416" />
      <path
         inkscape:connector-curvature="0"
         id="path4888"
         style="display:inline;fill:#ffffff;fill-opacity:1;fill-rule:nonzero;stroke:none"
         d="m 769.63166,420.0995 -6.59149,0 0,-0.2451 c 0.73541,-0.0232 1.98531,-0.12099 1.98531,-2.00854 l 0,-13.13843 c 0,-1.83834 -1.2267,-1.9368 -1.98531,-1.98572 l 0,-0.24313 6.59149,0 0,0.24313 c -0.7344,0.0489 -1.98431,0.14738 -1.98431,1.98572 l 0,13.13843 c 0,1.91277 1.24991,1.98529 1.98431,2.00854 l 0,0.2451" />
      <path
         inkscape:connector-curvature="0"
         id="path4890"
         style="display:inline;fill:#ffffff;fill-opacity:1;fill-rule:nonzero;stroke:none"
         d="m 777.96636,402.47858 0,0.24313 c -0.49027,0 -1.73917,0 -1.73917,1.4222 0,0.61234 0.51449,1.91278 0.5387,1.96201 l 3.92121,9.85238 3.38351,-9.85238 c 0,0 0.0484,-0.1726 0.0747,-0.19661 0.22093,-0.61234 0.39242,-1.49706 0.39242,-1.81311 0,-1.29883 -1.07739,-1.34806 -1.61811,-1.37328 l 0,-0.24312 5.07325,0 0,0.24312 c -0.80805,0.0745 -1.76439,0.29477 -2.6481,2.57405 -0.0495,0.0981 -0.29356,0.76093 -0.31777,0.81016 l -5.07325,14.4353 -0.19571,0 -6.20109,-15.36763 c -0.0252,-0.0718 -0.0495,-0.14507 -0.0978,-0.19661 0,-0.0229 -0.0494,-0.12106 -0.0989,-0.21911 -0.49028,-1.00407 -0.85748,-1.78911 -2.40095,-2.03495 l 0,-0.24312 7.00712,0 0,-0.002" />
      <path
         inkscape:connector-curvature="0"
         id="path4892"
         style="display:inline;fill:#ffffff;fill-opacity:1;fill-rule:nonzero;stroke:none"
         d="m 797.50479,410.90882 c 0.44186,0 2.25366,0 2.40095,-1.81312 l 0.24614,0 0,4.33745 -0.24614,0 c -0.0979,-1.20028 -0.90691,-1.86317 -2.23147,-1.86317 l -3.48137,0 0,5.9559 c 0,0.73571 -0.0232,1.91278 1.81483,1.91278 l 2.35253,0 c 1.66653,0 2.47559,-0.53947 2.91643,-2.18192 l 0.24413,0 -0.51448,2.84473 -11.44584,0 0,-0.24628 c 0.7344,0 2.00953,-0.0745 2.00953,-2.05661 l 0,-13.0159 c 0,-0.19621 0.0252,-2.05976 -1.76339,-2.05976 l -0.24513,0 0,-0.24312 11.44584,0 0,2.8664 -0.24313,0 c 0,-1.64163 -0.93213,-2.20756 -2.40296,-2.20756 l -4.16836,0 0,7.77129 3.31189,0 0,-8.1e-4" />
      <path
         inkscape:connector-curvature="0"
         id="path4894"
         style="display:inline;fill:#ffffff;fill-opacity:1;fill-rule:nonzero;stroke:none"
         d="m 808.878,411.03209 c 2.18203,0 5.24677,-0.14738 5.24677,-3.84917 0,-1.27482 -0.56493,-4.04539 -3.75274,-4.04539 -0.44084,0 -1.10262,0 -1.49504,0.14729 l 0,7.74727 8.1e-4,0 z m 1.42241,-8.55351 c 2.27887,0 3.18478,0.1939 3.87278,0.46466 1.73917,0.68679 2.76814,2.20513 2.76814,4.04347 0,2.15782 -1.37196,3.75061 -3.99484,4.21567 l 0,0.0516 c 1.46982,0.44095 2.32932,1.64162 3.40671,3.20921 l 0.12308,0.14737 1.56868,2.42624 c 0,0.0252 0.0494,0.0745 0.0737,0.12413 1.32355,2.10626 2.3041,2.52475 3.16259,2.69421 l 0,0.24628 -4.16735,0 c -0.24514,-0.29554 -0.46607,-0.51465 -0.78384,-1.00486 -0.0979,-0.12294 -0.46606,-0.63759 -0.51449,-0.68566 -0.0252,-0.0496 -0.0494,-0.0989 -0.0747,-0.12414 l -2.35252,-3.57848 c -0.0252,-0.0252 -0.0252,-0.0492 -0.12307,-0.19663 -0.0252,-0.0484 -1.15205,-1.86312 -2.27989,-2.42622 -0.46606,-0.22183 -0.88169,-0.34127 -2.10839,-0.39171 l 0,6.10243 c 0,1.46986 0.76064,2.0582 1.98532,2.0582 l 0,0.2451 -6.61672,0 0,-0.2451 c 1.34776,0 1.98431,-0.6376 1.98431,-2.00854 l 0,-13.06439 c 0,-1.93639 -1.27512,-2.05976 -2.00953,-2.05976 l 0,-0.24313 6.08004,0" />
      <path
         inkscape:connector-curvature="0"
         id="path4896"
         style="display:inline;fill:#ffffff;fill-opacity:1;fill-rule:nonzero;stroke:none"
         d="m 831.94521,406.12963 c -0.3672,-1.98572 -1.64233,-3.43314 -3.82335,-3.43314 -2.05896,0 -3.11316,1.44621 -3.11316,2.89162 0,1.91248 1.76439,3.11315 3.60243,4.26732 2.52502,1.59239 4.55977,2.81719 4.55977,5.63591 0,1.10455 -0.29356,2.45028 -1.61811,3.67896 -1.20048,1.12781 -2.37775,1.37095 -3.82335,1.37095 -1.17727,0 -2.08318,-0.24314 -2.74596,-0.51426 -1.00375,-0.41573 -1.12783,-0.46539 -1.39618,-0.46539 -0.26834,0 -0.66076,0.12413 -0.71019,0.73651 l -0.24413,0 0.1947,-4.51122 0.24413,0 c 0.0989,0.66162 0.344,2.03453 1.61811,3.0394 0.78485,0.61237 2.05896,1.02811 3.03952,1.02811 1.74118,0 3.211,-1.37095 3.211,-3.11309 0,-1.76462 -1.34775,-2.91568 -3.77492,-4.41039 -2.08217,-1.29883 -4.19056,-2.62287 -4.19056,-5.56373 0,-2.13311 1.47083,-4.70706 5.12168,-4.70706 0.80906,0 1.71597,0.12328 2.37774,0.34401 0.29356,0.0982 0.73541,0.21911 1.00577,0.21911 0.0252,0 0.5387,-0.0225 0.66077,-0.58834 l 0.24513,0 -0.1957,4.09472 -0.24514,0" />
      <path
         inkscape:connector-curvature="0"
         id="path4898"
         style="display:inline;fill:#ffffff;fill-opacity:1;fill-rule:nonzero;stroke:none"
         d="m 843.02586,420.0995 -6.59149,0 0,-0.2451 c 0.7344,-0.0232 1.9843,-0.12099 1.9843,-2.00854 l 0,-13.13843 c 0,-1.83834 -1.2267,-1.9368 -1.9843,-1.98572 l 0,-0.24313 6.59149,0 0,0.24313 c -0.7344,0.0489 -1.98431,0.14738 -1.98431,1.98572 l 0,13.13843 c 0,1.91277 1.24991,1.98529 1.98431,2.00854 l 0,0.2451" />
      <path
         inkscape:connector-curvature="0"
         id="path4900"
         style="display:inline;fill:#ffffff;fill-opacity:1;fill-rule:nonzero;stroke:none"
         d="m 861.33658,405.93332 -0.24413,0 c -0.1957,-2.27918 -2.1094,-2.45068 -3.40671,-2.45068 l -2.96587,0 0,14.36322 c 0,1.91277 1.24889,1.98529 2.01053,2.00854 l 0,0.2451 -6.64092,0 0,-0.2451 c 0.78282,-0.0232 2.00952,-0.14738 2.00952,-2.00854 l 0,-14.36322 -2.96587,0 c -1.4224,0 -3.13736,0.17261 -3.40671,2.45068 l -0.24615,0 0,-4.26491 0.24615,0 c 0.0968,0.29235 0.21992,0.39172 0.58813,0.56312 0.36821,0.1714 1.74018,0.24554 2.25366,0.24554 l 9.68245,0 c 1.59391,0 1.96212,-0.0982 2.30309,-0.19631 0.36822,-0.0985 0.49129,-0.39445 0.54072,-0.61235 l 0.24413,0 0,4.26491 -0.002,0" />
      <path
         inkscape:connector-curvature="0"
         id="path4902"
         style="display:inline;fill:#ffffff;fill-opacity:1;fill-rule:nonzero;stroke:none"
         d="m 869.25566,402.47858 0,0.24313 c -0.44287,0 -1.4214,0 -1.4214,0.98125 0,0.44095 0.36619,1.02807 0.58813,1.39739 l 3.13737,4.94897 2.94065,-4.48643 c 0,0 0.0494,-0.0468 0.0747,-0.0957 0.44084,-0.66157 0.81006,-1.4225 0.81006,-1.83823 0,-0.83428 -1.0784,-0.88311 -1.47183,-0.90833 l 0,-0.24352 5.31939,0 0,0.24352 c -0.56492,0.0488 -1.05419,0.0981 -1.51925,0.36882 -0.88169,0.51429 -2.08418,2.30329 -2.15681,2.42667 l -3.62865,5.56413 0,6.76447 c 0,1.83829 0.88169,2.00853 1.98532,2.00853 l 0,0.24511 -6.59251,0 0,-0.24511 c 0.83327,0 1.98532,-0.17024 1.98532,-2.00853 l 0,-6.64392 -4.04529,-6.27301 c 0,-0.0252 -0.0474,-0.0742 -0.0736,-0.0982 -0.0242,-0.0492 -0.0737,-0.12378 -0.5619,-0.81016 -0.36821,-0.51429 -1.10363,-1.29884 -2.45239,-1.29884 l 0,-0.24352 7.08278,0 0,0.002" />
    </g>
    <g
       id="g5331"
       style="fill:#ffffff">
      <path
         inkscape:connector-curvature="0"
         id="path4862"
         style="display:inline;fill:#ffffff;fill-opacity:1;fill-rule:nonzero;stroke:none"
         d="m 533.64118,411.03209 c 2.18122,0 5.24505,-0.14738 5.24505,-3.84917 0,-1.27482 -0.56311,-4.04539 -3.75071,-4.04539 -0.44095,0 -1.10262,0 -1.49545,0.14729 l 0,7.74727 8.1e-4,0 z m 1.42261,-8.55351 c 2.27928,0 3.18518,0.1939 3.87167,0.46466 1.74018,0.68679 2.76946,2.20513 2.76946,4.04347 0,2.15782 -1.37328,3.75061 -3.99535,4.21567 l 0,0.0516 c 1.47063,0.44095 2.32851,1.64162 3.40701,3.20921 l 0.12217,0.14737 1.56878,2.42624 c 0,0.0252 0.0488,0.0745 0.0741,0.12413 1.32405,2.10626 2.3045,2.52475 3.16239,2.69421 l 0,0.24628 -4.16765,0 c -0.24464,-0.29554 -0.46496,-0.51465 -0.78374,-1.00486 -0.0986,-0.12294 -0.46617,-0.63759 -0.5155,-0.68566 -0.024,-0.0496 -0.0476,-0.0989 -0.0728,-0.12414 l -2.35373,-3.57848 c -0.0252,-0.0252 -0.0252,-0.0492 -0.12216,-0.19663 -0.0252,-0.0484 -1.15144,-1.86312 -2.28049,-2.42622 -0.46496,-0.22183 -0.88189,-0.34127 -2.10779,-0.39171 l 0,6.10243 c 0,1.46986 0.76094,2.0582 1.98562,2.0582 l 0,0.2451 -6.61701,0 0,-0.2451 c 1.34805,0 1.98561,-0.6376 1.98561,-2.00854 l 0,-13.06439 c 0,-1.93639 -1.27512,-2.05976 -2.01083,-2.05976 l 0,-0.24313 6.08033,0" />
      <path
         inkscape:connector-curvature="0"
         id="path4864"
         style="display:inline;fill:#ffffff;fill-opacity:1;fill-rule:nonzero;stroke:none"
         d="m 553.54692,420.0995 -6.59311,0 0,-0.2451 c 0.73571,-0.0232 1.9841,-0.12099 1.9841,-2.00854 l 0,-13.13843 c 0,-1.83834 -1.22549,-1.9368 -1.9841,-1.98572 l 0,-0.24313 6.59311,0 0,0.24313 c -0.73573,0.0489 -1.98573,0.14738 -1.98573,1.98572 l 0,13.13843 c 0,1.91277 1.25,1.98529 1.98573,2.00854 l 0,0.2451" />
      <path
         inkscape:connector-curvature="0"
         id="path4866"
         style="display:inline;fill:#ffffff;fill-opacity:1;fill-rule:nonzero;stroke:none"
         d="m 570.97433,402.47858 -11.93662,16.86117 6.91189,0 c 4.31423,0 4.95179,-1.8379 5.3195,-2.96571 l 0.24463,0 -0.5394,3.72546 -15.39246,0 0,-0.36609 11.86357,-16.37405 -7.96557,0 c -2.23117,0 -3.35901,0.44095 -3.62845,2.45028 l -0.26955,0 0,-3.33257 15.39246,0 0,0.002" />
      <path
         inkscape:connector-curvature="0"
         id="path4868"
         style="display:inline;fill:#ffffff;fill-opacity:1;fill-rule:nonzero;stroke:none"
         d="m 581.68889,419.87843 c 3.77351,0 5.90652,-3.50439 5.90652,-8.16338 0,-5.53851 -2.91523,-9.1143 -6.56779,-9.1143 -2.25558,0 -5.83368,1.56717 -5.83368,8.25874 0,4.95143 2.27807,9.01894 6.49495,9.01894 z m -0.31888,-17.8183 c 4.77918,0 9.36256,3.55562 9.36256,9.26552 0,5.0011 -3.77472,9.2156 -9.21518,9.2156 -5.12157,0 -9.4117,-3.87364 -9.4117,-9.16626 -8e-4,-5.39275 4.36226,-9.31486 9.26432,-9.31486" />
      <path
         inkscape:connector-curvature="0"
         id="path4870"
         style="display:inline;fill:#ffffff;fill-opacity:1;fill-rule:nonzero;stroke:none"
         d="m 607.35416,415.98274 0,-11.27531 c 0,-1.81312 -1.2264,-1.9368 -2.01135,-1.98572 l 0,-0.24313 4.87735,0 0,0.24313 c -0.80906,0.0489 -2.00953,0.1726 -2.00953,1.98572 l 0,15.83185 -0.29356,0 -13.06416,-14.70442 0,12.011 c 0,1.91277 1.24961,1.98529 1.98532,2.00854 l 0,0.2451 -4.82811,0 0,-0.2451 c 0.73451,-0.0232 1.98451,-0.12099 1.98451,-2.00854 l 0,-12.94223 -0.68528,-0.78494 c -0.0252,-0.0249 -0.0745,-0.0488 -0.0986,-0.0982 -1.02928,-1.20067 -1.73978,-1.2499 -2.28039,-1.29882 l 0,-0.24313 4.31423,0 12.10953,13.50416" />
      <path
         inkscape:connector-curvature="0"
         id="path4872"
         style="display:inline;fill:#ffffff;fill-opacity:1;fill-rule:nonzero;stroke:none"
         d="m 614.8566,412.06026 5.09746,0 -2.59765,-7.69452 -0.0495,0 -2.45037,7.69452 z m 9.53416,5.05028 c 0.78384,2.3029 1.64233,2.59648 2.69653,2.74386 l 0,0.2451 -6.83967,0 0,-0.2451 c 0.56493,-0.0232 1.7654,-0.0496 1.7654,-1.32444 0,-0.21911 -0.0252,-0.49061 -0.29356,-1.2752 l -1.47184,-4.33507 -5.66037,0 -1.29933,4.04347 c -0.1947,0.58794 -0.29356,1.20031 -0.29356,1.47064 0,1.32483 1.0552,1.39735 1.47083,1.4206 l 0,0.2451 -4.70505,0 0,-0.2451 c 1.44561,-0.0958 2.1316,-1.27322 2.4988,-2.40181 l 4.85434,-15.21985 2.18002,0 5.09746,14.8778" />
      <path
         inkscape:connector-curvature="0"
         id="path4874"
         style="display:inline;fill:#ffffff;fill-opacity:1;fill-rule:nonzero;stroke:none"
         d="m 645.51301,402.44822 c -0.46304,-2.50737 -2.07309,-4.33542 -4.83013,-4.33542 -2.60069,0 -3.9323,1.82805 -3.9323,3.65377 0,2.41678 2.23045,3.9323 4.5517,5.38881 3.18982,2.01326 5.75924,3.56076 5.75924,7.12145 0,1.3942 -0.37124,3.09773 -2.04282,4.6464 -1.51724,1.42257 -3.00522,1.7323 -4.83114,1.7323 -1.48698,0 -2.63297,-0.30973 -3.46826,-0.64981 -1.27008,-0.52647 -1.42543,-0.58913 -1.7654,-0.58913 -0.33996,0 -0.83528,0.15526 -0.89783,0.92801 l -0.30869,0 0.24615,-5.69655 0.31071,0 c 0.12307,0.83738 0.43277,2.56927 2.04282,3.83934 0.99064,0.77473 2.60068,1.30119 3.8405,1.30119 2.19716,0 4.05739,-1.7319 4.05739,-3.93194 0,-2.23079 -1.70487,-3.6845 -4.76961,-5.57398 -2.63296,-1.64213 -5.29519,-3.31532 -5.29519,-7.03053 0,-2.69259 1.85821,-5.94556 6.47246,-5.94556 1.02292,0 2.16791,0.15485 3.0032,0.43348 0.37225,0.1257 0.9291,0.27812 1.27008,0.27812 0.0303,0 0.68195,-0.0287 0.8373,-0.74075 l 0.30869,0 -0.24715,5.1708 -0.31172,0 0,0" />
      <path
         inkscape:connector-curvature="0"
         id="path4876"
         style="display:inline;fill:#ffffff;fill-opacity:1;fill-rule:nonzero;stroke:none"
         d="m 664.63077,405.93332 -0.24514,0 c -0.1947,-2.27918 -2.10738,-2.45068 -3.40672,-2.45068 l -2.96587,0 0,14.36322 c 0,1.91277 1.2489,1.98529 2.00953,2.00854 l 0,0.2451 -6.64093,0 0,-0.2451 c 0.78384,-0.0232 2.00953,-0.14738 2.00953,-2.00854 l 0,-14.36322 -2.96587,0 c -1.42241,0 -3.13736,0.17261 -3.40671,2.45068 l -0.24413,0 0,-4.26491 0.24413,0 c 0.0978,0.29235 0.22092,0.39172 0.58813,0.56312 0.36821,0.1714 1.74018,0.24554 2.25567,0.24554 l 9.68145,0 c 1.5939,0 1.96111,-0.0982 2.3041,-0.19631 0.3672,-0.0985 0.49028,-0.39445 0.53971,-0.61235 l 0.24413,0 0,4.26491 -8.1e-4,0" />
      <path
         inkscape:connector-curvature="0"
         id="path4878"
         style="display:inline;fill:#ffffff;fill-opacity:1;fill-rule:nonzero;stroke:none"
         d="m 668.84856,412.06026 5.09948,0 -2.59968,-7.69452 -0.0495,0 -2.45037,7.69452 z m 9.53416,5.05028 c 0.78485,2.3029 1.64334,2.59648 2.69753,2.74386 l 0,0.2451 -6.83865,0 0,-0.2451 c 0.56291,-0.0232 1.76338,-0.0496 1.76338,-1.32444 0,-0.21911 -0.0252,-0.49061 -0.29356,-1.2752 l -1.46982,-4.33507 -5.66239,0 -1.29934,4.04347 c -0.19469,0.58794 -0.29356,1.20031 -0.29356,1.47064 0,1.32483 1.05521,1.39735 1.47184,1.4206 l 0,0.2451 -4.70605,0 0,-0.2451 c 1.44561,-0.0958 2.1316,-1.27322 2.49981,-2.40181 l 4.85333,-15.21985 2.18103,0 5.09645,14.8778" />
      <path
         inkscape:connector-curvature="0"
         id="path4880"
         style="display:inline;fill:#ffffff;fill-opacity:1;fill-rule:nonzero;stroke:none"
         d="m 696.18097,405.93332 -0.24514,0 c -0.19469,-2.27918 -2.10738,-2.45068 -3.40671,-2.45068 l -2.96587,0 0,14.36322 c 0,1.91277 1.2499,1.98529 2.01053,2.00854 l 0,0.2451 -6.64193,0 0,-0.2451 c 0.78484,-0.0232 2.01054,-0.14738 2.01054,-2.00854 l 0,-14.36322 -2.96587,0 c -1.42241,0 -3.13737,0.17261 -3.40672,2.45068 l -0.24514,0 0,-4.26491 0.24514,0 c 0.0968,0.29235 0.22093,0.39172 0.58813,0.56312 0.3672,0.17261 1.74018,0.24554 2.25467,0.24554 l 9.68245,0 c 1.59391,0 1.96111,-0.0982 2.30309,-0.19631 0.36922,-0.0985 0.49129,-0.39445 0.54072,-0.61235 l 0.24413,0 0,4.26491 -0.002,0" />
      <path
         inkscape:connector-curvature="0"
         id="path4882"
         style="display:inline;fill:#ffffff;fill-opacity:1;fill-rule:nonzero;stroke:none"
         d="m 706.20844,410.90882 c 0.44084,0 2.25366,0 2.39993,-1.81312 l 0.24615,0 0,4.33745 -0.24615,0 c -0.0968,-1.20028 -0.9059,-1.86317 -2.23045,-1.86317 l -3.47935,0 0,5.9559 c 0,0.73571 -0.0252,1.91278 1.8118,1.91278 l 2.35252,0 c 1.66755,0 2.4766,-0.53947 2.91644,-2.18192 l 0.24615,0 -0.5155,2.84473 -11.44685,0 0,-0.24628 c 0.73542,0 2.01054,-0.0745 2.01054,-2.05661 l 0,-13.0159 c 0,-0.19621 0.0252,-2.05976 -1.76338,-2.05976 l -0.24615,0 0,-0.24312 11.44685,0 0,2.8664 -0.24413,0 c 0,-1.64163 -0.93112,-2.20756 -2.40296,-2.20756 l -4.16533,0 0,7.77129 3.30987,0 0,-8.1e-4" />
      <path
         inkscape:connector-curvature="0"
         id="path4904"
         style="display:inline;fill:#ffffff;fill-opacity:1;fill-rule:nonzero;stroke:none"
         d="m 512.41782,409.94097 3.09536,-9.7227 0.063,0 3.2821,9.7227 -6.44051,0 z m 12.04611,6.38144 -6.44099,-18.80066 -5.43409,0 0,0.29749 c 0.98554,0.0592 2.39668,0.50632 2.02981,1.88988 l -5.48299,17.04716 c -0.46499,1.42335 -1.33311,2.91055 -3.1588,3.03348 l 0,0.30974 5.94561,0 0,-0.30974 c -0.52646,-0.0312 -1.8584,-0.12293 -1.8584,-1.79652 0,-0.34008 0.12335,-1.1148 0.3716,-1.8584 l 1.64167,-5.109 7.15424,0 1.85841,5.48022 c 0.34117,0.99185 0.37154,1.33271 0.37154,1.6121 0,1.60895 -1.51835,1.6393 -2.22995,1.67042 l 0,0.30974 8.63896,0 0,-0.30974 c -1.33273,-0.18323 -2.41638,-0.55562 -3.40662,-3.46617" />
    </g>
  </g>
  <g
     id="g5409"
     transform="translate(-1.8582247,12.251717)">
    <path
       transform="translate(0,-7.6293945e-6)"
       id="path4906"
       d="m 144.88281,12.830078 c -5.47879,0 -9.77805,0.02149 -16.50976,0.02148 -12.81781,0 -24.92238,1.961306 -29.001956,12.59375 l -2.421875,-9.42773 C 96.354027,14.166431 94.32939,12.832031 92.333984,12.832031 l -3.146484,0 -31.34375,0.0039 -7.404297,0 c -0.601244,0 -0.81966,0.188512 -0.503906,0.615234 0,0 1.133391,1.088071 3.193359,3.435547 2.860956,3.258423 1.736328,7.617187 1.736328,7.617187 l -15.328125,61.150391 22.31836,0 3.21875,-13.433594 21.541015,0 3.359375,13.433594 22.933591,0 c 2.24963,8.07e-4 4.54309,0.002 6.46485,0.002 12.05919,0 21.86939,-1.231037 26.7207,-8.740234 3.61756,6.845205 11.40198,10.065731 25.13477,8.882812 4.78171,-0.410985 9.48139,-2.649148 11.5,-6.193359 l 0.92382,2.947265 c 0.80502,1.778013 2.43921,3.091797 4.76954,3.091797 l 22.46679,0 c 0.60327,0 0.82263,-0.17639 0.50586,-0.603515 0,0 -1.19714,-1.332944 -3.1875,-3.464844 -2.47358,-2.646888 -2.33594,-5.447266 -2.33594,-5.447266 l 0,-63.296875 -24.05664,0 0,50.619141 c -0.29759,4.796535 -4.99388,6.020634 -7.59961,5.9375 -3.73256,-0.117424 -5.89257,-2.203862 -5.89257,-5.78711 l -0.004,-50.751953 -23.42969,0 -0.006,-0.01953 z m 0.625,4.701172 c 0.11412,-0.0053 0.23241,0.01924 0.33985,0.07422 0.15233,0.07869 0.26514,0.214536 0.31054,0.376953 0.0141,0.05044 0.0205,0.102912 0.0195,0.152344 l 0.0234,0.01172 -0.0859,0.251954 -6.13476,12.330078 11.01562,-9.550782 0.0352,0.02148 c 0.21084,-0.09079 0.47037,-0.06715 0.66406,0.07813 0.13518,0.10088 0.2212,0.254478 0.23633,0.419922 0.005,0.05246 0.001,0.103856 -0.008,0.154296 l 0.043,0.0293 -0.16016,0.226563 -8.4043,11.158203 12.6836,-7.669922 0.0254,0.02539 c 0.22294,-0.05518 0.47637,0.01496 0.63476,0.185547 0.11298,0.119442 0.17138,0.281786 0.15625,0.445312 -0.004,0.05478 -0.018,0.108909 -0.0371,0.160156 l 0.0293,0.03125 -0.19336,0.203125 -10.42187,9.664063 13.9414,-5.570313 0.0234,0.0293 c 0.23304,-0.01453 0.47243,0.08578 0.60156,0.283203 0.0888,0.142644 0.11371,0.309618 0.0703,0.460938 -0.0131,0.05478 -0.0362,0.106177 -0.0664,0.154297 l 0.0254,0.0332 -0.22852,0.171875 -12.12695,7.888672 14.77344,-3.310547 0.0215,0.03125 c 0.23908,0.01544 0.46592,0.162188 0.55469,0.382812 0.0596,0.142645 0.0549,0.304933 -0.0117,0.453125 -0.0262,0.05871 -0.0622,0.112102 -0.10547,0.158203 l 0.0156,0.03516 -0.24219,0.125 -13.45117,5.873047 15.18555,-0.951172 0.008,0.03516 c 0.22496,0.05871 0.40968,0.235479 0.45508,0.466797 0.0282,0.156364 -0.009,0.310932 -0.10157,0.439453 -0.0343,0.05154 -0.0775,0.09653 -0.12695,0.134766 l 0.01,0.03516 -0.26172,0.08594 -14.38672,3.691407 15.125,1.419922 0.004,0.04492 c 0.0717,0.03075 0.13308,0.07347 0.18554,0.125 0.11299,0.11117 0.17774,0.258369 0.17774,0.41211 0,0.15989 -0.0675,0.308381 -0.1875,0.416015 -0.0454,0.04568 -0.0997,0.08258 -0.15821,0.111328 l 0,0.03516 -0.25976,0.03711 -14.92969,1.402344 14.64453,3.74414 0,0.04883 c 0.0636,0.04172 0.11482,0.09212 0.1582,0.152343 0.0928,0.129328 0.12787,0.285711 0.0977,0.439454 -0.0433,0.227785 -0.22054,0.403403 -0.43945,0.464843 l -0.006,0.02734 -0.17188,0.0059 -0.0742,-0.0039 -14.96093,-0.945312 13.67968,5.982422 -0.0137,0.04492 c 0.0474,0.04842 0.089,0.102962 0.11719,0.166016 0.0686,0.143048 0.0733,0.304936 0.0137,0.453125 -0.0898,0.217901 -0.29935,0.361523 -0.52734,0.382812 l -0.004,0.0078 -0.23828,-0.02344 -14.14648,-3.167969 -0.0527,-0.16211 c -0.92104,-4.52658 -3.46636,-8.169287 -7.78906,-11.15039 -3.77997,-2.606335 -8.40675,-4.354535 -12.48633,-5.896485 -3.1747,-1.19916 -6.14996,-2.322202 -8.30273,-3.671875 -2.44937,-1.535998 -3.5918,-3.204419 -3.5918,-5.248047 0,-1.487575 0.50255,-2.732146 1.49219,-3.697265 1.68267,-1.64283 4.7365,-2.45988 8.82617,-2.355469 0.0756,0.0023 0.13461,0.0039 0.16992,0.0039 1.93891,0 6.12147,0.72786 8.70703,1.921875 l 9.24024,-11.361328 0.0351,0.01563 c 0.0948,-0.05902 0.20424,-0.09236 0.31836,-0.09766 z m -50.876951,8.050781 0.199219,0.105469 4.136719,2.505859 -0.0098,0.132813 -0.199219,0.02539 0.183594,0.04102 c -0.137197,0.624648 -0.251133,1.262491 -0.33789,1.898438 l -0.06445,0.486328 -0.384765,-0.324219 -4.314453,-4 0.03711,-0.04492 c -0.02421,-0.05478 -0.03983,-0.111952 -0.04492,-0.171875 -0.01307,-0.166654 0.04425,-0.329135 0.158203,-0.447266 0.157373,-0.167158 0.399158,-0.231648 0.621094,-0.185546 l 0.01953,-0.02148 z m -18.78125,3.476563 7.476563,29.892578 -14.916016,0 7.439453,-29.892578 z m 14.634766,1.666015 0.220703,0.07617 7.482422,3.009766 0.130859,0 0.03906,0.1875 -0.0039,0.242187 c 0,0.862624 0.04501,1.722428 0.132812,2.554688 l 0.05469,0.523437 -0.470704,-0.267578 -8.191406,-5.332031 0.02148,-0.04492 c -0.0393,-0.05477 -0.06683,-0.113877 -0.08398,-0.177734 -0.04132,-0.156465 -0.01448,-0.324952 0.07227,-0.460938 C 90.012764,30.842879 90.2327,30.746469 90.468759,30.75 l 0.01563,-0.02539 z m -3.085937,5.712891 0.232421,0.04102 11.16211,2.498046 0.07617,0.128907 -0.173829,0.0918 0.185547,-0.04102 c 0.287508,1.260999 0.699971,2.462587 1.226563,3.572266 l 0.3086,0.666015 -0.662116,-0.298828 -12.777344,-5.585937 0.01563,-0.04883 c -0.04745,-0.04731 -0.08409,-0.100638 -0.111329,-0.160157 -0.06763,-0.147386 -0.07128,-0.309307 -0.01172,-0.455078 0.08575,-0.212857 0.292616,-0.353283 0.517578,-0.378906 l 0.01172,-0.0293 z m -1.767579,6.109375 0.07031,0.002 14.738281,0.929688 0.11719,0.132812 c 3.74668,6.78266 11.62076,9.487342 18.56836,11.873047 6.84773,2.352117 12.75586,4.379772 12.75586,9.734375 0,1.439056 -0.59178,2.707967 -1.75391,3.769531 -2.19111,1.990862 -6.23608,2.967255 -10.55273,2.552735 -1.40627,-0.136389 -3.14922,-0.653156 -4.92774,-1.458985 l -2.96289,3.660157 -0.006,-0.01563 -6.10742,7.542969 -0.043,-0.01758 c -0.10391,0.06384 -0.22646,0.09961 -0.35156,0.09961 -0.10391,0 -0.2108,-0.02344 -0.30664,-0.07227 -0.15435,-0.07998 -0.26717,-0.220493 -0.31055,-0.382813 -0.0132,-0.04923 -0.0176,-0.09726 -0.0176,-0.146484 l -0.0332,-0.01758 0.0957,-0.25 6.13671,-12.335938 -11.031249,9.550782 -0.02734,-0.01758 c -0.20983,0.08716 -0.470503,0.06449 -0.660157,-0.07813 -0.136188,-0.103301 -0.22227,-0.256731 -0.234375,-0.421874 -0.0048,-0.05165 -0.0019,-0.103857 0.0078,-0.154297 l -0.0293,-0.02148 0.146484,-0.238281 8.406247,-11.160156 -12.691403,7.671875 -0.02344,-0.02344 c -0.219919,0.04891 -0.467499,-0.01453 -0.628907,-0.185547 -0.112986,-0.121758 -0.169429,-0.282895 -0.154297,-0.445312 0.0048,-0.05552 0.01694,-0.108974 0.03711,-0.158203 l -0.02344,-0.02344 0.185547,-0.214844 10.43164,-9.669921 -13.96289,5.580078 -0.02148,-0.03125 c -0.217901,0.01574 -0.461791,-0.09016 -0.587891,-0.285157 -0.08877,-0.134775 -0.115543,-0.301369 -0.07422,-0.457031 0.01614,-0.05827 0.04095,-0.112775 0.07227,-0.162109 l -0.02344,-0.0332 0.220703,-0.166016 12.136718,-7.894531 -14.800781,3.318359 -0.01758,-0.0332 c -0.232024,-0.02009 -0.445438,-0.163701 -0.533203,-0.382812 -0.06053,-0.14618 -0.05688,-0.3084 0.01172,-0.455078 0.02623,-0.05585 0.06314,-0.107449 0.105468,-0.152344 l -0.01367,-0.02734 0.238281,-0.134766 13.460935,-5.876953 -15.185545,0.957031 -0.01172,-0.03516 c -0.223953,-0.0594 -0.406785,-0.236185 -0.451172,-0.466797 -0.03123,-0.153232 0.0041,-0.309826 0.0957,-0.439453 0.03834,-0.0548 0.0842,-0.102427 0.138672,-0.142578 l -0.0078,-0.04102 0.248047,-0.07422 14.396485,-3.69336 -15.13086,-1.417968 -0.0039,-0.04492 c -0.07263,-0.03075 -0.135043,-0.07341 -0.1875,-0.126953 -0.112986,-0.114301 -0.173828,-0.259983 -0.173828,-0.41211 0,-0.232831 0.140916,-0.43585 0.345703,-0.533203 l -0.002,-0.03125 0.25,-0.03906 14.927734,-1.400391 -14.65039,-3.748047 0.0039,-0.04492 c -0.0615,-0.04136 -0.112936,-0.09208 -0.154297,-0.15039 -0.09079,-0.12963 -0.124012,-0.286116 -0.09375,-0.439454 0.04439,-0.227281 0.221488,-0.401857 0.441406,-0.46289 l 0.0059,-0.02539 0.167968,-0.0039 z m 63.351561,16.917969 0.49805,0.287109 11.39062,7.412109 -0.0293,0.04688 c 0.0343,0.05157 0.0592,0.108449 0.0742,0.167968 0.0414,0.154451 0.0164,0.321044 -0.0723,0.457032 -0.12509,0.194293 -0.36495,0.294639 -0.58789,0.285156 l -0.0137,0.02148 -0.2168,-0.07227 -10.57812,-4.25 -0.13477,0 -0.0352,-0.1875 0.006,-0.566406 c 0,-1.03916 -0.0725,-2.064441 -0.21679,-3.048828 l -0.084,-0.552734 z m 0.26953,5.845703 0.39453,0.392578 7.23438,6.707031 -0.0312,0.04687 c 0.0262,0.05674 0.0427,0.115084 0.0488,0.177735 0.0141,0.164733 -0.0413,0.327452 -0.1543,0.449218 -0.12711,0.132758 -0.30588,0.201172 -0.48242,0.201172 -0.0495,0 -0.0971,-0.0035 -0.14453,-0.01367 l -0.008,0.0098 -0.21094,-0.0957 -7.06055,-4.261719 0.0332,-0.134766 0.19727,-0.01953 -0.1875,-0.0293 c 0.14022,-0.920929 0.24397,-1.88096 0.31055,-2.855468 l 0.0137,-0.181641 0.0469,-0.392578 z m -1.08984,6.716797 0.33594,0.365234 3.45117,4.59375 -0.0371,0.0332 c 0.0132,0.0556 0.0148,0.113873 0.01,0.171875 -0.0141,0.164644 -0.0983,0.317823 -0.23243,0.419922 -0.11601,0.08746 -0.25626,0.128906 -0.39648,0.128906 l -0.002,0 c -0.0868,0 -0.17132,-0.01687 -0.25,-0.04883 l -0.0176,0.01367 -0.1836,-0.132812 -3.55859,-3.078125 0.041,-0.138672 0.19921,0.01758 -0.17382,-0.07422 c 0.25018,-0.589446 0.47805,-1.20279 0.67578,-1.824219 l 0.13867,-0.447265 z"
       style="fill:#ffffff;fill-opacity:1;fill-rule:nonzero;stroke:none"
       inkscape:connector-curvature="0" />
    <path
       d="m 211.71201,15.470988 0.66177,0 c 0.42571,0 0.70212,-0.08777 0.70212,-0.531637 0,-0.386371 -0.34702,-0.498347 -0.70212,-0.498347 l -0.66177,0 0,1.029984 z m -0.55686,-1.466794 1.30639,0 c 0.78081,0 1.1692,0.315754 1.1692,0.960377 0,0.547778 -0.34602,0.944236 -0.87765,0.944236 l 0.96744,1.508155 -0.58813,0 -0.95231,-1.508155 -0.46808,0 0,1.508155 -0.55484,0 0,-3.412768 -0.002,0 z m 1.12077,4.1845 c 1.33868,0 2.34647,-1.079416 2.34647,-2.474585 0,-1.394161 -1.0088,-2.475594 -2.34647,-2.475594 -1.3538,0 -2.3626,1.079415 -2.3626,2.475594 0,1.394161 1.0088,2.474585 2.3626,2.474585 z m -0.008,-5.385981 c 1.604,0 2.9114,1.306396 2.9114,2.911396 0,1.603991 -1.3064,2.910386 -2.9114,2.910386 -1.605,0 -2.91139,-1.306395 -2.91139,-2.910386 8.1e-4,-1.605 1.3074,-2.911396 2.91139,-2.911396"
       style="fill:#ffffff;fill-opacity:1;fill-rule:nonzero;stroke:none"
       id="path4940"
       inkscape:connector-curvature="0" />
  </g>
</svg>
