<?xml version="1.0" encoding="UTF-8" standalone="no"?>
<!-- Created with Inkscape (http://www.inkscape.org/) -->

<svg
   xmlns:dc="http://purl.org/dc/elements/1.1/"
   xmlns:cc="http://creativecommons.org/ns#"
   xmlns:rdf="http://www.w3.org/1999/02/22-rdf-syntax-ns#"
   xmlns:svg="http://www.w3.org/2000/svg"
   xmlns="http://www.w3.org/2000/svg"
   xmlns:sodipodi="http://sodipodi.sourceforge.net/DTD/sodipodi-0.dtd"
   xmlns:inkscape="http://www.inkscape.org/namespaces/inkscape"
   width="38.100002mm"
   height="11.288889mm"
   viewBox="0 0 135.00001 40"
   id="svg2"
   version="1.1"
   inkscape:version="0.91 r13725"
   sodipodi:docname="csic_logo1.svg"
   inkscape:export-filename="csic_logo.png"
   inkscape:export-xdpi="600"
   inkscape:export-ydpi="600">
  <defs
     id="defs4" />
  <sodipodi:namedview
     id="base"
     pagecolor="#ffffff"
     bordercolor="#666666"
     borderopacity="1.0"
     inkscape:pageopacity="0.0"
     inkscape:pageshadow="2"
     inkscape:zoom="3.959798"
     inkscape:cx="130.51662"
     inkscape:cy="38.708228"
     inkscape:document-units="px"
     inkscape:current-layer="layer1"
     showgrid="false"
     fit-margin-top="0"
     fit-margin-left="0"
     fit-margin-right="0"
     fit-margin-bottom="0"
     inkscape:window-width="1920"
     inkscape:window-height="1017"
     inkscape:window-x="-8"
     inkscape:window-y="-8"
     inkscape:window-maximized="1" />
  <metadata
     id="metadata7">
    <rdf:RDF>
      <cc:Work
         rdf:about="">
        <dc:format>image/svg+xml</dc:format>
        <dc:type
           rdf:resource="http://purl.org/dc/dcmitype/StillImage" />
        <dc:title></dc:title>
      </cc:Work>
    </rdf:RDF>
  </metadata>
  <g
     inkscape:label="BG"
     inkscape:groupmode="layer"
     id="layer1"
     transform="translate(-247.71774,-207.4741)">
    <g
       transform="matrix(1.0964645,0,0,-0.82175683,247.13053,247.60892)"
       inkscape:label="ink_ext_XXXXXX"
       id="g4144">
      <path
         d="m 0.535547,0.164063 123.123003,0 0,48.6762 -123.123003,0 0,-48.6762 z"
         style="fill:#ffffff;fill-opacity:1;fill-rule:nonzero;stroke:none"
         id="path4148"
         inkscape:connector-curvature="0" />
    </g>
  </g>
  <g
     inkscape:groupmode="layer"
     id="layer3"
     inkscape:label="logo"
     transform="translate(-10.383868,-11.2488)">
    <g
       transform="matrix(1.25,0,0,-1.25,1.8462442,60.99955)"
       id="g4404">
      <path
         inkscape:connector-curvature="0"
         id="path4150"
         style="fill:#231f20;fill-opacity:1;fill-rule:nonzero;stroke:none"
         d="m 18.5258,14.8477 -0.2449,-0.4102 -0.045,0.0293 c 0.0086,0.0332 0.0145,0.0566 0.0145,0.0703 0,0.0508 -0.0723,0.1055 -0.2129,0.1777 -0.1953,0.0977 -0.4102,0.1387 -0.6406,0.1387 -0.3086,0 -0.5625,-0.084 -0.7559,-0.2558 -0.198,-0.1758 -0.2937,-0.4043 -0.2937,-0.6817 0,-0.2754 0.1004,-0.5058 0.3054,-0.6894 0.1985,-0.1817 0.4395,-0.2735 0.7325,-0.2735 0.2832,0 0.5332,0.0879 0.748,0.25 0.0996,0.0762 0.1477,0.125 0.1477,0.1563 0,0.0195 -0.009,0.0449 -0.0286,0.0801 l 0.0391,0.0312 0.2988,-0.3613 -0.0429,-0.0332 c -0.0313,0.0312 -0.0547,0.0429 -0.0762,0.0429 -0.0117,0 -0.034,-0.0117 -0.0625,-0.0371 -0.1035,-0.0722 -0.1863,-0.1328 -0.2547,-0.1699 -0.0695,-0.0371 -0.1398,-0.0703 -0.2207,-0.0957 -0.166,-0.0586 -0.3488,-0.0879 -0.5449,-0.0879 -0.386,0 -0.6965,0.1055 -0.9348,0.3164 -0.2539,0.2266 -0.3789,0.5098 -0.3789,0.8594 0,0.2754 0.0781,0.5059 0.2363,0.7109 0.2442,0.3106 0.6153,0.4688 1.1094,0.4688 0.3223,0 0.6379,-0.084 0.9426,-0.2617 0.0203,-0.0078 0.034,-0.0098 0.041,-0.0098 0.0145,0 0.0418,0.0156 0.0781,0.0625 l 0.0438,-0.0273" />
      <path
         inkscape:connector-curvature="0"
         id="path4152"
         style="fill:#231f20;fill-opacity:1;fill-rule:nonzero;stroke:none"
         d="m 20.0453,14.6777 c 0.3301,0 0.5988,-0.0839 0.8027,-0.2636 0.2188,-0.1797 0.3262,-0.4219 0.3262,-0.7227 0,-0.1875 -0.0527,-0.3633 -0.159,-0.5215 -0.2011,-0.291 -0.5246,-0.4414 -0.9679,-0.4414 -0.3301,0 -0.5938,0.0879 -0.7989,0.2578 -0.2175,0.1836 -0.3261,0.4239 -0.3261,0.7168 0,0.1953 0.0539,0.3731 0.1582,0.5313 0.1133,0.166 0.2707,0.2871 0.4726,0.3594 0.1399,0.0546 0.3028,0.08 0.4922,0.0839 m 0,-0.1953 c -0.2723,0 -0.4902,-0.0801 -0.6543,-0.248 -0.1445,-0.1485 -0.2187,-0.3242 -0.2187,-0.5313 0,-0.2129 0.0742,-0.3867 0.2187,-0.5332 0.1641,-0.164 0.3828,-0.2519 0.6563,-0.2519 0.2773,0 0.4961,0.0879 0.6582,0.2519 0.1457,0.1465 0.2187,0.3164 0.2187,0.5215 0,0.2188 -0.073,0.3984 -0.2187,0.543 -0.1641,0.164 -0.3848,0.2441 -0.6602,0.248" />
      <path
         inkscape:connector-curvature="0"
         id="path4154"
         style="fill:#231f20;fill-opacity:1;fill-rule:nonzero;stroke:none"
         d="m 21.8324,14.3438 0,-1.3907 c 0,-0.041 0.0078,-0.0742 0.0215,-0.0957 0.0137,-0.0156 0.041,-0.0351 0.084,-0.041 l 0,-0.0488 -0.4102,0 0,0.0488 c 0.045,0.0059 0.0723,0.0254 0.086,0.041 0.0117,0.0215 0.0226,0.0547 0.0226,0.0957 l 0,1.4942 c 0,0.0527 -0.0109,0.084 -0.0234,0.0996 -0.0149,0.0176 -0.0422,0.0332 -0.0852,0.0469 l 0,0.039 0.6075,0 0,-0.039 c -0.0567,-0.0235 -0.0879,-0.0508 -0.0879,-0.0899 0,-0.0332 0.0207,-0.0684 0.0625,-0.1211 l 1.1035,-1.2344 0,1.2989 c 0,0.0527 -0.0098,0.084 -0.0242,0.0996 -0.0149,0.0176 -0.0422,0.0332 -0.0852,0.0469 l 0,0.039 0.4121,0 0,-0.039 C 23.4742,14.5801 23.4457,14.5645 23.432,14.5469 23.4184,14.5313 23.4105,14.5 23.4105,14.4473 l 0,-1.4942 c 0,-0.041 0.0079,-0.0742 0.0208,-0.0957 0.0136,-0.0156 0.0417,-0.0351 0.0847,-0.041 l 0,-0.0488 -0.489,0 0,0.0488 c 0.0593,0.0098 0.0886,0.0371 0.0886,0.0664 0,0.0274 -0.0273,0.0664 -0.0801,0.127 l -1.2031,1.334" />
      <path
         inkscape:connector-curvature="0"
         id="path4156"
         style="fill:#231f20;fill-opacity:1;fill-rule:nonzero;stroke:none"
         d="m 25.6898,14.5371 -0.1835,-0.3594 -0.0391,0.0176 c 0.0039,0.0332 0.007,0.0567 0.007,0.0684 0,0.0254 -0.0363,0.0566 -0.1086,0.0976 -0.1504,0.0801 -0.3367,0.1211 -0.5574,0.1211 -0.1769,0 -0.3273,-0.0332 -0.4504,-0.0976 -0.123,-0.0684 -0.1836,-0.1621 -0.1836,-0.2793 0,-0.0489 0.0149,-0.1016 0.0461,-0.1465 0.0301,-0.0391 0.0711,-0.0703 0.125,-0.0879 0.0516,-0.0176 0.1082,-0.0293 0.1699,-0.0371 0.0614,0 0.1903,-0.0117 0.3914,-0.0176 0.17,-0.0059 0.2969,-0.0137 0.3809,-0.0312 0.0859,-0.0137 0.1594,-0.043 0.2207,-0.0782 0.0664,-0.0312 0.1172,-0.0898 0.1543,-0.1582 0.0391,-0.0664 0.0578,-0.1425 0.0578,-0.2246 0,-0.1758 -0.0723,-0.3105 -0.2121,-0.4121 -0.168,-0.1211 -0.3926,-0.1836 -0.6719,-0.1836 -0.1394,0 -0.282,0.0254 -0.4355,0.0645 -0.1524,0.041 -0.291,0.0976 -0.4207,0.1738 -0.0207,0.0117 -0.0332,0.0156 -0.041,0.0156 -0.0168,0 -0.043,-0.0195 -0.0762,-0.0625 l -0.0363,0.0293 0.2089,0.3535 0.043,-0.0195 c -0.0039,-0.0176 -0.0066,-0.0254 -0.0086,-0.0293 -0.0051,-0.0195 -0.007,-0.0312 -0.007,-0.0469 0,-0.0312 0.0547,-0.0742 0.1699,-0.1328 0.1895,-0.1015 0.3887,-0.1562 0.5938,-0.1562 0.1875,0 0.3457,0.0332 0.4707,0.0996 0.0578,0.0293 0.1066,0.0762 0.1406,0.125 0.0344,0.0566 0.0527,0.1113 0.0527,0.1699 0,0.0488 -0.0156,0.0996 -0.0449,0.1426 -0.0293,0.0429 -0.0703,0.0683 -0.1172,0.0898 -0.0469,0.0176 -0.0945,0.0254 -0.1543,0.0352 -0.0547,0.0019 -0.1601,0.0117 -0.3164,0.0176 -0.1836,0.0078 -0.3125,0.0175 -0.3926,0.0253 -0.0781,0.0118 -0.1531,0.0274 -0.2246,0.0528 -0.0859,0.0312 -0.1601,0.0879 -0.2117,0.1582 -0.0566,0.0762 -0.0832,0.1621 -0.0832,0.2637 0,0.1796 0.082,0.3183 0.2441,0.4238 0.1653,0.1035 0.375,0.1562 0.6309,0.1562 0.2336,0 0.4668,-0.0527 0.7012,-0.1562 0.0383,-0.0176 0.0586,-0.0215 0.0625,-0.0215 0.0176,0 0.039,0.0176 0.0625,0.0625 l 0.0429,-0.0254" />
      <path
         inkscape:connector-curvature="0"
         id="path4158"
         style="fill:#231f20;fill-opacity:1;fill-rule:nonzero;stroke:none"
         d="m 26.3715,13.6445 0,-0.6953 1.1523,0 c 0.0469,0 0.0793,0.0039 0.0996,0.0235 0.0207,0.0097 0.0352,0.041 0.045,0.082 l 0.0449,0 0,-0.3906 -0.0449,0 c -0.0098,0.039 -0.0243,0.0664 -0.043,0.0879 -0.0195,0.0078 -0.0508,0.0156 -0.0996,0.0156 l -1.4981,0 0,0.0488 c 0.043,0.0059 0.0723,0.0254 0.086,0.041 0.0136,0.0215 0.0195,0.0547 0.0195,0.0957 l 0,1.4942 c 0,0.0527 -0.0059,0.084 -0.0203,0.0996 -0.0137,0.0176 -0.0422,0.0332 -0.0852,0.0469 l 0,0.039 1.4883,0 c 0.0461,0 0.0781,0.0098 0.0977,0.0254 0.0195,0.0137 0.0343,0.0391 0.0429,0.0859 l 0.0469,0 0,-0.3964 -0.0469,0 c -0.0086,0.0449 -0.0234,0.0722 -0.0429,0.0898 -0.0196,0.0098 -0.0528,0.0176 -0.0977,0.0176 l -1.1445,0 0,-0.6309 0.7277,0 c 0.0457,0 0.0801,0.0098 0.1004,0.0215 0.0176,0.0156 0.0332,0.043 0.043,0.082 l 0.0449,0 0,-0.3906 -0.0449,0 c -0.0098,0.0449 -0.0254,0.0723 -0.0457,0.0859 -0.0196,0.0137 -0.0528,0.0215 -0.0977,0.0215 l -0.7277,0" />
      <path
         inkscape:connector-curvature="0"
         id="path4160"
         style="fill:#231f20;fill-opacity:1;fill-rule:nonzero;stroke:none"
         d="m 27.8695,12.8262 0.1875,0.3984 0.043,-0.0215 c -0.0098,-0.0332 -0.0137,-0.0644 -0.0137,-0.0742 0,-0.0215 0.0098,-0.0351 0.0313,-0.0527 0.0547,-0.043 0.1308,-0.084 0.2246,-0.1094 0.0957,-0.0273 0.1894,-0.0488 0.2812,-0.0488 0.0821,0 0.1575,0.0215 0.2219,0.0508 0.0633,0.0273 0.1082,0.0683 0.1367,0.123 0.0301,0.0488 0.045,0.1582 0.045,0.3145 l 0,1.041 c 0,0.0527 -0.0059,0.084 -0.0207,0.0996 -0.0157,0.0176 -0.045,0.0332 -0.084,0.0469 l 0,0.039 0.4472,0 0,-0.039 C 29.3285,14.5801 29.2992,14.5645 29.2875,14.5469 29.2719,14.5313 29.2652,14.5 29.2652,14.4473 l 0,-1.0879 c 0,-0.1055 -0.0089,-0.1914 -0.0265,-0.2559 -0.0176,-0.0683 -0.0449,-0.123 -0.084,-0.1738 -0.0527,-0.0625 -0.1238,-0.1094 -0.2137,-0.1445 -0.0918,-0.0352 -0.1887,-0.0567 -0.2961,-0.0567 -0.0879,0 -0.1914,0.0117 -0.3086,0.0332 -0.1191,0.0313 -0.2168,0.0606 -0.3066,0.0938 -0.0164,0.0097 -0.0313,0.0175 -0.0438,0.0175 -0.0265,0 -0.0507,-0.0195 -0.0734,-0.0605 l -0.043,0.0137" />
      <path
         inkscape:connector-curvature="0"
         id="path4162"
         style="fill:#231f20;fill-opacity:1;fill-rule:nonzero;stroke:none"
         d="m 30.8109,14.6777 c 0.3313,0 0.5996,-0.0839 0.802,-0.2636 0.2176,-0.1797 0.3269,-0.4219 0.3269,-0.7227 0,-0.1875 -0.0527,-0.3633 -0.1601,-0.5215 -0.2012,-0.291 -0.5234,-0.4414 -0.9656,-0.4414 -0.3293,0 -0.5969,0.0879 -0.7981,0.2578 -0.2187,0.1836 -0.3281,0.4239 -0.3281,0.7168 0,0.1953 0.0547,0.3731 0.1594,0.5313 0.1121,0.166 0.2683,0.2871 0.4707,0.3594 0.1414,0.0546 0.3035,0.08 0.4929,0.0839 m 0,-0.1953 c -0.2734,0 -0.491,-0.0801 -0.655,-0.248 -0.1438,-0.1485 -0.218,-0.3242 -0.218,-0.5313 0,-0.2129 0.0742,-0.3867 0.218,-0.5332 0.164,-0.164 0.3836,-0.2519 0.6582,-0.2519 0.2742,0 0.4941,0.0879 0.6582,0.2519 0.1453,0.1465 0.2168,0.3164 0.2168,0.5215 0,0.2188 -0.0715,0.3984 -0.2168,0.543 -0.1653,0.164 -0.386,0.2441 -0.6614,0.248" />
      <path
         inkscape:connector-curvature="0"
         id="path4164"
         style="fill:#231f20;fill-opacity:1;fill-rule:nonzero;stroke:none"
         d="M 35.3305,14.9082 35.0922,14.4727 35.0453,14.5 c 0.0195,0.0488 0.0293,0.0781 0.0293,0.0938 0,0.0312 -0.041,0.0664 -0.123,0.1035 -0.2254,0.1074 -0.461,0.1562 -0.711,0.1562 -0.2051,0 -0.3836,-0.0371 -0.5371,-0.1133 -0.0722,-0.0371 -0.1308,-0.082 -0.1726,-0.1464 -0.0422,-0.0606 -0.0637,-0.1231 -0.0637,-0.1895 0,-0.0566 0.0168,-0.1094 0.05,-0.1563 0.034,-0.0527 0.075,-0.0878 0.1297,-0.1132 0.0625,-0.0254 0.1308,-0.0489 0.2129,-0.0547 0.082,-0.0137 0.2148,-0.0215 0.4004,-0.0235 0.2558,-0.0097 0.4367,-0.0214 0.5468,-0.0351 0.1094,-0.0176 0.1973,-0.0469 0.2715,-0.0899 0.1875,-0.0996 0.2824,-0.2617 0.2824,-0.4765 0,-0.2051 -0.0871,-0.3789 -0.2578,-0.5059 -0.1906,-0.1484 -0.4492,-0.2207 -0.7832,-0.2207 -0.1926,0 -0.3586,0.0235 -0.5031,0.0606 -0.1445,0.0332 -0.3145,0.1074 -0.5145,0.2148 -0.0539,0.0254 -0.0871,0.0391 -0.0968,0.0391 -0.0164,0 -0.043,-0.0235 -0.0801,-0.0606 l -0.0449,0.0274 0.25,0.416 0.0488,-0.0274 c -0.0203,-0.041 -0.032,-0.0703 -0.032,-0.0859 0,-0.0391 0.0711,-0.0898 0.2136,-0.168 0.127,-0.0683 0.2493,-0.1113 0.3692,-0.1406 0.1172,-0.0312 0.2441,-0.0508 0.3828,-0.0508 0.2824,0 0.4961,0.0645 0.6406,0.1856 0.0977,0.0859 0.1457,0.1836 0.1457,0.2968 0,0.1465 -0.082,0.252 -0.25,0.3047 -0.0519,0.0215 -0.1086,0.0313 -0.1633,0.0391 -0.0605,0.0059 -0.2187,0.0117 -0.4863,0.0234 -0.1914,0.0039 -0.3426,0.0196 -0.4512,0.043 -0.1074,0.0195 -0.2031,0.0527 -0.289,0.1035 -0.0801,0.043 -0.1406,0.1074 -0.1864,0.1856 -0.046,0.0781 -0.0675,0.1679 -0.0675,0.2617 0,0.166 0.0605,0.2969 0.1777,0.418 0.0898,0.082 0.2141,0.1523 0.3691,0.1933 0.1563,0.0567 0.3282,0.0762 0.5149,0.0762 0.1531,0 0.2949,-0.0176 0.4226,-0.0488 0.1309,-0.0313 0.2805,-0.0782 0.4415,-0.1563 0.039,-0.0117 0.0625,-0.0215 0.0722,-0.0215 0.0188,0 0.0449,0.0215 0.0801,0.0684 l 0.0469,-0.0176" />
      <path
         inkscape:connector-curvature="0"
         id="path4166"
         style="fill:#231f20;fill-opacity:1;fill-rule:nonzero;stroke:none"
         d="m 36.0023,14.4473 0,-0.961 c 0,-0.1445 0.011,-0.25 0.0235,-0.3027 0.0137,-0.0547 0.0461,-0.1074 0.0957,-0.1406 0.0988,-0.0821 0.2707,-0.125 0.5098,-0.125 0.2687,0 0.4511,0.0547 0.546,0.1504 0.034,0.039 0.0567,0.08 0.0692,0.1347 0.0098,0.0567 0.0168,0.1504 0.0168,0.2832 l 0,0.961 c 0,0.0507 -0.009,0.082 -0.0227,0.0996 -0.0136,0.0176 -0.041,0.0332 -0.0847,0.0469 l 0,0.039 0.4089,0 0,-0.039 C 37.525,14.5801 37.4965,14.5645 37.484,14.5469 37.4672,14.5313 37.4594,14.5 37.4594,14.4473 l 0,-1.0059 c 0,-0.1738 -0.0137,-0.2949 -0.041,-0.3652 -0.0489,-0.1192 -0.1395,-0.2032 -0.2684,-0.2598 -0.1309,-0.0586 -0.3098,-0.0879 -0.5371,-0.0879 -0.3274,0 -0.5547,0.0625 -0.6867,0.1836 -0.0645,0.0586 -0.1055,0.1231 -0.1289,0.1953 -0.0176,0.0664 -0.0313,0.1817 -0.0313,0.334 l 0,1.0059 c 0,0.0527 -0.0047,0.084 -0.0195,0.0996 -0.0156,0.0176 -0.0449,0.0332 -0.086,0.0469 l 0,0.039 0.4493,0 0,-0.039 c -0.043,-0.0137 -0.0703,-0.0293 -0.084,-0.0469 -0.0125,-0.0176 -0.0235,-0.0489 -0.0235,-0.0996" />
      <path
         inkscape:connector-curvature="0"
         id="path4168"
         style="fill:#231f20;fill-opacity:1;fill-rule:nonzero;stroke:none"
         d="m 38.2758,13.6113 0,-0.6679 c 0,-0.0332 0.0078,-0.0567 0.0234,-0.0782 0.0137,-0.0156 0.0391,-0.0312 0.0781,-0.0429 l 0,-0.0547 -0.4453,0 0,0.0547 c 0.0403,0.0117 0.0684,0.0273 0.084,0.0429 0.0149,0.0215 0.0215,0.045 0.0215,0.0782 l 0,1.5293 c 0,0.0312 -0.0066,0.0586 -0.0215,0.0742 -0.0176,0.0176 -0.0437,0.0293 -0.084,0.041 l 0,0.0449 1.0332,0 c 0.136,0 0.2383,-0.0039 0.3118,-0.0137 0.0683,-0.0156 0.1316,-0.0371 0.1902,-0.0703 0.0683,-0.0429 0.1191,-0.0996 0.1582,-0.1758 0.0391,-0.0761 0.0598,-0.1601 0.0598,-0.2539 0,-0.0898 -0.0207,-0.1738 -0.0579,-0.2461 -0.039,-0.0742 -0.0918,-0.1328 -0.1621,-0.1738 C 39.4086,13.6641 39.3441,13.6426 39.2719,13.6289 39.2035,13.6152 39.1,13.6113 38.9652,13.6113 l -0.6894,0 z m 0,0.1778 0.6574,0 c 0.116,0 0.207,0.0078 0.2606,0.0136 0.0566,0.0118 0.1035,0.0313 0.1464,0.0567 0.0782,0.0508 0.1153,0.1386 0.1153,0.2636 0,0.125 -0.0371,0.2129 -0.1153,0.2637 -0.0429,0.0235 -0.0898,0.0488 -0.1453,0.0528 -0.0539,0.0097 -0.1437,0.0156 -0.2617,0.0156 l -0.6574,0 0,-0.666" />
      <path
         inkscape:connector-curvature="0"
         id="path4170"
         style="fill:#231f20;fill-opacity:1;fill-rule:nonzero;stroke:none"
         d="m 40.3246,13.6445 0,-0.6953 1.1516,0 c 0.0476,0 0.0801,0.0039 0.1004,0.0235 0.0187,0.0097 0.0332,0.041 0.0429,0.082 l 0.0469,0 0,-0.3906 -0.0469,0 c -0.0097,0.039 -0.0242,0.0664 -0.0429,0.0879 -0.0203,0.0078 -0.0528,0.0156 -0.1004,0.0156 l -1.4981,0 0,0.0488 c 0.0449,0.0059 0.0731,0.0254 0.086,0.041 0.0144,0.0215 0.0222,0.0547 0.0222,0.0957 l 0,1.4942 c 0,0.0527 -0.0078,0.084 -0.0234,0.0996 -0.0137,0.0176 -0.0418,0.0332 -0.0848,0.0469 l 0,0.039 1.4871,0 c 0.0481,0 0.0801,0.0098 0.0977,0.0254 0.0195,0.0137 0.0363,0.0391 0.0469,0.0859 l 0.0441,0 0,-0.3964 -0.0441,0 c -0.0106,0.0449 -0.0274,0.0722 -0.0469,0.0898 -0.0176,0.0098 -0.0496,0.0176 -0.0977,0.0176 l -1.1406,0 0,-0.6309 0.7266,0 c 0.0461,0 0.0761,0.0098 0.0968,0.0215 0.0204,0.0156 0.036,0.043 0.0458,0.082 l 0.0468,0 0,-0.3906 -0.0468,0 c -0.0098,0.0449 -0.0254,0.0723 -0.0458,0.0859 -0.0207,0.0137 -0.0507,0.0215 -0.0968,0.0215 l -0.7266,0" />
      <path
         inkscape:connector-curvature="0"
         id="path4172"
         style="fill:#231f20;fill-opacity:1;fill-rule:nonzero;stroke:none"
         d="m 42.3578,13.6152 0,-0.6621 c 0,-0.041 0.0039,-0.0742 0.0176,-0.0957 0.0168,-0.0156 0.0469,-0.0351 0.0859,-0.041 l 0,-0.0488 -0.4472,0 0,0.0488 c 0.0429,0.0059 0.0703,0.0254 0.0851,0.041 0.0117,0.0215 0.0203,0.0547 0.0203,0.0957 l 0,1.4942 c 0,0.0527 -0.0097,0.084 -0.0234,0.0996 -0.0156,0.0176 -0.0418,0.0332 -0.082,0.0469 l 0,0.039 1.1035,0 c 0.1269,0 0.2297,-0.0058 0.3086,-0.0254 0.0801,-0.0136 0.1523,-0.0449 0.207,-0.0859 0.1309,-0.0918 0.1953,-0.2285 0.1953,-0.4043 0,-0.1426 -0.0476,-0.252 -0.1375,-0.3359 -0.089,-0.084 -0.2219,-0.1368 -0.3957,-0.1524 l 0.4688,-0.7422 c 0.0168,-0.0273 0.0332,-0.039 0.048,-0.0527 0.0164,-0.0117 0.0457,-0.0137 0.084,-0.0176 l 0,-0.0488 -0.4609,0 0,0.0488 c 0.0457,0.0059 0.0652,0.0195 0.0652,0.0391 0,0.0136 -0.0125,0.0371 -0.0371,0.084 l -0.4297,0.6757 -0.6758,0 z m 0,0.1817 0.7082,0 c 0.1153,0 0.2,0.0058 0.2586,0.0078 0.0547,0.0117 0.1055,0.0293 0.1426,0.0488 0.0898,0.0488 0.1328,0.1367 0.1328,0.2559 0,0.1152 -0.0398,0.2051 -0.123,0.2636 -0.0743,0.0567 -0.202,0.0821 -0.3848,0.0821 l -0.7344,0 0,-0.6582" />
      <path
         inkscape:connector-curvature="0"
         id="path4174"
         style="fill:#231f20;fill-opacity:1;fill-rule:nonzero;stroke:none"
         d="m 44.3012,12.9531 0,1.4942 c 0,0.0527 -0.0059,0.084 -0.0203,0.0996 -0.0149,0.0176 -0.043,0.0332 -0.0871,0.0469 l 0,0.039 0.4531,0 0,-0.039 C 44.602,14.5801 44.5746,14.5645 44.5609,14.5469 44.5473,14.5313 44.5375,14.5 44.5375,14.4473 l 0,-1.4942 c 0,-0.041 0.0098,-0.0742 0.0234,-0.0957 0.0137,-0.0156 0.0411,-0.0351 0.086,-0.041 l 0,-0.0488 -0.4531,0 0,0.0488 c 0.0441,0.0059 0.0722,0.0254 0.0871,0.041 0.0144,0.0215 0.0203,0.0547 0.0203,0.0957" />
      <path
         inkscape:connector-curvature="0"
         id="path4176"
         style="fill:#231f20;fill-opacity:1;fill-rule:nonzero;stroke:none"
         d="m 46.1234,14.6777 c 0.3321,0 0.6016,-0.0839 0.8039,-0.2636 0.2157,-0.1797 0.325,-0.4219 0.325,-0.7227 0,-0.1875 -0.0527,-0.3633 -0.1601,-0.5215 -0.2012,-0.291 -0.5215,-0.4414 -0.9649,-0.4414 -0.33,0 -0.5957,0.0879 -0.7988,0.2578 -0.2187,0.1836 -0.3281,0.4239 -0.3281,0.7168 0,0.1953 0.0547,0.3731 0.1601,0.5313 0.1114,0.166 0.2708,0.2871 0.4708,0.3594 0.1386,0.0546 0.3046,0.08 0.4921,0.0839 m 0,-0.1953 c -0.2714,0 -0.4882,-0.0801 -0.6531,-0.248 -0.1437,-0.1485 -0.2199,-0.3242 -0.2199,-0.5313 0,-0.2129 0.0762,-0.3867 0.2199,-0.5332 0.1649,-0.164 0.3848,-0.2519 0.657,-0.2519 0.2735,0 0.4942,0.0879 0.6582,0.2519 0.1458,0.1465 0.2149,0.3164 0.2149,0.5215 0,0.2188 -0.0691,0.3984 -0.2149,0.543 -0.166,0.164 -0.3855,0.2441 -0.6621,0.248" />
      <path
         inkscape:connector-curvature="0"
         id="path4178"
         style="fill:#231f20;fill-opacity:1;fill-rule:nonzero;stroke:none"
         d="m 47.9496,13.6152 0,-0.6621 c 0,-0.041 0.0078,-0.0742 0.0227,-0.0957 0.0136,-0.0156 0.0418,-0.0351 0.0859,-0.041 l 0,-0.0488 -0.4523,0 0,0.0488 c 0.0429,0.0059 0.0734,0.0254 0.0859,0.041 0.0137,0.0215 0.0195,0.0547 0.0195,0.0957 l 0,1.4942 c 0,0.0527 -0.0058,0.084 -0.0195,0.0996 -0.0137,0.0176 -0.043,0.0332 -0.0859,0.0469 l 0,0.039 1.1074,0 c 0.125,0 0.2285,-0.0058 0.3078,-0.0254 0.0801,-0.0136 0.1473,-0.0449 0.2051,-0.0859 0.1297,-0.0918 0.1941,-0.2285 0.1941,-0.4043 0,-0.1426 -0.0449,-0.252 -0.1328,-0.3359 -0.0926,-0.084 -0.2227,-0.1368 -0.3965,-0.1524 l 0.4649,-0.7422 c 0.0175,-0.0273 0.0351,-0.039 0.0488,-0.0527 0.0176,-0.0117 0.0469,-0.0137 0.0879,-0.0176 l 0,-0.0488 -0.4629,0 0,0.0488 c 0.0449,0.0059 0.0656,0.0195 0.0656,0.0391 0,0.0136 -0.0129,0.0371 -0.039,0.084 l -0.4309,0.6757 -0.6758,0 z m 0,0.1817 0.709,0 c 0.1144,0 0.2012,0.0058 0.2578,0.0078 0.0578,0.0117 0.1047,0.0293 0.1465,0.0488 0.0851,0.0488 0.132,0.1367 0.132,0.2559 0,0.1152 -0.041,0.2051 -0.1261,0.2636 -0.0723,0.0567 -0.2012,0.0821 -0.3829,0.0821 l -0.7363,0 0,-0.6582" />
      <path
         inkscape:connector-curvature="0"
         id="path4180"
         style="fill:#231f20;fill-opacity:1;fill-rule:nonzero;stroke:none"
         d="m 50.7426,12.9531 0,1.4942 c 0,0.0507 -0.0059,0.082 -0.0184,0.0996 -0.0129,0.0176 -0.0429,0.0332 -0.0859,0.0469 l 0,0.039 0.9402,0 c 0.252,0 0.4426,-0.0293 0.5656,-0.084 0.1532,-0.0761 0.2723,-0.2011 0.3582,-0.3691 0.0762,-0.1504 0.1153,-0.3106 0.1153,-0.4766 0,-0.1992 -0.0496,-0.3769 -0.1524,-0.5429 -0.0839,-0.1446 -0.1941,-0.2422 -0.3269,-0.3047 -0.132,-0.0606 -0.3195,-0.0879 -0.5598,-0.0879 l -0.9402,0 0,0.0488 c 0.043,0.0059 0.073,0.0254 0.0859,0.041 0.0125,0.0215 0.0184,0.0547 0.0184,0.0957 m 0.2383,-0.0039 0.5851,0 c 0.2215,0 0.3836,0.0332 0.4871,0.0938 0.1094,0.0644 0.1953,0.164 0.252,0.3086 0.0422,0.1035 0.0625,0.2246 0.0625,0.3515 0,0.2246 -0.0594,0.4102 -0.1738,0.5469 -0.0665,0.0742 -0.1446,0.127 -0.2403,0.1582 -0.0957,0.0313 -0.2246,0.0469 -0.3875,0.0469 l -0.5851,0 0,-1.5059" />
      <path
         inkscape:connector-curvature="0"
         id="path4182"
         style="fill:#231f20;fill-opacity:1;fill-rule:nonzero;stroke:none"
         d="m 53.3141,13.6445 0,-0.6953 1.1531,0 c 0.048,0 0.0801,0.0039 0.0996,0.0235 0.0195,0.0097 0.0352,0.041 0.0449,0.082 l 0.0442,0 0,-0.3906 -0.0442,0 c -0.0097,0.039 -0.0254,0.0664 -0.0429,0.0879 -0.0196,0.0078 -0.0528,0.0156 -0.1016,0.0156 l -1.4981,0 0,0.0488 c 0.0469,0.0059 0.0743,0.0254 0.0879,0.041 0.0129,0.0215 0.0215,0.0547 0.0215,0.0957 l 0,1.4942 c 0,0.0527 -0.0086,0.084 -0.0234,0.0996 -0.0137,0.0176 -0.0391,0.0332 -0.086,0.0469 l 0,0.039 1.4883,0 c 0.0469,0 0.0801,0.0098 0.0969,0.0254 0.0223,0.0137 0.034,0.0391 0.0469,0.0859 l 0.0449,0 0,-0.3964 -0.0449,0 c -0.0129,0.0449 -0.0246,0.0722 -0.0469,0.0898 -0.0168,0.0098 -0.052,0.0176 -0.0969,0.0176 l -1.1433,0 0,-0.6309 0.7273,0 c 0.0449,0 0.0781,0.0098 0.0996,0.0215 0.0195,0.0156 0.0332,0.043 0.043,0.082 l 0.048,0 0,-0.3906 -0.048,0 c -0.0098,0.0449 -0.0235,0.0723 -0.0438,0.0859 -0.0226,0.0137 -0.0539,0.0215 -0.0988,0.0215 l -0.7273,0" />
      <path
         inkscape:connector-curvature="0"
         id="path4184"
         style="fill:#231f20;fill-opacity:1;fill-rule:nonzero;stroke:none"
         d="m 56.0141,12.9688 0,1.8789 c 0,0.0449 -0.0098,0.0781 -0.0235,0.0937 -0.0125,0.0274 -0.039,0.0371 -0.0867,0.0508 l 0,0.0488 0.4774,0 0,-0.0488 c -0.043,-0.0156 -0.0704,-0.0254 -0.0821,-0.0508 -0.0183,-0.0156 -0.0254,-0.0488 -0.0254,-0.0937 l 0,-1.8789 c 0,-0.0508 0.0071,-0.0821 0.0235,-0.1016 0.0129,-0.0176 0.039,-0.0332 0.084,-0.0449 l 0,-0.0547 -0.4774,0 0,0.0547 c 0.0496,0.0117 0.0762,0.0273 0.0887,0.0449 0.0137,0.0195 0.0215,0.0508 0.0215,0.1016" />
      <path
         inkscape:connector-curvature="0"
         id="path4186"
         style="fill:#231f20;fill-opacity:1;fill-rule:nonzero;stroke:none"
         d="m 57.1371,14.3438 0,-1.3907 c 0,-0.041 0.0098,-0.0742 0.0188,-0.0957 0.0164,-0.0156 0.0457,-0.0351 0.0886,-0.041 l 0,-0.0488 -0.4101,0 0,0.0488 c 0.041,0.0059 0.0703,0.0254 0.082,0.041 0.0137,0.0215 0.0227,0.0547 0.0227,0.0957 l 0,1.4942 c 0,0.0527 -0.009,0.084 -0.0227,0.0996 -0.0144,0.0176 -0.041,0.0332 -0.082,0.0469 l 0,0.039 0.6015,0 0,-0.039 c -0.0546,-0.0235 -0.082,-0.0508 -0.082,-0.0899 0,-0.0332 0.0176,-0.0684 0.0645,-0.1211 l 1.0996,-1.2344 0,1.2989 c 0,0.0527 -0.0098,0.084 -0.0254,0.0996 -0.0137,0.0176 -0.041,0.0332 -0.0821,0.0469 l 0,0.039 0.4114,0 0,-0.039 C 58.7758,14.5801 58.7484,14.5645 58.7367,14.5469 58.7211,14.5313 58.7113,14.5 58.7113,14.4473 l 0,-1.4942 c 0,-0.041 0.0098,-0.0742 0.0254,-0.0957 0.0098,-0.0156 0.0391,-0.0351 0.0852,-0.041 l 0,-0.0488 -0.4875,0 0,0.0488 c 0.0578,0.0098 0.0859,0.0371 0.0859,0.0664 0,0.0274 -0.0242,0.0664 -0.082,0.127 l -1.2012,1.334" />
      <path
         inkscape:connector-curvature="0"
         id="path4188"
         style="fill:#231f20;fill-opacity:1;fill-rule:nonzero;stroke:none"
         d="m 60.1176,13.0352 0.5996,1.3691 c 0.0168,0.0352 0.0254,0.0664 0.0254,0.0957 0,0.0508 -0.0332,0.082 -0.0977,0.0938 l 0,0.039 0.4629,0 0,-0.039 C 61.0582,14.5781 61.023,14.5625 61.0004,14.5313 60.982,14.5039 60.9496,14.4414 60.9059,14.3418 l -0.5696,-1.2969 c -0.0293,-0.0625 -0.041,-0.1054 -0.041,-0.1347 0,-0.0547 0.0332,-0.0879 0.0938,-0.0938 l 0,-0.0488 -0.575,0 0,0.0488 c 0.0593,0.0078 0.0925,0.0391 0.0925,0.0938 0,0.0293 -0.0105,0.0722 -0.039,0.1347 l -0.5879,1.2969 c -0.0449,0.0996 -0.0762,0.1641 -0.1004,0.1914 -0.0227,0.0293 -0.0578,0.0449 -0.1008,0.0606 l 0,0.039 0.5117,0 0,-0.039 c -0.0664,-0.0137 -0.0976,-0.043 -0.0976,-0.0938 0,-0.0273 0.0078,-0.0605 0.0265,-0.0957 l 0.5985,-1.3691" />
      <path
         inkscape:connector-curvature="0"
         id="path4190"
         style="fill:#231f20;fill-opacity:1;fill-rule:nonzero;stroke:none"
         d="m 61.7074,13.6445 0,-0.6953 1.1582,0 c 0.0449,0 0.0774,0.0039 0.0938,0.0235 0.0215,0.0097 0.0351,0.041 0.0465,0.082 l 0.0468,0 0,-0.3906 -0.0468,0 c -0.0114,0.039 -0.025,0.0664 -0.0465,0.0879 -0.0164,0.0078 -0.0469,0.0156 -0.0938,0.0156 l -1.5,0 0,0.0488 c 0.041,0.0059 0.0696,0.0254 0.086,0.041 0.0097,0.0215 0.0195,0.0547 0.0195,0.0957 l 0,1.4942 c 0,0.0527 -0.0098,0.084 -0.0215,0.0996 -0.0164,0.0176 -0.0437,0.0332 -0.084,0.0469 l 0,0.039 1.4856,0 c 0.0457,0 0.0781,0.0098 0.1004,0.0254 0.0156,0.0137 0.0332,0.0391 0.041,0.0859 l 0.0445,0 0,-0.3964 -0.0445,0 c -0.0078,0.0449 -0.0254,0.0722 -0.041,0.0898 -0.0223,0.0098 -0.0547,0.0176 -0.1016,0.0176 l -1.1426,0 0,-0.6309 0.7297,0 c 0.0469,0 0.0809,0.0098 0.0984,0.0215 0.0176,0.0156 0.0325,0.043 0.0469,0.082 l 0.0391,0 0,-0.3906 -0.0391,0 c -0.0144,0.0449 -0.0293,0.0723 -0.0508,0.0859 -0.0156,0.0137 -0.0476,0.0215 -0.0945,0.0215 l -0.7297,0" />
      <path
         inkscape:connector-curvature="0"
         id="path4192"
         style="fill:#231f20;fill-opacity:1;fill-rule:nonzero;stroke:none"
         d="m 65.1719,14.5371 -0.1836,-0.3594 -0.0371,0.0176 c 0.0039,0.0332 0.0039,0.0567 0.0039,0.0684 0,0.0254 -0.0332,0.0566 -0.1055,0.0976 -0.1523,0.0801 -0.3398,0.1211 -0.5605,0.1211 -0.1778,0 -0.3262,-0.0332 -0.4512,-0.0976 -0.1231,-0.0684 -0.1836,-0.1621 -0.1836,-0.2793 0,-0.0489 0.0156,-0.1016 0.0469,-0.1465 0.0312,-0.0391 0.0722,-0.0703 0.1269,-0.0879 0.0508,-0.0176 0.1074,-0.0293 0.166,-0.0371 0.0606,0 0.1934,-0.0117 0.3946,-0.0176 0.166,-0.0059 0.2929,-0.0137 0.3808,-0.0312 0.086,-0.0137 0.1582,-0.043 0.2207,-0.0782 0.0645,-0.0312 0.1172,-0.0898 0.1563,-0.1582 0.0351,-0.0664 0.0566,-0.1425 0.0566,-0.2246 0,-0.1758 -0.0703,-0.3105 -0.2129,-0.4121 -0.1679,-0.1211 -0.3925,-0.1836 -0.6718,-0.1836 -0.1407,0 -0.2852,0.0254 -0.4356,0.0645 -0.1504,0.041 -0.291,0.0976 -0.4238,0.1738 -0.0156,0.0117 -0.0293,0.0156 -0.041,0.0156 -0.0157,0 -0.041,-0.0195 -0.0723,-0.0625 l -0.0391,0.0293 0.2129,0.3535 0.0391,-0.0195 C 63.5547,13.2656 63.5547,13.2578 63.5527,13.2539 63.5469,13.2344 63.543,13.2227 63.543,13.207 c 0,-0.0312 0.0566,-0.0742 0.1699,-0.1328 0.1934,-0.1015 0.3906,-0.1562 0.5937,-0.1562 0.1895,0 0.3438,0.0332 0.4668,0.0996 0.0606,0.0293 0.1133,0.0762 0.1465,0.125 0.0352,0.0566 0.0528,0.1113 0.0528,0.1699 0,0.0488 -0.0157,0.0996 -0.045,0.1426 -0.0312,0.0429 -0.0664,0.0683 -0.1211,0.0898 -0.041,0.0176 -0.0957,0.0254 -0.1503,0.0352 -0.0547,0.0019 -0.1622,0.0117 -0.3184,0.0176 -0.1816,0.0078 -0.3125,0.0175 -0.3906,0.0253 -0.0801,0.0118 -0.1524,0.0274 -0.2227,0.0528 -0.0879,0.0312 -0.1601,0.0879 -0.2129,0.1582 -0.0566,0.0762 -0.082,0.1621 -0.082,0.2637 0,0.1796 0.0781,0.3183 0.2402,0.4238 0.1641,0.1035 0.377,0.1562 0.6328,0.1562 0.2344,0 0.4668,-0.0527 0.7012,-0.1562 0.0371,-0.0176 0.0547,-0.0215 0.0625,-0.0215 0.0156,0 0.041,0.0176 0.0645,0.0625 l 0.041,-0.0254" />
      <path
         inkscape:connector-curvature="0"
         id="path4194"
         style="fill:#231f20;fill-opacity:1;fill-rule:nonzero;stroke:none"
         d="m 66.4336,14.4414 0,-1.4883 c 0,-0.041 0.0098,-0.0742 0.0234,-0.0957 0.0137,-0.0156 0.041,-0.0351 0.084,-0.041 l 0,-0.0488 -0.4512,0 0,0.0488 c 0.043,0.0059 0.0723,0.0254 0.0879,0.041 0.0118,0.0215 0.0215,0.0547 0.0215,0.0957 l 0,1.4883 -0.6152,0 c -0.041,0 -0.0762,-0.0039 -0.0918,-0.0195 -0.0234,-0.0137 -0.0352,-0.043 -0.0449,-0.0801 l -0.0489,0 0,0.3887 0.0489,0 c 0.0097,-0.041 0.0215,-0.0703 0.0449,-0.0821 0.0156,-0.0195 0.0508,-0.0234 0.0918,-0.0234 l 1.4609,0 c 0.0449,0 0.0801,0.0039 0.0977,0.0234 0.0215,0.0118 0.0351,0.0411 0.0469,0.0821 l 0.0429,0 0,-0.3887 -0.0429,0 c -0.0118,0.0371 -0.0274,0.0664 -0.0469,0.0801 -0.0196,0.0156 -0.0528,0.0195 -0.0977,0.0195 l -0.6113,0" />
      <path
         inkscape:connector-curvature="0"
         id="path4196"
         style="fill:#231f20;fill-opacity:1;fill-rule:nonzero;stroke:none"
         d="m 67.5664,12.9531 0,1.4942 c 0,0.0527 -0.0098,0.084 -0.0215,0.0996 -0.0176,0.0176 -0.0449,0.0332 -0.0859,0.0469 l 0,0.039 0.4531,0 0,-0.039 C 67.8672,14.5801 67.8359,14.5645 67.8281,14.5469 67.8105,14.5313 67.8027,14.5 67.8027,14.4473 l 0,-1.4942 c 0,-0.041 0.0078,-0.0742 0.0254,-0.0957 0.0078,-0.0156 0.0391,-0.0351 0.084,-0.041 l 0,-0.0488 -0.4531,0 0,0.0488 c 0.041,0.0059 0.0683,0.0254 0.0859,0.041 0.0117,0.0215 0.0215,0.0547 0.0215,0.0957" />
      <path
         inkscape:connector-curvature="0"
         id="path4198"
         style="fill:#231f20;fill-opacity:1;fill-rule:nonzero;stroke:none"
         d="m 70.3184,14.4629 -0.2305,-0.3691 -0.0391,0.0234 c 0.0137,0.0391 0.0215,0.0664 0.0215,0.0762 0,0.0293 -0.0566,0.0781 -0.1582,0.1386 -0.1738,0.0977 -0.3574,0.1407 -0.5469,0.1407 -0.2422,0 -0.4336,-0.0645 -0.5918,-0.1973 -0.1699,-0.1524 -0.2539,-0.3477 -0.2539,-0.584 0,-0.2246 0.0723,-0.4082 0.2305,-0.5527 0.1602,-0.1465 0.3691,-0.2207 0.623,-0.2207 0.127,0 0.254,0.0234 0.3711,0.0644 0.1153,0.0332 0.2149,0.0899 0.293,0.1563 l 0,0.3457 -0.4199,0 c -0.0469,0 -0.082,-0.0059 -0.0957,-0.0235 -0.0215,-0.0136 -0.0371,-0.039 -0.0488,-0.082 l -0.043,0 0,0.3926 0.043,0 c 0.0117,-0.043 0.0273,-0.0703 0.0488,-0.084 0.0137,-0.0156 0.0488,-0.0234 0.0957,-0.0234 l 0.7363,0 0,-0.045 c -0.043,-0.0058 -0.0683,-0.0214 -0.0859,-0.041 -0.0117,-0.0234 -0.0215,-0.0566 -0.0215,-0.0996 l 0,-0.1933 c 0,-0.0508 0.0098,-0.0821 0.0215,-0.0977 0.0176,-0.0215 0.0429,-0.0391 0.0859,-0.0488 l 0,-0.0352 c -0.2871,-0.248 -0.625,-0.375 -1.0117,-0.375 -0.2969,0 -0.543,0.084 -0.7363,0.2442 -0.1075,0.0898 -0.1836,0.1953 -0.2403,0.3164 -0.0644,0.1347 -0.0957,0.2656 -0.0957,0.4082 0,0.209 0.0625,0.3984 0.1895,0.5644 0.1113,0.1485 0.2578,0.2598 0.4453,0.3321 0.1426,0.0488 0.293,0.0742 0.4531,0.0742 0.1387,0 0.2637,-0.0098 0.3789,-0.045 0.1114,-0.0351 0.2481,-0.0937 0.4082,-0.1835 0.0235,-0.0118 0.045,-0.0196 0.0528,-0.0196 0.0117,0 0.041,0.0215 0.08,0.0664 l 0.0411,-0.0234" />
      <path
         inkscape:connector-curvature="0"
         id="path4200"
         style="fill:#231f20;fill-opacity:1;fill-rule:nonzero;stroke:none"
         d="m 71.9824,13.2969 -0.9765,0 -0.1426,-0.3145 c -0.0156,-0.039 -0.0293,-0.0683 -0.0293,-0.0918 0,-0.0351 0.0312,-0.0625 0.0879,-0.0742 l 0,-0.0488 -0.459,0 0,0.0488 c 0.0488,0.0059 0.0801,0.0215 0.1074,0.0488 0.0215,0.0254 0.0508,0.0821 0.086,0.1543 l 0.6152,1.3496 c 0.0351,0.0704 0.0566,0.125 0.0566,0.1524 0,0.041 -0.0273,0.0625 -0.0859,0.0723 l 0,0.039 0.541,0 0,-0.039 c -0.0527,-0.0157 -0.0801,-0.0372 -0.0801,-0.0723 0,-0.0215 0.0215,-0.082 0.0664,-0.1797 l 0.5938,-1.2969 c 0.039,-0.0801 0.0742,-0.1386 0.1015,-0.1699 0.0293,-0.0332 0.0665,-0.0527 0.1075,-0.0586 l 0,-0.0488 -0.4864,0 0,0.0488 c 0.0547,0.0059 0.0782,0.0313 0.0782,0.0566 0,0.0137 -0.0118,0.045 -0.043,0.1094 l -0.1387,0.3145 z m -0.082,0.1816 -0.4063,0.9121 -0.4101,-0.9121 0.8164,0" />
      <path
         inkscape:connector-curvature="0"
         id="path4202"
         style="fill:#231f20;fill-opacity:1;fill-rule:nonzero;stroke:none"
         d="m 74.7578,14.5 -0.2051,-0.3613 -0.0371,0.0234 c 0.0059,0.0293 0.0059,0.0508 0.0059,0.0703 0,0.0215 -0.0215,0.0469 -0.0645,0.0801 -0.1797,0.1133 -0.3867,0.1699 -0.6308,0.1699 -0.2364,0 -0.4317,-0.0664 -0.5918,-0.1972 -0.1758,-0.1426 -0.2617,-0.334 -0.2617,-0.5684 0,-0.2578 0.0976,-0.4609 0.291,-0.6113 0.1543,-0.1231 0.3437,-0.1875 0.5566,-0.1875 0.2363,0 0.4492,0.0722 0.6309,0.2168 0.0703,0.0566 0.1015,0.0976 0.1015,0.1211 0,0.0175 -0.0058,0.0468 -0.0312,0.0859 l 0.041,0.0215 0.2637,-0.3281 -0.0371,-0.0313 c -0.0411,0.0332 -0.0664,0.0488 -0.0801,0.0488 -0.0098,0 -0.0293,-0.0078 -0.041,-0.0175 -0.1407,-0.1114 -0.2715,-0.1856 -0.4121,-0.2364 -0.1387,-0.0449 -0.295,-0.0703 -0.461,-0.0703 -0.2988,0 -0.539,0.084 -0.7324,0.2422 -0.0996,0.0742 -0.1797,0.1699 -0.2324,0.2832 -0.0781,0.1387 -0.1094,0.291 -0.1094,0.4531 0,0.3047 0.1172,0.5489 0.3555,0.7344 0.1992,0.1563 0.4492,0.2363 0.75,0.2363 0.2656,0 0.5234,-0.0664 0.7617,-0.2011 0.0273,-0.0078 0.041,-0.0098 0.0547,-0.0098 0.0215,0 0.0469,0.0137 0.0722,0.0547 L 74.7578,14.5" />
      <path
         inkscape:connector-curvature="0"
         id="path4204"
         style="fill:#231f20;fill-opacity:1;fill-rule:nonzero;stroke:none"
         d="m 75.2754,12.9531 0,1.4942 c 0,0.0527 -0.0059,0.084 -0.0254,0.0996 -0.0098,0.0176 -0.0391,0.0332 -0.082,0.0469 l 0,0.039 0.4511,0 0,-0.039 C 75.5762,14.5801 75.5488,14.5645 75.5313,14.5469 75.5215,14.5313 75.5117,14.5 75.5117,14.4473 l 0,-1.4942 c 0,-0.041 0.0098,-0.0742 0.0196,-0.0957 0.0175,-0.0156 0.0449,-0.0351 0.0878,-0.041 l 0,-0.0488 -0.4511,0 0,0.0488 c 0.0429,0.0059 0.0722,0.0254 0.082,0.041 0.0195,0.0215 0.0254,0.0547 0.0254,0.0957" />
      <path
         inkscape:connector-curvature="0"
         id="path4206"
         style="fill:#231f20;fill-opacity:1;fill-rule:nonzero;stroke:none"
         d="m 77.0977,14.6777 c 0.33,0 0.5996,-0.0839 0.8007,-0.2636 0.2207,-0.1797 0.3262,-0.4219 0.3262,-0.7227 0,-0.1875 -0.0508,-0.3633 -0.1601,-0.5215 -0.1973,-0.291 -0.5196,-0.4414 -0.9629,-0.4414 -0.3321,0 -0.5977,0.0879 -0.8028,0.2578 -0.2148,0.1836 -0.3261,0.4239 -0.3261,0.7168 0,0.1953 0.0566,0.3731 0.1582,0.5313 0.1152,0.166 0.2734,0.2871 0.4726,0.3594 0.1387,0.0546 0.3067,0.08 0.4942,0.0839 m 0,-0.1953 c -0.2715,0 -0.4942,-0.0801 -0.6524,-0.248 -0.1504,-0.1485 -0.2187,-0.3242 -0.2187,-0.5313 0,-0.2129 0.0683,-0.3867 0.2187,-0.5332 0.1582,-0.164 0.3809,-0.2519 0.6563,-0.2519 0.2695,0 0.4882,0.0879 0.6562,0.2519 0.1426,0.1465 0.2168,0.3164 0.2168,0.5215 0,0.2188 -0.0742,0.3984 -0.2168,0.543 -0.168,0.164 -0.3887,0.2441 -0.6601,0.248" />
      <path
         inkscape:connector-curvature="0"
         id="path4208"
         style="fill:#231f20;fill-opacity:1;fill-rule:nonzero;stroke:none"
         d="m 78.8809,14.3438 0,-1.3907 c 0,-0.041 0.0117,-0.0742 0.0254,-0.0957 0.0097,-0.0156 0.039,-0.0351 0.0859,-0.041 l 0,-0.0488 -0.4121,0 0,0.0488 c 0.0429,0.0059 0.0722,0.0254 0.082,0.041 0.0176,0.0215 0.0254,0.0547 0.0254,0.0957 l 0,1.4942 c 0,0.0527 -0.0078,0.084 -0.0254,0.0996 -0.0117,0.0176 -0.0391,0.0332 -0.082,0.0469 l 0,0.039 0.6054,0 0,-0.039 c -0.0566,-0.0235 -0.0859,-0.0508 -0.0859,-0.0899 0,-0.0332 0.0215,-0.0684 0.0625,-0.1211 l 1.1035,-1.2344 0,1.2989 c 0,0.0527 -0.0097,0.084 -0.0254,0.0996 -0.0117,0.0176 -0.039,0.0332 -0.0839,0.0469 l 0,0.039 0.4101,0 0,-0.039 C 80.5215,14.5801 80.4941,14.5645 80.4863,14.5469 80.4648,14.5313 80.459,14.5 80.459,14.4473 l 0,-1.4942 c 0,-0.041 0.0058,-0.0742 0.0254,-0.0957 0.0078,-0.0156 0.0371,-0.0351 0.082,-0.041 l 0,-0.0488 -0.4883,0 0,0.0488 c 0.0625,0.0098 0.0879,0.0371 0.0879,0.0664 0,0.0274 -0.0254,0.0664 -0.082,0.127 l -1.2031,1.334" />
      <path
         inkscape:connector-curvature="0"
         id="path4210"
         style="fill:#231f20;fill-opacity:1;fill-rule:nonzero;stroke:none"
         d="m 81.3086,13.6445 0,-0.6953 1.1562,0 c 0.043,0 0.0762,0.0039 0.1016,0.0235 0.0156,0.0097 0.0332,0.041 0.041,0.082 l 0.0469,0 0,-0.3906 -0.0469,0 c -0.0078,0.039 -0.0234,0.0664 -0.041,0.0879 -0.0234,0.0078 -0.0547,0.0156 -0.0996,0.0156 l -1.502,0 0,0.0488 c 0.0469,0.0059 0.0743,0.0254 0.0899,0.041 0.0117,0.0215 0.0195,0.0547 0.0195,0.0957 l 0,1.4942 c 0,0.0527 -0.0097,0.084 -0.0215,0.0996 -0.0156,0.0176 -0.0449,0.0332 -0.0879,0.0469 l 0,0.039 1.4883,0 c 0.0469,0 0.0821,0.0098 0.0996,0.0254 0.0196,0.0137 0.0313,0.0391 0.0469,0.0859 l 0.041,0 0,-0.3964 -0.041,0 c -0.0156,0.0449 -0.0273,0.0722 -0.0469,0.0898 -0.0175,0.0098 -0.0527,0.0176 -0.0996,0.0176 l -1.1445,0 0,-0.6309 0.7285,0 c 0.0488,0 0.082,0.0098 0.0996,0.0215 0.0235,0.0156 0.0332,0.043 0.0469,0.082 l 0.041,0 0,-0.3906 -0.041,0 c -0.0137,0.0449 -0.0234,0.0723 -0.0469,0.0859 -0.0195,0.0137 -0.0527,0.0215 -0.0996,0.0215 l -0.7285,0" />
      <path
         inkscape:connector-curvature="0"
         id="path4212"
         style="fill:#231f20;fill-opacity:1;fill-rule:nonzero;stroke:none"
         d="m 84.7754,14.5371 -0.1856,-0.3594 -0.0371,0.0176 c 0.0059,0.0332 0.0059,0.0567 0.0059,0.0684 0,0.0254 -0.0332,0.0566 -0.1055,0.0976 -0.1543,0.0801 -0.3379,0.1211 -0.5586,0.1211 -0.1816,0 -0.3261,-0.0332 -0.4511,-0.0976 -0.1231,-0.0684 -0.1817,-0.1621 -0.1817,-0.2793 0,-0.0489 0.0098,-0.1016 0.041,-0.1465 0.0313,-0.0391 0.0723,-0.0703 0.125,-0.0879 0.0567,-0.0176 0.1114,-0.0293 0.1719,-0.0371 0.0606,0 0.1914,-0.0117 0.3926,-0.0176 0.166,-0.0059 0.2949,-0.0137 0.3789,-0.0312 0.0879,-0.0137 0.1582,-0.043 0.2187,-0.0782 0.0645,-0.0312 0.1192,-0.0898 0.1582,-0.1582 0.0352,-0.0664 0.0567,-0.1425 0.0567,-0.2246 0,-0.1758 -0.0703,-0.3105 -0.2149,-0.4121 -0.164,-0.1211 -0.3886,-0.1836 -0.6679,-0.1836 -0.1406,0 -0.2813,0.0254 -0.4336,0.0645 -0.1563,0.041 -0.293,0.0976 -0.4258,0.1738 -0.0195,0.0117 -0.0312,0.0156 -0.041,0.0156 -0.0137,0 -0.0391,-0.0195 -0.0703,-0.0625 l -0.0391,0.0293 0.209,0.3535 0.041,-0.0195 c -0.0039,-0.0176 -0.0058,-0.0254 -0.0078,-0.0293 -0.0078,-0.0195 -0.0078,-0.0312 -0.0078,-0.0469 0,-0.0312 0.0566,-0.0742 0.1699,-0.1328 0.1914,-0.1015 0.3926,-0.1562 0.5957,-0.1562 0.1875,0 0.3399,0.0332 0.4649,0.0996 0.0585,0.0293 0.1132,0.0762 0.1464,0.125 0.0352,0.0566 0.0528,0.1113 0.0528,0.1699 0,0.0488 -0.0176,0.0996 -0.0469,0.1426 -0.0313,0.0429 -0.0684,0.0683 -0.1172,0.0898 -0.043,0.0176 -0.0957,0.0254 -0.1504,0.0352 -0.0547,0.0019 -0.1621,0.0117 -0.3183,0.0176 -0.1817,0.0078 -0.3145,0.0175 -0.3946,0.0253 -0.0781,0.0118 -0.1523,0.0274 -0.2187,0.0528 -0.0938,0.0312 -0.1602,0.0879 -0.2207,0.1582 -0.0528,0.0762 -0.0801,0.1621 -0.0801,0.2637 0,0.1796 0.0801,0.3183 0.2422,0.4238 0.168,0.1035 0.375,0.1562 0.6308,0.1562 0.2383,0 0.4688,-0.0527 0.7071,-0.1562 0.0371,-0.0176 0.0527,-0.0215 0.0586,-0.0215 0.0175,0 0.041,0.0176 0.0644,0.0625 l 0.043,-0.0254" />
      <path
         inkscape:connector-curvature="0"
         id="path4214"
         style="fill:#231f20;fill-opacity:1;fill-rule:nonzero;stroke:none"
         d="m 88.4102,14.8477 -0.2461,-0.4102 -0.043,0.0293 c 0.0059,0.0332 0.0117,0.0566 0.0117,0.0703 0,0.0508 -0.0683,0.1055 -0.2109,0.1777 -0.1953,0.0977 -0.4082,0.1387 -0.6426,0.1387 -0.3086,0 -0.5625,-0.084 -0.7559,-0.2558 -0.1953,-0.1758 -0.289,-0.4043 -0.289,-0.6817 0,-0.2754 0.0976,-0.5058 0.3047,-0.6894 0.1992,-0.1817 0.4414,-0.2735 0.7324,-0.2735 0.2832,0 0.5332,0.0879 0.75,0.25 0.0957,0.0762 0.1426,0.125 0.1426,0.1563 0,0.0195 -0.0059,0.0449 -0.0274,0.0801 l 0.041,0.0312 0.2969,-0.3613 -0.041,-0.0332 c -0.0332,0.0312 -0.0566,0.0429 -0.0781,0.0429 -0.0078,0 -0.0352,-0.0117 -0.0645,-0.0371 -0.0996,-0.0722 -0.1875,-0.1328 -0.2539,-0.1699 -0.0683,-0.0371 -0.1387,-0.0703 -0.2207,-0.0957 -0.1641,-0.0586 -0.3496,-0.0879 -0.5449,-0.0879 -0.3809,0 -0.6934,0.1055 -0.9375,0.3164 -0.25,0.2266 -0.377,0.5098 -0.377,0.8594 0,0.2754 0.0821,0.5059 0.2403,0.7109 0.2441,0.3106 0.6113,0.4688 1.1074,0.4688 0.3203,0 0.6367,-0.084 0.9433,-0.2617 0.0196,-0.0078 0.0352,-0.0098 0.0391,-0.0098 0.0156,0 0.043,0.0156 0.0801,0.0625 l 0.043,-0.0273" />
      <path
         inkscape:connector-curvature="0"
         id="path4216"
         style="fill:#231f20;fill-opacity:1;fill-rule:nonzero;stroke:none"
         d="m 88.959,12.9531 0,1.4942 c 0,0.0527 -0.0059,0.084 -0.0176,0.0996 -0.0176,0.0176 -0.0449,0.0332 -0.0879,0.0469 l 0,0.039 0.4512,0 0,-0.039 C 89.2656,14.5801 89.2344,14.5645 89.2188,14.5469 89.2031,14.5313 89.2012,14.5 89.2012,14.4473 l 0,-1.4942 c 0,-0.041 0.0019,-0.0742 0.0176,-0.0957 0.0156,-0.0156 0.0468,-0.0351 0.0859,-0.041 l 0,-0.0488 -0.4512,0 0,0.0488 c 0.043,0.0059 0.0703,0.0254 0.0879,0.041 0.0117,0.0215 0.0176,0.0547 0.0176,0.0957" />
      <path
         inkscape:connector-curvature="0"
         id="path4218"
         style="fill:#231f20;fill-opacity:1;fill-rule:nonzero;stroke:none"
         d="m 90.0527,13.6445 0,-0.6953 1.1524,0 c 0.0449,0 0.0781,0.0039 0.0996,0.0235 0.0176,0.0097 0.0332,0.041 0.0449,0.082 l 0.0469,0 0,-0.3906 -0.0469,0 c -0.0117,0.039 -0.0273,0.0664 -0.0449,0.0879 -0.0215,0.0078 -0.0547,0.0156 -0.0977,0.0156 l -1.5,0 0,0.0488 c 0.041,0.0059 0.0703,0.0254 0.0879,0.041 0.0098,0.0215 0.0176,0.0547 0.0176,0.0957 l 0,1.4942 c 0,0.0527 -0.0078,0.084 -0.0195,0.0996 -0.0176,0.0176 -0.045,0.0332 -0.086,0.0469 l 0,0.039 1.4844,0 c 0.0508,0 0.082,0.0098 0.0996,0.0254 0.0215,0.0137 0.0332,0.0391 0.0449,0.0859 l 0.043,0 0,-0.3964 -0.043,0 c -0.0117,0.0449 -0.0234,0.0722 -0.0449,0.0898 -0.0176,0.0098 -0.0488,0.0176 -0.0996,0.0176 l -1.1387,0 0,-0.6309 0.7246,0 c 0.0508,0 0.0821,0.0098 0.0957,0.0215 0.0235,0.0156 0.0352,0.043 0.0508,0.082 l 0.043,0 0,-0.3906 -0.043,0 c -0.0156,0.0449 -0.0273,0.0723 -0.0527,0.0859 -0.0137,0.0137 -0.0449,0.0215 -0.0938,0.0215 l -0.7246,0" />
      <path
         inkscape:connector-curvature="0"
         id="path4220"
         style="fill:#231f20;fill-opacity:1;fill-rule:nonzero;stroke:none"
         d="m 92.043,14.3438 0,-1.3907 c 0,-0.041 0.0097,-0.0742 0.0254,-0.0957 0.0097,-0.0156 0.039,-0.0351 0.082,-0.041 l 0,-0.0488 -0.4102,0 0,0.0488 c 0.0469,0.0059 0.0743,0.0254 0.084,0.041 0.0156,0.0215 0.0254,0.0547 0.0254,0.0957 l 0,1.4942 c 0,0.0527 -0.0098,0.084 -0.0254,0.0996 -0.0117,0.0176 -0.039,0.0332 -0.084,0.0469 l 0,0.039 0.6094,0 0,-0.039 c -0.0605,-0.0235 -0.0859,-0.0508 -0.0859,-0.0899 0,-0.0332 0.0176,-0.0684 0.0625,-0.1211 l 1.0996,-1.2344 0,1.2989 c 0,0.0527 -0.0078,0.084 -0.0274,0.0996 -0.0078,0.0176 -0.0351,0.0332 -0.08,0.0469 l 0,0.039 0.4101,0 0,-0.039 C 93.6836,14.5801 93.6563,14.5645 93.6465,14.5469 93.627,14.5313 93.6191,14.5 93.6191,14.4473 l 0,-1.4942 c 0,-0.041 0.0059,-0.0742 0.0274,-0.0957 0.0078,-0.0156 0.0371,-0.0351 0.082,-0.041 l 0,-0.0488 -0.4863,0 0,0.0488 c 0.0586,0.0098 0.0859,0.0371 0.0859,0.0664 0,0.0274 -0.0254,0.0664 -0.084,0.127 l -1.2011,1.334" />
      <path
         inkscape:connector-curvature="0"
         id="path4222"
         style="fill:#231f20;fill-opacity:1;fill-rule:nonzero;stroke:none"
         d="m 94.9902,14.4414 0,-1.4883 c 0,-0.041 0.0059,-0.0742 0.0176,-0.0957 0.0156,-0.0156 0.0449,-0.0351 0.0899,-0.041 l 0,-0.0488 -0.4512,0 0,0.0488 c 0.0449,0.0059 0.0703,0.0254 0.084,0.041 0.0136,0.0215 0.0234,0.0547 0.0234,0.0957 l 0,1.4883 -0.6094,0 c -0.0527,0 -0.082,-0.0039 -0.1015,-0.0195 -0.0176,-0.0137 -0.0313,-0.043 -0.045,-0.0801 l -0.0429,0 0,0.3887 0.0429,0 c 0.0137,-0.041 0.0274,-0.0703 0.045,-0.0821 0.0195,-0.0195 0.0488,-0.0234 0.1015,-0.0234 l 1.4571,0 c 0.0429,0 0.0761,0.0039 0.0996,0.0234 0.0136,0.0118 0.0332,0.0411 0.041,0.0821 l 0.0449,0 0,-0.3887 -0.0449,0 c -0.0078,0.0371 -0.0274,0.0664 -0.043,0.0801 -0.0215,0.0156 -0.0566,0.0195 -0.0976,0.0195 l -0.6114,0" />
      <path
         inkscape:connector-curvature="0"
         id="path4224"
         style="fill:#231f20;fill-opacity:1;fill-rule:nonzero;stroke:none"
         d="m 96.1172,12.9531 0,1.4942 c 0,0.0527 -0.002,0.084 -0.0156,0.0996 -0.0176,0.0176 -0.0469,0.0332 -0.084,0.0469 l 0,0.039 0.4433,0 0,-0.039 C 96.4258,14.5801 96.3965,14.5645 96.3789,14.5469 96.3672,14.5313 96.3613,14.5 96.3613,14.4473 l 0,-1.4942 c 0,-0.041 0.0059,-0.0742 0.0176,-0.0957 0.0176,-0.0156 0.0469,-0.0351 0.082,-0.041 l 0,-0.0488 -0.4433,0 0,0.0488 c 0.0371,0.0059 0.0664,0.0254 0.084,0.041 0.0136,0.0215 0.0156,0.0547 0.0156,0.0957 m 0.5273,2.3672 0,-0.039 c -0.0371,-0.002 -0.0664,-0.0254 -0.0898,-0.0508 L 96.3398,14.9414 C 96.334,14.9395 96.334,14.9238 96.334,14.9102 c 0,-0.0118 0.0078,-0.0235 0.0332,-0.0235 l 0.0039,0 0,-0.039 -0.2871,0 0,0.039 c 0.0293,0 0.041,0.0039 0.0547,0.0156 0.0078,0.0079 0.0156,0.0196 0.0332,0.043 l 0.1269,0.2774 c 0.0039,0.0019 0.0039,0.0117 0.0039,0.0195 0,0.0176 -0.0156,0.0371 -0.0468,0.0391 l 0,0.039 0.3886,0" />
      <path
         inkscape:connector-curvature="0"
         id="path4226"
         style="fill:#231f20;fill-opacity:1;fill-rule:nonzero;stroke:none"
         d="m 97.209,13.6445 0,-0.6914 c 0,-0.041 0.0117,-0.0742 0.0234,-0.0957 0.0156,-0.0156 0.043,-0.0351 0.0801,-0.041 l 0,-0.0488 -0.4434,0 0,0.0488 c 0.0372,0.0059 0.0645,0.0254 0.084,0.041 0.0117,0.0215 0.0176,0.0547 0.0176,0.0957 l 0,1.4942 c 0,0.0527 -0.0059,0.084 -0.0176,0.0996 -0.0195,0.0176 -0.0468,0.0332 -0.084,0.0469 l 0,0.039 1.5157,0 c 0.0429,0 0.0742,0.0098 0.0976,0.0254 0.0156,0.0137 0.0313,0.0391 0.041,0.0859 l 0.0489,0 0,-0.3964 -0.0489,0 c -0.0097,0.0449 -0.0254,0.0722 -0.041,0.0898 -0.0234,0.0098 -0.0547,0.0176 -0.0996,0.0176 l -1.1738,0 0,-0.6289 0.7676,0 c 0.0429,0 0.0761,0.0078 0.0957,0.0215 0.0156,0.0156 0.0332,0.0429 0.0429,0.082 l 0.0469,0 0,-0.3906 -0.0469,0 c -0.0097,0.0429 -0.0273,0.0722 -0.0429,0.0839 -0.0196,0.0176 -0.0528,0.0215 -0.0957,0.0215 l -0.7676,0" />
      <path
         inkscape:connector-curvature="0"
         id="path4228"
         style="fill:#231f20;fill-opacity:1;fill-rule:nonzero;stroke:none"
         d="m 98.9863,12.9531 0,1.4942 c 0,0.0527 -0.0097,0.084 -0.0273,0.0996 -0.0098,0.0176 -0.0371,0.0332 -0.084,0.0469 l 0,0.039 0.4551,0 0,-0.039 C 99.2852,14.5801 99.2559,14.5645 99.2402,14.5469 99.2285,14.5313 99.2188,14.5 99.2188,14.4473 l 0,-1.4942 c 0,-0.041 0.0097,-0.0742 0.0214,-0.0957 0.0157,-0.0156 0.045,-0.0351 0.0899,-0.041 l 0,-0.0488 -0.4551,0 0,0.0488 c 0.0469,0.0059 0.0742,0.0254 0.084,0.041 0.0176,0.0215 0.0273,0.0547 0.0273,0.0957" />
      <path
         inkscape:connector-curvature="0"
         id="path4230"
         style="fill:#231f20;fill-opacity:1;fill-rule:nonzero;stroke:none"
         d="m 101.725,14.5 -0.209,-0.3613 -0.037,0.0234 c 0.003,0.0293 0.009,0.0508 0.009,0.0703 0,0.0215 -0.025,0.0469 -0.07,0.0801 -0.176,0.1133 -0.385,0.1699 -0.629,0.1699 -0.232,0 -0.43,-0.0664 -0.588,-0.1972 -0.178,-0.1426 -0.2674,-0.334 -0.2674,-0.5684 0,-0.2578 0.0954,-0.4609 0.2934,-0.6113 0.154,-0.1231 0.339,-0.1875 0.558,-0.1875 0.236,0 0.449,0.0722 0.631,0.2168 0.066,0.0566 0.102,0.0976 0.102,0.1211 0,0.0175 -0.004,0.0468 -0.028,0.0859 l 0.037,0.0215 0.264,-0.3281 -0.037,-0.0313 c -0.041,0.0332 -0.068,0.0488 -0.084,0.0488 -0.008,0 -0.024,-0.0078 -0.037,-0.0175 -0.141,-0.1114 -0.278,-0.1856 -0.412,-0.2364 -0.139,-0.0449 -0.291,-0.0703 -0.463,-0.0703 -0.297,0 -0.543,0.084 -0.731,0.2422 -0.0973,0.0742 -0.1754,0.1699 -0.234,0.2832 -0.0762,0.1387 -0.1114,0.291 -0.1114,0.4531 0,0.3047 0.1231,0.5489 0.3574,0.7344 0.203,0.1563 0.453,0.2363 0.75,0.2363 0.268,0 0.524,-0.0664 0.766,-0.2011 0.023,-0.0078 0.037,-0.0098 0.054,-0.0098 0.02,0 0.043,0.0137 0.073,0.0547 L 101.725,14.5" />
      <path
         inkscape:connector-curvature="0"
         id="path4232"
         style="fill:#231f20;fill-opacity:1;fill-rule:nonzero;stroke:none"
         d="m 103.459,13.2969 -0.975,0 -0.144,-0.3145 c -0.014,-0.039 -0.026,-0.0683 -0.026,-0.0918 0,-0.0351 0.028,-0.0625 0.084,-0.0742 l 0,-0.0488 -0.457,0 0,0.0488 c 0.045,0.0059 0.079,0.0215 0.108,0.0488 0.023,0.0254 0.053,0.0821 0.088,0.1543 l 0.613,1.3496 c 0.037,0.0704 0.055,0.125 0.055,0.1524 0,0.041 -0.03,0.0625 -0.088,0.0723 l 0,0.039 0.547,0 0,-0.039 c -0.057,-0.0157 -0.084,-0.0372 -0.084,-0.0723 0,-0.0215 0.023,-0.082 0.066,-0.1797 l 0.592,-1.2969 c 0.043,-0.0801 0.074,-0.1386 0.105,-0.1699 0.03,-0.0332 0.063,-0.0527 0.11,-0.0586 l 0,-0.0488 -0.489,0 0,0.0488 c 0.053,0.0059 0.081,0.0313 0.081,0.0566 0,0.0137 -0.02,0.045 -0.043,0.1094 l -0.143,0.3145 z m -0.08,0.1816 -0.404,0.9121 -0.412,-0.9121 0.816,0" />
      <path
         inkscape:connector-curvature="0"
         id="path4234"
         style="fill:#231f20;fill-opacity:1;fill-rule:nonzero;stroke:none"
         d="m 106.02,14.5371 -0.186,-0.3594 -0.039,0.0176 c 0.008,0.0332 0.01,0.0567 0.01,0.0684 0,0.0254 -0.035,0.0566 -0.112,0.0976 -0.152,0.0801 -0.338,0.1211 -0.556,0.1211 -0.182,0 -0.33,-0.0332 -0.453,-0.0976 -0.125,-0.0684 -0.186,-0.1621 -0.186,-0.2793 0,-0.0489 0.016,-0.1016 0.047,-0.1465 0.031,-0.0391 0.072,-0.0703 0.125,-0.0879 0.055,-0.0176 0.107,-0.0293 0.17,-0.0371 0.06,0 0.191,-0.0117 0.398,-0.0176 0.16,-0.0059 0.287,-0.0137 0.379,-0.0312 0.086,-0.0137 0.156,-0.043 0.217,-0.0782 0.066,-0.0312 0.119,-0.0898 0.158,-0.1582 0.033,-0.0664 0.055,-0.1425 0.055,-0.2246 0,-0.1758 -0.07,-0.3105 -0.213,-0.4121 -0.168,-0.1211 -0.393,-0.1836 -0.672,-0.1836 -0.141,0 -0.283,0.0254 -0.43,0.0645 -0.156,0.041 -0.296,0.0976 -0.427,0.1738 -0.014,0.0117 -0.032,0.0156 -0.039,0.0156 -0.018,0 -0.039,-0.0195 -0.071,-0.0625 l -0.043,0.0293 0.211,0.3535 0.039,-0.0195 c -0.004,-0.0176 -0.006,-0.0254 -0.006,-0.0293 -0.005,-0.0195 -0.009,-0.0312 -0.009,-0.0469 0,-0.0312 0.062,-0.0742 0.172,-0.1328 0.189,-0.1015 0.392,-0.1562 0.591,-0.1562 0.188,0 0.344,0.0332 0.467,0.0996 0.063,0.0293 0.113,0.0762 0.149,0.125 0.037,0.0566 0.052,0.1113 0.052,0.1699 0,0.0488 -0.013,0.0996 -0.045,0.1426 -0.031,0.0429 -0.068,0.0683 -0.123,0.0898 -0.037,0.0176 -0.095,0.0254 -0.15,0.0352 -0.053,0.0019 -0.162,0.0117 -0.318,0.0176 -0.182,0.0078 -0.313,0.0175 -0.387,0.0253 -0.084,0.0118 -0.156,0.0274 -0.223,0.0528 -0.09,0.0312 -0.16,0.0879 -0.217,0.1582 -0.056,0.0762 -0.084,0.1621 -0.084,0.2637 0,0.1796 0.084,0.3183 0.245,0.4238 0.164,0.1035 0.375,0.1562 0.63,0.1562 0.235,0 0.471,-0.0527 0.704,-0.1562 0.037,-0.0176 0.054,-0.0215 0.062,-0.0215 0.018,0 0.039,0.0176 0.063,0.0625 l 0.045,-0.0254" />
      <path
         inkscape:connector-curvature="0"
         id="path4236"
         style="fill:#b2b1b1;fill-opacity:1;fill-rule:nonzero;stroke:none"
         d="m 29.3629,18.8594 c 0.0906,0 0.2605,0.0703 0.2605,0.0703 0.1985,0.375 -0.705,0.8906 -0.705,0.8906 0,0 -0.1922,-0.0918 -0.2645,-0.123 -0.248,-0.0879 0.6973,-0.8379 0.709,-0.8379 m -3.6359,0.0469 c 0,0 -0.0977,-0.5528 0.2285,-0.8672 1.1718,-0.6289 2.5332,-0.6661 3.5304,-0.0723 0.0633,0.2012 0.1661,0.4941 0.1805,0.7109 -1.0957,-0.5058 -2.9648,-0.1718 -3.9394,0.2286 m -8.9434,-0.211 c 0.0187,-0.2949 0.0773,-0.5937 0.3254,-0.8027 1.0242,-0.4571 2.366,-0.2891 3.334,0.1054 0.3582,0.1368 0.291,0.3809 0.282,0.9317 -1.157,-0.5313 -2.7344,-0.6934 -3.9414,-0.2344 m 9.0273,0.4434 c 0.0215,-0.043 0.2063,-0.1094 0.3516,-0.127 0.1438,0.0176 0.0246,0.5391 0.043,0.6485 -0.0176,-0.002 -0.3946,-0.0704 -0.3946,-0.5215 m -5.5769,0.584 c 0,0 0,-0.7383 -0.009,-0.7383 0.1652,0.0586 0.4375,0.1211 0.4621,0.2129 0.0301,0.1211 -0.2648,0.4375 -0.4531,0.5254 m -2.7981,0.2246 c -0.2363,-0.2813 -0.6277,-0.4864 -0.666,-0.9649 -0.0066,-0.1269 0.4621,-0.1289 0.4688,-0.1269 0.2832,0.2226 0.5488,0.3203 0.666,0.8105 -0.0234,0.1485 -0.3203,0.2754 -0.4688,0.2813 m 2.8965,0.0957 c 0.002,-0.1309 0.3528,-0.3457 0.5039,-0.627 0.1516,-0.2793 0.1309,-0.5371 0.1309,-0.539 1.2344,-0.5801 3.2734,-0.7422 4.5293,-0.1094 0.0168,0.5469 0.1594,0.9258 0.582,1.1113 0.0625,0.0625 -0.039,0.1953 -0.1414,0.1953 -0.8691,-0.3457 -1.6906,-0.7773 -2.7199,-0.7558 -1.1211,-0.0957 -1.9238,0.6914 -2.8848,0.7246 m 8.4512,0.7363 c -0.3906,-0.0605 -0.3301,-0.6699 -0.2852,-0.9004 0.461,0.2871 1.0821,0.4258 1.5782,0.3203 0.0234,-0.0019 0.0293,0.3848 0.0293,0.5684 0,0 -0.7286,0.2207 -1.3223,0.0117 m -12.4922,0.0391 c -0.0059,-0.2032 -0.0262,-0.459 0.0098,-0.5977 0.5547,0.0606 1.3359,-0.0273 1.6301,-0.2793 l -0.0481,0.6133 c -0.3086,0.5156 -1.0586,0.3418 -1.5918,0.2637 m 5.7258,1.791 0,-0.2637 c 0.2723,-0.748 1.1601,-0.5137 1.7762,-0.7031 0.166,-0.0645 0.3398,-0.2871 0.4718,-0.4102 0.036,1.4668 -1.5617,0.7852 -2.248,1.377 m 0.2,0.3164 -0.0899,-0.0938 0.0899,-0.0703 0,0.1641 z m -1.6797,1.7301 c -0.082,-0.168 0.1438,-0.3731 0.209,-0.5602 0.2676,-1.0293 -1.1152,-1.1973 -1.6485,-1.7324 -0.207,-0.2227 -0.33,-0.4903 -0.289,-0.7969 0.082,-0.2109 0.3125,-0.3984 0.5332,-0.418 0.2891,0.045 0.5996,0.1075 0.8047,0.3555 0.0625,0.125 0,0.3106 -0.1219,0.3457 -0.2453,-0.1875 -0.4758,-0.3945 -0.8078,-0.3457 -0.0957,0.0137 -0.2227,0.0938 -0.202,0.2207 0.3524,0.6602 1.1739,0.7461 1.6883,1.2988 0.2481,0.3145 0.3488,0.6856 0.2676,1.0957 -0.1016,0.1813 -0.1211,0.5719 -0.4336,0.5368 m -1.2742,0.2226 c -0.2043,-0.2226 -0.3301,-0.5332 -0.2481,-0.8648 0.0828,-0.1211 0.1063,-0.3535 0.2657,-0.3711 0.7214,0.1289 0.0254,0.6793 0.125,1.0765 0.0214,0.1348 0.1433,0.3118 0.3093,0.3438 -0.1855,-0.0223 -0.3476,-0.0606 -0.4519,-0.1844 m 7.6426,0.2469 c -0.8274,-0.1844 -1.6711,-0.6797 -2.5364,-0.3719 -0.0605,-0.1437 0.0227,-0.2871 0.127,-0.3703 0.9062,-0.3695 1.7851,0.1477 2.6543,0.3359 0.1015,-0.0281 0.1633,-0.1269 0.1633,-0.2312 -0.2258,-0.4156 -0.7188,-0.5152 -1.1282,-0.6578 -0.0234,-0.0879 0.0567,-0.1074 0.0957,-0.1699 0.3321,-0.2442 0.6407,0.1445 0.9297,0.3125 0.2668,0.2461 0.5371,0.5152 0.4532,0.8726 -0.1446,0.2801 -0.4754,0.2586 -0.7586,0.2801 m -2.5969,0.0871 c -0.084,-0.1719 0.1242,-0.1816 0.2246,-0.2316 0.4336,-0.127 1.0332,-0.1024 1.3613,0.173 -0.4336,0.2832 -1.1523,0.3184 -1.5859,0.0586 m -4.5137,0.9031 c 0.082,-0.0652 0.1465,-0.166 0.25,-0.125 0.041,0.0598 0.1231,0.0801 0.1016,0.1418 -0.0399,0.2137 -0.3067,0.1836 -0.3516,-0.0168 m 2.2871,0.3879 c -0.0652,-0.2187 -0.0195,-0.4933 0.043,-0.6984 0.3926,-0.8379 1.2773,-0.9891 1.9766,-1.3172 0.0421,0.043 0.0421,0.1043 0.0625,0.168 -0.2461,1.0281 -1.4852,1.2109 -2.0821,1.8476 m 4.3039,0.0613 C 26.2816,26.5328 26.1,26.5453 26.141,26.3785 c 0.3516,-0.125 0.7383,-0.2012 1.0703,-0.3683 0.1457,-0.0606 0.4309,-0.1856 0.4309,0.1054 -0.3672,0.2629 -0.8,0.4172 -1.2559,0.4492 m -7.123,-0.0613 c -0.0832,-0.0801 -0.0461,-0.25 0,-0.3262 -0.1867,-0.3722 0.1238,-0.6613 0.368,-0.8418 0.371,-0.0871 0.7421,-0.0871 1.0109,0.1649 -0.0637,0.1594 -0.1418,0.3437 -0.3098,0.4492 -0.3301,-0.4148 -0.7011,0.1008 -0.9902,0.2277 0.0449,0.0165 0.0637,0.1075 0.1269,0.0594 0.0989,0.0481 0.3106,0.1094 0.2852,0.2668 -0.1641,0.1629 -0.327,0.1629 -0.491,0 m 5.1863,0.1629 c -0.123,-0.1016 -0.3476,-0.1629 -0.2851,-0.366 0.2441,0.0605 0.5128,0.1699 0.6574,0.366 -0.1047,0.052 -0.2629,0.0215 -0.3723,0 m 0.3496,0.2715 c 0.4356,-0.0606 0.6992,-0.4551 0.7832,-0.8418 0.1047,0.0617 0.25,0.0363 0.3321,0.1574 0.041,0.25 -0.0645,0.4344 -0.209,0.5996 -0.2235,0.1817 -0.6778,0.3094 -0.9063,0.0848 m -2.4871,0.1855 c -0.1066,-0.0605 -0.1476,-0.1629 -0.125,-0.2839 0.0449,-0.0899 0.1024,-0.2747 0.1844,-0.2141 0.039,0.1887 0.039,0.3769 -0.0594,0.498 m 5.1082,0 c -0.6211,-0.2839 -1.073,0.4504 -1.6094,0.1243 0.4954,-0.2258 0.968,-0.6829 1.5852,-0.4563 0.1453,0.0859 0.373,0.1867 0.3523,0.4152 l -0.1062,0 -0.2219,-0.0832 z m -7.789,0.2239 c -0.2637,-0.1243 -0.7188,-0.2844 -0.7188,-0.6153 0.1465,-0.2492 0.3508,0.0176 0.4934,0.1075 0.3289,0.3066 0.7011,0.0378 1.0496,-0.0481 0.0449,0.1465 -0.0821,0.291 -0.1621,0.4152 -0.168,0.1825 -0.4161,0.1407 -0.6621,0.1407 m 5.4121,1.1757 c 0.0468,-0.0898 0.0468,-0.3066 0.2199,-0.2628 0.2578,0.2148 0.2578,0.6007 0.2187,0.9074 -0.2187,-0.1281 -0.4152,-0.4094 -0.4386,-0.6446 m 1.4785,1.0743 -0.0438,-0.2305 c -0.0226,-0.4004 0.3817,-0.3438 0.5262,-0.4297 l 0,0.4297 c -0.127,0.2 -0.2949,0.1707 -0.4824,0.2305 m -1.3067,0.9824 -0.0379,0.2742 -0.0871,-0.2742 0.125,0 z m 1.8164,0.8738 -0.1257,-0.1894 c 0.0789,-0.0235 0.1004,-0.0313 0.1785,0.0031 l -0.0528,0.1863 z m 0.5098,0.6008 c -0.1453,-0.1211 -0.3523,-0.3664 -0.3601,-0.468 0.0078,-0.166 0.1355,-0.6687 0.0535,-0.9785 0.1465,-0.0613 0.3359,0.0305 0.4609,0.0645 0.1516,0.4484 0.207,1.0664 -0.1543,1.382 m -8.0156,0.0555 c 0.1035,-0.2246 0.4394,-0.2508 0.6894,-0.3133 l -0.0918,0.1601 c -0.1718,0.245 -0.3359,0.3055 -0.5976,0.1532 m 6.5832,-0.0243 c -0.1231,-0.2003 -0.1242,-0.4667 -0.0051,-0.6757 0.1895,0.1484 0.4727,0.4265 0.593,0.5957 -0.1016,0.1824 -0.4035,0.33 -0.5879,0.08 m 0.0555,0.5137 c -2.1434,-0.9484 0.2246,-2.8742 -0.668,-4.4707 0.1992,-0.0383 0.4387,0.0653 0.5469,0.243 0.4336,1.0109 0.0488,2.1242 -0.1844,3.0937 -0.0871,0.3399 -0.0527,0.5461 0.2058,0.7969 0.2637,0.2277 0.627,0.0313 0.752,-0.1387 0.0625,0.0461 0.2871,0.2422 0.2871,0.3293 -0.2383,0.1786 -0.6113,0.211 -0.9394,0.1465 M 18.891,32.5141 c 0.1856,-0.6512 0.832,-0.0203 1.0899,-0.2254 1.216,-1.0344 -0.375,-2.2461 0.0793,-3.5481 0.1023,-0.2656 0.2722,-0.4851 0.539,-0.6113 0.2918,-0.0945 0.6922,-0.0078 0.9363,0.1543 0.043,0.1477 -0.1132,0.2727 -0.2175,0.4199 -0.1008,-0.0859 -0.2051,-0.2234 -0.2844,-0.3008 -0.1035,-0.2109 -0.3711,-0.1699 -0.4141,0.0403 -0.164,1.2859 0.8965,2.8992 -0.2793,3.9902 -0.4218,0.3203 -1.0175,0.3133 -1.4492,0.0809 m 5.632,-12.6938 c 0.0106,-0.0078 0.2625,0 1.1329,0.4453 0.907,0.4688 0.7851,-1.3261 0.7851,-1.3261 0.961,-0.4102 2.5028,-0.2813 2.6289,-0.1856 0.118,0.0996 -0.507,0.4473 -0.7082,0.8242 -0.1758,0.3321 -0.1465,1.0332 0,1.1895 0.5449,0.582 1.9356,0.1777 1.9356,0.1777 0.0449,-0.1308 -0.0391,-0.9668 -0.0391,-0.9668 -0.0879,0.0508 -1.0371,0.1016 -1.125,-0.084 0,0 0.457,-0.1679 0.6465,-0.5898 0.2754,-0.6152 -0.1992,-1.543 -0.1992,-1.543 -1.8535,-1.0429 -3.7625,0.0957 -3.8379,0.1582 -0.0946,0.0899 -0.2293,0.584 -0.2293,0.584 -2.2442,-0.9219 -4.5539,0.1035 -4.5539,0.1035 0.0246,-0.4375 -0.1864,-0.6933 -0.1864,-0.6933 -2.3566,-1.1133 -3.9035,-0.1309 -3.9035,-0.1309 -0.8894,1.418 0.3567,2.2207 0.3567,2.2207 -0.1789,0.082 -1.1399,0.0391 -1.1399,0.0391 l 0,0.9238 c 2.1153,0.4766 2.0078,-0.3516 2.0293,-1.0723 0.0235,-0.7187 -0.7215,-1.1347 -0.7215,-1.1347 1.6336,-0.3184 2.6024,0.1562 2.6024,0.1562 0,0 -0.0106,0.1973 0.0148,1.0254 0.0203,0.8262 1.743,-0.0625 1.743,-0.0625 0.373,0.2559 0.3937,1.8731 0.3937,1.8731 -0.8683,0.955 0.043,1.4589 0.043,1.4589 0.0438,1.3102 -1.0898,1.3746 -1.0898,1.3746 0.241,-1.2203 -0.0657,-1.3746 -0.2414,-1.6792 -0.1727,-0.3067 -1.7227,-1.0274 -1.6309,-1.2188 0.0832,-0.2051 0.8711,0.4316 0.8711,0.4316 0.259,-0.2578 0.2363,-0.7207 0.2363,-0.7207 -0.3047,-0.5683 -1.7664,-0.6504 -1.6797,0.3731 0.0957,1.125 0.9395,0.959 1.6582,1.5449 0.7207,0.5899 -0.1933,1.2691 -0.1933,1.2691 -0.1738,-0.0214 -0.459,-0.1992 -0.459,-0.1992 0.0227,-0.2144 0.3047,-0.5855 0.3047,-0.5855 -0.127,-0.1485 -0.8086,-0.4356 -0.8086,-0.4356 -0.1094,0.043 -0.2832,0.3731 -0.2832,0.3731 l -0.1941,-0.2207 c 0.4402,-1.6387 -1.0696,-1.6563 -1.0696,-1.6563 l 0.0442,0.3887 c -0.2618,-0.1309 -0.9153,-0.0684 -0.9153,-0.0684 -0.0437,0.6368 0.5449,1.1348 0.5449,1.1348 -0.0644,0.0274 -0.1726,0.2012 -0.1726,0.2012 0.6523,0.5859 1.2879,0.2207 1.2879,0.2207 l 0.1281,0.2539 c -0.373,0.6988 0.2606,0.3746 0.2606,0.3746 0.0449,0.5887 0.4589,0.7586 0.4589,0.7586 -0.0195,0.1144 -0.2636,0.2199 -0.2636,0.2199 -1.0235,-0.8476 -1.5664,0.4805 -1.5664,0.4805 -0.2188,-0.0207 -0.5489,0.1523 -0.5489,0.1523 0.0664,0.1309 0.3067,0.3465 0.3067,0.3465 -0.0879,0.0539 -0.2403,0.5871 -0.2403,0.5871 0.1114,0.0672 0.6543,0.0906 0.6543,0.0906 0,0.1309 0.175,0.375 0.175,0.375 0.1317,-0.0925 0.4598,-0.53 0.4598,-0.53 0.1301,0.0261 0.3672,-0.0852 0.3672,-0.0852 0,0.1113 0.1523,0.3039 0.1523,0.3039 0.0235,0.0672 -0.3437,0.2625 -0.3437,0.2625 l 0.0851,0.1133 c 0.084,0 0.4989,-0.1328 0.4989,-0.1328 1.1152,0.6953 1.5468,-0.0664 1.5468,-0.0664 0.1329,-0.9871 0.3946,-0.7188 0.3946,-0.7188 0.0449,0.0899 -0.043,0.5422 -0.043,0.5422 l 0.3059,0 c 0.0429,-0.257 0.5449,-0.8105 0.5449,-0.8105 -0.0246,1.0535 0.6082,1.3601 0.6082,1.3601 -0.0625,1.634 -1.416,2.1133 -1.416,2.1133 -0.0899,-0.3269 -0.2227,-1.2226 -0.1102,-1.2656 0.1102,-0.0438 0.4637,0.5 0.4637,0.5 0.4094,-0.2567 0.4953,-0.7801 0.4953,-0.7801 -1.416,-0.8742 -1.8711,0.4813 -1.8711,0.4813 -0.0918,-0.0274 -0.8957,-0.1582 -0.8957,-0.1582 -0.1328,0.1582 0.1504,0.9132 0.1504,0.9132 -0.5254,0.0262 -0.8262,-0.4562 -0.8262,-0.4562 0.2207,-1.1738 -1.4179,-1.416 -1.4179,-1.416 0.0656,0.089 -0.1993,0.332 -0.1993,0.332 -0.1699,-0.0703 -0.957,-0.1328 -0.957,-0.1328 -0.0223,0.5625 0.5039,0.9348 0.5039,0.9348 -0.0683,0.0644 -0.2,0.5007 -0.2,0.5007 1.1375,0.5676 1.8543,0.1379 1.8543,0.1379 0.7012,0.6727 2.0508,0.911 2.0508,0.911 0.0187,0.1562 0.1094,0.3242 0.1094,0.3242 0.0644,0.3019 -1.1356,0.3019 -1.1356,0.3019 0.0438,0.0918 -0.1515,0.5731 -0.1515,0.5731 -0.086,0 -0.2606,-0.1102 -0.2606,-0.1102 -0.4348,-0.6281 -0.5051,-0.0871 -0.5051,-0.0871 -0.1074,0.0215 -0.4121,-0.2207 -0.4121,-0.2207 -0.2383,-0.5879 -1.3281,-0.5879 -1.3281,-0.5879 0.1086,0.1309 0,0.3059 0,0.3059 -0.2402,0.0262 -0.8074,0.4824 -0.8074,0.4824 0.1746,0.1512 0.7859,0.4609 0.7859,0.4609 -0.1758,0.1524 -0.1308,0.8055 -0.1308,0.8055 0.1066,-0.1152 0.7636,-0.2461 0.7636,-0.2461 0.6055,-0.0183 0.7852,-0.6746 0.7852,-0.6746 0.2168,-0.0422 0.9375,0.368 0.9375,0.368 -0.1563,0.6554 -0.875,0.7707 -0.875,0.7707 -1.5223,-0.7051 -1.7625,0.6504 -1.7625,0.6504 -0.1106,0.0496 -0.4629,0.2 -0.4629,0.2 0.0918,0.1289 0.5008,0.3222 0.5008,0.3222 -0.1075,0.0664 -0.1485,0.593 -0.1485,0.593 0.1485,0.0379 0.7395,-0.0469 0.7395,-0.0469 -0.0402,0.1309 0.1543,0.4383 0.1543,0.4383 l 0.3047,-0.6551 c 0,0 0.9179,0.2637 0.782,-1.0039 0,0 0.1113,-0.132 0.375,-0.2383 0,0 0.1523,0.4766 0.041,0.6747 -0.1101,0.1953 -0.3691,0.675 -0.4336,0.6972 0,0 0.3926,-0.1055 0.4766,-0.1758 0,0 0.2609,0.2629 0.2609,0.3743 0,0 0.6133,-0.6575 0.5672,-1.0274 -0.041,-0.3703 -0.5039,-0.675 -0.6082,-0.7168 l 0.1524,-0.1348 c 0,0 1.571,0.6571 2.2019,-0.6281 0,0 0.0879,0.5461 0.043,0.677 0,0 -0.8543,0.0957 -0.366,1.157 0.2128,0.4746 -0.0481,0.6731 -0.0481,0.6731 0,0 0.6953,-0.1114 0.8301,-0.6368 0,0 0.3672,0.3086 0.2793,0.6368 0,0 0.6594,-0.2832 0.4816,-1.2461 -0.1066,-0.584 -0.6086,-0.675 -0.6086,-0.675 0,0 -0.3515,-1.1094 0.2395,-2.0282 0,0 0.5457,0.4793 0.6082,0.6766 0,0 -0.4317,0.6523 -0.1074,1.1328 0.3261,0.4805 0.6113,0.3477 0.7422,0.459 0,0 0.414,0.5012 0.4355,0.6359 0,0 0.1523,-0.4394 0.0859,-0.5488 0,0 0.5664,0.1523 0.6758,0.1523 0,0 -0.0449,-0.5449 -0.1094,-0.6066 0,0 0.3067,-0.284 0.5442,-0.2012 0,0 -0.3,-0.3711 -0.4797,-0.4121 0,0 -0.2598,-1.2246 -1.5262,-0.9383 0,0 -0.4758,-0.5031 -0.5246,-0.6562 0,0 0.5246,-0.6973 0.5246,-0.8691 0,0 0.6766,0.2195 0.8524,0.0867 0,0 1.1535,0.4601 1.1992,2.5031 l 0.3047,0.0672 c 0,0 -0.1309,0.6379 0,1.0265 0,0 -1.1543,1.243 -0.3934,1.6317 0,0 0.1973,-0.3672 0.4344,-0.4734 0,0 0.3945,0.1062 0.4816,0.3691 0,0 0.4793,-0.6543 0.3055,-1.216 0,0 -0.5215,-0.7489 -0.4141,-1.1348 0,0 0.502,0.6055 1.418,0.4524 0,0 -0.1101,0.7441 0.3516,1.3289 0,0 0.0625,-0.3926 0.3,-0.5848 0.2449,-0.1973 0.1992,-0.502 0.1336,-0.591 l 0.2832,0.1086 c 0,0 -0.3516,1.0261 0.5019,1.2676 0,0 0.1965,0.5468 0.3254,0.6933 L 29.016,34.568 c 0,0 0.3692,0.3484 0.5449,0.3484 0,0 0.1934,-0.5664 0.1485,-0.6726 0,0 0.3965,-0.045 0.5078,0.0175 0,0 -0.416,-0.6933 -0.5078,-0.7402 0,0 0.2441,-1.1731 -1.4844,-0.8731 l -0.5371,-0.4785 c 0,0 0.1719,-0.2629 0.1719,-0.3437 0,0 1.0011,0.3437 1.1757,0.5222 0,0 0,-0.6101 -0.0898,-0.7898 0,0 0.6152,-0.1719 0.8086,-0.1047 0,0 -0.2383,-0.7234 -0.8086,-0.8125 0,0 0.2012,-0.3047 -0.2383,-0.239 0,0 -0.3926,-0.1309 -0.4824,-0.2559 0,0 -0.2559,0.368 -0.3926,0.3914 0,0 -0.584,-0.2176 -0.8027,-0.1133 0,0 0.1133,0.3516 0.0226,0.4328 l -0.0851,0.0918 0.0851,-0.0918 c 0,0 -0.8078,-0.0332 -0.7628,-0.3879 0,0 0.1093,-0.6308 0.1093,-0.7195 0,0 0.6075,-0.1086 0.7168,-0.1933 l 0.0274,-0.8282 -0.6797,0.2196 c 0,0 -0.2188,-1.1387 -0.959,-1.0059 -0.741,0.1262 -0.8953,0.4777 -0.284,1.5039 0,0 -1.2402,-0.1258 -1.2238,-1.8301 0,0 0.0683,-0.1523 0.3125,-0.0683 0,0 -0.0469,-0.4336 -0.1121,-0.5868 0,0 0.6726,0.4571 1.198,0.2606 0,0 0.3711,0.5254 1.0461,0.2832 0,0 0.3504,0 0.2813,0.8762 l 0.33,0.0222 0.0243,-0.4863 c 0,0 0.5429,0.2668 0.6113,0.3926 0,0 -0.2859,0.789 0.498,1.0734 0,0 0.2657,0.4102 0.3926,0.4559 0,0 0.1719,-0.5887 0.1524,-0.7195 0,0 0.6543,0.1113 0.8086,0.0632 0,0 -0.0899,-0.5175 -0.1973,-0.655 0,0 0.3262,-0.1465 0.4375,-0.304 0,0 -1.1805,-0.6531 -1.7481,-0.414 0,0 -0.7402,-0.2168 -0.873,-0.3914 0,0 0.3293,-0.1965 0.8496,0.1297 l 0,-0.3262 0.2461,0 c 0,0 1.2617,0.873 1.7629,-0.2606 0,0 0.325,-0.1515 0.5242,-0.0625 0,0 -0.0879,-0.3945 -0.2625,-0.4355 0,0 0.2625,-0.4191 0.2625,-0.6367 0,0 -0.3711,-0.1055 -0.5879,-0.0207 0,0 0,-0.4598 -0.0469,-0.5887 0,0 -0.4343,0.325 -0.5007,0.5039 0,0 -1.1809,-0.1789 -1.22,1 l -0.2832,0.0887 c 0,0 -0.3515,-0.2645 -0.5007,-0.3055 0,0 0.3894,-0.2187 0.4753,-0.3262 0,0 -0.1894,-0.5031 -0.3437,-0.5207 0,0 -1.3543,0.6907 -1.7234,0.218 0,0 0.6746,-0.3996 0.8289,-0.5695 0,0 1.416,0.3234 1.1523,-0.8692 l 0.0859,-0.1355 c 0,0 0.7012,-0.066 0.9426,-1.3102 0,0 -0.8508,-0.2207 -1.0715,1.002 0,0 -0.0859,-0.0391 -0.1511,-0.1055 0,0 0.0906,-0.2187 0.0449,-0.3027 0,0 0.9812,-0.9649 -0.3281,-2.0098 0,0 -0.4836,0.5449 -0.4836,0.7891 0,0 -0.586,0.1875 -0.8692,-0.1328 0,0 -0.0644,1.0859 1.2668,1.2011 l 0.0203,0.2364 c 0,0 -0.457,-0.2832 -0.6531,-0.3242 0,0 -0.4394,0 -0.8078,0.5214 0,0 1.3086,0.4352 1.1797,0.5864 -0.1367,0.1535 -1.5469,-0.7407 -2.5742,-0.2172 0,0 -0.1114,-0.1973 -0.2637,-0.2168 0,0 -0.457,-0.8262 -0.1492,-1.6367 0,0 1.0125,-0.7071 0.248,-1.459 0,0 0.1199,-1.0117 0.2949,-1.1016" />
      <path
         inkscape:connector-curvature="0"
         id="path4238"
         style="fill:#b01220;fill-opacity:1;fill-rule:nonzero;stroke:none"
         d="m 54.1391,19.9492 c -0.0625,0 -0.12,0.0059 -0.1758,0.0215 -0.0508,0.002 -0.1102,0.0098 -0.1738,0.0098 -0.127,0 -0.4266,-0.127 -0.9063,-0.3828 -0.4793,-0.2539 -1.0859,-0.5411 -1.8152,-0.8594 -0.7336,-0.3145 -1.5676,-0.5977 -2.5,-0.8281 -0.9348,-0.2344 -1.9094,-0.3457 -2.927,-0.3457 -1.3398,0 -2.623,0.164 -3.8535,0.5058 -1.2312,0.3399 -2.3203,0.8652 -3.2664,1.5781 -0.9465,0.709 -1.6992,1.5957 -2.2539,2.6582 -0.552,1.0606 -0.8293,2.3051 -0.8293,3.727 0,1.3996 0.2773,2.6348 0.8293,3.7109 0.5547,1.0696 1.3074,1.97 2.2539,2.6914 0.9461,0.72 2.0352,1.2629 3.2664,1.6204 1.2305,0.3621 2.5137,0.5417 3.8535,0.5417 1.0813,0 2.0625,-0.0839 2.9434,-0.2578 0.8789,-0.1648 1.6504,-0.3504 2.3078,-0.5429 0.657,-0.1895 1.1785,-0.3719 1.5613,-0.5379 0.3809,-0.1731 0.6145,-0.2571 0.6985,-0.2571 0.1082,0 0.1972,0.0508 0.2742,0.1614 0.0703,0.1004 0.1301,0.1914 0.173,0.2539 L 54.0766,33.0348 51.5922,29.1754 51.2738,29.4 c 0,0.0625 -0.0047,0.127 -0.0156,0.1902 -0.0098,0.0637 -0.0254,0.136 -0.0449,0.2227 -0.0449,0.2297 -0.2578,0.4738 -0.6387,0.7148 -0.3848,0.2434 -0.8574,0.4621 -1.416,0.6504 -0.5633,0.1914 -1.1582,0.3496 -1.7832,0.4778 -0.627,0.1289 -1.2051,0.1921 -1.7344,0.1921 -0.8945,0 -1.7488,-0.1289 -2.5644,-0.3835 -0.8184,-0.2532 -1.5274,-0.6243 -2.1348,-1.1094 -0.6016,-0.4895 -1.0867,-1.0899 -1.4473,-1.7969 -0.3593,-0.7141 -0.541,-1.5234 -0.541,-2.4309 0,-0.916 0.1817,-1.7293 0.541,-2.4359 0.3606,-0.7168 0.8457,-1.3125 1.4473,-1.7988 0.6074,-0.4883 1.3164,-0.8574 2.1348,-1.1133 0.8156,-0.2559 1.6699,-0.3828 2.5644,-0.3828 0.6778,0 1.3887,0.0781 2.132,0.2363 0.743,0.1582 1.4219,0.3652 2.0379,0.6035 0.6164,0.25 1.1301,0.5235 1.5442,0.8301 0.4129,0.3086 0.6199,0.5996 0.6199,0.875 0,0.1543 -0.0418,0.2813 -0.1289,0.3809 l 0.4453,0.2558 2.1055,-3.373 -0.2578,-0.2559" />
      <path
         inkscape:connector-curvature="0"
         id="path4240"
         style="fill:#b01220;fill-opacity:1;fill-rule:nonzero;stroke:none"
         d="M 59.4105,22.9082 59.7289,22.75 c 0,-0.1934 0.043,-0.3691 0.1289,-0.5137 0.1485,-0.2558 0.4395,-0.5058 0.8762,-0.75 0.4344,-0.2461 0.9324,-0.4609 1.4988,-0.6523 0.5606,-0.1934 1.15,-0.3477 1.7652,-0.459 0.6172,-0.1211 1.17,-0.1816 1.6563,-0.1816 0.3633,0 0.8301,0.0293 1.4023,0.0859 0.5743,0.0488 1.1368,0.1641 1.6875,0.3301 0.5528,0.1758 1.0313,0.4023 1.4356,0.7051 0.4023,0.2968 0.6055,0.6894 0.6055,1.1796 0,0.4844 -0.1856,0.8497 -0.5567,1.0762 -0.373,0.2422 -0.8613,0.4082 -1.4648,0.5117 -0.6094,0.1094 -1.2969,0.1797 -2.0703,0.2114 -0.7754,0.0324 -1.5684,0.0781 -2.3711,0.1425 -0.8086,0.0657 -1.6,0.1711 -2.3727,0.3176 -0.7734,0.1485 -1.4668,0.3945 -2.0703,0.7488 -0.6074,0.3489 -1.0918,0.8274 -1.4668,1.4368 -0.3691,0.6035 -0.5535,1.3972 -0.5535,2.373 0,0.6563 0.1523,1.3035 0.4609,1.9422 0.3035,0.6359 0.7781,1.1984 1.416,1.6914 0.6336,0.4844 1.4414,0.8828 2.4161,1.1926 0.975,0.3074 2.1195,0.4597 3.432,0.4597 1.1289,0 2.1035,-0.0839 2.9355,-0.2578 0.8223,-0.1648 1.5391,-0.3504 2.1465,-0.5429 0.6055,-0.1895 1.1074,-0.3719 1.5215,-0.5379 0.418,-0.1731 0.7617,-0.2571 1.0391,-0.2571 0.2949,0 0.5078,0.0645 0.6328,0.1934 l 0.3808,-0.2586 -2.1914,-3.9855 -0.3164,0.1281 c -0.0469,0.2996 -0.1289,0.5418 -0.2558,0.7332 -0.1739,0.2559 -0.4551,0.5051 -0.8418,0.7461 -0.3946,0.2433 -0.8555,0.4621 -1.3868,0.6523 -0.5332,0.1907 -1.1035,0.3469 -1.7187,0.4641 -0.6152,0.116 -1.2266,0.1726 -1.8457,0.1726 -0.4688,0 -0.9473,-0.039 -1.4453,-0.1074 -0.4981,-0.0769 -0.9492,-0.1863 -1.352,-0.3386 -0.4023,-0.1477 -0.7383,-0.345 -1.0011,-0.586 -0.2676,-0.2422 -0.3965,-0.55 -0.3965,-0.9043 0,-0.5109 0.1836,-0.8945 0.5566,-1.1504 0.3692,-0.2539 0.8555,-0.4453 1.4625,-0.5734 0.6035,-0.1289 1.2949,-0.209 2.0703,-0.2547 0.7735,-0.0371 1.5645,-0.0937 2.375,-0.1582 0.8028,-0.0637 1.5938,-0.1711 2.3692,-0.332 0.7734,-0.1582 1.4629,-0.4114 2.0703,-0.7657 0.6035,-0.3507 1.0898,-0.8234 1.4668,-1.4152 0.3691,-0.5937 0.5547,-1.3715 0.5547,-2.3207 0,-1.1094 -0.2969,-2.0039 -0.875,-2.709 -0.586,-0.6972 -1.3145,-1.25 -2.1817,-1.6504 -0.875,-0.4101 -1.8144,-0.6738 -2.8203,-0.8164 -1.0117,-0.1347 -1.9492,-0.2011 -2.8223,-0.2011 -1.205,0 -2.2226,0.0664 -3.0375,0.1992 -0.8183,0.1426 -1.4992,0.3125 -2.0382,0.5097 -0.545,0.2032 -0.9727,0.3848 -1.293,0.543 -0.3184,0.1563 -0.5957,0.2402 -0.8262,0.2402 -0.1504,0 -0.2859,-0.0859 -0.4148,-0.2539 l -0.4485,0.2539 1.7539,3.8516" />
      <path
         inkscape:connector-curvature="0"
         id="path4242"
         style="fill:#b01220;fill-opacity:1;fill-rule:nonzero;stroke:none"
         d="m 78.5176,18.2207 c 0.5508,0 0.8262,0.1895 0.8262,0.5723 l 0,14.4633 c 0,0.382 -0.2754,0.5722 -0.8262,0.5722 l 0,0.5715 5.2851,0 0,-0.5715 c -0.5566,0 -0.8281,-0.1902 -0.8281,-0.5722 l 0,-14.4633 c 0,-0.3828 0.2715,-0.5723 0.8281,-0.5723 l 0,-0.5742 -5.2851,0 0,0.5742" />
      <path
         inkscape:connector-curvature="0"
         id="path4244"
         style="fill:#b01220;fill-opacity:1;fill-rule:nonzero;stroke:none"
         d="m 105.932,19.9492 c -0.063,0 -0.125,0.0059 -0.176,0.0215 -0.051,0.002 -0.108,0.0098 -0.172,0.0098 -0.127,0 -0.436,-0.127 -0.912,-0.3828 -0.477,-0.2539 -1.078,-0.5411 -1.811,-0.8594 -0.734,-0.3145 -1.57,-0.5977 -2.5,-0.8281 -0.9313,-0.2344 -1.9098,-0.3457 -2.9294,-0.3457 -1.3378,0 -2.6211,0.164 -3.8496,0.5058 -1.2324,0.3399 -2.3242,0.8652 -3.2734,1.5781 -0.9434,0.709 -1.6914,1.5957 -2.2441,2.6582 -0.5586,1.0606 -0.8321,2.3051 -0.8321,3.727 0,1.3996 0.2735,2.6348 0.8321,3.7109 0.5527,1.0696 1.3007,1.97 2.2441,2.6914 0.9492,0.72 2.041,1.2629 3.2734,1.6204 1.2285,0.3621 2.5118,0.5417 3.8496,0.5417 1.0821,0 2.0606,-0.0839 2.9434,-0.2578 0.885,-0.1648 1.648,-0.3504 2.307,-0.5429 0.66,-0.1895 1.181,-0.3719 1.562,-0.5379 0.381,-0.1731 0.615,-0.2571 0.703,-0.2571 0.102,0 0.198,0.0508 0.266,0.1614 0.078,0.1004 0.137,0.1914 0.182,0.2539 l 0.474,-0.3828 -2.482,-3.8594 -0.321,0.2246 c 0,0.0625 -0.009,0.127 -0.013,0.1902 -0.012,0.0637 -0.028,0.136 -0.053,0.2227 -0.037,0.2297 -0.256,0.4738 -0.635,0.7148 -0.379,0.2434 -0.849,0.4621 -1.416,0.6504 -0.562,0.1914 -1.156,0.3496 -1.781,0.4778 -0.625,0.1289 -1.2071,0.1921 -1.7364,0.1921 -0.8906,0 -1.7461,-0.1289 -2.5625,-0.3835 -0.8164,-0.2532 -1.5332,-0.6243 -2.1308,-1.1094 -0.6055,-0.4895 -1.0918,-1.0899 -1.4551,-1.7969 -0.3535,-0.7141 -0.5371,-1.5234 -0.5371,-2.4309 0,-0.916 0.1836,-1.7293 0.5371,-2.4359 0.3633,-0.7168 0.8496,-1.3125 1.4551,-1.7988 0.5976,-0.4883 1.3144,-0.8574 2.1308,-1.1133 0.8164,-0.2559 1.6719,-0.3828 2.5625,-0.3828 0.6797,0 1.3926,0.0781 2.1309,0.2363 0.7485,0.1582 1.4255,0.3652 2.0425,0.6035 0.61,0.25 1.129,0.5235 1.541,0.8301 0.417,0.3086 0.622,0.5996 0.622,0.875 0,0.1543 -0.045,0.2813 -0.127,0.3809 l 0.443,0.2558 2.1,-3.373 -0.252,-0.2559" />
    </g>
  </g>
</svg>
