<?xml version="1.0" encoding="UTF-8" standalone="no"?>
<!-- Created with Inkscape (http://www.inkscape.org/) -->

<svg
   xmlns:dc="http://purl.org/dc/elements/1.1/"
   xmlns:cc="http://creativecommons.org/ns#"
   xmlns:rdf="http://www.w3.org/1999/02/22-rdf-syntax-ns#"
   xmlns:svg="http://www.w3.org/2000/svg"
   xmlns="http://www.w3.org/2000/svg"
   xmlns:sodipodi="http://sodipodi.sourceforge.net/DTD/sodipodi-0.dtd"
   xmlns:inkscape="http://www.inkscape.org/namespaces/inkscape"
   width="26.105556mm"
   height="11.944047mm"
   viewBox="0 0 92.500003 42.321426"
   id="svg2"
   version="1.1"
   inkscape:version="0.91pre3 r13670"
   sodipodi:docname="csu_logo_portrait_reversed.svg"
   inkscape:export-filename="csu_logo_portrait_reversed.png"
   inkscape:export-xdpi="729.72998"
   inkscape:export-ydpi="729.72998">
  <defs
     id="defs4">
    <clipPath
       id="clipPath4152"
       clipPathUnits="userSpaceOnUse">
      <path
         inkscape:connector-curvature="0"
         id="path4154"
         d="M 0,657.551 0,0 l 1077.85,0 0,657.551 -1077.85,0 z" />
    </clipPath>
  </defs>
  <sodipodi:namedview
     id="base"
     pagecolor="#ffffff"
     bordercolor="#666666"
     borderopacity="1.0"
     inkscape:pageopacity="0.0"
     inkscape:pageshadow="2"
     inkscape:zoom="7.9195959"
     inkscape:cx="71.973601"
     inkscape:cy="22.169992"
     inkscape:document-units="px"
     inkscape:current-layer="layer1"
     showgrid="false"
     fit-margin-top="0"
     fit-margin-left="0"
     fit-margin-right="0"
     fit-margin-bottom="0"
     inkscape:window-width="1920"
     inkscape:window-height="1017"
     inkscape:window-x="-8"
     inkscape:window-y="-8"
     inkscape:window-maximized="1" />
  <metadata
     id="metadata7">
    <rdf:RDF>
      <cc:Work
         rdf:about="">
        <dc:format>image/svg+xml</dc:format>
        <dc:type
           rdf:resource="http://purl.org/dc/dcmitype/StillImage" />
        <dc:title></dc:title>
      </cc:Work>
    </rdf:RDF>
  </metadata>
  <g
     inkscape:groupmode="layer"
     id="layer2"
     inkscape:label="BG"
     transform="translate(0,3.4784899)"
     style="display:inline"
     sodipodi:insensitive="true">
    <rect
       style="fill:#014711;fill-opacity:1;fill-rule:evenodd;stroke:none;stroke-width:1.99300003;stroke-linejoin:round;stroke-miterlimit:4;stroke-dasharray:none;stroke-opacity:1"
       id="rect4166"
       width="92.5"
       height="42.321426"
       x="0"
       y="-3.4784899" />
  </g>
  <g
     inkscape:label="Text"
     inkscape:groupmode="layer"
     id="layer1"
     transform="translate(-275.18223,-192.31937)">
    <g
       transform="matrix(1.25,0,0,-1.25,254.23688,254.48099)"
       inkscape:label="ink_ext_XXXXXX"
       id="g4144">
      <g
         transform="scale(0.1,0.1)"
         id="g4146">
        <g
           id="g4148">
          <g
             clip-path="url(#clipPath4152)"
             id="g4150">
            <path
               inkscape:connector-curvature="0"
               id="path4156"
               style="fill:#ffffff;fill-opacity:1;fill-rule:nonzero;stroke:none"
               d="m 539.91,436.52 0,-54.313 c 0,-11.098 -3.113,-14.57 -14.207,-14.828 l -0.129,-4.133 57.082,0 0,3.871 c -10.961,0.77 -14.316,4.387 -14.316,15.09 l 0,30.574 c 0,11.735 7.613,16.903 15.098,16.903 8,0 16.894,-5.938 23.21,-14.836 l 6.457,33.922 c -11.484,9.027 -22.324,7.863 -26.972,2.32 l -17.793,-21.285 0,23.476 -43.406,0 0,-3.609 c 10.964,-0.258 14.976,-2.703 14.976,-13.152 z m 217.531,-56.633 c 0,-4.43 -3.652,-9.418 -10.312,-9.211 -17.598,0.523 -29.805,20.168 -30.488,39.242 -0.489,14.16 6.425,34.812 22.539,35.02 10.273,0.125 18.261,-3.899 18.261,-15.915 l 0,-49.136 z m 27.188,1.746 0.105,101.082 -41.746,0 0,-3.164 c 11.172,-0.895 14.219,-0.485 14.102,-12.18 l 0,-22.758 c -6.875,7.02 -16.27,9.371 -25.996,9.371 -25.254,0.043 -41.602,-23.695 -41.641,-44.754 -0.039,-25.242 12.735,-45.207 48.86,-45.207 l 59.246,-0.043 0,3.524 c -9.317,2.113 -12.93,7.793 -12.93,14.129 z m -125.906,7.957 c 0,-9.164 -4.504,-14.711 -13.391,-14.75 -10.039,-0.051 -14.512,7.98 -14.172,15.508 0.278,5.3 2.735,9.675 6.899,11.523 l 20.632,9.203 0.032,-21.484 z m 20.593,-70.16 c 7.872,0 14.883,-9.688 14.375,-21.797 l -31.23,0 c 0.723,13.121 8.965,21.797 16.855,21.797 z m -29.628,115.812 c 9.843,-3.992 12.011,-16.137 4.375,-18.363 l -30.411,-9.004 c -12.5,-3.699 -19.043,-12.734 -18.547,-23.367 0.286,-5.91 2.833,-12.555 8.098,-17.063 -2.93,-27.234 -18.113,-38.652 -35.332,-43.222 l 0,-6.528 10.84,0 0,-51.09 c 0,-13.554 7.91,-21.464 16.152,-24.832 15.235,-6.269 29.239,-0.242 37.52,13.598 10.09,-11.719 26.367,-16.863 38.672,-16.816 25.886,0.105 39.394,14.625 44.226,29.55 l -2.761,2.747 c -13.321,-19.067 -23.497,-20.075 -35.118,-19.567 -14.414,0.617 -26.386,18.555 -25.918,37.856 l 60.086,0 c -1.953,22.148 -13.25,38.277 -39.168,37.933 -28.437,-0.39 -50.273,-16.594 -49.355,-47.125 0.254,-7.996 2.539,-14.711 6.113,-20.254 -10.254,-9.867 -22.422,-6.382 -22.422,10.153 l -0.078,47.847 25.598,0 -0.051,8.239 -25.547,0 0.039,39.082 c 3.504,-1.934 7.871,-3.059 13.164,-2.875 10.696,0.379 20.703,4.964 29.668,13.75 3.926,-9.84 10.965,-14.121 18.899,-13.875 7.078,0.207 15.855,6.265 18.433,14.757 -7.078,-3.445 -10.886,-0.171 -10.886,7.528 l 0,45.269 c 0,14.711 -18.907,25.563 -35.071,25.52 -17.82,-0.047 -38.836,-9.707 -40.484,-33.711 9.812,13.863 24.09,20.086 39.266,13.863 z M 455.367,410.531 c 0,21.992 12.059,39.895 26.824,39.895 14.801,0 26.864,-17.903 26.864,-39.895 0,-21.953 -12.063,-39.894 -26.864,-39.894 -14.765,0 -26.824,17.941 -26.824,39.894 z M 524.82,267.82 c 0.262,5.301 2.664,9.676 6.723,11.52 l 20.113,9.211 0.039,-21.481 c 0,-9.164 -4.39,-14.722 -13.062,-14.761 -9.793,-0.039 -14.153,7.988 -13.813,15.511 z m -91.152,27.45 -39.164,30.789 c -6.191,4.914 -8.191,8.929 -7.879,15.625 0.676,13.359 13.176,20.171 22.141,21.425 0.839,0.114 1.66,0.196 2.429,0.227 1.239,0.016 2.45,-0.063 3.629,-0.227 16.52,-2.308 27.164,-22.394 27.555,-45.414 l 9.652,0 0,-48.09 c 0,-16.73 7.141,-28.777 22.266,-29.667 8.683,-0.524 21.426,1.855 28.16,11.14 3.559,-6.574 10.34,-11.844 21.082,-11.465 10.441,0.375 20.199,4.957 28.945,13.75 3.829,-9.836 10.696,-14.125 18.422,-13.871 6.907,0.211 15.461,6.266 17.981,14.754 -6.907,-3.449 -10.617,-0.164 -10.617,7.527 l 0,45.266 c 0,14.719 -18.43,25.563 -34.192,25.52 -17.383,-0.039 -37.879,-9.711 -39.488,-33.715 9.57,13.875 23.496,20.097 38.281,13.875 9.613,-3.992 11.715,-16.141 4.281,-18.371 L 517.5,285.355 c -12.195,-3.699 -18.574,-12.738 -18.09,-23.378 0.063,-1.375 0.262,-2.797 0.567,-4.219 -14.961,-6.863 -21.379,1.246 -21.379,14.531 l 0,45.293 25.718,0 0,8.477 -25.718,0 0,36.242 c 1.328,-0.082 2.668,-0.145 4.019,-0.145 29.961,0 54.36,21.551 54.36,47.961 0,26.465 -24.399,47.973 -54.36,47.973 -29.918,0 -54.312,-21.508 -54.312,-47.973 0,-24.14 20.386,-44.211 46.73,-47.484 -4.437,-20.559 -11.441,-28.785 -29.191,-36.125 L 446.051,364 c -2.223,0.906 -4.453,1.668 -6.68,2.367 -1.644,0.512 -3.293,0.977 -4.93,1.387 -0.207,0.051 -0.421,0.098 -0.628,0.148 -6.258,1.61 -8.348,5.461 -8.442,13.836 l 0,101.641 -43.816,0 0,-3.688 c 10.972,-0.886 13.992,-2.668 14.422,-12.265 l 0,-84.461 c 0,-8.719 -1.59,-13.348 -6.497,-15.289 -0.867,-0.235 -1.71,-0.465 -2.492,-0.719 -1.691,-0.519 -3.195,-1.066 -4.453,-1.621 -0.09,-0.039 -0.18,-0.082 -0.273,-0.125 -24.559,-10.934 -31.77,-41.789 -8.864,-60.566 l 33.707,-27.559 c 18.79,-15.402 10.383,-42.844 -7.562,-47.082 -16.273,-4.024 -32.652,6.691 -39.582,17.848 l -4.512,-2.457 c 9.656,-17.957 28.031,-28.895 46.719,-28.114 17.535,0.668 40,10.934 45.461,28.563 6.504,21.535 -4.516,42.062 -13.961,49.426 z m 407.66,75.136 c -14.765,0 -26.836,17.938 -26.836,39.891 0,22 12.071,39.894 26.836,39.894 14.793,0 26.856,-17.894 26.856,-39.894 0,-21.953 -12.063,-39.891 -26.856,-39.891 z m 0.43,87.449 c -29.922,0 -54.317,-21.507 -54.317,-47.968 0,-26.414 24.395,-47.961 54.317,-47.961 29.953,0 54.347,21.547 54.347,47.961 0,26.461 -24.394,47.968 -54.347,47.968 z M 338.5,370.637 c -14.762,0 -26.82,17.941 -26.82,39.894 0,21.992 12.058,39.895 26.82,39.895 14.805,0 26.871,-17.903 26.871,-39.895 0,-21.953 -12.066,-39.894 -26.871,-39.894 z m 54.785,39.48 c 0,26.465 -24.394,47.973 -54.355,47.973 -29.91,0 -54.305,-21.508 -54.305,-47.973 0,-5.972 1.254,-11.699 3.539,-16.98 -12.988,-13.797 -28.734,-18.801 -38.766,-18.192 -50.671,3.086 -51.058,99.582 1.372,98.778 30.074,-0.45 33.796,-24.602 35.875,-36.321 l 4.418,1.371 -0.305,42.043 -3.922,0 c -0.742,-2.714 -2.426,-5.39 -6.504,-5.39 -2.066,0.73 -21.965,7.383 -36.848,7.015 -19.421,-0.492 -63.711,-12.867 -64.453,-60.296 -0.746,-47.442 38.688,-61.2 63.239,-60.797 22.906,0.386 38.343,13.968 49.191,25.543 9.281,-14.727 27.094,-24.735 47.469,-24.735 29.961,0 54.355,21.551 54.355,47.961 z m 272.028,-221.508 0,28.375 c -3.243,-1.984 -7.012,-3.789 -10.887,-5.226 4.402,0 4.226,-2.434 4.226,-4.231 l 0,-18.918 c 0,-3.336 -0.898,-4.871 -5.136,-4.953 l 0,-0.804 16.394,0 0,0.625 c -2.691,0 -4.597,1.347 -4.597,5.132 z m -7.559,36.481 c 0,-2.52 1.973,-4.5 4.414,-4.5 2.52,0 4.504,1.98 4.504,4.5 0,2.523 -1.984,4.5 -4.504,4.5 -2.441,0 -4.414,-1.977 -4.414,-4.5 z m -126.024,0 c 0,-2.52 1.977,-4.5 4.407,-4.5 2.523,0 4.511,1.98 4.511,4.5 0,2.523 -1.988,4.5 -4.511,4.5 -2.43,0 -4.407,-1.977 -4.407,-4.5 z m 10.997,-41.524 c -2.711,0 -3.43,1.258 -3.43,5.043 l 0,28.375 c -3.242,-1.984 -7.035,-3.789 -10.902,-5.226 4.414,0 4.238,-2.434 4.238,-4.231 l 0,-18.918 c 0,-3.336 -0.903,-4.894 -5.145,-4.972 l 0,0 c -2.476,0.183 -3.851,0.203 -3.851,4.968 l 0,15.829 c 0,9.691 -2.989,12.3 -9.418,12.3 -3.805,0 -9.004,-1.636 -11.489,-7.679 l -0.074,8.097 c -3.453,-2.089 -7.453,-4 -11.211,-5.5 3.258,-0.507 4.34,-0.66 4.34,-6.246 l 0,-15.562 c 0,-4.457 -1.43,-6.364 -4.922,-6.364 l 0.039,-0.652 17.45,0 0,0.731 c -3.329,0 -5.622,1.437 -5.622,4.777 l 0,15.668 c 0,10.121 14.043,10.551 14.043,1.324 l 0.04,-16.68 c 0,-3.453 -0.583,-5.089 -3.375,-5.089 l 0.078,-0.778 14.226,0.035 0,0 15.063,0.036 -0.078,0.714 z m -46.434,46.676 0,2.067 -16.609,0 0,-2.067 c 1.668,0 7.136,0.688 7.136,-5.883 l -0.039,-25.847 c 0,-8.567 -8.176,-14.922 -13.347,-14.922 -8.848,0 -13.754,2.902 -13.754,14.808 l 0,24.875 c 0,6.352 2.562,7.332 7.328,6.969 l 0,2.067 -21.715,0 0,-2.067 c 5.133,0.363 6.504,-1.637 6.504,-6.281 l 0.039,-25.957 c 0,-15.176 10.93,-17.395 20.074,-17.137 6.281,0.145 17.176,4.934 17.176,16.91 l 0,26.516 c 0,6.895 5.055,5.949 7.207,5.949 z m 81.402,-14.621 0,0.762 -11.316,0 0,-0.762 c 2.336,0 4.434,-1.848 2.855,-5.734 l -7.257,-17.754 -7.45,17.152 c -2.015,4.653 -0.527,6.262 2.895,6.262 l 0,0.918 -16.207,0 -0.117,-0.918 c 4.031,-0.371 5.281,-5.098 5.281,-5.098 l 13.586,-29.011 11.656,28.449 c 2.008,5.011 3.66,5.371 6.074,5.734 z m 11.524,-0.25 c 3.691,0 5.937,-3.746 5.937,-9.234 l -14.59,0 c 0.539,7.843 6.399,9.234 8.653,9.234 z m 14.582,-10.894 c -0.539,9.246 -6.938,12.64 -13.86,12.64 -10.461,0 -16.761,-8.277 -16.402,-18.918 0.356,-10.898 8.102,-15.695 15.953,-15.695 7.649,0 13.418,7.066 14.309,11.078 l -0.988,0.602 c -2.532,-4.7 -5.586,-6.098 -10.086,-6.532 -8.743,-0.875 -13.957,8.106 -12.61,16.914 l 23.684,-0.089 z m 19.785,12.863 c -3.391,0 -5.293,-2.258 -7.766,-7.102 l 0,6.75 c -2.636,-1.793 -7.402,-3.804 -10.996,-5.242 3.594,-0.387 4.297,-1.469 4.297,-4.773 l 0,-18.578 c 0,-3.688 -1.152,-4.7 -5.051,-4.7 l 0.032,-0.843 16.418,0 0,0.769 c -3.469,0.156 -4.661,0.777 -4.661,5.012 l 0.039,16.836 c 0,2.75 1.954,8.531 6.016,4.222 2.07,-2.211 5.613,-0.339 6.172,2.598 0.527,2.762 -1.699,5.051 -4.5,5.051 z m 19.871,-14.445 c -4.836,2.793 -8.574,3.476 -8.828,6.644 -0.227,3.402 2.832,5.66 6.25,5.66 1.68,0 7.637,-0.179 8.351,-9.433 l 1.961,0 -0.468,8.234 c -3.368,1.738 -6.231,3.023 -11.297,3.023 -5.024,0 -10.981,-3.367 -10.981,-8.918 0,-6.832 5.207,-9.476 9.66,-11.816 6.114,-2.793 7.696,-4.379 7.696,-6.715 0,-3.437 -2.481,-5.781 -5.215,-5.734 -6.641,0.109 -9.094,2.746 -10.781,10.633 l -1.407,0 -0.136,-9.625 c 3.379,-1.465 6.843,-2.899 11.914,-2.899 4.824,0 12.148,1.957 12.754,9.629 0,6.824 -6.094,9.621 -9.473,11.317 z m 71.356,13.414 -0.079,-0.961 c 3.137,0 7.336,-0.516 5.246,-5.864 l -7.539,-19.125 -8.261,20.25 c -1.973,4.887 2.644,4.618 4.394,4.618 l 0,1.16 -17.383,0.015 0,0 -9.961,-0.031 0.118,7.609 -11.211,-11.058 3.886,0 -0.078,-23.738 c 0,-7.836 13.653,-9.852 19.434,-0.895 l -0.535,1.125 c -6.281,-5.699 -11.653,-2.832 -11.653,2.68 l 0.079,20.828 12.07,-0.039 -2.11,3.332 1.18,-3.293 c 3.149,-0.434 3.93,-3.145 4.895,-5.348 l 11.621,-25.754 c -3.731,-8.215 -2.957,-1.855 -6.016,-0.156 -2.207,1.246 -5.234,-0.187 -5.234,-3.562 0,-5.235 7.129,-10.282 12.676,2.988 l 11.953,28.59 c 2.05,4.89 4.258,5.199 6.543,5.629 l -0.039,1 -13.996,0" />
          </g>
        </g>
      </g>
    </g>
  </g>
</svg>
