<?xml version="1.0" encoding="UTF-8" standalone="no"?>
<!-- Created with Inkscape (http://www.inkscape.org/) -->

<svg
   xmlns:dc="http://purl.org/dc/elements/1.1/"
   xmlns:cc="http://creativecommons.org/ns#"
   xmlns:rdf="http://www.w3.org/1999/02/22-rdf-syntax-ns#"
   xmlns:svg="http://www.w3.org/2000/svg"
   xmlns="http://www.w3.org/2000/svg"
   xmlns:sodipodi="http://sodipodi.sourceforge.net/DTD/sodipodi-0.dtd"
   xmlns:inkscape="http://www.inkscape.org/namespaces/inkscape"
   width="410.63684"
   height="99.482971"
   id="svg6052"
   version="1.1"
   inkscape:version="0.48.2 r9819"
   sodipodi:docname="icassp2013_logo.svg"
   inkscape:export-filename="icassp2013_logo.png"
   inkscape:export-xdpi="218.93195"
   inkscape:export-ydpi="218.93195">
  <defs
     id="defs6054">
    <clipPath
       id="clipPath3071"
       clipPathUnits="userSpaceOnUse">
      <path
         inkscape:connector-curvature="0"
         id="path3073"
         d="m 226.501,715.58 302.998,0 0,58.42 -302.998,0 0,-58.42 z" />
    </clipPath>
    <clipPath
       id="clipPath3047"
       clipPathUnits="userSpaceOnUse">
      <path
         inkscape:connector-curvature="0"
         id="path3049"
         d="m 226.501,715.58 302.998,0 0,58.42 -302.998,0 0,-58.42 z" />
    </clipPath>
    <clipPath
       id="clipPath3015"
       clipPathUnits="userSpaceOnUse">
      <path
         inkscape:connector-curvature="0"
         id="path3017"
         d="m 226.501,715.58 302.998,0 0,58.42 -302.998,0 0,-58.42 z" />
    </clipPath>
    <clipPath
       id="clipPath2999"
       clipPathUnits="userSpaceOnUse">
      <path
         inkscape:connector-curvature="0"
         id="path3001"
         d="m 226.501,715.58 302.998,0 0,58.42 -302.998,0 0,-58.42 z" />
    </clipPath>
  </defs>
  <sodipodi:namedview
     id="base"
     pagecolor="#ffffff"
     bordercolor="#666666"
     borderopacity="1.0"
     inkscape:pageopacity="0.0"
     inkscape:pageshadow="2"
     inkscape:zoom="2.0453575"
     inkscape:cx="207.36707"
     inkscape:cy="52.219592"
     inkscape:document-units="px"
     inkscape:current-layer="layer1"
     showgrid="false"
     inkscape:window-width="1920"
     inkscape:window-height="1017"
     inkscape:window-x="-4"
     inkscape:window-y="-4"
     inkscape:window-maximized="1"
     fit-margin-top="0"
     fit-margin-left="0"
     fit-margin-right="0"
     fit-margin-bottom="0"
     inkscape:showpageshadow="false" />
  <metadata
     id="metadata6057">
    <rdf:RDF>
      <cc:Work
         rdf:about="">
        <dc:format>image/svg+xml</dc:format>
        <dc:type
           rdf:resource="http://purl.org/dc/dcmitype/StillImage" />
        <dc:title></dc:title>
      </cc:Work>
    </rdf:RDF>
  </metadata>
  <g
     inkscape:groupmode="layer"
     id="layer2"
     inkscape:label="bg"
     transform="translate(-169.30605,-478.78491)"
     style="display:inline">
    <rect
       style="color:#000000;fill:#ffffff;fill-opacity:1;fill-rule:nonzero;stroke:none;stroke-width:2;marker:none;visibility:visible;display:inline;overflow:visible;enable-background:accumulate"
       id="rect7646"
       width="410.63684"
       height="99.482971"
       x="169.30605"
       y="478.78491" />
  </g>
  <g
     inkscape:label="logo"
     inkscape:groupmode="layer"
     id="layer1"
     transform="translate(-169.30605,-478.78491)">
    <g
       id="g2995"
       transform="matrix(1.25,0,0,-1.25,-97.304399,1462.9917)" />
    <g
       id="g4326">
      <g
         id="g4314">
        <path
           id="path3009"
           style="fill:#000000;fill-opacity:1;stroke:#eb222c;stroke-width:0.78374993999999998;stroke-linecap:butt;stroke-linejoin:miter;stroke-miterlimit:4;stroke-opacity:1;stroke-dasharray:none"
           d="m 256.32244,503.47162 -9.53625,0 -4.6275,37.63875 9.53625,0 4.6275,-37.63875 z"
           inkscape:connector-curvature="0" />
        <path
           id="path3021"
           style="fill:#000000;fill-opacity:1;stroke:#eb222c;stroke-width:0.78374993999999998;stroke-linecap:butt;stroke-linejoin:miter;stroke-miterlimit:4;stroke-opacity:1;stroke-dasharray:none"
           d="m 292.26781,505.84158 c -4.00625,-2.20125 -7.3925,-3.10375 -11.39875,-3.10375 -5.07875,0 -10.1575,1.975 -13.995,5.36125 -4.28875,3.89375 -6.54625,9.02875 -6.54625,15.01 0,11.00375 7.7875,18.735 18.905,18.735 2.8775,0 4.74,-0.395 8.85875,-1.80625 l 1.185,-9.5925 c -2.93375,1.63625 -5.69875,2.37 -8.63375,2.37 -6.26375,0 -10.5525,-4.06375 -10.5525,-10.10125 0,-6.37625 4.91,-10.9475 11.85125,-10.9475 3.385,0 6.4325,1.12875 9.1975,3.4425 l 1.12875,-9.3675 z"
           inkscape:connector-curvature="0" />
        <path
           id="path3025"
           style="fill:#000000;fill-opacity:1;stroke:#eb222c;stroke-width:0.78374993999999998;stroke-linecap:butt;stroke-linejoin:miter;stroke-miterlimit:4;stroke-opacity:1;stroke-dasharray:none"
           d="m 304.90781,534.22595 13.09125,0 1.69375,6.885 9.9875,0 -9.14125,-37.64 -10.72125,0 -18.6225,37.64 10.5525,0 3.16,-6.885 z m 3.49875,-7.505 3.555,-7.7875 c 0.56375,-1.355 1.0725,-2.6525 1.6925,-4.4575 0.2825,2.0875 0.33875,2.4825 1.01625,5.69875 l 1.4675,6.54625 -7.73125,0 z"
           inkscape:connector-curvature="0" />
        <path
           id="path3029"
           style="fill:#000000;fill-opacity:1;stroke:#eb222c;stroke-width:0.78374993999999998;stroke-linecap:butt;stroke-linejoin:miter;stroke-miterlimit:4;stroke-opacity:1;stroke-dasharray:none"
           d="m 361.39381,506.1802 c -3.72375,-2.37 -7.11,-3.4425 -10.9475,-3.4425 -7.95625,0 -13.825,5.0225 -13.825,11.85 0,5.0225 1.975,7.50625 8.69,10.89125 3.49875,1.75 4.40125,2.59625 4.40125,4.28875 0,2.2575 -2.03125,3.78125 -5.0225,3.78125 -2.595,0 -4.57,-0.73375 -7.95625,-3.0475 l -4.28875,7.2225 c 5.07875,3.10375 8.1825,4.12 12.6975,4.12 4.40125,0 7.78625,-1.185 10.43875,-3.72375 2.54,-2.37125 3.95,-5.64375 3.95,-9.1425 0,-5.0225 -2.0875,-7.67375 -8.35125,-10.5525 -3.8375,-1.805 -4.79625,-2.70875 -4.79625,-4.51375 0,-2.03125 1.63625,-3.27375 4.2325,-3.27375 2.03125,0 4.11875,0.8475 6.60125,2.765 l 4.17625,-7.2225 z"
           inkscape:connector-curvature="0" />
        <path
           id="path3033"
           style="fill:#000000;fill-opacity:1;stroke:#eb222c;stroke-width:0.78374993999999998;stroke-linecap:butt;stroke-linejoin:miter;stroke-miterlimit:4;stroke-opacity:1;stroke-dasharray:none"
           d="m 391.52694,506.1802 c -3.725,-2.37 -7.11,-3.4425 -10.9475,-3.4425 -7.95625,0 -13.825,5.0225 -13.825,11.85 0,5.0225 1.975,7.50625 8.69,10.89125 3.49875,1.75 4.40125,2.59625 4.40125,4.28875 0,2.2575 -2.03125,3.78125 -5.0225,3.78125 -2.595,0 -4.57,-0.73375 -7.95625,-3.0475 l -4.28875,7.2225 c 5.07875,3.10375 8.1825,4.12 12.6975,4.12 4.40125,0 7.78625,-1.185 10.43875,-3.72375 2.54,-2.37125 3.95,-5.64375 3.95,-9.1425 0,-5.0225 -2.0875,-7.67375 -8.35125,-10.5525 -3.8375,-1.805 -4.79625,-2.70875 -4.79625,-4.51375 0,-2.03125 1.63625,-3.27375 4.2325,-3.27375 2.03125,0 4.11875,0.8475 6.60125,2.765 l 4.17625,-7.2225 z"
           inkscape:connector-curvature="0" />
        <path
           id="path3037"
           style="fill:#000000;fill-opacity:1;stroke:#eb222c;stroke-width:0.78374993999999998;stroke-linecap:butt;stroke-linejoin:miter;stroke-miterlimit:4;stroke-opacity:1;stroke-dasharray:none"
           d="m 398.80594,503.47157 -4.6275,37.63875 9.5375,0 1.5225,-12.245 4.6275,0 c 6.2075,0 9.48,-1.01625 12.02,-3.66875 2.2575,-2.37 3.61125,-6.09375 3.61125,-9.9875 0,-4.2325 -1.63625,-7.95625 -4.345,-9.81875 -2.20125,-1.4675 -4.4575,-1.91875 -9.65,-1.91875 l -12.69625,0 z m 8.5775,7.505 2.6525,0 c 4.00625,0 5.69875,1.2975 5.69875,4.40125 0,3.38625 -2.2575,5.1925 -6.48875,5.1925 l -2.99125,0 1.12875,-9.59375 z"
           inkscape:connector-curvature="0" />
        <path
           id="path3041"
           style="fill:#000000;fill-opacity:1;stroke:#eb222c;stroke-width:0.78374993999999998;stroke-linecap:butt;stroke-linejoin:miter;stroke-miterlimit:4;stroke-opacity:1;stroke-dasharray:none"
           d="m 469.11694,532.8152 -11.625,0 c 10.10125,-7.6175 13.14875,-11.7375 13.14875,-17.945 0,-7.505 -5.305,-12.245 -13.7125,-12.245 -5.36125,0 -9.98875,2.2575 -12.47125,6.0375 -1.52375,2.37 -2.20125,4.7975 -2.6525,9.31125 l 9.7625,0 c 0.22625,-2.4825 0.395,-3.61125 0.9025,-4.57125 0.8475,-1.63625 2.2575,-2.4825 4.12,-2.4825 2.54,0 4.28875,1.6925 4.28875,4.2325 0,2.20125 -1.4675,4.8525 -5.07875,9.1975 -4.12,4.96625 -8.74625,9.70625 -16.42125,16.76 l 28.7225,0 1.01625,-8.295 z"
           inkscape:connector-curvature="0" />
        <path
           id="path3057"
           style="fill:#000000;fill-opacity:1;stroke:#eb222c;stroke-width:0.78374993999999998;stroke-linecap:butt;stroke-linejoin:miter;stroke-miterlimit:4;stroke-opacity:1;stroke-dasharray:none"
           d="m 492.25319,502.6252 c -10.3825,0 -17.71875,9.14125 -17.71875,22.06375 0,10.60875 5.86875,17.2675 15.2925,17.2675 5.47375,0 9.64875,-2.14375 12.58375,-6.48875 2.93375,-4.28875 4.74,-10.3275 4.74,-15.74375 0,-10.60875 -5.6425,-17.09875 -14.8975,-17.09875 z m 0.16875,8.295 c 3.38625,0.17 5.07875,2.99125 5.07875,8.63375 0,8.12625 -3.2725,14.1075 -7.78625,14.1075 -3.4425,0 -5.5875,-3.4425 -5.5875,-9.02875 0,-7.73125 3.78125,-13.9375 8.295,-13.7125 z"
           inkscape:connector-curvature="0" />
        <path
           id="path3065"
           style="fill:#000000;fill-opacity:1;stroke:#eb222c;stroke-width:0.78374993999999998;stroke-linecap:butt;stroke-linejoin:miter;stroke-miterlimit:4;stroke-opacity:1;stroke-dasharray:none"
           d="m 528.48043,503.47162 -14.8975,0 -1.01625,8.295 5.36125,0 -3.61125,29.34375 9.53625,0 4.6275,-37.63875 z"
           inkscape:connector-curvature="0" />
        <path
           id="path3077"
           style="fill:#000000;fill-opacity:1;stroke:#eb222c;stroke-width:0.78374993999999998;stroke-linecap:butt;stroke-linejoin:miter;stroke-miterlimit:4;stroke-opacity:1;stroke-dasharray:none"
           d="m 532.82506,528.30083 c 0.0562,3.49875 0.56375,5.53 1.975,7.73125 2.4825,3.89375 6.9975,5.925 13.035,5.925 4.7975,0 8.40875,-1.24125 11.23,-3.89375 2.4825,-2.31375 3.78125,-5.36125 3.78125,-8.69 0,-3.8375 -1.29875,-6.095 -4.34625,-7.7875 3.49875,-1.91875 4.91,-4.17625 4.91,-8.01375 0,-6.77125 -5.07875,-10.9475 -13.37375,-10.9475 -4.74,0 -8.01375,1.185 -10.49625,3.8375 -1.6925,1.8625 -2.6525,4.00625 -3.49875,8.07 l 9.81875,0 c 0.395,-2.87875 1.69375,-4.17625 4.17625,-4.17625 2.31375,0 3.95,1.52375 3.95,3.725 0,2.37 -1.80625,4.00625 -4.345,4.00625 -0.5075,0 -0.9025,-0.0562 -1.80625,-0.17 l -0.84625,7.11125 c 0.45125,-0.0575 1.01625,-0.11375 1.24125,-0.11375 2.935,0 4.85375,1.69375 4.85375,4.345 0,2.8225 -2.0325,4.68375 -5.135,4.68375 -3.66875,0 -5.305,-1.74875 -5.305,-5.6425 l -9.81875,0 z"
           inkscape:connector-curvature="0" />
      </g>
      <g
         transform="translate(-0.3755353,-1.8357522)"
         id="g8739">
        <g
           id="g3079"
           transform="matrix(1.25,0,0,-1.25,226.42623,501.94695)">
          <path
             inkscape:connector-curvature="0"
             d="m 0,0 c -3.518,-2.211 -4.544,-3.983 -7.404,-6.829 -1.607,-1.601 -4.813,-3.831 -6.899,-3.594 -2.878,0.326 -7.196,-1.19 -9.775,-2.731 -2.483,-1.483 -14.372,-14.687 -1.772,-31.283 7.036,-9.272 19.099,-8.405 23.575,-7.026 4.073,1.254 9.112,1.86 10.606,1.855 4.077,-0.015 5.671,0.647 6.177,0.842 0.507,0.195 4.111,2.089 2.141,2.685 -1.971,0.595 -1.646,-0.247 -2.723,-0.467 -1.075,-0.222 -15.5,-0.713 -16.887,-0.375 -1.386,0.337 4.193,3.606 7.906,4.589 4.328,1.146 12.681,2.201 13.392,1.604 0.713,-0.596 1.59,-1.771 2.42,-1.162 0.829,0.61 3.925,3.38 -0.61,5.109 -1.019,0.39 -5.351,1.562 -12.241,2.368 -2.286,0.267 -5.137,0.446 -5.137,0.446 0,0 0.344,1.517 -6.203,3.447 -6.544,1.931 -10.687,4.202 -11.718,4.534 -1.187,0.383 3.359,-2.586 4.156,7.874 0.09,1.187 5.167,0.588 7.463,0.745 0.616,0.043 3.588,-2.076 5.619,-4.195 2.336,-2.441 12.193,-5.765 13.273,-4.213 0.233,0.335 -3.785,14.196 -3.486,15.182 0.298,0.984 2.063,14.097 1.828,14.162 C 11.82,4.082 3.403,2.137 0,0"
             style="fill:#231f20;fill-opacity:1;fill-rule:nonzero;stroke:none"
             id="path3081" />
        </g>
        <g
           id="g3083"
           transform="matrix(1.25,0,0,-1.25,226.42623,501.94695)">
          <path
             inkscape:connector-curvature="0"
             d="m 0,0 c -3.518,-2.211 -4.544,-3.983 -7.404,-6.829 -1.607,-1.601 -4.813,-3.831 -6.899,-3.594 -2.878,0.326 -7.196,-1.19 -9.775,-2.731 -2.483,-1.483 -14.372,-14.687 -1.772,-31.283 7.036,-9.272 19.099,-8.405 23.575,-7.026 4.073,1.254 9.112,1.86 10.606,1.855 4.077,-0.015 5.671,0.647 6.177,0.842 0.507,0.195 4.111,2.089 2.141,2.685 -1.971,0.595 -1.646,-0.247 -2.723,-0.467 -1.075,-0.222 -15.5,-0.713 -16.887,-0.375 -1.386,0.337 4.193,3.606 7.906,4.589 4.328,1.146 12.681,2.201 13.392,1.604 0.713,-0.596 1.59,-1.771 2.42,-1.162 0.829,0.61 3.925,3.38 -0.61,5.109 -1.019,0.39 -5.351,1.562 -12.241,2.368 -2.286,0.267 -5.137,0.446 -5.137,0.446 0,0 0.344,1.517 -6.203,3.447 -6.544,1.931 -10.687,4.202 -11.718,4.534 -1.187,0.383 3.359,-2.586 4.156,7.874 0.09,1.187 5.167,0.588 7.463,0.745 0.616,0.043 3.588,-2.076 5.619,-4.195 2.336,-2.441 12.193,-5.765 13.273,-4.213 0.233,0.335 -3.785,14.196 -3.486,15.182 0.298,0.984 2.063,14.097 1.828,14.162 C 11.82,4.082 3.403,2.137 0,0 z"
             style="fill:none;stroke:#ffffff;stroke-width:1.88100004;stroke-linecap:butt;stroke-linejoin:miter;stroke-miterlimit:4;stroke-opacity:1;stroke-dasharray:none"
             id="path3085" />
        </g>
        <g
           id="g3087"
           transform="matrix(1.25,0,0,-1.25,226.42623,501.94695)">
          <path
             inkscape:connector-curvature="0"
             d="m 0,0 c -3.518,-2.211 -4.544,-3.983 -7.404,-6.829 -1.607,-1.601 -4.813,-3.831 -6.899,-3.594 -2.878,0.326 -7.196,-1.19 -9.776,-2.731 -2.482,-1.483 -14.371,-14.687 -1.773,-31.283 7.038,-9.272 19.101,-8.405 23.577,-7.026 4.072,1.254 9.111,1.86 10.605,1.855 4.078,-0.015 5.672,0.647 6.177,0.842 0.507,0.195 4.111,2.089 2.14,2.685 -1.97,0.595 -1.644,-0.247 -2.721,-0.467 -1.076,-0.222 -15.5,-0.713 -16.887,-0.375 -1.386,0.337 4.193,3.606 7.906,4.589 4.326,1.146 12.68,2.201 13.392,1.604 0.713,-0.596 1.59,-1.771 2.42,-1.162 0.829,0.61 3.924,3.38 -0.61,5.109 -1.02,0.39 -5.353,1.562 -12.241,2.368 -2.287,0.267 -5.138,0.446 -5.138,0.446 0,0 0.345,1.517 -6.202,3.447 -6.545,1.931 -10.688,4.202 -11.718,4.534 -1.187,0.383 3.359,-2.586 4.156,7.874 0.09,1.187 5.167,0.588 7.463,0.745 0.616,0.043 3.588,-2.076 5.617,-4.195 2.338,-2.441 12.195,-5.765 13.275,-4.213 0.232,0.335 -3.785,14.196 -3.488,15.182 C 12.17,-9.611 13.936,3.502 13.7,3.567 11.82,4.082 3.402,2.137 0,0"
             style="fill:#231f20;fill-opacity:1;fill-rule:nonzero;stroke:none"
             id="path3089" />
        </g>
        <g
           id="g3091"
           transform="matrix(1.25,0,0,-1.25,226.42623,501.94695)">
          <path
             inkscape:connector-curvature="0"
             d="m 0,0 c -3.518,-2.211 -4.544,-3.983 -7.404,-6.829 -1.607,-1.601 -4.813,-3.831 -6.899,-3.594 -2.878,0.326 -7.196,-1.19 -9.776,-2.731 -2.482,-1.483 -14.371,-14.687 -1.773,-31.283 7.038,-9.272 19.101,-8.405 23.577,-7.026 4.072,1.254 9.111,1.86 10.605,1.855 4.078,-0.015 5.672,0.647 6.177,0.842 0.507,0.195 4.111,2.089 2.14,2.685 -1.97,0.595 -1.644,-0.247 -2.721,-0.467 -1.076,-0.222 -15.5,-0.713 -16.887,-0.375 -1.386,0.337 4.193,3.606 7.906,4.589 4.326,1.146 12.68,2.201 13.392,1.604 0.713,-0.596 1.59,-1.771 2.42,-1.162 0.829,0.61 3.924,3.38 -0.61,5.109 -1.02,0.39 -5.353,1.562 -12.241,2.368 -2.287,0.267 -5.138,0.446 -5.138,0.446 0,0 0.345,1.517 -6.202,3.447 -6.545,1.931 -10.688,4.202 -11.718,4.534 -1.187,0.383 3.359,-2.586 4.156,7.874 0.09,1.187 5.167,0.588 7.463,0.745 0.616,0.043 3.588,-2.076 5.617,-4.195 2.338,-2.441 12.195,-5.765 13.275,-4.213 0.232,0.335 -3.785,14.196 -3.488,15.182 C 12.17,-9.611 13.936,3.502 13.7,3.567 11.82,4.082 3.402,2.137 0,0 z"
             style="fill:none;stroke:#231f20;stroke-width:0.90799999;stroke-linecap:butt;stroke-linejoin:miter;stroke-miterlimit:4;stroke-opacity:1;stroke-dasharray:none"
             id="path3093" />
        </g>
        <g
           id="g3095"
           transform="matrix(1.25,0,0,-1.25,223.10748,561.12958)">
          <path
             inkscape:connector-curvature="0"
             d="m 0,0 c 0,0 14.193,0.078 16,0.418 1.807,0.341 1.885,0.499 1.885,0.499 0,0 0.419,-0.63 -0.444,-1.126 C 16.576,-0.708 10.971,-1.52 10.265,-1.625 9.558,-1.73 3.745,-2.54 1.623,-3.221 -0.498,-3.902 0,0 0,0"
             style="fill:#ffffff;fill-opacity:1;fill-rule:nonzero;stroke:none"
             id="path3097" />
        </g>
        <g
           id="g3099"
           transform="matrix(1.25,0,0,-1.25,223.10748,561.12958)">
          <path
             inkscape:connector-curvature="0"
             d="m 0,0 c 0,0 14.193,0.078 16,0.418 1.807,0.341 1.885,0.499 1.885,0.499 0,0 0.419,-0.63 -0.444,-1.126 C 16.576,-0.708 10.971,-1.52 10.265,-1.625 9.558,-1.73 3.745,-2.54 1.623,-3.221 -0.498,-3.902 0,0 0,0 z"
             style="fill:none;stroke:#231f20;stroke-width:0.303;stroke-linecap:butt;stroke-linejoin:miter;stroke-miterlimit:4;stroke-opacity:1;stroke-dasharray:none"
             id="path3101" />
        </g>
        <g
           id="g3103"
           transform="matrix(1.25,0,0,-1.25,229.32698,544.10908)">
          <path
             inkscape:connector-curvature="0"
             d="m 0,0 c 0,0 -10.266,-2.828 -11.942,-4.948 -1.676,-2.123 -1.388,-2.698 -1.31,-3.274 0.079,-0.577 0.734,-4.976 1.31,-5.841 0.576,-0.863 0.681,-1.335 1.074,-1.493 0.393,-0.156 0.733,-0.078 0.733,-0.078 0,0 -0.577,-0.917 0.445,-1.204 1.021,-0.288 2.619,-0.76 3.353,-0.629 0.733,0.13 1.833,0.183 2.513,0.419 0.68,0.237 4.725,1.61 4.601,1.237 -0.083,-0.248 -2.225,1.566 -2.401,1.565 -1.337,-0.002 -3.823,0.63 -3.98,0.681 -0.159,0.052 -2.017,2.425 -1.676,3.274 0.104,0.261 1.413,0.654 2.409,1.047 0.995,0.392 4.138,1.388 5.028,1.624 0.889,0.235 5.76,0.654 9.008,0.916 3.248,0.262 5.001,0.078 5.001,0.078 l 0.63,0.236 1.649,-0.628 c 0,0 1.127,-1.1 1.362,-1.048 0.236,0.053 2.618,1.755 2.174,2.803 -0.445,1.046 -0.655,1.492 -1.886,1.911 -1.231,0.419 -8.091,2.017 -10.998,2.305 C 4.189,-0.759 0,0 0,0"
             style="fill:#231f20;fill-opacity:1;fill-rule:nonzero;stroke:none"
             id="path3105" />
        </g>
        <g
           id="g3107"
           transform="matrix(1.25,0,0,-1.25,212.96398,524.15095)">
          <path
             inkscape:connector-curvature="0"
             d="M 0,0 C 0,0 2.351,-1.217 2.97,-1.013 3.589,-0.812 2.628,-2.265 2.198,-2.959 1.766,-3.655 0.099,-3.942 0.331,-4.815 c 0.233,-0.871 -2.194,-1.529 -2.194,-1.529 0,0 0.21,1.902 0.646,3.626 C -0.781,-0.994 0,0 0,0"
             style="fill:#231f20;fill-opacity:1;fill-rule:nonzero;stroke:none"
             id="path3109" />
        </g>
        <g
           id="g3111"
           transform="matrix(1.25,0,0,-1.25,212.96398,524.15095)">
          <path
             inkscape:connector-curvature="0"
             d="M 0,0 C 0,0 2.351,-1.217 2.97,-1.013 3.589,-0.812 2.628,-2.265 2.198,-2.959 1.766,-3.655 0.099,-3.942 0.331,-4.815 c 0.233,-0.871 -2.194,-1.529 -2.194,-1.529 0,0 0.21,1.902 0.646,3.626 C -0.781,-0.994 0,0 0,0 z"
             style="fill:none;stroke:#231f20;stroke-width:0.90799999;stroke-linecap:butt;stroke-linejoin:miter;stroke-miterlimit:4;stroke-opacity:1;stroke-dasharray:none"
             id="path3113" />
        </g>
        <g
           id="g3115"
           transform="matrix(1.25,0,0,-1.25,229.9301,543.97357)">
          <path
             inkscape:connector-curvature="0"
             d="m 0,0 c 0,0 -9.277,-1.834 -11.01,-2.715 -3.064,-1.556 -4.081,-3.214 -3.382,-6.04 0.701,-2.826 0.948,-5.728 2.179,-6.416 1.231,-0.686 -2.853,6.156 -0.599,9.345 C -10.556,-2.636 0,0 0,0"
             style="fill:#231f20;fill-opacity:1;fill-rule:nonzero;stroke:none"
             id="path3117" />
        </g>
        <g
           id="g3119"
           transform="matrix(1.25,0,0,-1.25,222.38198,560.94058)">
          <path
             inkscape:connector-curvature="0"
             d="m 0,0 c 0,0 -2.217,-1.529 -2.929,-0.933 -0.713,0.596 -2.684,3.706 -1.116,5.664 1.568,1.957 2.76,2.126 2.76,2.126 0,0 -2.813,-3.5 -1.502,-4.641 C -1.478,1.076 0,0 0,0"
             style="fill:#ffffff;fill-opacity:1;fill-rule:nonzero;stroke:none"
             id="path3121" />
        </g>
        <g
           id="g3123"
           transform="matrix(1.25,0,0,-1.25,188.18173,544.87908)">
          <path
             inkscape:connector-curvature="0"
             d="m 0,0 c 0,0 1.88,-5.296 7.659,-8.808 0.588,-0.357 4.852,-3.063 6,-3.063 l 2.681,0 c 0,0 -0.894,4.594 0.51,6.382 1.404,1.787 1.66,1.149 1.66,1.149 0,0 -2.98,-3.222 0.255,-8.808 1.404,-2.425 -3.192,-1.404 -3.192,-1.404 l 0.894,-2.681 c 0,0 -2.681,0.638 -3.447,1.021 -0.765,0.383 -1.659,2.681 -1.659,2.681 0,0 -6.422,4.274 -7.233,5.165 C 1.575,-5.557 0,0 0,0"
             style="fill:#ffffff;fill-opacity:1;fill-rule:nonzero;stroke:none"
             id="path3125" />
        </g>
        <g
           id="g3127"
           transform="matrix(1.25,0,0,-1.25,208.45048,562.89958)">
          <path
             inkscape:connector-curvature="0"
             d="m 0,0 c -0.475,-1.271 0.053,-1.896 0.053,-1.896 l -1.207,0.811 c 0,0 -2.1,-1.335 -4.929,-1.146 -2.827,0.19 -5.691,2.417 -8.646,3.898 -1.083,0.542 -0.733,1.357 -0.733,1.357 0,0 6.154,0.004 7.888,-0.071 C -5.461,2.861 -3.626,2.938 -2.736,2.74 -0.467,2.235 0.684,1.147 0.684,1.147 0.684,1.147 0.475,1.269 0,0"
             style="fill:#ffffff;fill-opacity:1;fill-rule:nonzero;stroke:none"
             id="path3129" />
        </g>
        <g
           id="g3131"
           transform="matrix(1.25,0,0,-1.25,208.45048,562.89958)">
          <path
             inkscape:connector-curvature="0"
             d="m 0,0 c -0.475,-1.271 0.053,-1.896 0.053,-1.896 l -1.207,0.811 c 0,0 -2.1,-1.335 -4.929,-1.146 -2.827,0.19 -5.691,2.417 -8.646,3.898 -1.083,0.542 -0.733,1.357 -0.733,1.357 0,0 6.154,0.004 7.888,-0.071 C -5.461,2.861 -3.626,2.938 -2.736,2.74 -0.467,2.235 0.684,1.147 0.684,1.147 0.684,1.147 0.475,1.269 0,0 z"
             style="fill:none;stroke:#231f20;stroke-width:0.90799999;stroke-linecap:butt;stroke-linejoin:miter;stroke-miterlimit:4;stroke-opacity:1;stroke-dasharray:none"
             id="path3133" />
        </g>
        <g
           id="g3135"
           transform="matrix(1.25,0,0,-1.25,248.50898,552.3247)">
          <path
             inkscape:connector-curvature="0"
             d="m 0,0 c 0,0 -10.963,0.435 -16.137,-1.433 -5.176,-1.869 -6.901,-1.94 -6.613,-2.731 0.287,-0.791 1.294,-2.301 1.294,-2.301 0,0 3.571,3.348 7.105,4.186 C -10.372,-1.335 0,0 0,0"
             style="fill:#eb222c;fill-opacity:1;fill-rule:nonzero;stroke:none"
             id="path3137" />
        </g>
        <g
           id="g3139"
           transform="matrix(1.25,0,0,-1.25,248.50898,552.3247)">
          <path
             inkscape:connector-curvature="0"
             d="m 0,0 c 0,0 -10.963,0.435 -16.137,-1.433 -5.176,-1.869 -6.901,-1.94 -6.613,-2.731 0.287,-0.791 1.294,-2.301 1.294,-2.301 0,0 3.571,3.348 7.105,4.186 C -10.372,-1.335 0,0 0,0 z"
             style="fill:none;stroke:#231f20;stroke-width:0.303;stroke-linecap:butt;stroke-linejoin:miter;stroke-miterlimit:4;stroke-opacity:1;stroke-dasharray:none"
             id="path3141" />
        </g>
        <g
           id="g3143"
           transform="matrix(1.25,0,0,-1.25,216.90335,511.02245)">
          <path
             inkscape:connector-curvature="0"
             d="M 0,0 C 0,0 4.097,-0.98 4.815,-3.019 6.612,-8.122 4.539,-9.586 4.24,-10.063"
             style="fill:none;stroke:#231f20;stroke-width:0.90799999;stroke-linecap:butt;stroke-linejoin:miter;stroke-miterlimit:4;stroke-opacity:1;stroke-dasharray:none"
             id="path3145" />
        </g>
        <g
           id="g3147"
           transform="matrix(1.25,0,0,-1.25,200.42773,525.30245)">
          <path
             inkscape:connector-curvature="0"
             d="m 0,0 c 0,0 0.27,-4.409 2.88,-6.389 3.302,-2.506 14.038,-5.849 14.938,-6.3 0.9,-0.45 2.43,-0.72 2.79,-1.169 0.36,-0.451 0.27,-0.72 0.27,-0.72 0,0 -7.281,-2.107 -8.209,-2.458 0,0 -6.549,1.289 -10.869,6.147 C -2.519,-6.03 0,0 0,0"
             style="fill:#eb222c;fill-opacity:1;fill-rule:nonzero;stroke:none"
             id="path3149" />
        </g>
        <g
           id="g3151"
           transform="matrix(1.25,0,0,-1.25,200.42773,525.30245)">
          <path
             inkscape:connector-curvature="0"
             d="m 0,0 c 0,0 0.27,-4.409 2.88,-6.389 3.302,-2.506 14.038,-5.849 14.938,-6.3 0.9,-0.45 2.43,-0.72 2.79,-1.169 0.36,-0.451 0.27,-0.72 0.27,-0.72 0,0 -7.281,-2.107 -8.209,-2.458 0,0 -6.549,1.289 -10.869,6.147 C -2.519,-6.03 0,0 0,0 z"
             style="fill:none;stroke:#231f20;stroke-width:0.303;stroke-linecap:butt;stroke-linejoin:miter;stroke-miterlimit:4;stroke-opacity:1;stroke-dasharray:none"
             id="path3153" />
        </g>
        <g
           id="g3155"
           transform="matrix(1.25,0,0,-1.25,206.67023,523.08445)">
          <path
             inkscape:connector-curvature="0"
             d="m 0,0 c 0,0 3.091,1.82 3.675,2.095 0.584,0.275 1.374,0.515 2.198,0.756 0.824,0.24 4.465,1.442 4.808,1.854 0.343,0.412 1.34,2.404 1.34,2.404 0,0 1.235,-0.893 1.167,-3.812 -0.068,-2.92 -1.511,-2.954 -1.511,-2.954 0,0 -4.25,0.993 -7.308,-0.21 -0.795,-0.312 -2.263,-6.112 -2.263,-7.243 0,-1.226 -2.164,-0.736 -2.717,-1.283 -0.786,-0.781 -0.006,4.031 -0.006,4.031 0,0 0.48,2.713 0.514,3.091 C -0.069,-0.893 0,0 0,0"
             style="fill:#ffffff;fill-opacity:1;fill-rule:nonzero;stroke:none"
             id="path3157" />
        </g>
        <g
           id="g3159"
           transform="matrix(1.25,0,0,-1.25,206.67023,523.08445)">
          <path
             inkscape:connector-curvature="0"
             d="m 0,0 c 0,0 3.091,1.82 3.675,2.095 0.584,0.275 1.374,0.515 2.198,0.756 0.824,0.24 4.465,1.442 4.808,1.854 0.343,0.412 1.34,2.404 1.34,2.404 0,0 1.235,-0.893 1.167,-3.812 -0.068,-2.92 -1.511,-2.954 -1.511,-2.954 0,0 -4.25,0.993 -7.308,-0.21 -0.795,-0.312 -2.263,-6.112 -2.263,-7.243 0,-1.226 -2.164,-0.736 -2.717,-1.283 -0.786,-0.781 -0.006,4.031 -0.006,4.031 0,0 0.48,2.713 0.514,3.091 C -0.069,-0.893 0,0 0,0 z"
             style="fill:none;stroke:#231f20;stroke-width:0.303;stroke-linecap:butt;stroke-linejoin:miter;stroke-miterlimit:4;stroke-opacity:1;stroke-dasharray:none"
             id="path3161" />
        </g>
        <g
           id="g3163"
           transform="matrix(1.25,0,0,-1.25,199.5866,524.23707)">
          <path
             inkscape:connector-curvature="0"
             d="m 0,0 c 0,0 -3.317,-10.543 4.905,-12.225 13.281,-2.717 12.3,-4.301 12.3,-4.301 0,0 -3.699,0.593 -7.548,-1.671 -1.688,-0.992 -2.563,-2.103 -2.941,-3.612 -0.377,-1.509 -0.453,-3.622 -0.453,-3.622 0,0 -0.528,2.566 -2.64,5.207 -2.114,2.641 -8.082,4.817 -8.621,10.436 C -5.677,-2.694 0,0 0,0"
             style="fill:#ffffff;fill-opacity:1;fill-rule:nonzero;stroke:none"
             id="path3165" />
        </g>
        <g
           id="g3167"
           transform="matrix(1.25,0,0,-1.25,199.5866,524.23707)">
          <path
             inkscape:connector-curvature="0"
             d="m 0,0 c 0,0 -3.317,-10.543 4.905,-12.225 13.281,-2.717 12.3,-4.301 12.3,-4.301 0,0 -3.699,0.593 -7.548,-1.671 -1.688,-0.992 -2.563,-2.103 -2.941,-3.612 -0.377,-1.509 -0.453,-3.622 -0.453,-3.622 0,0 -0.528,2.566 -2.64,5.207 -2.114,2.641 -8.082,4.817 -8.621,10.436 C -5.677,-2.694 0,0 0,0 z"
             style="fill:none;stroke:#231f20;stroke-width:0.303;stroke-linecap:butt;stroke-linejoin:miter;stroke-miterlimit:4;stroke-opacity:1;stroke-dasharray:none"
             id="path3169" />
        </g>
        <g
           id="g3171"
           transform="matrix(1.25,0,0,-1.25,191.28523,560.7427)">
          <path
             inkscape:connector-curvature="0"
             d="m 0,0 9.962,-0.151 3.395,-0.905 c 0,0 -4.075,0.301 -7.093,0.301 -3.018,0 -4.981,-0.378 -4.981,-0.378 L 0,0 z"
             style="fill:#231f20;fill-opacity:1;fill-rule:nonzero;stroke:none"
             id="path3173" />
        </g>
        <g
           id="g3175"
           transform="matrix(1.25,0,0,-1.25,195.6961,562.79395)">
          <path
             inkscape:connector-curvature="0"
             d="M 0,0 4.981,-0.075 9.15,-0.321 c 0,0 -4.51,-0.057 -6.019,-0.057 -1.509,0 -2.491,-0.189 -2.491,-0.189 L 0,0 z"
             style="fill:#231f20;fill-opacity:1;fill-rule:nonzero;stroke:none"
             id="path3177" />
        </g>
        <g
           id="g3179"
           transform="matrix(1.25,0,0,-1.25,207.03835,519.80445)">
          <path
             inkscape:connector-curvature="0"
             d="m 0,0 c 0,0 2.491,1.132 3.925,1.51 1.433,0.377 4.753,1.207 5.206,1.811 0.453,0.603 1.284,2.263 1.284,2.263 l 0.829,-0.528 c 0,0 -0.981,-2.113 -1.509,-2.415 C 9.207,2.34 4.83,1.132 3.396,0.528 1.962,-0.075 -0.226,-1.283 -0.226,-1.283 L 0,0 z"
             style="fill:#ffffff;fill-opacity:1;fill-rule:nonzero;stroke:none"
             id="path3181" />
        </g>
        <g
           id="g3183"
           transform="matrix(1.25,0,0,-1.25,207.03835,519.80445)">
          <path
             inkscape:connector-curvature="0"
             d="m 0,0 c 0,0 2.491,1.132 3.925,1.51 1.433,0.377 4.753,1.207 5.206,1.811 0.453,0.603 1.284,2.263 1.284,2.263 l 0.829,-0.528 c 0,0 -0.981,-2.113 -1.509,-2.415 C 9.207,2.34 4.83,1.132 3.396,0.528 1.962,-0.075 -0.226,-1.283 -0.226,-1.283 L 0,0 z"
             style="fill:none;stroke:#231f20;stroke-width:0.303;stroke-linecap:butt;stroke-linejoin:miter;stroke-miterlimit:4;stroke-opacity:1;stroke-dasharray:none"
             id="path3185" />
        </g>
        <g
           id="g3187"
           transform="matrix(1.25,0,0,-1.25,200.58848,557.49058)">
          <path
             inkscape:connector-curvature="0"
             d="m 0,0 c 0,0 -0.275,2.555 -0.089,3.734 0.183,1.178 0.369,2.357 0.369,2.357 0,0 -1.573,-2.024 -1.547,-3.55 0.025,-1.525 0.064,-3.126 0.064,-3.126 L 0.062,-0.831 0,0 z"
             style="fill:#eb222c;fill-opacity:1;fill-rule:nonzero;stroke:none"
             id="path3189" />
        </g>
        <g
           id="g3191"
           transform="matrix(1.25,0,0,-1.25,200.58848,557.49058)">
          <path
             inkscape:connector-curvature="0"
             d="m 0,0 c 0,0 -0.275,2.555 -0.089,3.734 0.183,1.178 0.369,2.357 0.369,2.357 0,0 -1.573,-2.024 -1.547,-3.55 0.025,-1.525 0.064,-3.126 0.064,-3.126 L 0.062,-0.831 0,0 z"
             style="fill:none;stroke:#231f20;stroke-width:0.303;stroke-linecap:butt;stroke-linejoin:miter;stroke-miterlimit:4;stroke-opacity:1;stroke-dasharray:none"
             id="path3193" />
        </g>
        <g
           id="g3195"
           transform="matrix(1.25,0,0,-1.25,195.8401,554.31845)">
          <path
             inkscape:connector-curvature="0"
             d="m 0,0 c 0,0 -0.121,2.567 0.135,3.733 0.254,1.164 0.512,2.331 0.512,2.331 0,0 -1.694,-1.926 -1.759,-3.45 -0.066,-1.525 -0.124,-3.125 -0.124,-3.125 L 0.012,-0.835 0,0 z"
             style="fill:#eb222c;fill-opacity:1;fill-rule:nonzero;stroke:none"
             id="path3197" />
        </g>
        <g
           id="g3199"
           transform="matrix(1.25,0,0,-1.25,195.8401,554.31845)">
          <path
             inkscape:connector-curvature="0"
             d="m 0,0 c 0,0 -0.121,2.567 0.135,3.733 0.254,1.164 0.512,2.331 0.512,2.331 0,0 -1.694,-1.926 -1.759,-3.45 -0.066,-1.525 -0.124,-3.125 -0.124,-3.125 L 0.012,-0.835 0,0 z"
             style="fill:none;stroke:#231f20;stroke-width:0.303;stroke-linecap:butt;stroke-linejoin:miter;stroke-miterlimit:4;stroke-opacity:1;stroke-dasharray:none"
             id="path3201" />
        </g>
        <g
           id="g3203"
           transform="matrix(1.25,0,0,-1.25,192.12573,549.90945)">
          <path
             inkscape:connector-curvature="0"
             d="m 0,0 c 0,0 -0.121,2.567 0.135,3.733 0.255,1.166 0.51,2.331 0.51,2.331 0,0 -1.692,-1.925 -1.758,-3.449 -0.064,-1.526 -0.122,-3.126 -0.122,-3.126 L 0.013,-0.833 0,0 z"
             style="fill:#eb222c;fill-opacity:1;fill-rule:nonzero;stroke:none"
             id="path3205" />
        </g>
        <g
           id="g3207"
           transform="matrix(1.25,0,0,-1.25,192.12573,549.90945)">
          <path
             inkscape:connector-curvature="0"
             d="m 0,0 c 0,0 -0.121,2.567 0.135,3.733 0.255,1.166 0.51,2.331 0.51,2.331 0,0 -1.692,-1.925 -1.758,-3.449 -0.064,-1.526 -0.122,-3.126 -0.122,-3.126 L 0.013,-0.833 0,0 z"
             style="fill:none;stroke:#231f20;stroke-width:0.303;stroke-linecap:butt;stroke-linejoin:miter;stroke-miterlimit:4;stroke-opacity:1;stroke-dasharray:none"
             id="path3209" />
        </g>
        <g
           id="g3211"
           transform="matrix(1.25,0,0,-1.25,189.39098,545.56983)">
          <path
             inkscape:connector-curvature="0"
             d="m 0,0 c 0,0 -0.121,2.566 0.134,3.733 0.255,1.165 0.511,2.331 0.511,2.331 0,0 -1.692,-1.926 -1.758,-3.451 -0.065,-1.524 -0.123,-3.124 -0.123,-3.124 L 0.012,-0.834 0,0 z"
             style="fill:#eb222c;fill-opacity:1;fill-rule:nonzero;stroke:none"
             id="path3213" />
        </g>
        <g
           id="g3215"
           transform="matrix(1.25,0,0,-1.25,189.39098,545.56983)">
          <path
             inkscape:connector-curvature="0"
             d="m 0,0 c 0,0 -0.121,2.566 0.134,3.733 0.255,1.165 0.511,2.331 0.511,2.331 0,0 -1.692,-1.926 -1.758,-3.451 -0.065,-1.524 -0.123,-3.124 -0.123,-3.124 L 0.012,-0.834 0,0 z"
             style="fill:none;stroke:#231f20;stroke-width:0.303;stroke-linecap:butt;stroke-linejoin:miter;stroke-miterlimit:4;stroke-opacity:1;stroke-dasharray:none"
             id="path3217" />
        </g>
        <g
           id="g3219"
           transform="matrix(1.25,0,0,-1.25,206.65335,528.71432)">
          <path
             inkscape:connector-curvature="0"
             d="m 0,0 c 0.815,5.157 0.302,17.161 0.193,17.894 -0.108,0.735 -1.288,-1.757 -1.288,-1.757 0,0 -1.245,-1.566 -1.596,-1.985 -0.35,-0.42 -2.987,-2.352 -2.987,-2.352 l 0.964,-4.179 c 0,0 0.574,-1.841 1.008,-3.987 1.902,-9.41 3.563,-6.834 3.563,-6.834 L 0,0 z"
             style="fill:#ffffff;fill-opacity:1;fill-rule:nonzero;stroke:none"
             id="path3221" />
        </g>
        <g
           id="g3223"
           transform="matrix(1.25,0,0,-1.25,206.65335,528.71432)">
          <path
             inkscape:connector-curvature="0"
             d="m 0,0 c 0.815,5.157 0.302,17.161 0.193,17.894 -0.108,0.735 -1.288,-1.757 -1.288,-1.757 0,0 -1.245,-1.566 -1.596,-1.985 -0.35,-0.42 -2.987,-2.352 -2.987,-2.352 l 0.964,-4.179 c 0,0 0.574,-1.841 1.008,-3.987 1.902,-9.41 3.563,-6.834 3.563,-6.834 L 0,0 z"
             style="fill:none;stroke:#231f20;stroke-width:1.01900005;stroke-linecap:butt;stroke-linejoin:miter;stroke-miterlimit:4;stroke-opacity:1;stroke-dasharray:none"
             id="path3225" />
        </g>
        <g
           id="g3227"
           transform="matrix(1.25,0,0,-1.25,205.04073,510.6857)">
          <path
             inkscape:connector-curvature="0"
             d="m 0,0 -1.324,-0.59 c 0,0 0.87,-1.966 1.114,-4.911 0.242,-2.945 0.375,-10.925 0.375,-10.925 0,0 0.649,11.713 0.459,13.605 C 0.434,-0.929 0,0 0,0"
             style="fill:#231f20;fill-opacity:1;fill-rule:nonzero;stroke:none"
             id="path3229" />
        </g>
        <g
           id="g3231"
           transform="matrix(1.25,0,0,-1.25,202.80048,512.99633)">
          <path
             inkscape:connector-curvature="0"
             d="m 0,0 -1.493,-0.155 c 0,0 0.686,-2.133 1.113,-4.91 0.439,-2.84 1.5,-8.383 1.432,-7.927 0,0 -0.407,8.714 -0.596,10.606 C 0.265,-0.494 0,0 0,0"
             style="fill:#231f20;fill-opacity:1;fill-rule:nonzero;stroke:none"
             id="path3233" />
        </g>
        <g
           id="g3235"
           transform="matrix(1.25,0,0,-1.25,208.4581,514.18907)">
          <path
             inkscape:connector-curvature="0"
             d="M 0,0 C 0.433,0.561 1.954,3.528 2.983,3.098 3.845,2.737 2.526,1.076 3.985,0.449 3.014,-0.288 1.512,-0.274 0.344,-0.228"
             style="fill:#ffffff;fill-opacity:1;fill-rule:nonzero;stroke:#231f20;stroke-width:0.90799999;stroke-linecap:butt;stroke-linejoin:miter;stroke-miterlimit:4;stroke-opacity:1;stroke-dasharray:none"
             id="path3237" />
        </g>
        <g
           id="g3239"
           transform="matrix(1.25,0,0,-1.25,213.71635,548.9402)">
          <path
             inkscape:connector-curvature="0"
             d="M 0,0 C 3.049,1.401 10.299,3.626 11.535,3.708 12.771,3.79 15.767,3.591 18.074,3.18 20.38,2.766 24.057,1.895 24.057,1.895 l -5.189,-4.449 c 0,0 -5.526,-0.867 -7.171,-1.423 -1.645,-0.553 -2.634,-0.718 -2.634,-0.718 0,0 -4.943,3.707 -5.191,4.284 C 3.625,0.165 0,0 0,0"
             style="fill:#ffffff;fill-opacity:1;fill-rule:nonzero;stroke:none"
             id="path3241" />
        </g>
        <g
           id="g3243"
           transform="matrix(1.25,0,0,-1.25,213.71635,548.9402)">
          <path
             inkscape:connector-curvature="0"
             d="M 0,0 C 3.049,1.401 10.299,3.626 11.535,3.708 12.771,3.79 15.767,3.591 18.074,3.18 20.38,2.766 24.057,1.895 24.057,1.895 l -5.189,-4.449 c 0,0 -5.526,-0.867 -7.171,-1.423 -1.645,-0.553 -2.634,-0.718 -2.634,-0.718 0,0 -4.943,3.707 -5.191,4.284 C 3.625,0.165 0,0 0,0 z"
             style="fill:none;stroke:#231f20;stroke-width:0.303;stroke-linecap:butt;stroke-linejoin:miter;stroke-miterlimit:4;stroke-opacity:1;stroke-dasharray:none"
             id="path3245" />
        </g>
        <g
           id="g3247"
           transform="matrix(1.25,0,0,-1.25,219.91898,549.42007)">
          <path
             inkscape:connector-curvature="0"
             d="m 0,0 c 0,0 2.705,1.198 3.709,1.842 1.005,0.644 2.172,1.622 4.433,1.605 2.406,-0.018 5.74,-3.637 5.74,-3.637 L 10.81,-0.254 c 0,0 -0.425,-2.489 -3.077,-2.397 -2.651,0.092 -3.142,2.255 -3.142,2.255 L 0,0 z"
             style="fill:#ffffff;fill-opacity:1;fill-rule:nonzero;stroke:none"
             id="path3249" />
        </g>
        <g
           id="g3251"
           transform="matrix(1.25,0,0,-1.25,219.91898,549.42007)">
          <path
             inkscape:connector-curvature="0"
             d="m 0,0 c 0,0 2.705,1.198 3.709,1.842 1.005,0.644 2.172,1.622 4.433,1.605 2.406,-0.018 5.74,-3.637 5.74,-3.637 L 10.81,-0.254 c 0,0 -0.425,-2.489 -3.077,-2.397 -2.651,0.092 -3.142,2.255 -3.142,2.255 L 0,0 z"
             style="fill:none;stroke:#231f20;stroke-width:0.57499999;stroke-linecap:butt;stroke-linejoin:miter;stroke-miterlimit:4;stroke-opacity:1;stroke-dasharray:none"
             id="path3253" />
        </g>
        <g
           id="g3255"
           transform="matrix(1.25,0,0,-1.25,232.03185,549.36883)">
          <path
             inkscape:connector-curvature="0"
             d="M 0,0 C 0.228,0.98 -0.382,1.958 -1.361,2.183 -2.339,2.411 -3.316,1.801 -3.544,0.823 -3.771,-0.156 -3.161,-1.135 -2.183,-1.36 -1.204,-1.588 -0.227,-0.978 0,0"
             style="fill:#ffffff;fill-opacity:1;fill-rule:nonzero;stroke:none"
             id="path3257" />
        </g>
        <g
           id="g3259"
           transform="matrix(1.25,0,0,-1.25,232.03185,549.36883)">
          <path
             inkscape:connector-curvature="0"
             d="M 0,0 C 0.228,0.98 -0.382,1.958 -1.361,2.183 -2.339,2.411 -3.316,1.801 -3.544,0.823 -3.771,-0.156 -3.161,-1.135 -2.183,-1.36 -1.204,-1.588 -0.227,-0.978 0,0 z"
             style="fill:none;stroke:#231f20;stroke-width:0.86299998;stroke-linecap:butt;stroke-linejoin:miter;stroke-miterlimit:4;stroke-opacity:1;stroke-dasharray:none"
             id="path3261" />
        </g>
        <g
           id="g3263"
           transform="matrix(1.25,0,0,-1.25,231.09348,548.67845)">
          <path
             inkscape:connector-curvature="0"
             d="M 0,0 C -0.098,0.513 -0.595,0.85 -1.108,0.751 -1.621,0.652 -1.957,0.155 -1.859,-0.358 -1.76,-0.87 -1.264,-1.207 -0.751,-1.108 -0.238,-1.009 0.099,-0.513 0,0"
             style="fill:#231f20;fill-opacity:1;fill-rule:nonzero;stroke:none"
             id="path3265" />
        </g>
        <g
           id="g3267"
           transform="matrix(1.25,0,0,-1.25,243.65348,498.09745)">
          <path
             inkscape:connector-curvature="0"
             d="m 0,0 -0.069,-1.449 c 0,0 -2.035,-0.503 -4.98,-0.745 -7.036,-0.58 -12.885,-6.018 -12.885,-6.018 0,0 5.355,6.757 15.079,7.769 C -0.964,-0.247 0,0 0,0"
             style="fill:#ffffff;fill-opacity:1;fill-rule:nonzero;stroke:none"
             id="path3269" />
        </g>
        <g
           id="g3271"
           transform="matrix(1.25,0,0,-1.25,242.9386,501.3832)">
          <path
             inkscape:connector-curvature="0"
             d="m 0,0 -0.069,-1.449 c 0,0 -2.035,-0.502 -4.98,-0.745 -7.035,-0.579 -11.407,-4.955 -11.407,-4.955 0,0 4.372,5.611 13.601,6.706 C -0.966,-0.219 0,0 0,0"
             style="fill:#ffffff;fill-opacity:1;fill-rule:nonzero;stroke:none"
             id="path3273" />
        </g>
        <g
           id="g3275"
           transform="matrix(1.25,0,0,-1.25,242.32173,504.98783)">
          <path
             inkscape:connector-curvature="0"
             d="m 0,0 -0.071,-1.449 c 0,0 -2.034,-0.502 -4.979,-0.745 -7.036,-0.579 -10.315,-3.617 -10.315,-3.617 0,0 3.279,4.273 12.509,5.368 C -0.967,-0.219 0,0 0,0"
             style="fill:#ffffff;fill-opacity:1;fill-rule:nonzero;stroke:none"
             id="path3277" />
        </g>
        <g
           id="g3279"
           transform="matrix(1.25,0,0,-1.25,241.90985,508.2832)">
          <path
             inkscape:connector-curvature="0"
             d="m 0,0 -0.07,-1.449 c 0,0 -2.035,-0.502 -4.98,-0.745 -7.036,-0.579 -8.689,-2.813 -8.689,-2.813 0,0 1.653,3.47 10.883,4.563 C -0.967,-0.219 0,0 0,0"
             style="fill:#ffffff;fill-opacity:1;fill-rule:nonzero;stroke:none"
             id="path3281" />
        </g>
        <g
           id="g3283"
           transform="matrix(1.25,0,0,-1.25,245.12748,533.69645)">
          <path
             inkscape:connector-curvature="0"
             d="m 0,0 0.082,1.448 c 0,0 -2.973,0.847 -5.878,1.394 -6.936,1.31 -11.176,5.314 -11.176,5.314 0,0 4.111,-5.231 13.176,-7.283 C -1.941,0.454 0,0 0,0"
             style="fill:#ffffff;fill-opacity:1;fill-rule:nonzero;stroke:none"
             id="path3285" />
        </g>
        <g
           id="g3287"
           transform="matrix(1.25,0,0,-1.25,244.4081,530.50595)">
          <path
             inkscape:connector-curvature="0"
             d="m 0,0 0.082,1.45 c 0,0 -2.693,0.965 -5.596,1.514 -6.938,1.31 -9.976,4.452 -9.976,4.452 0,0 2.909,-4.371 11.975,-6.422 C -1.661,0.574 0,0 0,0"
             style="fill:#ffffff;fill-opacity:1;fill-rule:nonzero;stroke:none"
             id="path3289" />
        </g>
        <g
           id="g3291"
           transform="matrix(1.25,0,0,-1.25,243.2676,526.53708)">
          <path
             inkscape:connector-curvature="0"
             d="m 0,0 0.081,1.448 c 0,0 -1.971,0.711 -4.874,1.26 -6.938,1.31 -9.537,3.263 -9.537,3.263 0,0 2.471,-3.182 11.537,-5.233 C -0.939,0.318 0,0 0,0"
             style="fill:#ffffff;fill-opacity:1;fill-rule:nonzero;stroke:none"
             id="path3293" />
        </g>
        <g
           id="g3295"
           transform="matrix(1.25,0,0,-1.25,242.55435,523.0902)">
          <path
             inkscape:connector-curvature="0"
             d="m 0,0 0.082,1.449 c 0,0 -1.454,0.61 -4.357,1.157 -6.938,1.311 -9.319,2.173 -9.319,2.173 0,0 2.253,-2.09 11.317,-4.141 C -0.422,0.217 0,0 0,0"
             style="fill:#ffffff;fill-opacity:1;fill-rule:nonzero;stroke:none"
             id="path3297" />
        </g>
        <g
           id="g3299"
           transform="matrix(1.25,0,0,-1.25,225.76648,515.2627)">
          <path
             inkscape:connector-curvature="0"
             d="M 0,0 C 0,0 4.778,1.566 6.51,1.648 8.239,1.73 11.699,1.73 11.699,1.73 l 0.742,0 -0.412,-1.401 0.494,-1.318 c 0,0 -0.906,1.236 -2.966,1.401 C 7.498,0.577 0,0 0,0"
             style="fill:#ffffff;fill-opacity:1;fill-rule:nonzero;stroke:none"
             id="path3301" />
        </g>
        <g
           id="g3303"
           transform="matrix(1.25,0,0,-1.25,226.48735,516.08545)">
          <path
             inkscape:connector-curvature="0"
             d="m 0,0 c 0,0 7.004,0 8.98,-0.331 1.978,-0.329 3.13,-1.153 3.13,-1.153 l -0.082,-1.154 c 0,0 -2.14,0.907 -3.953,1.319 C 6.261,-0.907 0,-0.166 0,-0.166"
             style="fill:#ffffff;fill-opacity:1;fill-rule:nonzero;stroke:none"
             id="path3305" />
        </g>
        <g
           id="g3307"
           transform="matrix(1.25,0,0,-1.25,226.19123,514.96145)">
          <path
             inkscape:connector-curvature="0"
             d="m 0,0 c 0.557,-3.52 -0.33,-6.55 -1.981,-6.768 -1.651,-0.218 -3.44,2.459 -3.998,5.979 -0.557,3.521 0.33,6.551 1.982,6.769 C -2.346,6.198 -0.557,3.52 0,0"
             style="fill:#ffffff;fill-opacity:1;fill-rule:nonzero;stroke:none"
             id="path3309" />
        </g>
        <g
           id="g3311"
           transform="matrix(1.25,0,0,-1.25,226.19123,514.96145)">
          <path
             inkscape:connector-curvature="0"
             d="m 0,0 c 0.557,-3.52 -0.33,-6.55 -1.981,-6.768 -1.651,-0.218 -3.44,2.459 -3.998,5.979 -0.557,3.521 0.33,6.551 1.982,6.769 C -2.346,6.198 -0.557,3.52 0,0 z"
             style="fill:none;stroke:#231f20;stroke-width:1.46300006;stroke-linecap:butt;stroke-linejoin:miter;stroke-miterlimit:4;stroke-opacity:1;stroke-dasharray:none"
             id="path3313" />
        </g>
        <g
           id="g3315"
           transform="matrix(1.25,0,0,-1.25,224.2916,514.93583)">
          <path
             inkscape:connector-curvature="0"
             d="M 0,0 C 0.457,-2.643 0.162,-4.975 -0.659,-5.209 -1.48,-5.443 -2.517,-3.487 -2.975,-0.844 -3.432,1.8 -3.137,4.132 -2.316,4.366 -1.495,4.598 -0.459,2.644 0,0"
             style="fill:#eb222c;fill-opacity:1;fill-rule:nonzero;stroke:none"
             id="path3317" />
        </g>
        <g
           id="g3319"
           transform="matrix(1.25,0,0,-1.25,222.0911,511.33632)">
          <path
             inkscape:connector-curvature="0"
             d="m 0,0 c -0.849,-0.742 0.899,-2.888 -0.723,-3.689 1.914,-0.279 0.74,-2.485 1.812,-3.049 0.276,1.326 -0.396,2.323 -0.607,3.37 -0.224,1.104 0.166,2.416 -0.462,3.339"
             style="fill:#ffffff;fill-opacity:1;fill-rule:nonzero;stroke:none"
             id="path3321" />
        </g>
        <g
           id="g3323"
           transform="matrix(1.25,0,0,-1.25,212.68073,524.5892)">
          <path
             inkscape:connector-curvature="0"
             d="M 0,0 C 0,0 2.029,-1.059 2.485,-1.135 L 2.942,-1.211 2.561,-1.896 c 0,0 -1.446,0.457 -1.903,0.761 C 0.202,-0.831 0,0 0,0"
             style="fill:#ffffff;fill-opacity:1;fill-rule:nonzero;stroke:none"
             id="path3325" />
        </g>
        <g
           id="g3327"
           transform="matrix(1.25,0,0,-1.25,211.6176,526.01207)">
          <path
             inkscape:connector-curvature="0"
             d="M 0,0 C 0,0 2.029,-1.06 2.486,-1.135 L 2.943,-1.211 2.562,-1.896 c 0,0 -1.446,0.457 -1.903,0.761 C 0.203,-0.83 0,0 0,0"
             style="fill:#ffffff;fill-opacity:1;fill-rule:nonzero;stroke:none"
             id="path3329" />
        </g>
      </g>
    </g>
  </g>
</svg>
