<?xml version="1.0" encoding="UTF-8" standalone="no"?>
<!-- Created with Inkscape (http://www.inkscape.org/) -->

<svg
   xmlns:dc="http://purl.org/dc/elements/1.1/"
   xmlns:cc="http://creativecommons.org/ns#"
   xmlns:rdf="http://www.w3.org/1999/02/22-rdf-syntax-ns#"
   xmlns:svg="http://www.w3.org/2000/svg"
   xmlns="http://www.w3.org/2000/svg"
   xmlns:sodipodi="http://sodipodi.sourceforge.net/DTD/sodipodi-0.dtd"
   xmlns:inkscape="http://www.inkscape.org/namespaces/inkscape"
   version="1.0"
   width="275"
   height="73"
   id="svg2394"
   style="display:inline"
   inkscape:version="0.48.2 r9819"
   sodipodi:docname="ieee_region8_logo_light.svg"
   inkscape:export-filename="ieee_region8_logo_light.png"
   inkscape:export-xdpi="327.26999"
   inkscape:export-ydpi="327.26999">
  <metadata
     id="metadata19">
    <rdf:RDF>
      <cc:Work
         rdf:about="">
        <dc:format>image/svg+xml</dc:format>
        <dc:type
           rdf:resource="http://purl.org/dc/dcmitype/StillImage" />
        <dc:title></dc:title>
      </cc:Work>
    </rdf:RDF>
  </metadata>
  <sodipodi:namedview
     pagecolor="#ffffff"
     bordercolor="#666666"
     borderopacity="1"
     objecttolerance="10"
     gridtolerance="10"
     guidetolerance="10"
     inkscape:pageopacity="0"
     inkscape:pageshadow="2"
     inkscape:window-width="1920"
     inkscape:window-height="1017"
     id="namedview17"
     showgrid="false"
     inkscape:zoom="3.6509091"
     inkscape:cx="67.378146"
     inkscape:cy="62.624732"
     inkscape:window-x="-4"
     inkscape:window-y="-4"
     inkscape:window-maximized="1"
     inkscape:current-layer="layer1" />
  <defs
     id="defs2396" />
  <g
     inkscape:groupmode="layer"
     id="layer3"
     inkscape:label="BG"
     style="display:inline">
    <g
       transform="translate(-0.7,-0.08192088)"
       id="layer5"
       style="fill:#184056;fill-opacity:1;display:inline">
      <rect
         width="275"
         height="73"
         rx="0"
         ry="0"
         x="0.69999999"
         y="0.081920877"
         id="rect3414"
         style="fill:#184056;fill-opacity:1;fill-rule:nonzero;stroke:none" />
    </g>
  </g>
  <g
     inkscape:groupmode="layer"
     id="layer1"
     inkscape:label="LOGO"
     style="display:inline">
    <g
       id="g3775">
      <g
         id="g3853">
        <path
           style="fill:#ffffff;fill-opacity:1;display:inline"
           id="path3063"
           d="m 196.58125,8.105576 c -3.70489,0.2351414 -7.68269,0.1814463 -10.94254,1.5558925 -3.86407,1.5077665 3.63555,0.1243268 1.83581,2.3367875 1.6923,0.89422 -1.30784,1.415764 0.9289,1.32627 -3.9482,1.386938 0.87349,6.959288 2.30411,2.539842 1.28445,-1.888923 6.88895,-1.48496 6.68627,-3.040042 1.47409,-0.552986 2.702,-1.908706 2.49075,-3.5233706 2.53331,-0.3748678 2.38196,-0.7584433 -10e-4,-0.7010752 C 199.40712,7.95656 197.50917,8.205561 196.58158,8.105576 l -3.3e-4,0 z m 24.96875,0.5625 c -3.48876,0.3614694 2.06497,1.0797849 0.39005,0.056976 L 221.55,8.668076 z m 10.375,0.21875 c -2.38345,0.6790208 4.30948,1.138133 0.85849,0.04555 l -0.44155,-0.048353 -0.41694,0.0028 0,3e-6 z m -13.34375,0.03125 c -0.71785,0.5233297 2.16888,0.063311 0,0 z m -6,0.1875 c -1.52264,-0.3027022 -5.76386,0.3135153 -2.30992,1.398066 0.43493,-1.3592524 3.25791,0.376631 1.12242,-0.991816 0.0885,0.2935258 2.40991,-0.2210948 1.1875,-0.40625 z m 23.40625,1.03125 c -1.69098,0.442482 -5.57688,0.991689 -5.5595,1.800193 1.4901,1.289224 -3.7541,-1.204711 -1.34675,1.387307 1.16819,1.286899 -0.24909,1.540577 -0.42569,-0.356076 -1.09619,-2.059057 -2.88076,-0.421887 -1.39853,0.706967 -1.45523,-0.09492 -3.61382,-1.246649 -2.92615,0.02607 -1.67247,0.316803 -4.65895,0.0933 -4.69508,0.790254 -1.08364,0.96008 -2.58982,1.681859 -2.84966,0.302123 4.51687,0.06353 -2.49735,-2.593645 -4.20512,-1.944317 -2.90865,0.260262 -3.45848,3.023014 -5.99977,4.193732 -0.24945,2.101669 3.51507,0.479774 2.6563,2.90625 2.72977,0.0095 2.07305,-5.895282 3.66144,-4.394721 -1.80757,2.113163 1.1603,1.99067 1.91343,2.222794 -1.49206,-0.301933 -2.08117,0.881663 -1.53769,0.917837 -0.73803,1.787299 -5.33573,2.750616 -4.63093,0.03534 -1.26947,2.074326 -3.54339,3.638808 -5.89586,4.690883 2.41858,1.838948 -0.11007,2.73472 -1.94784,2.340367 -2.26483,4.283051 3.22026,4.762638 4.15647,1.081021 1.36048,-2.535014 5.52182,-0.717118 5.6045,1.274844 -2.29394,1.076357 0.88765,1.137457 0.94362,-0.653638 -0.17742,-0.406565 -4.06301,-3.78792 -0.66543,-1.942992 1.40129,0.901165 2.56864,3.424384 1.94684,3.016675 1.09936,1.405747 1.96918,-0.578648 1.009,-1.093999 2.03181,-1.301828 1.24541,2.979504 3.75667,1.8855 3.51074,-0.867978 1.08042,4.166575 -1.20553,2.730621 -1.65929,-0.922612 -3.29935,-1.034864 -4.19103,0.270323 -2.0128,-0.888545 -3.69898,-1.520395 -3.84755,-3.338825 -2.91439,0.359747 -6.8218,-0.110229 -8.25683,2.766183 -2.73069,2.657931 -4.6451,6.849918 -3.15862,10.365984 1.38959,3.074098 4.53308,4.26933 7.58874,2.729244 1.51308,-0.04222 4.88967,0.915255 3.3704,3.180638 2.24034,2.797223 2.13445,6.27675 1.55494,9.466696 1.54868,2.263137 1.064,7.743931 3.97817,7.892613 4.40544,0.143383 5.8314,-5.4956 6.79893,-8.038354 4.33488,-1.664864 -0.6464,-6.379783 2.46141,-8.800732 1.37672,-1.492723 6.12386,-5.667633 2.82387,-6.598878 -2.44694,1.458385 -4.09573,-2.555624 -5.07482,-4.567922 -0.1954,-1.178234 -3.48766,-5.704993 -0.45693,-2.935285 1.45327,2.397502 2.52637,5.046932 3.93331,6.906421 2.20151,-0.888053 8.47522,-3.447756 4.97242,-6.180237 -0.53335,-0.657974 -2.39873,1.155931 -3.15913,-0.996606 -1.93598,-3.367832 2.07422,0.868113 3.202,0.338943 2.30239,1.426619 2.79103,-0.532266 1.64706,-1.982698 -1.2742,-2.434016 2.4773,-3.85794 4.40997,-3.204166 1.88504,-1.9149 1.92716,-6.358112 5.08183,-6.665221 2.18264,0.181157 3.78509,-0.932984 6.19888,0.583661 1.40022,-1.43996 4.42136,0.75145 3.85809,-2.271062 2.59416,1.430425 7.58419,1.678189 6.59849,5.715915 2.37537,1.128206 2.50702,-5.121354 0.1561,-6.235839 -2.68262,-0.199965 0.71523,-4.389769 2.93291,-2.230076 1.76228,0.459146 -0.15733,-2.260115 1.86101,-1.183887 2.42461,-1.316594 -0.16442,3.568843 2.65448,4.109394 2.88742,1.261086 -0.2233,-2.459205 -0.0498,-3.557258 1.68437,-0.03563 4.3105,-1.092113 2.37199,-2.359766 1.80705,0.133051 4.21463,0.581231 1.26084,-0.771848 -3.88198,-1.020433 -6.53514,-1.384243 -9.60517,-1.132472 -2.91998,-0.226348 -6.34025,-1.685211 -9.22512,-1.034602 -2.81655,0.636353 -5.41121,-1.109767 -8.37746,-0.697206 -1.52973,-0.464338 -2.15597,0.855644 -1.43612,-0.763036 -0.91096,-0.64914 -2.18024,-0.310606 -3.23596,-0.703069 l -4e-5,-5e-6 z m -11.5625,0.1875 c -2.22849,-0.232034 -4.11893,3.074103 -0.77476,2.604095 -3.61065,-1.340394 4.50735,-2.523828 0.77476,-2.604095 l 0,0 z m 24.3125,1.1875 c -0.48421,0.667338 1.90231,0.101429 0,0 z m -51.5625,3.28125 c -1.22779,2.864864 5.61435,-0.240555 1.40573,0.0759 -0.46012,0.0298 -0.97323,0.16885 -1.40573,-0.0759 z m 6.25,3.3125 c -2.84855,1.194693 0.92497,2.450445 -0.92437,4.191403 2.34137,0.467497 3.28857,-1.18722 1.38491,-2.579828 -0.3885,-0.429491 -0.0793,-1.300551 -0.46054,-1.611575 l 0,0 z m -1.65625,1.78125 c -3.71841,3.021979 2.41425,1.681819 0,0 z m 17.59375,4.125 c 0.61745,1.345693 -1.90086,0.574471 0,0 z m 5.6875,0.15625 c 0.96945,0.447956 -0.91725,2.094869 1.10045,2.909862 2.18054,2.717593 -2.17115,2.437042 -1.56838,-0.118039 -1.12314,-1.051113 -2.03866,-2.857893 0.46793,-2.791823 z m -7.84375,0.1875 c 0.64461,0.91347 4.95477,0.785097 3.58112,2.589568 -1.75439,-0.793507 -6.81839,0.970873 -4.23244,-2.340987 l 0.65132,-0.248581 z m -9.125,1.875 c -1.18466,1.609314 0.65048,3.240498 0,0 z m 8.125,0.75 c 0.12209,0.528797 -1.70766,0.206705 0,0 z m 2.28125,2.59375 c -1.8443,0.938184 0.84686,0.681084 0,0 z m -4.1875,0.15625 c -0.75342,0.299152 2.38475,0.400031 0,0 z m 11.75,24.5 c -2.15388,0.9598 -4.4974,5.704776 -1.83469,6.616114 1.07604,-1.728297 2.39398,-4.456119 1.83469,-6.616114 z"
           inkscape:connector-curvature="0" />
      </g>
      <g
         id="g3764">
        <g
           id="g3862">
          <path
             d="m 21.88482,18.272339 c -0.62784,-0.11794 -1.237081,-0.17692 -1.827711,-0.17694 -4.09955,2e-5 -6.14931,2.16892 -6.14931,6.50672 l 0,14.02085 -6.6497795,0 0,-26.97651 6.2608995,0 0,3.253361 c 0.55457,-0.90749 1.12717,-1.617631 1.71782,-2.130391 0.59062,-0.5127 1.19987,-0.9069 1.82773,-1.182539 0.627811,-0.27561 1.274249,-0.44319 1.939299,-0.5028 0.665011,-0.0596 1.33005,-0.0893 1.995102,-0.0894 l 0.885949,0 0,7.277629 0,2e-5 z m 18.226448,4.25897 c -0.0744,-2.01122 -0.619391,-3.50007 -1.634968,-4.4666 -1.0156,-0.96647 -2.188421,-1.44971 -3.51849,-1.44973 -1.366132,2e-5 -2.52937,0.51274 -3.489732,1.53819 -0.960349,1.02551 -1.51436,2.48487 -1.662019,4.37814 l 10.30521,0 0,0 z m -10.5267,4.49549 c 0.11047,2.01244 0.66447,3.62979 1.66203,4.85205 0.997531,1.22227 2.327043,1.83339 3.988511,1.83338 1.07193,10e-6 2.032561,-0.27592 2.8819,-0.82778 0.8493,-0.55185 1.40305,-1.28154 1.661189,-2.18906 l 6.869571,0 c -0.77552,2.7611 -2.141931,4.89088 -4.099249,6.38935 -1.95736,1.49851 -4.284149,2.24776 -6.980331,2.24776 -8.42113,0 -12.63171,-4.89026 -12.63171,-14.6708 0,-4.18132 1.052521,-7.51411 3.15751,-9.9984 2.104991,-2.48422 5.115402,-3.726329 9.031221,-3.72635 7.903731,2.1e-5 11.855621,5.36329 11.85564,16.08985 l -17.396279,0 -2e-6,0 z m 31.576721,-9.87923 c -3.804229,2e-5 -5.70633,2.74122 -5.706319,8.22366 -1.1e-5,2.40601 0.53539,4.31885 1.60622,5.73851 1.070811,1.41965 2.437511,2.12949 4.100099,2.12949 1.661451,0 3.018569,-0.67042 4.07137,-2.01123 1.052769,-1.34083 1.579149,-3.15526 1.579171,-5.44334 -2.2e-5,-5.75803 -1.883521,-8.63707 -5.65054,-8.63709 l 0,0 -1e-6,0 z m 12.13294,21.77149 c -2.9e-5,2.01122 -0.323251,3.79588 -0.969662,5.35394 -0.646468,1.55807 -1.54228,2.86941 -2.687479,3.934 -1.145219,1.06459 -2.475009,1.86319 -3.98935,2.39579 -1.51437,0.53259 -3.15808,0.79889 -4.93111,0.7989 -1.771941,-10e-6 -3.396761,-0.25639 -4.87448,-0.76911 -1.477739,-0.51274 -2.76131,-1.26199 -3.850721,-2.24773 -1.08941,-0.98578 -1.93874,-2.17886 -2.54797,-3.57925 -0.60925,-1.4004 -0.913859,-2.96841 -0.913859,-4.704 l 6.2051,0 c -1.1e-5,1.65616 0.507779,2.92806 1.523381,3.81575 1.015569,0.88765 2.354101,1.33148 4.01556,1.33149 1.773041,-10e-6 3.278371,-0.52266 4.516031,-1.568 1.237639,-1.04534 1.856448,-2.45507 1.856459,-4.22919 l 0,-4.43771 c -0.4802,1.22287 -1.3391,2.16951 -2.576721,2.83993 -1.23765,0.67039 -2.687199,1.00561 -4.348639,1.00561 -2.06838,0 -3.81354,-0.3945 -5.23545,-1.18345 -1.42194,-0.78897 -2.57617,-1.82437 -3.4627,-3.10621 -0.886519,-1.28185 -1.52366,-2.76078 -1.9114,-4.43681 -0.387749,-1.67602 -0.58162,-3.40109 -0.58162,-5.17522 0,-2.09066 0.28601,-3.99387 0.85805,-5.70963 0.57204,-1.71572 1.35684,-3.194649 2.35439,-4.436809 0.99755,-1.2421 2.170381,-2.19835 3.51849,-2.8688 1.34809,-0.67038 2.77905,-1.00558 4.29284,-1.0056 3.10311,2e-5 5.467371,1.36069 7.09276,4.08203 l 0,-3.37252 6.6481,0 0,27.272599 0,0 z m 9.326239,-0.29609 -6.649777,0 0,-26.976509 6.649777,0 0,26.976509 z m 14.849999,-21.65233 c -4.06236,2e-5 -6.09353,2.72138 -6.09352,8.16407 -1e-5,5.48246 2.03116,8.22368 6.09352,8.22368 4.063453,0 6.095183,-2.74122 6.095203,-8.22368 -2e-5,-5.44269 -2.03175,-8.16405 -6.095203,-8.16407 l 0,0 z m 0,-6.033689 c 1.995082,2e-5 3.786723,0.33522 5.374943,1.0056 1.58817,0.67045 2.93627,1.6267 4.04431,2.8688 1.10799,1.24216 1.95759,2.740659 2.54882,4.495489 0.59119,1.75488 0.88678,3.69751 0.88681,5.82787 -3e-5,2.1292 -0.30492,4.07153 -0.9147,5.82698 -0.60984,1.75545 -1.46873,3.25426 -2.57672,4.49638 -1.10804,1.24213 -2.45615,2.1984 -4.04432,2.8688 -1.58821,0.67043 -3.361249,1.00563 -5.319139,1.00563 -2.031171,0 -3.850172,-0.34514 -5.456952,-1.03541 -1.606791,-0.69027 -2.964202,-1.65646 -4.072198,-2.89859 -1.10802,-1.24212 -1.957352,-2.74062 -2.54798,-4.49548 -0.59064,-1.75486 -0.88597,-3.67763 -0.88597,-5.76831 0,-2.13036 0.30462,-4.06307 0.91386,-5.79808 0.60924,-1.735 1.46786,-3.22384 2.57588,-4.466599 1.108008,-1.24271 2.46541,-2.20889 4.07221,-2.89858 1.606769,-0.68964 3.40716,-1.03448 5.40115,-1.0345 l 0,0 -2e-6,0 z m 21.339143,4.6724 c 0.77549,-1.49848 1.81869,-2.65182 3.1296,-3.46009 1.31089,-0.80818 2.98251,-1.21229 5.01481,-1.21231 1.21846,2e-5 2.3355,0.1971 3.3511,0.59125 1.01556,0.39423 1.89279,0.96592 2.63168,1.71515 0.73884,0.74928 1.32074,1.68598 1.74572,2.81013 0.42491,1.124199 0.63739,2.415659 0.63741,3.874429 l 0,18.69506 -6.70387,0 0,-16.32816 c -3e-5,-2.09066 -0.32325,-3.5007 -0.96966,-4.2301 -0.64646,-0.72935 -1.76377,-1.09405 -3.35194,-1.09407 -3.47172,2e-5 -5.20757,2.07082 -5.20756,6.21244 l 0,15.43989 -6.64978,0 0,-26.976509 6.37249,0 0,3.96289 0,0 z"
             id="text2591"
             style="font-size:55.6170311px;font-style:normal;font-weight:normal;fill:#ffffff;fill-opacity:1;stroke:none;display:inline;font-family:Bitstream Vera Sans"
             inkscape:connector-curvature="0" />
        </g>
        <g
           id="g3865">
          <path
             d="m 162.54371,38.308469 c -3.81693,3e-5 -6.81876,1.02052 -9.00551,3.06147 -2.18678,2.04101 -3.28016,4.85067 -3.28014,8.429 -2e-5,3.57836 1.09336,6.38801 3.28014,8.42899 2.18675,2.04099 5.18858,3.06148 9.00551,3.06147 3.81687,10e-6 6.82533,-1.02711 9.02538,-3.08135 2.19999,-2.05423 3.29999,-4.85726 3.30004,-8.40911 -5e-5,-3.57833 -1.09343,-6.38799 -3.28016,-8.429 -2.1868,-2.04095 -5.20188,-3.06144 -9.04526,-3.06147 l 0,0 z m -8.0314,-3.41931 c -3.44583,-0.84817 -6.12959,-2.4518 -8.05128,-4.81089 -1.92171,-2.35902 -2.88256,-5.23494 -2.88256,-8.62779 0,-4.74457 1.68976,-8.495199 5.06932,-11.251909 3.37954,-2.7566 8.01151,-4.13491 13.89592,-4.13498 5.91086,7e-5 10.54946,1.37838 13.91579,4.13498 3.36625,2.75671 5.0494,6.507339 5.04944,11.251909 -4e-5,3.39285 -0.96089,6.26877 -2.88255,8.62779 -1.92175,2.35909 -4.59225,3.96272 -8.01152,4.81089 3.86988,0.90124 6.88496,2.66391 9.04527,5.288 2.1602,2.62414 3.24034,5.8314 3.24038,9.62178 -4e-5,5.75186 -1.75609,10.16516 -5.26812,13.23988 -3.51211,3.07472 -8.54168,4.61209 -15.08869,4.61209 -6.54707,0 -11.57663,-1.53737 -15.08869,-4.61209 -3.5121,-3.07472 -5.26813,-7.48802 -5.26813,-13.23988 0,-3.79038 1.08675,-6.99764 3.26028,-9.62178 2.1735,-2.62409 5.19521,-4.38676 9.06514,-5.288 l 0,0 0,0 z m -2.9422,-12.68325 c -1e-5,3.07477 0.96084,5.47358 2.88256,7.19645 1.92169,1.72294 4.61869,2.5844 8.09104,2.58436 3.44578,4e-5 6.14279,-0.86142 8.09104,-2.58436 1.94817,-1.72287 2.92227,-4.12168 2.92231,-7.19645 -4e-5,-3.07468 -0.97414,-5.4735 -2.92231,-7.196449 -1.94825,-1.72285 -4.64526,-2.58431 -8.09104,-2.58437 -3.47235,6e-5 -6.16935,0.86152 -8.09104,2.58437 -1.92172,1.722949 -2.88257,4.121769 -2.88256,7.196449 l 0,0 z"
             id="text2411"
             style="font-size:27.34005547px;font-style:normal;font-weight:normal;fill:#ffffff;fill-opacity:1;stroke:none;display:inline;font-family:Bitstream Vera Sans"
             inkscape:connector-curvature="0" />
        </g>
        <g
           id="g3856">
          <path
             style="font-size:32.76082611px;font-style:normal;font-variant:normal;font-weight:normal;font-stretch:normal;line-height:125%;letter-spacing:1.78631473px;word-spacing:0px;fill:#ffffff;fill-opacity:1;stroke:none;font-family:Coolvetica;-inkscape-font-specification:Coolvetica"
             id="path4173"
             d="m 80.27852,62.780553 -4.308653,0 0,-20.49624 4.308653,0 0,20.49624 z"
             inkscape:connector-curvature="0" />
          <path
             style="font-size:32.76082611px;font-style:normal;font-variant:normal;font-weight:normal;font-stretch:normal;line-height:125%;letter-spacing:1.78631473px;word-spacing:0px;fill:#ffffff;fill-opacity:1;stroke:none;font-family:Coolvetica;-inkscape-font-specification:Coolvetica"
             id="path4175"
             d="m 98.563753,45.883767 -10.921984,0 0,4.365316 10.053525,0 0,3.599454 -10.053525,0 0,5.298999 11.423486,0 0,3.633017 -15.598609,0 0,-20.49624 15.097107,0 0,3.599454 z"
             inkscape:connector-curvature="0" />
          <path
             style="font-size:32.76082611px;font-style:normal;font-variant:normal;font-weight:normal;font-stretch:normal;line-height:125%;letter-spacing:1.78631473px;word-spacing:0px;fill:#ffffff;fill-opacity:1;stroke:none;font-family:Coolvetica;-inkscape-font-specification:Coolvetica"
             id="path4177"
             d="m 116.69405,45.883767 -10.92198,0 0,4.365316 10.05352,0 0,3.599454 -10.05352,0 0,5.298999 11.42348,0 0,3.633017 -15.59861,0 0,-20.49624 15.09711,0 0,3.599454 z"
             inkscape:connector-curvature="0" />
          <path
             style="font-size:32.76082611px;font-style:normal;font-variant:normal;font-weight:normal;font-stretch:normal;line-height:125%;letter-spacing:1.78631473px;word-spacing:0px;fill:#ffffff;fill-opacity:1;stroke:none;font-family:Coolvetica;-inkscape-font-specification:Coolvetica"
             id="path4179"
             d="m 134.82434,45.883767 -10.92198,0 0,4.365316 10.05352,0 0,3.599454 -10.05352,0 0,5.298999 11.42349,0 0,3.633017 -15.59861,0 0,-20.49624 15.0971,0 0,3.599454 z"
             inkscape:connector-curvature="0" />
        </g>
      </g>
    </g>
  </g>
</svg>
