<?xml version="1.0" encoding="UTF-8" standalone="no"?>
<!-- Created with Inkscape (http://www.inkscape.org/) -->

<svg
   xmlns:dc="http://purl.org/dc/elements/1.1/"
   xmlns:cc="http://creativecommons.org/ns#"
   xmlns:rdf="http://www.w3.org/1999/02/22-rdf-syntax-ns#"
   xmlns:svg="http://www.w3.org/2000/svg"
   xmlns="http://www.w3.org/2000/svg"
   xmlns:sodipodi="http://sodipodi.sourceforge.net/DTD/sodipodi-0.dtd"
   xmlns:inkscape="http://www.inkscape.org/namespaces/inkscape"
   width="106.3125"
   height="26.3438"
   id="svg11623"
   version="1.1"
   inkscape:version="0.48.2 r9819"
   sodipodi:docname="ieee_sps_logo_dark.svg"
   inkscape:export-filename="ieee_sps_logo_dark.png"
   inkscape:export-xdpi="846.56"
   inkscape:export-ydpi="846.56">
  <defs
     id="defs11625" />
  <sodipodi:namedview
     id="base"
     pagecolor="#ffffff"
     bordercolor="#666666"
     borderopacity="1.0"
     inkscape:pageopacity="0.0"
     inkscape:pageshadow="2"
     inkscape:zoom="11.313708"
     inkscape:cx="59.500357"
     inkscape:cy="10.549248"
     inkscape:document-units="px"
     inkscape:current-layer="layer3"
     showgrid="false"
     fit-margin-top="2"
     fit-margin-left="4"
     fit-margin-right="4"
     fit-margin-bottom="2"
     inkscape:window-width="1920"
     inkscape:window-height="1017"
     inkscape:window-x="-4"
     inkscape:window-y="-4"
     inkscape:window-maximized="1" />
  <metadata
     id="metadata11628">
    <rdf:RDF>
      <cc:Work
         rdf:about="">
        <dc:format>image/svg+xml</dc:format>
        <dc:type
           rdf:resource="http://purl.org/dc/dcmitype/StillImage" />
        <dc:title></dc:title>
      </cc:Work>
    </rdf:RDF>
  </metadata>
  <g
     inkscape:groupmode="layer"
     id="layer3"
     inkscape:label="BG"
     style="display:none"
     transform="translate(3.9375,2)">
    <rect
       style="color:#000000;fill:#ffffff;fill-opacity:1;fill-rule:nonzero;stroke:none;stroke-width:4.17761993;marker:none;visibility:visible;display:inline;overflow:visible;enable-background:accumulate"
       id="rect3002"
       width="106.31"
       height="26.34"
       x="-3.9375"
       y="-1.9962006" />
  </g>
  <g
     inkscape:label="LOGO"
     inkscape:groupmode="layer"
     id="layer1"
     transform="translate(-9.759643,-100.27478)"
     style="display:inline">
    <path
       style="color:#000000;fill:#000000;fill-opacity:1;fill-rule:nonzero;stroke:none;stroke-width:0.08562502;marker:none;visibility:visible;display:inline;overflow:visible;enable-background:accumulate"
       d="m 99.509643,102.27488 c 0.2275,0 0.4375,0.17875 0.4375,0.40625 0,0.2275 -0.21,0.40625 -0.4375,0.40625 l -8.65625,15.75 0.96875,0 8.09375,-14.75 c -0.05101,-0.0682 -0.09375,-0.158 -0.09375,-0.25 0,-0.2275 0.179997,-0.40625 0.406247,-0.40625 0.22875,0 0.40625,0.17875 0.40625,0.40625 0,0.2275 -0.1775,0.40625 -0.40625,0.40625 l -8.062497,14.59375 0.96875,0 6.28125,-11.5625 c -0.07438,-0.0748 -0.125,-0.16812 -0.125,-0.28125 0,-0.22875 0.17875,-0.40625 0.40625,-0.40625 0.2275,0 0.437497,0.1775 0.437497,0.40625 0,0.20791 -0.173308,0.37938 -0.374997,0.40625 l -6.28125,11.4375 0.9375,0 3.96875,-7.1875 c -0.07438,-0.0747 -0.125,-0.1675 -0.125,-0.28125 0,-0.225 0.17875,-0.40625 0.40625,-0.40625 0.2275,0 0.40625,0.18125 0.40625,0.40625 0,0.2275 -0.17875,0.40625 -0.40625,0.40625 l -3.875,7.0625 0.9375,0 1.875,-3.40625 c -0.04759,-0.0671 -0.09375,-0.13002 -0.09375,-0.21875 0,-0.2275 0.17875,-0.40625 0.40625,-0.40625 0.22625,0 0.40625,0.17875 0.40625,0.40625 0,0.2275 -0.18,0.40625 -0.40625,0.40625 -0.01094,0 -0.02053,8.3e-4 -0.03125,0 l -1.78125,3.21875 0.75,0 c -0.01358,-0.0429 -0.03125,-0.0793 -0.03125,-0.125 0,-0.2275 0.18,-0.40625 0.40625,-0.40625 0.22875,0 0.4375,0.17875 0.4375,0.40625 0,0.0457 -0.01578,0.0821 -0.03125,0.125 l 7.031247,0 c 0.0302,-0.19606 0.20176,-0.34375 0.40625,-0.34375 0.20676,0 0.37646,0.14769 0.40625,0.34375 l 0.71875,0 0.59375,-1.09375 c -0.057,-0.0708 -0.0937,-0.15217 -0.0937,-0.25 0,-0.2275 0.18,-0.40625 0.40625,-0.40625 0.22875,0 0.4375,0.17875 0.4375,0.40625 0,0.2275 -0.20875,0.40625 -0.4375,0.40625 -0.0109,0 -0.0206,8.4e-4 -0.0312,0 l -0.53125,0.9375 0.96875,0 0.875,-1.625 c -0.0397,-0.0635 -0.0625,-0.13834 -0.0625,-0.21875 0,-0.22625 0.17875,-0.40625 0.40625,-0.40625 0.22625,0 0.40625,0.18 0.40625,0.40625 0,0.2275 -0.18,0.4375 -0.40625,0.4375 -0.0219,0 -0.0416,0.003 -0.0625,0 l -0.78125,1.40625 0.90625,0 0.875,-1.625 c -0.0742,-0.0744 -0.125,-0.1675 -0.125,-0.28125 0,-0.2275 0.18,-0.40625 0.40625,-0.40625 0.22875,0 0.40625,0.17875 0.40625,0.40625 0,0.20563 -0.14597,0.37548 -0.34375,0.40625 l -0.84375,1.5 0.9375,0 0.65625,-1.15625 c -0.0744,-0.0744 -0.125,-0.19875 -0.125,-0.3125 0,-0.22875 0.17875,-0.40625 0.40625,-0.40625 0.2275,0 0.40625,0.1775 0.40625,0.40625 0,0.2275 -0.17875,0.4375 -0.40625,0.4375 l -0.5625,1.03125 1.5625,0 0,0.34375 -6.6875,0 c -0.073,0.0733 -0.16687,0.125 -0.28125,0.125 -0.11312,0 -0.20797,-0.0517 -0.28125,-0.125 l -1.03125,0 -0.28125,0.46875 c 0.0647,0.0726 0.125,0.17702 0.125,0.28125 0,0.2275 -0.17875,0.40625 -0.40625,0.40625 -0.22625,0 -0.40625,-0.17875 -0.40625,-0.40625 0,-0.225 0.18,-0.40625 0.40625,-0.40625 l 0.1875,-0.34375 -0.9375,0 -1.1875,2.1875 c 0.0476,0.0673 0.0937,0.16128 0.0937,0.25 0,0.2275 -0.17875,0.40625 -0.40625,0.40625 -0.22875,0 -0.40625,-0.17875 -0.40625,-0.40625 0,-0.2275 0.1775,-0.4375 0.40625,-0.4375 0.0109,0 0.0205,-8.4e-4 0.0312,0 l 1.09375,-2 -0.9375,0 -1.624997,3.03125 c 0.05682,0.0708 0.09375,0.15218 0.09375,0.25 0,0.22625 -0.17875,0.40625 -0.40625,0.40625 -0.22625,0 -0.4375,-0.18 -0.4375,-0.40625 0,-0.2275 0.21125,-0.40625 0.4375,-0.40625 l 1.562497,-2.875 -0.906247,0 -1.6875,3.0625 c 0.05698,0.0702 0.09375,0.15218 0.09375,0.25 0,0.2275 -0.18,0.40625 -0.40625,0.40625 -0.2275,0 -0.4375,-0.17875 -0.4375,-0.40625 0,-0.2275 0.21,-0.40625 0.4375,-0.40625 l 1.59375,-2.90625 -0.90625,0 -1,1.78125 c 0.05903,0.0712 0.0625,0.18123 0.0625,0.28125 0,0.2275 -0.18,0.40625 -0.40625,0.40625 -0.22875,0 -0.40625,-0.17875 -0.40625,-0.40625 0,-0.2275 0.1775,-0.4375 0.40625,-0.4375 0.01365,0 0.01794,0.0299 0.03125,0.0312 l 0.90625,-1.65625 -15.75,0 c -1.744651,1.6144 -3.109495,2.9487 -4.34375,3.21875 -0.629055,0.13764 -1.22864,-0.0209 -1.75,-0.5625 -0.499403,-0.51875 -0.945989,-1.39674 -1.375,-2.65625 l -61,0 0,-0.34375 54.5,0 c 1.57169,-0.9646 2.909986,-1.85075 4.0625,-2.0625 0.576257,-0.10588 1.134863,-0.034 1.59375,0.3125 0.442074,0.33378 0.803336,0.90231 1.09375,1.75 l 7.125,0 c 3.818773,-3.74084 7.356663,-7.95548 10.28125,-11.09375 1.466321,-1.57346 2.778464,-2.87207 3.90625,-3.71875 0.563893,-0.42334 1.085473,-0.73704 1.5625,-0.90625 0.238514,-0.0846 0.46732,-0.11763 0.6875,-0.125 0.14342,-0.005 0.27282,0.004 0.40625,0.0312 l 0.0625,-0.125 c -0.04666,-0.0662 -0.09375,-0.13002 -0.09375,-0.21875 0,-0.2275 0.17875,-0.40625 0.40625,-0.40625 z m -0.78125,1.03125 c -0.17594,0.004 -0.380025,0.0492 -0.59375,0.125 -0.42745,0.15162 -0.920983,0.43252 -1.46875,0.84375 -1.095534,0.82246 -2.382415,2.11939 -3.84375,3.6875 -2.858443,3.06729 -6.343506,7.17465 -10.09375,10.875 l 7.78125,0 8.4375,-15.5 c -0.07083,-0.0111 -0.141607,-0.0332 -0.21875,-0.0312 z m -83.46875,11.65625 0.5625,0 -1.5,2.96875 -0.5625,0 c 0.497135,-1.02831 1.049249,-2.08943 1.5,-2.96875 z m 1.0625,0 1.96875,0 -0.28125,0.53125 -1.40625,0 -0.3125,0.625 1.28125,0 -0.25,0.5 -1.3125,0 -0.375,0.78125 1.46875,0 -0.28125,0.53125 -2,0 z m 2.46875,0 1.9375,0 -0.25,0.5 -1.40625,0.0312 -0.34375,0.59375 1.3125,0 -0.28125,0.53125 -1.28125,0 -0.40625,0.78125 1.46875,0 -0.25,0.53125 -2.03125,0 z m 2.4375,0 1.96875,0 -0.28125,0.5 -1.40625,0 -0.3125,0.625 1.28125,0 -0.25,0.53125 -1.3125,0 -0.375,0.78125 1.46875,0 -0.28125,0.5 -2,0.0312 z m 51.6875,2.09375 c -0.117482,0.003 -0.246291,0.008 -0.375,0.0312 -0.919352,0.16891 -2.108345,0.9098 -3.46875,1.75 l 5.71875,0 c -0.269249,-0.751 -0.587033,-1.23539 -0.9375,-1.5 -0.285102,-0.21525 -0.585055,-0.29151 -0.9375,-0.28125 z m 2.375,2.125 c 0.408763,1.17541 0.820909,1.96054 1.25,2.40625 0.460827,0.47875 0.89968,0.58643 1.4375,0.46875 1.003256,-0.21951 2.310467,-1.37673 3.9375,-2.875 z m -58.59375,0.625 c 1.03375,0 0.98125,0.69375 0.78125,1.125 l -0.6875,0 c 0.05625,-0.15625 0.1775,-0.53125 -0.4375,-0.53125 -0.2675,0 -0.62875,0.12 -0.78125,0.4375 -0.13,0.275 0.065,0.30875 0.1875,0.34375 l 0.71875,0.21875 c 0.40625,0.1175 0.73375,0.30625 0.4375,0.9375 -0.5025,1.05625 -1.57875,1.15625 -1.875,1.15625 -1.23,0 -1.08125,-0.72 -0.875,-1.15625 l 0.6875,0 c -0.09125,0.195 -0.17875,0.5625 0.4375,0.5625 0.3325,0 0.73125,-0.0987 0.90625,-0.46875 0.12875,-0.275 -0.0925,-0.35 -0.40625,-0.4375 l -0.3125,-0.0937 c -0.47875,-0.13125 -0.96125,-0.2575 -0.59375,-1.03125 0.18625,-0.39 0.72,-1.0625 1.8125,-1.0625 z m 41.75,0 c 1.0325,0 0.9825,0.69375 0.78125,1.125 l -0.6875,0 c 0.05625,-0.15625 0.1775,-0.53125 -0.4375,-0.53125 -0.2675,0 -0.63,0.12 -0.78125,0.4375 -0.13,0.275 0.065,0.30875 0.1875,0.34375 l 0.71875,0.21875 c 0.40375,0.1175 0.73625,0.30625 0.4375,0.9375 -0.5,1.05625 -1.58,1.15625 -1.875,1.15625 -1.23,0 -1.0825,-0.72 -0.875,-1.15625 l 0.65625,0 c -0.09,0.195 -0.14625,0.5625 0.46875,0.5625 0.3325,0 0.73,-0.0987 0.90625,-0.46875 0.13125,-0.275 -0.0925,-0.35 -0.40625,-0.4375 l -0.3125,-0.0937 c -0.48125,-0.13125 -0.96125,-0.2575 -0.59375,-1.03125 0.18625,-0.39 0.71875,-1.0625 1.8125,-1.0625 z m -39.84375,0.0625 0.65625,0 -0.3125,0.625 -0.65625,0 z m 30.3125,0 0.65625,0 -0.28125,0.625 -0.65625,0 z m 16.875,0 0.65625,0 -0.3125,0.625 -0.65625,0 z m -37.625,0.0312 0.65625,0 -1.65625,3.5 -0.65625,0 z m 2.625,0 1.53125,0 c 0.6525,0 0.82625,0.43625 0.5,1.125 -0.15125,0.31875 -0.6875,1.125 -1.59375,1.125 l -0.8125,0 -0.59375,1.25 -0.71875,0 z m 38.8125,0.1875 0.65625,0 -0.3125,0.71875 0.40625,0 -0.25,0.46875 -0.40625,0 -0.65625,1.4375 c -0.06875,0.15125 -0.11,0.1875 0.15625,0.1875 0.0425,0 0.1025,0.005 0.15625,0 l -0.25,0.53125 c -0.105,0.004 -0.21,0 -0.3125,0 l -0.09375,0 c -0.56625,0 -0.5625,-0.225 -0.40625,-0.5625 l 0.75,-1.59375 -0.3125,0 0.21875,-0.46875 0.34375,0 z m -38.40625,0.40625 -0.5,1.03125 0.65625,0 c 0.5275,0 0.705,-0.375 0.78125,-0.53125 0.1625,-0.3425 0.06125,-0.5 -0.375,-0.5 z m -10.84375,0.25 c 0.46375,0 0.53505,0.26625 0.53125,0.4375 l 0.1875,-0.375 0.625,0 -1.15625,2.46875 c -0.215,0.45 -0.61375,1.1875 -1.84375,1.1875 -0.51625,0 -0.95125,-0.22875 -0.71875,-0.78125 l 0.71875,0 c -0.03625,0.13125 -0.03625,0.25 0.34375,0.25 0.35125,0 0.58375,-0.175 0.78125,-0.59375 l 0.15625,-0.3125 c -0.2,0.2 -0.45,0.40625 -0.84375,0.40625 -0.6,0 -0.87125,-0.435 -0.4375,-1.34375 0.42625,-0.9 1.1075,-1.34375 1.65625,-1.34375 z m 3.34375,0 c 0.48625,0 0.71,0.30125 0.4375,0.875 l -0.84375,1.78125 -0.65625,0 0.75,-1.5625 c 0.08875,-0.19 0.23,-0.53125 -0.1875,-0.53125 -0.29125,0 -0.62625,0.1975 -0.8125,0.59375 l -0.6875,1.5 -0.65625,0 1.21875,-2.59375 0.625,0 -0.15625,0.375 c 0.15875,-0.1575 0.49375,-0.4375 0.96875,-0.4375 z m 2.46875,0 c 0.35125,0 0.96,0.1075 0.65625,0.75 l -0.65625,1.40625 c -0.145,0.30875 -0.125,0.37745 -0.0625,0.40625 l -0.03125,0.0937 -0.71875,0 c 0.01875,-0.12125 0.01,-0.165 0.0625,-0.3125 -0.225,0.1625 -0.52375,0.375 -0.96875,0.375 -0.375,0 -0.66125,-0.21125 -0.40625,-0.75 0.23875,-0.50875 0.67625,-0.78125 1.125,-0.84375 l 0.625,-0.0937 c 0.1125,-0.0138 0.27625,-0.0413 0.34375,-0.1875 0.13875,-0.28875 -0.1125,-0.3125 -0.28125,-0.3125 -0.32875,0 -0.505,0.22375 -0.59375,0.375 l -0.625,0 c 0.45,-0.7975 1.01875,-0.90625 1.53125,-0.90625 z m 8.59375,0 c 0.04125,0 0.08375,-0.005 0.125,0 l -0.34375,0.6875 c -0.04875,-0.01 -0.09625,0 -0.15625,0 -0.5125,0 -0.77125,0.33625 -0.90625,0.625 l -0.65625,1.34375 -0.65625,0 1.25,-2.59375 0.625,0 -0.21875,0.4375 c 0.25875,-0.2625 0.53875,-0.5 0.9375,-0.5 z m 1.625,0 c 0.67125,0 1.065,0.40375 0.625,1.34375 -0.445,0.94 -1.235,1.375 -1.90625,1.375 -0.67125,0 -1.0725,-0.435 -0.625,-1.375 0.44,-0.94 1.23625,-1.34375 1.90625,-1.34375 z m 2.78125,0 c 0.39375,0 0.9475,0.18875 0.625,1 l -0.65625,0 c 0.05,-0.17125 0.065,-0.4575 -0.25,-0.4375 -0.4125,0 -0.72125,0.4275 -0.875,0.75 -0.1325,0.28375 -0.405,0.84375 0.09375,0.84375 0.3325,0 0.63,-0.31625 0.6875,-0.4375 l 0.65625,0 c -0.1475,0.26875 -0.71,1 -1.625,1 -0.93875,0 -0.7875,-0.7325 -0.53125,-1.28125 0.40125,-0.84125 1.03,-1.4375 1.875,-1.4375 z m 2.53125,0 c 0.49125,0 1.05875,0.2475 0.5,1.4375 l -0.0625,0.0937 -1.71875,0 c -0.07125,0.19625 -0.21875,0.65625 0.3125,0.65625 0.1825,0 0.39125,-0.095 0.53125,-0.28125 l 0.6875,0 c -0.47,0.6275 -1.0725,0.8125 -1.5,0.8125 -0.70375,0 -1.07125,-0.335 -0.5625,-1.40625 0.14625,-0.3125 0.71625,-1.3125 1.8125,-1.3125 z m 2.53125,0 c 0.48875,0 1.015,0.11 0.71875,0.84375 l -0.625,0 c 0.0475,-0.16625 0.075,-0.34375 -0.28125,-0.34375 -0.3575,0 -0.47875,0.13625 -0.53125,0.25 -0.19125,0.41125 1.51875,0.135 1.0625,1.09375 -0.36,0.7575 -1.14125,0.875 -1.53125,0.875 -0.5675,0 -1.09125,-0.18 -0.78125,-0.875 l 0.6875,0 c -0.10125,0.22 -0.0375,0.375 0.375,0.375 0.33875,0 0.48625,-0.18375 0.53125,-0.28125 0.2075,-0.435 -1.4925,-0.0888 -1.03125,-1.0625 0.1825,-0.3825 0.62875,-0.875 1.40625,-0.875 z m 2.59375,0 c 0.4875,0 1.015,0.11 0.71875,0.84375 l -0.625,0 c 0.04875,-0.16625 0.075,-0.34375 -0.28125,-0.34375 -0.35625,0 -0.4775,0.13625 -0.53125,0.25 -0.19,0.41125 1.5175,0.135 1.0625,1.09375 -0.35875,0.7575 -1.1425,0.875 -1.53125,0.875 -0.5675,0 -1.09,-0.18 -0.78125,-0.875 l 0.6875,0 c -0.10125,0.22 -0.0375,0.375 0.375,0.375 0.34,0 0.4875,-0.18375 0.53125,-0.28125 0.20625,-0.435 -1.49125,-0.0888 -1.03125,-1.0625 0.1825,-0.3825 0.62625,-0.875 1.40625,-0.875 z m 4.34375,0 c 0.48875,0 0.74125,0.30125 0.46875,0.875 l -0.84375,1.78125 -0.65625,0 0.75,-1.5625 c 0.09,-0.19 0.23,-0.53125 -0.1875,-0.53125 -0.29125,0 -0.62375,0.1975 -0.8125,0.59375 l -0.71875,1.5 -0.65625,0 1.25,-2.59375 0.625,0 -0.1875,0.375 0.03125,0 c 0.15875,-0.1575 0.46375,-0.4375 0.9375,-0.4375 z m 2.40625,0 c 0.46375,0 0.505,0.26625 0.5,0.4375 l 0.1875,-0.375 0.625,0 -1.15625,2.46875 c -0.21625,0.45 -0.615,1.1875 -1.84375,1.1875 -0.5175,0 -0.9525,-0.22875 -0.71875,-0.78125 l 0.71875,0 c -0.03625,0.13125 -0.03625,0.25 0.34375,0.25 0.3525,0 0.615,-0.175 0.8125,-0.59375 l 0.125,-0.3125 c -0.2,0.2 -0.45,0.40625 -0.84375,0.40625 -0.6,0 -0.87,-0.435 -0.4375,-1.34375 0.42625,-0.9 1.1375,-1.34375 1.6875,-1.34375 z m 7.46875,0 c 0.67125,0 1.065,0.40375 0.625,1.34375 -0.44625,0.94 -1.26625,1.375 -1.9375,1.375 -0.67,0 -1.07125,-0.435 -0.625,-1.375 0.44125,-0.94 1.26625,-1.34375 1.9375,-1.34375 z m 2.75,0 c 0.39375,0 0.97875,0.18875 0.65625,1 l -0.6875,0 c 0.0525,-0.17125 0.095,-0.4575 -0.21875,-0.4375 -0.41375,0 -0.72125,0.4275 -0.875,0.75 -0.1325,0.28375 -0.40375,0.84375 0.09375,0.84375 0.33375,0 0.6,-0.31625 0.65625,-0.4375 l 0.65625,0 c -0.1475,0.26875 -0.68,1 -1.59375,1 -0.94,0 -0.81875,-0.7325 -0.5625,-1.28125 0.40125,-0.84125 1.03,-1.4375 1.875,-1.4375 z m 3.84375,0 c 0.4925,0 1.06,0.24875 0.5,1.4375 l -0.0625,0.0937 -1.71875,0 c -0.07125,0.19625 -0.25,0.65625 0.28125,0.65625 0.1825,0 0.42375,-0.0937 0.5625,-0.28125 l 0.6875,0 c -0.47,0.6275 -1.07375,0.8125 -1.5,0.8125 -0.70375,0 -1.0725,-0.335 -0.5625,-1.40625 0.14625,-0.3125 0.71875,-1.3125 1.8125,-1.3125 z m -49.5,0.0625 0.65625,0 -1.21875,2.59375 -0.65625,0 z m 30.34375,0 0.65625,0 -1.21875,2.59375 -0.65625,0 z m 16.84375,0 0.65625,0 -1.21875,2.59375 -0.65625,0 z m 5.15625,0 0.75,0 -0.375,1.90625 1.4375,-1.90625 0.6875,0 -2.0625,2.5625 c -0.7675,0.96375 -0.9275,1.09375 -1.5,1.09375 -0.08875,0 -0.19,-0.0263 -0.28125,-0.0312 l 0.25,-0.53125 c 0.0275,0.005 0.06875,0 0.125,0 0.23875,0 0.39875,-0.0175 0.625,-0.375 z m 39.874997,0.375 c 0.94875,0 1.71875,0.77 1.71875,1.71875 0,0.95 -0.77,1.71875 -1.71875,1.71875 -0.94875,0 -1.71875,-0.76875 -1.71875,-1.71875 0,-0.94875 0.77,-1.71875 1.71875,-1.71875 z m -74.249997,0.125 c -0.50625,0 -0.81375,0.44875 -0.96875,0.78125 -0.16125,0.33375 -0.28875,0.8125 0.21875,0.8125 0.50625,0 0.84,-0.47875 1,-0.8125 0.155,-0.3325 0.25625,-0.78125 -0.25,-0.78125 z m 5.34375,0 c -0.31,0 -0.58125,0.18875 -0.78125,0.53125 l 1,0 c 0.16,-0.42125 -0.0075,-0.53125 -0.21875,-0.53125 z m 19.3125,0 c -0.50625,0 -0.81375,0.44875 -0.96875,0.78125 -0.16125,0.33375 -0.2875,0.8125 0.21875,0.8125 0.50625,0 0.80875,-0.47875 0.96875,-0.8125 0.15625,-0.3325 0.28875,-0.78125 -0.21875,-0.78125 z m 6.59375,0 c -0.31,0 -0.54875,0.19 -0.75,0.53125 l 1,0 c 0.16125,-0.42 -0.04,-0.53125 -0.25,-0.53125 z m -47.125,0.0312 c -0.24375,0 -0.58875,0.175 -0.875,0.78125 -0.16,0.33375 -0.23375,0.71875 0.15625,0.71875 0.44625,0 0.77125,-0.3925 0.9375,-0.75 0.19875,-0.4225 0.14875,-0.75 -0.21875,-0.75 z m 33.1875,0 c -0.2425,0 -0.59,0.175 -0.875,0.78125 -0.16125,0.33375 -0.20125,0.71875 0.1875,0.71875 0.44625,0 0.74,-0.3925 0.90625,-0.75 0.19875,-0.4225 0.1475,-0.75 -0.21875,-0.75 z m 56.937497,0.25 c -0.69125,0 -1.21875,0.55 -1.21875,1.3125 0,0.76875 0.5275,1.3125 1.21875,1.3125 0.68125,0 1.25,-0.54375 1.25,-1.3125 0,-0.7625 -0.56875,-1.3125 -1.25,-1.3125 z m -0.65625,0.375 0.65625,0 c 0.44375,0 0.71875,0.14375 0.71875,0.5625 0,0.33375 -0.1975,0.4775 -0.4375,0.5 l 0.46875,0.8125 -0.4375,0 -0.40625,-0.8125 -0.1875,0 0,0.8125 -0.375,0 z m -83.843747,0.1875 c -0.08875,0.0538 -0.2075,0.0812 -0.5,0.125 -0.26625,0.0437 -0.4925,0.12375 -0.625,0.40625 -0.11625,0.24125 0.02875,0.3125 0.15625,0.3125 0.29125,0 0.66,-0.21375 0.8125,-0.53125 z m 84.218747,0.15625 0,0.40625 0.28125,0 c 0.19125,0 0.34375,-0.0163 0.34375,-0.21875 0,-0.17505 -0.2125,-0.1875 -0.375,-0.1875 z"
       id="rect12827"
       inkscape:connector-curvature="0"
       sodipodi:nodetypes="ssccccsssccccsssccccsssccccsssscccsssccscccssssccccssssccccsssccccssscccccscccsssccccssssccccsssccccsssccccsssscccssccccssccsscsccsssssscccsccccccccccccccccccccccccccccccccccccccccccccsccccsccsccsccsccccsccsccccssccsccccsccsccccscccccccccccccccccccccscscccccccccccsccssccccccccscscsccccsccsccscssccccsccccccssccccccsccccsccssccsccccccsscscssccccsccscsscccsccscssccsccsccsccssccsccsccsccssccccscccccccssccccsccsccscsscscssccccsccscsscccsccscscccccccccccccccccccccsccsccsssssscscssccsscscssccsscscsscscsssssscsscccccccccccsccccsssc" />
  </g>
</svg>
