<?xml version="1.0" encoding="UTF-8" standalone="no"?>
<!-- Created with Inkscape (http://www.inkscape.org/) -->

<svg
   xmlns:dc="http://purl.org/dc/elements/1.1/"
   xmlns:cc="http://creativecommons.org/ns#"
   xmlns:rdf="http://www.w3.org/1999/02/22-rdf-syntax-ns#"
   xmlns:svg="http://www.w3.org/2000/svg"
   xmlns="http://www.w3.org/2000/svg"
   xmlns:sodipodi="http://sodipodi.sourceforge.net/DTD/sodipodi-0.dtd"
   xmlns:inkscape="http://www.inkscape.org/namespaces/inkscape"
   width="106.89507"
   height="26.542048"
   id="svg11623"
   version="1.1"
   inkscape:version="0.48.2 r9819"
   sodipodi:docname="ieee_sps_logo_light.svg"
   inkscape:export-filename="ieee_sps_logo_light.png"
   inkscape:export-xdpi="840.92987"
   inkscape:export-ydpi="840.92987">
  <defs
     id="defs11625" />
  <sodipodi:namedview
     id="base"
     pagecolor="#ffffff"
     bordercolor="#666666"
     borderopacity="1.0"
     inkscape:pageopacity="0.0"
     inkscape:pageshadow="2"
     inkscape:zoom="11.2"
     inkscape:cx="66.255837"
     inkscape:cy="19.943614"
     inkscape:document-units="px"
     inkscape:current-layer="layer3"
     showgrid="false"
     fit-margin-top="2"
     fit-margin-left="4"
     fit-margin-right="4"
     fit-margin-bottom="2"
     inkscape:window-width="1920"
     inkscape:window-height="1017"
     inkscape:window-x="-4"
     inkscape:window-y="-4"
     inkscape:window-maximized="1"
     showguides="true"
     inkscape:guide-bbox="true" />
  <metadata
     id="metadata11628">
    <rdf:RDF>
      <cc:Work
         rdf:about="">
        <dc:format>image/svg+xml</dc:format>
        <dc:type
           rdf:resource="http://purl.org/dc/dcmitype/StillImage" />
        <dc:title></dc:title>
      </cc:Work>
    </rdf:RDF>
  </metadata>
  <g
     inkscape:groupmode="layer"
     id="layer3"
     inkscape:label="BG"
     style="display:inline"
     transform="translate(4.165625,2.1845578)">
    <rect
       style="color:#000000;fill:#554400;fill-opacity:1;fill-rule:nonzero;stroke:none;stroke-width:0.08562502000000000;marker:none;visibility:visible;display:inline;overflow:visible;enable-background:accumulate"
       id="rect12827"
       width="106.9"
       height="26.459"
       x="-4.1656251"
       y="-2.1015103" />
  </g>
  <g
     inkscape:label="LOGO"
     inkscape:groupmode="layer"
     id="layer1"
     transform="translate(-9.531518,-100.09022)">
    <g
       id="g3162">
      <g
         id="g3071">
        <g
           id="g5916"
           transform="matrix(1.25,0,0,-1.25,14.307143,117.92226)"
           style="fill:#ffffff;fill-opacity:1">
          <path
             inkscape:connector-curvature="0"
             d="M 0,0 -0.443,0 0.772,2.37 1.215,2.371 0,0"
             style="fill:#ffffff;fill-opacity:1;fill-rule:nonzero;stroke:none"
             id="path5918" />
        </g>
        <g
           id="g5920"
           transform="matrix(1.25,0,0,-1.25,18.014653,115.47977)"
           style="fill:#ffffff;fill-opacity:1">
          <path
             inkscape:connector-curvature="0"
             d="m 0,0 -1.126,-0.001 -0.255,-0.499 1.034,0.001 -0.215,-0.419 -1.035,-0.001 -0.315,-0.614 1.176,10e-4 -0.215,-0.419 -1.61,-0.002 1.214,2.371 L 0.214,0.419 0,0"
             style="fill:#ffffff;fill-opacity:1;fill-rule:nonzero;stroke:none"
             id="path5922" />
        </g>
        <g
           id="g5924"
           transform="matrix(1.25,0,0,-1.25,20.465903,115.47727)"
           style="fill:#ffffff;fill-opacity:1">
          <path
             inkscape:connector-curvature="0"
             d="m 0,0 -1.126,-0.002 -0.255,-0.498 1.035,0.001 -0.216,-0.419 -1.034,-0.001 -0.315,-0.614 1.176,0.002 -0.214,-0.42 L -2.56,-1.953 -1.346,0.418 0.216,0.419 0,0"
             style="fill:#ffffff;fill-opacity:1;fill-rule:nonzero;stroke:none"
             id="path5926" />
        </g>
        <g
           id="g5928"
           transform="matrix(1.25,0,0,-1.25,22.918393,115.47601)"
           style="fill:#ffffff;fill-opacity:1">
          <path
             inkscape:connector-curvature="0"
             d="M 0,0 -1.126,-0.001 -1.381,-0.5 -0.347,-0.499 -0.562,-0.918 -1.595,-0.919 -1.911,-1.533 -0.735,-1.531 -0.95,-1.95 -2.561,-1.952 -1.346,0.418 0.214,0.42 0,0"
             style="fill:#ffffff;fill-opacity:1;fill-rule:nonzero;stroke:none"
             id="path5930" />
        </g>
        <g
           id="g5932"
           transform="matrix(1.25,0,0,-1.25,14.838403,122.32227)"
           style="fill:#ffffff;fill-opacity:1">
          <path
             inkscape:connector-curvature="0"
             d="m 0,0 c -0.073,-0.156 -0.138,-0.454 0.355,-0.454 0.266,0 0.596,0.067 0.736,0.363 0.103,0.22 -0.072,0.279 -0.323,0.349 L 0.512,0.329 C 0.129,0.434 -0.246,0.536 0.048,1.155 0.197,1.467 0.62,2.02 1.494,2.02 c 0.827,0 0.78,-0.564 0.62,-0.909 l -0.541,0 C 1.618,1.236 1.713,1.534 1.221,1.534 1.007,1.534 0.714,1.452 0.592,1.198 0.488,0.978 0.641,0.932 0.739,0.904 L 1.317,0.736 C 1.642,0.642 1.903,0.485 1.666,-0.02 1.264,-0.865 0.404,-0.939 0.167,-0.939 c -0.984,0 -0.873,0.59 -0.708,0.939 L 0,0"
             style="fill:#ffffff;fill-opacity:1;fill-rule:nonzero;stroke:none"
             id="path5934" />
        </g>
        <g
           id="g5936"
           transform="matrix(1.25,0,0,-1.25,18.797143,120.80102)"
           style="fill:#ffffff;fill-opacity:1">
          <path
             inkscape:connector-curvature="0"
             d="m 0,0 -0.986,-2.082 -0.526,0 L -0.526,0 0,0 z m 0.116,0.247 -0.527,0 0.244,0.509 0.525,0 -0.242,-0.509"
             style="fill:#ffffff;fill-opacity:1;fill-rule:nonzero;stroke:none"
             id="path5938" />
        </g>
        <g
           id="g5940"
           transform="matrix(1.25,0,0,-1.25,19.348383,122.11602)"
           style="fill:#ffffff;fill-opacity:1">
          <path
             inkscape:connector-curvature="0"
             d="M 0,0 C 0.229,0.485 0.516,0.634 0.711,0.634 1.005,0.634 1.032,0.361 0.873,0.023 0.74,-0.263 0.497,-0.58 0.14,-0.58 -0.172,-0.58 -0.128,-0.267 0,0 z m 1.381,1.052 -0.148,-0.308 -0.008,0 c 0.003,0.137 -0.041,0.363 -0.412,0.363 -0.439,0 -0.996,-0.352 -1.337,-1.072 -0.347,-0.727 -0.132,-1.076 0.348,-1.076 0.315,0 0.522,0.153 0.682,0.313 l 0.005,-0.009 -0.12,-0.25 c -0.158,-0.335 -0.362,-0.477 -0.643,-0.477 -0.304,0 -0.295,0.106 -0.266,0.211 l -0.572,0 c -0.186,-0.442 0.162,-0.625 0.575,-0.625 0.984,0 1.292,0.598 1.464,0.958 l 0.934,1.972 -0.502,0"
             style="fill:#ffffff;fill-opacity:1;fill-rule:nonzero;stroke:none"
             id="path5942" />
        </g>
        <g
           id="g5944"
           transform="matrix(1.25,0,0,-1.25,23.290893,123.40352)"
           style="fill:#ffffff;fill-opacity:1">
          <path
             inkscape:connector-curvature="0"
             d="m 0,0 -0.527,0 0.601,1.265 c 0.071,0.152 0.186,0.411 -0.148,0.411 -0.233,0 -0.491,-0.165 -0.64,-0.482 L -1.281,0 l -0.525,0 0.986,2.082 0.503,0 -0.142,-0.305 0.007,0 c 0.127,0.126 0.39,0.36 0.77,0.36 0.389,0 0.581,-0.238 0.363,-0.697 L 0,0"
             style="fill:#ffffff;fill-opacity:1;fill-rule:nonzero;stroke:none"
             id="path5946" />
        </g>
        <g
           id="g5948"
           transform="matrix(1.25,0,0,-1.25,25.712143,122.46976)"
           style="fill:#ffffff;fill-opacity:1">
          <path
             inkscape:connector-curvature="0"
             d="m 0,0 c -0.122,-0.254 -0.434,-0.41 -0.667,-0.41 -0.102,0 -0.216,0.058 -0.123,0.251 0.106,0.226 0.292,0.277 0.505,0.312 0.234,0.035 0.338,0.071 0.409,0.114 L 0,0 z M 0.884,0.786 C 1.127,1.3 0.656,1.39 0.375,1.39 -0.035,1.39 -0.502,1.3 -0.862,0.662 l 0.507,0 c 0.071,0.121 0.194,0.29 0.457,0.29 0.135,0 0.342,-0.012 0.231,-0.243 C 0.279,0.592 0.161,0.556 0.071,0.545 L -0.437,0.47 c -0.359,-0.05 -0.705,-0.258 -0.896,-0.665 -0.204,-0.431 0.021,-0.607 0.321,-0.607 0.356,0 0.606,0.172 0.786,0.302 -0.042,-0.118 -0.051,-0.15 -0.066,-0.247 l 0.568,0 0.036,0.082 c -0.05,0.023 -0.077,0.078 0.039,0.325 l 0.533,1.126"
             style="fill:#ffffff;fill-opacity:1;fill-rule:nonzero;stroke:none"
             id="path5950" />
        </g>
        <g
           id="g5952"
           transform="matrix(1.25,0,0,-1.25,27.159643,123.40352)"
           style="fill:#ffffff;fill-opacity:1">
          <path
             inkscape:connector-curvature="0"
             d="m 0,0 -0.527,0 1.333,2.811 0.525,0 L 0,0"
             style="fill:#ffffff;fill-opacity:1;fill-rule:nonzero;stroke:none"
             id="path5954" />
        </g>
        <g
           id="g5956"
           transform="matrix(1.25,0,0,-1.25,30.705903,121.52976)"
           style="fill:#ffffff;fill-opacity:1">
          <path
             inkscape:connector-curvature="0"
             d="m 0,0 0.391,0.825 0.448,0 C 1.188,0.825 1.281,0.712 1.151,0.438 1.09,0.313 0.943,0 0.521,0 L 0,0 z m -0.229,-0.485 0.646,0 c 0.725,0 1.165,0.641 1.286,0.896 0.261,0.551 0.111,0.9 -0.411,0.9 l -1.231,0 -1.333,-2.811 0.563,0 0.48,1.015"
             style="fill:#ffffff;fill-opacity:1;fill-rule:nonzero;stroke:none"
             id="path5958" />
        </g>
        <g
           id="g5960"
           transform="matrix(1.25,0,0,-1.25,33.408383,120.80102)"
           style="fill:#ffffff;fill-opacity:1">
          <path
             inkscape:connector-curvature="0"
             d="m 0,0 0.503,0 -0.168,-0.359 0.007,0 c 0.207,0.21 0.424,0.414 0.743,0.414 0.033,0 0.066,-0.003 0.099,-0.007 L 0.918,-0.508 C 0.879,-0.5 0.822,-0.5 0.774,-0.5 0.364,-0.5 0.161,-0.767 0.053,-0.998 l -0.513,-1.084 -0.527,0 L 0,0"
             style="fill:#ffffff;fill-opacity:1;fill-rule:nonzero;stroke:none"
             id="path5962" />
        </g>
        <g
           id="g5964"
           transform="matrix(1.25,0,0,-1.25,36.343393,122.10227)"
           style="fill:#ffffff;fill-opacity:1">
          <path
             inkscape:connector-curvature="0"
             d="m 0,0 c -0.128,-0.267 -0.378,-0.634 -0.783,-0.634 -0.406,0 -0.307,0.367 -0.178,0.634 0.124,0.266 0.374,0.634 0.779,0.634 C 0.223,0.634 0.124,0.266 0,0 z M 0.541,0 C 0.893,0.752 0.573,1.096 0.036,1.096 -0.5,1.096 -1.149,0.752 -1.501,0 c -0.358,-0.752 -0.038,-1.096 0.499,-1.096 0.537,0 1.187,0.344 1.543,1.096"
             style="fill:#ffffff;fill-opacity:1;fill-rule:nonzero;stroke:none"
             id="path5966" />
        </g>
        <g
           id="g5968"
           transform="matrix(1.25,0,0,-1.25,39.444643,122.45477)"
           style="fill:#ffffff;fill-opacity:1">
          <path
             inkscape:connector-curvature="0"
             d="m 0,0 c -0.118,-0.215 -0.565,-0.813 -1.297,-0.813 -0.751,0 -0.639,0.598 -0.434,1.037 0.321,0.673 0.83,1.154 1.506,1.154 0.315,0 0.763,-0.149 0.505,-0.798 l -0.533,0 c 0.04,0.137 0.061,0.353 -0.191,0.337 -0.33,0 -0.581,-0.345 -0.704,-0.603 -0.106,-0.227 -0.314,-0.677 0.085,-0.677 0.266,0 0.484,0.266 0.53,0.363 L 0,0"
             style="fill:#ffffff;fill-opacity:1;fill-rule:nonzero;stroke:none"
             id="path5970" />
        </g>
        <g
           id="g5972"
           transform="matrix(1.25,0,0,-1.25,41.948383,122.63977)"
           style="fill:#ffffff;fill-opacity:1">
          <path
             inkscape:connector-curvature="0"
             d="m 0,0 c -0.376,-0.502 -0.852,-0.666 -1.194,-0.666 -0.563,0 -0.862,0.282 -0.455,1.139 0.117,0.25 0.58,1.053 1.457,1.053 0.393,0 0.843,-0.195 0.396,-1.147 l -0.049,-0.097 -1.371,0 c -0.057,-0.157 -0.194,-0.509 0.231,-0.509 0.146,0 0.332,0.078 0.444,0.227 L 0,0 z m -0.215,0.638 c 0.128,0.337 -0.028,0.438 -0.197,0.438 -0.248,0 -0.458,-0.164 -0.618,-0.438 l 0.815,0"
             style="fill:#ffffff;fill-opacity:1;fill-rule:nonzero;stroke:none"
             id="path5974" />
        </g>
        <g
           id="g5976"
           transform="matrix(1.25,0,0,-1.25,44.309643,121.59352)"
           style="fill:#ffffff;fill-opacity:1">
          <path
             inkscape:connector-curvature="0"
             d="m 0,0 c 0.038,0.133 0.062,0.274 -0.223,0.274 -0.286,0 -0.38,-0.113 -0.422,-0.204 -0.153,-0.329 1.211,-0.09 0.846,-0.857 -0.288,-0.606 -0.903,-0.716 -1.215,-0.716 -0.454,0 -0.868,0.164 -0.62,0.72 l 0.54,0 c -0.081,-0.176 -0.037,-0.305 0.293,-0.305 0.271,0 0.398,0.137 0.434,0.215 0.166,0.348 -1.198,0.086 -0.829,0.865 0.146,0.306 0.515,0.697 1.137,0.697 0.391,0 0.81,-0.102 0.573,-0.689 L 0,0"
             style="fill:#ffffff;fill-opacity:1;fill-rule:nonzero;stroke:none"
             id="path5978" />
        </g>
        <g
           id="g5980"
           transform="matrix(1.25,0,0,-1.25,46.905893,121.59352)"
           style="fill:#ffffff;fill-opacity:1">
          <path
             inkscape:connector-curvature="0"
             d="m 0,0 c 0.039,0.133 0.061,0.274 -0.224,0.274 -0.285,0 -0.38,-0.113 -0.423,-0.204 -0.152,-0.329 1.211,-0.09 0.847,-0.857 -0.287,-0.606 -0.904,-0.716 -1.215,-0.716 -0.454,0 -0.867,0.164 -0.62,0.72 l 0.54,0 c -0.081,-0.176 -0.037,-0.305 0.293,-0.305 0.272,0 0.399,0.137 0.434,0.215 0.165,0.348 -1.197,0.086 -0.829,0.865 0.146,0.306 0.514,0.697 1.138,0.697 C 0.331,0.689 0.75,0.587 0.513,0 L 0,0"
             style="fill:#ffffff;fill-opacity:1;fill-rule:nonzero;stroke:none"
             id="path5982" />
        </g>
        <g
           id="g5984"
           transform="matrix(1.25,0,0,-1.25,49.137143,120.80102)"
           style="fill:#ffffff;fill-opacity:1">
          <path
             inkscape:connector-curvature="0"
             d="m 0,0 -0.986,-2.082 -0.525,0 L -0.525,0 0,0 z m 0.115,0.247 -0.525,0 0.241,0.509 0.527,0 -0.243,-0.509"
             style="fill:#ffffff;fill-opacity:1;fill-rule:nonzero;stroke:none"
             id="path5986" />
        </g>
        <g
           id="g5988"
           transform="matrix(1.25,0,0,-1.25,50.777143,123.40352)"
           style="fill:#ffffff;fill-opacity:1">
          <path
             inkscape:connector-curvature="0"
             d="m 0,0 -0.525,0 0.599,1.265 c 0.072,0.152 0.187,0.411 -0.147,0.411 -0.233,0 -0.491,-0.165 -0.642,-0.482 L -1.28,0 l -0.526,0 0.986,2.082 0.503,0 -0.142,-0.305 0.008,0 c 0.127,0.126 0.39,0.36 0.769,0.36 0.391,0 0.581,-0.238 0.363,-0.697 L 0,0"
             style="fill:#ffffff;fill-opacity:1;fill-rule:nonzero;stroke:none"
             id="path5990" />
        </g>
        <g
           id="g5992"
           transform="matrix(1.25,0,0,-1.25,52.542143,122.11602)"
           style="fill:#ffffff;fill-opacity:1">
          <path
             inkscape:connector-curvature="0"
             d="M 0,0 C 0.228,0.485 0.517,0.634 0.711,0.634 1.004,0.634 1.032,0.361 0.873,0.023 0.74,-0.263 0.497,-0.58 0.14,-0.58 -0.171,-0.58 -0.129,-0.267 0,0 z m 1.38,1.052 -0.147,-0.308 -0.008,0 c 0.004,0.137 -0.041,0.363 -0.412,0.363 -0.44,0 -0.996,-0.352 -1.337,-1.072 -0.346,-0.727 -0.132,-1.076 0.348,-1.076 0.315,0 0.522,0.153 0.682,0.313 l 0.005,-0.009 -0.12,-0.25 c -0.158,-0.335 -0.362,-0.477 -0.644,-0.477 -0.304,0 -0.294,0.106 -0.265,0.211 l -0.571,0 c -0.187,-0.442 0.161,-0.625 0.575,-0.625 0.983,0 1.291,0.598 1.464,0.958 l 0.934,1.972 -0.504,0"
             style="fill:#ffffff;fill-opacity:1;fill-rule:nonzero;stroke:none"
             id="path5994" />
        </g>
        <g
           id="g5996"
           transform="matrix(1.25,0,0,-1.25,56.583393,122.32227)"
           style="fill:#ffffff;fill-opacity:1">
          <path
             inkscape:connector-curvature="0"
             d="m 0,0 c -0.072,-0.156 -0.137,-0.454 0.355,-0.454 0.266,0 0.595,0.067 0.736,0.363 0.105,0.22 -0.072,0.279 -0.323,0.349 L 0.513,0.329 C 0.128,0.434 -0.246,0.536 0.048,1.155 0.197,1.467 0.62,2.02 1.495,2.02 2.321,2.02 2.274,1.456 2.113,1.111 l -0.54,0 C 1.618,1.236 1.713,1.534 1.221,1.534 1.007,1.534 0.715,1.452 0.594,1.198 0.49,0.978 0.642,0.932 0.74,0.904 L 1.318,0.736 C 1.641,0.642 1.904,0.485 1.665,-0.02 1.265,-0.865 0.403,-0.939 0.167,-0.939 c -0.984,0 -0.874,0.59 -0.708,0.939 L 0,0"
             style="fill:#ffffff;fill-opacity:1;fill-rule:nonzero;stroke:none"
             id="path5998" />
        </g>
        <g
           id="g6000"
           transform="matrix(1.25,0,0,-1.25,60.984643,122.10227)"
           style="fill:#ffffff;fill-opacity:1">
          <path
             inkscape:connector-curvature="0"
             d="m 0,0 c -0.128,-0.267 -0.378,-0.634 -0.783,-0.634 -0.405,0 -0.307,0.367 -0.178,0.634 0.124,0.266 0.374,0.634 0.779,0.634 C 0.224,0.634 0.125,0.266 0,0 z M 0.541,0 C 0.893,0.752 0.574,1.096 0.037,1.096 -0.5,1.096 -1.149,0.752 -1.502,0 c -0.357,-0.752 -0.036,-1.096 0.5,-1.096 0.537,0 1.186,0.344 1.543,1.096"
             style="fill:#ffffff;fill-opacity:1;fill-rule:nonzero;stroke:none"
             id="path6002" />
        </g>
        <g
           id="g6004"
           transform="matrix(1.25,0,0,-1.25,64.085893,122.45477)"
           style="fill:#ffffff;fill-opacity:1">
          <path
             inkscape:connector-curvature="0"
             d="m 0,0 c -0.118,-0.215 -0.566,-0.813 -1.297,-0.813 -0.752,0 -0.639,0.598 -0.434,1.037 0.321,0.673 0.83,1.154 1.506,1.154 0.315,0 0.763,-0.149 0.505,-0.798 l -0.533,0 c 0.042,0.137 0.061,0.353 -0.19,0.337 -0.331,0 -0.582,-0.345 -0.705,-0.603 -0.106,-0.227 -0.314,-0.677 0.084,-0.677 0.267,0 0.486,0.266 0.531,0.363 L 0,0"
             style="fill:#ffffff;fill-opacity:1;fill-rule:nonzero;stroke:none"
             id="path6006" />
        </g>
        <g
           id="g6008"
           transform="matrix(1.25,0,0,-1.25,65.990893,120.80102)"
           style="fill:#ffffff;fill-opacity:1">
          <path
             inkscape:connector-curvature="0"
             d="m 0,0 -0.985,-2.082 -0.526,0 L -0.526,0 0,0 z m 0.116,0.247 -0.525,0 0.242,0.509 0.525,0 -0.242,-0.509"
             style="fill:#ffffff;fill-opacity:1;fill-rule:nonzero;stroke:none"
             id="path6010" />
        </g>
        <g
           id="g6012"
           transform="matrix(1.25,0,0,-1.25,66.592153,121.84226)"
           style="fill:#ffffff;fill-opacity:1">
          <path
             inkscape:connector-curvature="0"
             d="M 0,0 C 0.161,0.273 0.37,0.438 0.618,0.438 0.786,0.438 0.943,0.336 0.814,0 L 0,0 z m 0.489,-0.638 c -0.111,-0.15 -0.298,-0.227 -0.444,-0.227 -0.425,0 -0.288,0.351 -0.231,0.508 l 1.37,0 0.049,0.098 c 0.448,0.951 -0.002,1.147 -0.396,1.147 -0.875,0 -1.339,-0.803 -1.456,-1.053 -0.408,-0.857 -0.108,-1.139 0.455,-1.139 0.341,0 0.818,0.164 1.194,0.666 l -0.541,0"
             style="fill:#ffffff;fill-opacity:1;fill-rule:nonzero;stroke:none"
             id="path6014" />
        </g>
        <g
           id="g6016"
           transform="matrix(1.25,0,0,-1.25,69.938383,120.80102)"
           style="fill:#ffffff;fill-opacity:1">
          <path
             inkscape:connector-curvature="0"
             d="m 0,0 0.327,0 -0.184,-0.39 -0.327,0 -0.538,-1.132 c -0.055,-0.121 -0.075,-0.167 0.138,-0.167 0.034,0 0.073,0.003 0.116,0.007 l -0.198,-0.416 c -0.084,-0.003 -0.168,-0.007 -0.25,-0.007 l -0.069,0 c -0.453,0 -0.45,0.18 -0.325,0.45 l 0.6,1.265 -0.27,0 0.185,0.39 0.269,0 0.27,0.564 0.525,0 L 0,0"
             style="fill:#ffffff;fill-opacity:1;fill-rule:nonzero;stroke:none"
             id="path6018" />
        </g>
        <g
           id="g6020"
           transform="matrix(1.25,0,0,-1.25,70.905893,123.35853)"
           style="fill:#ffffff;fill-opacity:1">
          <path
             inkscape:connector-curvature="0"
             d="m 0,0 c -0.614,-0.771 -0.728,-0.873 -1.186,-0.873 -0.071,0 -0.161,0.004 -0.234,0.008 l 0.208,0.438 c 0.022,-0.004 0.051,-0.008 0.096,-0.008 0.191,0 0.312,0.028 0.493,0.314 l 0.292,2.167 0.585,0 -0.296,-1.534 0.008,0 1.134,1.534 0.555,0 L 0,0"
             style="fill:#ffffff;fill-opacity:1;fill-rule:nonzero;stroke:none"
             id="path6022" />
        </g>
      </g>
      <g
         id="g3127">
        <path
           id="path5752"
           style="fill:#ffffff;fill-opacity:1;fill-rule:nonzero;stroke:none"
           d="m 99.934643,102.68478 c 0,0.2275 -0.18375,0.4125 -0.41125,0.4125 -0.2275,0 -0.41125,-0.185 -0.41125,-0.4125 0,-0.2275 0.18375,-0.41 0.41125,-0.41 0.2275,0 0.41125,0.1825 0.41125,0.41"
           inkscape:connector-curvature="0" />
        <path
           id="path5756"
           style="fill:#ffffff;fill-opacity:1;fill-rule:nonzero;stroke:none"
           d="m 100.64464,103.84477 c 0,0.2275 -0.18375,0.41 -0.4125,0.41 -0.22625,0 -0.41125,-0.1825 -0.41125,-0.41 0,-0.2275 0.185,-0.4125 0.41125,-0.4125 0.22875,0 0.4125,0.185 0.4125,0.4125"
           inkscape:connector-curvature="0" />
        <path
           id="path5760"
           style="fill:#ffffff;fill-opacity:1;fill-rule:nonzero;stroke:none"
           d="m 100.12089,106.98602 c 0,0.22625 -0.18375,0.4125 -0.41125,0.4125 -0.2275,0 -0.41125,-0.18625 -0.41125,-0.4125 0,-0.22875 0.18375,-0.41125 0.41125,-0.41125 0.2275,0 0.41125,0.1825 0.41125,0.41125"
           inkscape:connector-curvature="0" />
        <path
           id="path5764"
           style="fill:#ffffff;fill-opacity:1;fill-rule:nonzero;stroke:none"
           d="m 99.073403,111.35976 c 0,0.2275 -0.18375,0.4125 -0.41125,0.4125 -0.2275,0 -0.41125,-0.185 -0.41125,-0.4125 0,-0.225 0.18375,-0.41125 0.41125,-0.41125 0.2275,0 0.41125,0.18625 0.41125,0.41125"
           inkscape:connector-curvature="0" />
        <path
           id="path5768"
           style="fill:#ffffff;fill-opacity:1;fill-rule:nonzero;stroke:none"
           d="m 98.325893,115.21226 c 0,0.2275 -0.185,0.41125 -0.41125,0.41125 -0.2275,0 -0.41125,-0.18375 -0.41125,-0.41125 0,-0.2275 0.18375,-0.4125 0.41125,-0.4125 0.22625,0 0.41125,0.185 0.41125,0.4125"
           inkscape:connector-curvature="0" />
        <path
           id="path5772"
           style="fill:#ffffff;fill-opacity:1;fill-rule:nonzero;stroke:none"
           d="m 97.615903,121.23227 c 0,0.2275 -0.18375,0.41125 -0.41,0.41125 -0.22875,0 -0.41125,-0.18375 -0.41125,-0.41125 0,-0.2275 0.1825,-0.41125 0.41125,-0.41125 0.22625,0 0.41,0.18375 0.41,0.41125"
           inkscape:connector-curvature="0" />
        <path
           id="path5776"
           style="fill:#ffffff;fill-opacity:1;fill-rule:nonzero;stroke:none"
           d="m 97.653403,118.72728 c 0,0.22625 -0.18375,0.41 -0.4125,0.41 -0.22625,0 -0.41125,-0.18375 -0.41125,-0.41 0,-0.2275 0.185,-0.4125 0.41125,-0.4125 0.22875,0 0.4125,0.185 0.4125,0.4125"
           inkscape:connector-curvature="0" />
        <path
           id="path5780"
           style="fill:#ffffff;fill-opacity:1;fill-rule:nonzero;stroke:none"
           d="m 98.252133,122.50352 c 0,0.2275 -0.185,0.41125 -0.41125,0.41125 -0.2275,0 -0.4125,-0.18375 -0.4125,-0.41125 0,-0.2275 0.185,-0.41 0.4125,-0.41 0.22625,0 0.41125,0.1825 0.41125,0.41"
           inkscape:connector-curvature="0" />
        <path
           id="path5784"
           style="fill:#ffffff;fill-opacity:1;fill-rule:nonzero;stroke:none"
           d="m 99.597143,122.46602 c 0,0.22625 -0.18375,0.41125 -0.41125,0.41125 -0.22625,0 -0.41125,-0.185 -0.41125,-0.41125 0,-0.2275 0.185,-0.4125 0.41125,-0.4125 0.2275,0 0.41125,0.185 0.41125,0.4125"
           inkscape:connector-curvature="0" />
        <path
           id="path5788"
           style="fill:#ffffff;fill-opacity:1;fill-rule:nonzero;stroke:none"
           d="m 101.35589,121.60602 c 0,0.2275 -0.18375,0.41125 -0.41125,0.41125 -0.22875,0 -0.4125,-0.18375 -0.4125,-0.41125 0,-0.2275 0.18375,-0.4125 0.4125,-0.4125 0.2275,0 0.41125,0.185 0.41125,0.4125"
           inkscape:connector-curvature="0" />
        <path
           id="path5792"
           style="fill:#ffffff;fill-opacity:1;fill-rule:nonzero;stroke:none"
           d="m 103.59839,119.92227 c 0,0.2275 -0.1825,0.4125 -0.41,0.4125 -0.22625,0 -0.41125,-0.185 -0.41125,-0.4125 0,-0.225 0.185,-0.41 0.41125,-0.41 0.2275,0 0.41,0.185 0.41,0.41"
           inkscape:connector-curvature="0" />
        <path
           id="path5796"
           style="fill:#ffffff;fill-opacity:1;fill-rule:nonzero;stroke:none"
           d="m 107.52589,117.49227 c 0,0.2275 -0.18375,0.4125 -0.4125,0.4125 -0.22625,0 -0.41125,-0.185 -0.41125,-0.4125 0,-0.2275 0.185,-0.41 0.41125,-0.41 0.22875,0 0.4125,0.1825 0.4125,0.41"
           inkscape:connector-curvature="0" />
        <path
           id="path5800"
           style="fill:#ffffff;fill-opacity:1;fill-rule:nonzero;stroke:none"
           d="m 109.13339,117.00477 c 0,0.2275 -0.185,0.4125 -0.41125,0.4125 -0.2275,0 -0.41125,-0.185 -0.41125,-0.4125 0,-0.22625 0.18375,-0.41 0.41125,-0.41 0.22625,0 0.41125,0.18375 0.41125,0.41"
           inkscape:connector-curvature="0" />
        <path
           id="path5804"
           style="fill:#ffffff;fill-opacity:1;fill-rule:nonzero;stroke:none"
           d="m 110.36714,116.93227 c 0,0.2275 -0.18375,0.41125 -0.4125,0.41125 -0.22625,0 -0.41,-0.18375 -0.41,-0.41125 0,-0.2275 0.18375,-0.41125 0.41,-0.41125 0.22875,0 0.4125,0.18375 0.4125,0.41125"
           inkscape:connector-curvature="0" />
        <path
           id="path5808"
           style="fill:#ffffff;fill-opacity:1;fill-rule:nonzero;stroke:none"
           d="m 111.45089,117.38101 c 0,0.2275 -0.18375,0.41125 -0.41125,0.41125 -0.2275,0 -0.41125,-0.18375 -0.41125,-0.41125 0,-0.22875 0.18375,-0.4125 0.41125,-0.4125 0.2275,0 0.41125,0.18375 0.41125,0.4125"
           inkscape:connector-curvature="0" />
        <path
           id="path5812"
           style="fill:none;stroke:#ffffff;stroke-width:0.33124998;stroke-linecap:butt;stroke-linejoin:miter;stroke-miterlimit:4;stroke-opacity:1;stroke-dasharray:none"
           d="m 103.15089,119.92227 0.51875,-0.9475"
           inkscape:connector-curvature="0" />
        <path
           id="path5816"
           style="fill:none;stroke:#ffffff;stroke-width:0.33124998;stroke-linecap:butt;stroke-linejoin:miter;stroke-miterlimit:4;stroke-opacity:1;stroke-dasharray:none"
           d="m 13.697143,119.01977 98.319997,0"
           inkscape:connector-curvature="0" />
        <path
           id="path5820"
           style="fill:none;stroke:#ffffff;stroke-width:0.33124998;stroke-linecap:butt;stroke-linejoin:miter;stroke-miterlimit:4;stroke-opacity:1;stroke-dasharray:none"
           d="m 90.580893,119.01977 8.9175,-16.31"
           inkscape:connector-curvature="0" />
        <path
           id="path5824"
           style="fill:none;stroke:#ffffff;stroke-width:0.33124998;stroke-linecap:butt;stroke-linejoin:miter;stroke-miterlimit:4;stroke-opacity:1;stroke-dasharray:none"
           d="M 91.888403,119.01977 100.2334,103.84352"
           inkscape:connector-curvature="0" />
        <path
           id="path5828"
           style="fill:none;stroke:#ffffff;stroke-width:0.33124998;stroke-linecap:butt;stroke-linejoin:miter;stroke-miterlimit:4;stroke-opacity:1;stroke-dasharray:none"
           d="m 93.194643,119.01977 6.59,-12.07375"
           inkscape:connector-curvature="0" />
        <path
           id="path5832"
           style="fill:none;stroke:#ffffff;stroke-width:0.33124998;stroke-linecap:butt;stroke-linejoin:miter;stroke-miterlimit:4;stroke-opacity:1;stroke-dasharray:none"
           d="m 94.502133,119.01977 4.19875,-7.66125"
           inkscape:connector-curvature="0" />
        <path
           id="path5836"
           style="fill:none;stroke:#ffffff;stroke-width:0.33124998;stroke-linecap:butt;stroke-linejoin:miter;stroke-miterlimit:4;stroke-opacity:1;stroke-dasharray:none"
           d="m 95.809643,119.01977 2.10625,-3.84625"
           inkscape:connector-curvature="0" />
        <path
           id="path5840"
           style="fill:none;stroke:#ffffff;stroke-width:0.33124998;stroke-linecap:butt;stroke-linejoin:miter;stroke-miterlimit:4;stroke-opacity:1;stroke-dasharray:none"
           d="m 97.168393,121.26852 1.2725,-2.29375"
           inkscape:connector-curvature="0" />
        <path
           id="path5844"
           style="fill:none;stroke:#ffffff;stroke-width:0.33124998;stroke-linecap:butt;stroke-linejoin:miter;stroke-miterlimit:4;stroke-opacity:1;stroke-dasharray:none"
           d="m 97.803393,122.53976 1.945,-3.565"
           inkscape:connector-curvature="0" />
        <path
           id="path5848"
           style="fill:none;stroke:#ffffff;stroke-width:0.33124998;stroke-linecap:butt;stroke-linejoin:miter;stroke-miterlimit:4;stroke-opacity:1;stroke-dasharray:none"
           d="m 99.185893,122.46477 1.868747,-3.49"
           inkscape:connector-curvature="0" />
        <path
           id="path5852"
           style="fill:none;stroke:#ffffff;stroke-width:0.33124998;stroke-linecap:butt;stroke-linejoin:miter;stroke-miterlimit:4;stroke-opacity:1;stroke-dasharray:none"
           d="m 100.94338,121.56726 1.4175,-2.5925"
           inkscape:connector-curvature="0" />
        <path
           id="path5856"
           style="fill:none;stroke:#ffffff;stroke-width:0.33124998;stroke-linecap:butt;stroke-linejoin:miter;stroke-miterlimit:4;stroke-opacity:1;stroke-dasharray:none"
           d="m 106.26589,119.01977 0.885,-1.6025"
           inkscape:connector-curvature="0" />
        <path
           id="path5860"
           style="fill:none;stroke:#ffffff;stroke-width:0.33124998;stroke-linecap:butt;stroke-linejoin:miter;stroke-miterlimit:4;stroke-opacity:1;stroke-dasharray:none"
           d="m 107.57214,119.01977 1.15,-2.0525"
           inkscape:connector-curvature="0" />
        <path
           id="path5864"
           style="fill:none;stroke:#ffffff;stroke-width:0.33124998;stroke-linecap:butt;stroke-linejoin:miter;stroke-miterlimit:4;stroke-opacity:1;stroke-dasharray:none"
           d="m 108.87963,119.01977 1.15125,-2.12625"
           inkscape:connector-curvature="0" />
        <path
           id="path5868"
           style="fill:none;stroke:#ffffff;stroke-width:0.33124998;stroke-linecap:butt;stroke-linejoin:miter;stroke-miterlimit:4;stroke-opacity:1;stroke-dasharray:none"
           d="m 110.18714,119.01977 0.89,-1.64"
           inkscape:connector-curvature="0" />
        <path
           id="path5872"
           style="fill:none;stroke:#ffffff;stroke-width:0.33124998;stroke-linecap:butt;stroke-linejoin:miter;stroke-miterlimit:4;stroke-opacity:1;stroke-dasharray:none"
           d="m 68.497133,118.98727 c 3.14875,-1.9325 5.35875,-3.53625 6.51875,0 1.7675,5.3575 3.75625,3.315 7.34625,0 7.6775,-7.5125 14.19625,-16.9025 16.9025,-15.7425"
           inkscape:connector-curvature="0" />
        <path
           id="path5884"
           style="fill:#ffffff;fill-opacity:1;fill-rule:nonzero;stroke:none"
           d="m 110.08214,122.29102 0.24375,0 c 0.1625,0 0.36125,0.0237 0.36125,0.19875 0,0.2025 -0.1275,0.23625 -0.31875,0.23625 l -0.28625,0 0,-0.435 z m -0.38125,1.53125 0.38125,0 0,-0.78375 0.1675,0 0.41,0.78375 0.43875,0 -0.46875,-0.8025 c 0.24,-0.0225 0.44,-0.15625 0.44,-0.49 0,-0.41875 -0.2625,-0.55375 -0.70625,-0.55375 l -0.6625,0 0,1.84625 z m -0.5625,-0.91125 c 0,-0.7625 0.53375,-1.3125 1.225,-1.3125 0.68125,0 1.22625,0.55 1.22625,1.3125 0,0.76875 -0.545,1.31125 -1.22625,1.31125 -0.69125,0 -1.225,-0.5425 -1.225,-1.31125 z m -0.49625,0 c 0,0.95 0.7725,1.72125 1.72125,1.72125 0.94875,0 1.72125,-0.77125 1.72125,-1.72125 0,-0.94875 -0.7725,-1.7225 -1.72125,-1.7225 -0.94875,0 -1.72125,0.77375 -1.72125,1.7225"
           inkscape:connector-curvature="0" />
        <path
           id="path5776-9"
           style="fill:#ffffff;fill-opacity:1;fill-rule:nonzero;stroke:none"
           d="m 105.48047,118.89617 c 0,0.22625 -0.18375,0.41 -0.4125,0.41 -0.22625,0 -0.41125,-0.18375 -0.41125,-0.41 0,-0.2275 0.185,-0.4125 0.41125,-0.4125 0.22875,0 0.4125,0.185 0.4125,0.4125"
           inkscape:connector-curvature="0" />
      </g>
    </g>
  </g>
</svg>
