<?xml version="1.0" encoding="UTF-8" standalone="no"?>
<!-- Created with Inkscape (http://www.inkscape.org/) -->

<svg
   xmlns:dc="http://purl.org/dc/elements/1.1/"
   xmlns:cc="http://creativecommons.org/ns#"
   xmlns:rdf="http://www.w3.org/1999/02/22-rdf-syntax-ns#"
   xmlns:svg="http://www.w3.org/2000/svg"
   xmlns="http://www.w3.org/2000/svg"
   xmlns:sodipodi="http://sodipodi.sourceforge.net/DTD/sodipodi-0.dtd"
   xmlns:inkscape="http://www.inkscape.org/namespaces/inkscape"
   width="41.76482mm"
   height="26.22513mm"
   viewBox="0 0 147.98558 92.923687"
   id="svg5157"
   version="1.1"
   inkscape:version="0.91 r13725"
   sodipodi:docname="imt_lille_douai_logo.svg"
   inkscape:export-filename="imt_lille_douai_logo.png"
   inkscape:export-xdpi="425.72"
   inkscape:export-ydpi="425.72">
  <defs
     id="defs5159">
    <clipPath
       id="clipPath6689-3"
       clipPathUnits="userSpaceOnUse">
      <path
         inkscape:connector-curvature="0"
         id="path6691-6"
         d="m 73.5,722.67 107.05,0 0,62.998 -107.05,0 0,-62.998 z" />
    </clipPath>
  </defs>
  <sodipodi:namedview
     id="base"
     pagecolor="#ffffff"
     bordercolor="#666666"
     borderopacity="1.0"
     inkscape:pageopacity="1"
     inkscape:pageshadow="2"
     inkscape:zoom="5.6"
     inkscape:cx="73.264585"
     inkscape:cy="35.653781"
     inkscape:document-units="px"
     inkscape:current-layer="layer1"
     showgrid="false"
     fit-margin-top="2"
     fit-margin-left="2"
     fit-margin-right="2"
     fit-margin-bottom="2"
     inkscape:window-width="1920"
     inkscape:window-height="1027"
     inkscape:window-x="0"
     inkscape:window-y="0"
     inkscape:window-maximized="1" />
  <metadata
     id="metadata5162">
    <rdf:RDF>
      <cc:Work
         rdf:about="">
        <dc:format>image/svg+xml</dc:format>
        <dc:type
           rdf:resource="http://purl.org/dc/dcmitype/StillImage" />
        <dc:title></dc:title>
      </cc:Work>
    </rdf:RDF>
  </metadata>
  <g
     inkscape:label="Text"
     inkscape:groupmode="layer"
     id="layer1"
     transform="translate(-893.102,-45.624125)">
    <text
       id="text5187"
       style="font-variant:normal;font-weight:normal;font-size:15px;font-family:Cambria;-inkscape-font-specification:Cambria;writing-mode:lr-tb;fill:#000000;fill-opacity:1;fill-rule:nonzero;stroke:none"
       x="842.65356"
       y="391.7189">
      <tspan
         id="tspan5189"
         y="391.7189"
         x="842.65356" />
    </text>
    <text
       id="text5193"
       style="font-variant:normal;font-weight:normal;font-size:12.30000019px;font-family:Cambria;-inkscape-font-specification:Cambria;writing-mode:lr-tb;fill:#000000;fill-opacity:1;fill-rule:nonzero;stroke:none"
       x="842.65356"
       y="407.01889">
      <tspan
         id="tspan5195"
         y="407.01889"
         x="842.65356" />
    </text>
    <g
       id="g6651"
       transform="matrix(0.0544605,0,0,0.05436525,900.18861,52.711877)">
      <path
         d="m 0.007,822 38.993,0 0,177 -38.993,0 0,-177 z"
         style="fill:#000000;fill-opacity:1;fill-rule:nonzero;stroke:none"
         id="path6653"
         inkscape:connector-curvature="0" />
    </g>
    <g
       id="g6655"
       transform="matrix(0.0544605,0,0,0.05436525,900.18861,52.712027)">
      <g
         id="g6657"
         transform="translate(225.9999,999)">
        <path
           d="m 0,0 0,-126 -44,126 -30,0 -44,-124 0,124 -37,0 0,-177 55,0 42,122 40,-122 55,0 L 37,0 0,0 Z"
           style="fill:#000000;fill-opacity:1;fill-rule:nonzero;stroke:none"
           id="path6659"
           inkscape:connector-curvature="0" />
      </g>
    </g>
    <g
       id="g6661"
       transform="matrix(0.0544605,0,0,0.05436525,900.18861,52.712178)">
      <g
         id="g6663"
         transform="translate(333,999)">
        <path
           d="m 0,0 0,-145 -53,0 0,-32 145,0 0,32 -53,0 L 39,0 0,0 Z"
           style="fill:#000000;fill-opacity:1;fill-rule:nonzero;stroke:none"
           id="path6665"
           inkscape:connector-curvature="0" />
      </g>
    </g>
    <g
       id="g6667"
       transform="matrix(0.0544605,0,0,0.05436525,900.18861,52.712327)">
      <g
         id="g6669"
         transform="translate(506.9997,999)">
        <path
           d="m 0,0 0,-177 39.001,0 0,144 L 126,-33 126,0 0,0 Z"
           style="fill:#000000;fill-opacity:1;fill-rule:nonzero;stroke:none"
           id="path6671"
           inkscape:connector-curvature="0" />
      </g>
    </g>
    <g
       id="g6673"
       transform="matrix(0.0544605,0,0,0.05436525,900.18861,52.712477)">
      <path
         d="m 649,871 36,0 0,128 -36,0 0,-128 z m 0,-49 36,0 0,29 -36,0 0,-29 z"
         style="fill:#000000;fill-opacity:1;fill-rule:nonzero;stroke:none"
         id="path6675"
         inkscape:connector-curvature="0" />
    </g>
    <g
       id="g6677"
       transform="matrix(0.0544605,0,0,0.05436525,900.18861,52.71264)">
      <path
         d="m 712,822 35,0 0,177 -35,0 0,-177 z"
         style="fill:#000000;fill-opacity:1;fill-rule:nonzero;stroke:none"
         id="path6679"
         inkscape:connector-curvature="0" />
    </g>
    <g
       id="g6681"
       transform="matrix(0.0544605,0,0,0.05436525,900.18861,52.71279)">
      <path
         d="m 775,822 35,0 0,177 -35,0 0,-177 z"
         style="fill:#000000;fill-opacity:1;fill-rule:nonzero;stroke:none"
         id="path6683"
         inkscape:connector-curvature="0" />
    </g>
    <g
       id="g6685"
       transform="matrix(1.25,0,0,-1.25,808.31361,1034.7987)">
      <g
         id="g6687"
         clip-path="url(#clipPath6689-3)">
        <g
           id="g6693"
           transform="matrix(0.0435684,0,0,-0.0434922,73.5,785.66846)">
          <g
             id="g6695"
             transform="translate(923.9998,920.9998)">
            <path
               d="m 0,0 0,0 c -3,-18 -11,-27 -28,-27 -22,0 -29,17 -29,27 L 0,0 Z m -57,22 0,0 c 1,23 12,33 31,33 15,0 26,-9 28,-17 l 31,0 C 23,69 2,82 -27,82 -67,82 -93,54 -93,14 c 0,-39 27,-68 66,-68 44,0 65,37 63,76 l -93,0 z"
               style="fill:#000000;fill-opacity:1;fill-rule:nonzero;stroke:none"
               id="path6697"
               inkscape:connector-curvature="0" />
          </g>
        </g>
        <g
           id="g6699"
           transform="matrix(0.0435684,0,0,-0.0434922,73.5,785.66834)">
          <g
             id="g6701"
             transform="translate(1091.9998,965.9998)">
            <path
               d="m 0,0 0,0 35,0 c 23,0 44,-14 44,-53 0,-36 -12,-59 -51,-59 L 0,-112 0,0 Z m -39,-144 0,0 77,0 c 46,0 80,28 80,87 0,52 -26,90 -80,90 l -77,0 0,-177 z"
               style="fill:#000000;fill-opacity:1;fill-rule:nonzero;stroke:none"
               id="path6703"
               inkscape:connector-curvature="0" />
          </g>
        </g>
        <g
           id="g6705"
           transform="matrix(0.0435684,0,0,-0.0434922,73.5,785.66821)">
          <g
             id="g6707"
             transform="translate(1293.9996,975.9998)">
            <path
               d="m 0,0 0,0 c 24,0 31,-21 31,-41 0,-21 -7,-41 -31,-41 -24,0 -31,20 -31,41 0,20 7,41 31,41 m 0,-109 0,0 c 41,0 67,27 67,68 0,41 -26,68 -67,68 -40,0 -66,-27 -66,-68 0,-41 26,-68 66,-68"
               style="fill:#000000;fill-opacity:1;fill-rule:nonzero;stroke:none"
               id="path6709"
               inkscape:connector-curvature="0" />
          </g>
        </g>
        <g
           id="g6711"
           transform="matrix(0.0435684,0,0,-0.0434922,73.5,785.66809)">
          <g
             id="g6713"
             transform="translate(1501.9996,998.9998)">
            <path
               d="m 0,0 0,0 -33,0 0,-18 -1,0 c -9,15 -24,22 -39,22 -38,0 -47,-21 -47,-53 l 0,-79 35,0 0,72 c 0,21 6,32 23,32 19,0 27,-11 27,-37 l 0,-67 35,0 0,128 z"
               style="fill:#000000;fill-opacity:1;fill-rule:nonzero;stroke:none"
               id="path6715"
               inkscape:connector-curvature="0" />
          </g>
        </g>
        <g
           id="g6717"
           transform="matrix(0.0435684,0,0,-0.0434922,73.5,785.66797)">
          <g
             id="g6719"
             transform="translate(1608.9996,935.9998)">
            <path
               d="m 0,0 0,0 c -6,5 -18,6 -29,8 -11,2 -21,6 -21,19 0,13 10,16 22,16 C -1,43 0,21 0,13 L 0,0 Z m -81,-26 0,0 c 2,-33 31,-43 60,-43 26,0 57,6 57,37 l 0,67 c 0,11 1,23 4,28 L 4,63 C 3,59 2,55 2,51 -9,62 -26,67 -42,67 -66,67 -85,54 -85,28 c 0,-29 22,-36 43,-39 22,-3 42,-2 42,-17 0,-15 -10,-17 -23,-17 -13,0 -22,5 -23,19 l -35,0 z"
               style="fill:#000000;fill-opacity:1;fill-rule:nonzero;stroke:none"
               id="path6721"
               inkscape:connector-curvature="0" />
          </g>
        </g>
        <g
           id="g6723"
           transform="matrix(0.0435684,0,0,-0.0434922,73.5,785.66785)">
          <g
             id="g6725"
             transform="translate(1671.9996,870.9998)">
            <path
               d="M 0,0 0,0 36,0 36,128 0,128 0,0 Z m 36,-20 0,0 -36,0 0,-29 36,0 0,29 z"
               style="fill:#000000;fill-opacity:1;fill-rule:nonzero;stroke:none"
               id="path6727"
               inkscape:connector-curvature="0" />
          </g>
        </g>
        <g
           id="g6729"
           transform="matrix(0.0435684,0,0,-0.0434922,73.5,785.66772)">
          <g
             id="g6731"
             transform="translate(71,1047.9998)">
            <path
               d="M 0,0 0,0 -25,27 -38,27 -21,0 0,0 Z m -71,38 0,0 98,0 0,16 -80,0 0,42 74,0 0,15 -74,0 0,47 82,0 0,16 -100,0 0,-136 z"
               style="fill:#000000;fill-opacity:1;fill-rule:nonzero;stroke:none"
               id="path6733"
               inkscape:connector-curvature="0" />
          </g>
        </g>
        <g
           id="g6735"
           transform="matrix(0.0435684,0,0,-0.0434922,73.5,785.6676)">
          <g
             id="g6737"
             transform="translate(183,1127.9998)">
            <path
               d="m 0,0 0,0 c 7,5 11,15 12,28 l -16,0 c -1,-6 -3,-11 -7,-15 -3,-4 -9,-6 -17,-6 -10,0 -18,5 -23,15 -2,7 -4,15 -4,25 0,10 2,18 6,25 5,7 11,10 20,10 7,0 13,-2 17,-6 4,-4 7,-10 8,-17 l 16,0 c -2,13 -6,23 -14,29 -7,6 -17,9 -28,9 -13,0 -23,-5 -31,-14 -8,-10 -12,-22 -12,-36 0,-18 4,-31 13,-41 8,-10 19,-14 32,-14 12,0 21,2 28,8"
               style="fill:#000000;fill-opacity:1;fill-rule:nonzero;stroke:none"
               id="path6739"
               inkscape:connector-curvature="0" />
          </g>
        </g>
        <g
           id="g6741"
           transform="matrix(0.0435684,0,0,-0.0434922,73.5,785.66748)">
          <g
             id="g6743"
             transform="translate(273.9999,1197.9998)">
            <path
               d="m 0,0 0,0 c 4,-8 6,-17 6,-27 0,-10 -1,-17 -4,-23 -5,-9 -13,-14 -24,-14 -10,0 -18,4 -22,12 -5,8 -7,17 -7,28 0,11 2,19 7,26 4,8 12,11 22,11 10,0 18,-4 22,-13 m 10,-66 0,0 c 9,9 14,21 14,38 0,16 -4,29 -12,40 -8,10 -20,15 -36,15 -14,0 -24,-4 -32,-13 -8,-10 -12,-22 -12,-38 0,-16 4,-30 12,-40 9,-9 20,-14 34,-14 13,0 24,4 32,12"
               style="fill:#000000;fill-opacity:1;fill-rule:nonzero;stroke:none"
               id="path6745"
               inkscape:connector-curvature="0" />
          </g>
        </g>
        <g
           id="g6747"
           transform="matrix(0.0435684,0,0,-0.0434922,73.5,785.66736)">
          <g
             id="g6749"
             transform="translate(315.9999,1085.9998)">
            <path
               d="M 0,0 0,0 17,0 17,136 0,136 0,0 Z"
               style="fill:#000000;fill-opacity:1;fill-rule:nonzero;stroke:none"
               id="path6751"
               inkscape:connector-curvature="0" />
          </g>
        </g>
        <g
           id="g6753"
           transform="matrix(0.0435684,0,0,-0.0434922,73.5,785.66724)">
          <g
             id="g6755"
             transform="translate(423.9999,1163.9998)">
            <path
               d="m 0,0 0,0 c -1,-7 -3,-13 -5,-17 -5,-8 -12,-12 -23,-12 -7,0 -14,3 -19,8 -5,6 -8,13 -8,21 L 0,0 Z m -6,-39 0,0 c 6,4 11,8 15,13 3,5 5,11 6,18 1,4 2,12 2,22 l -73,0 c 1,10 3,18 8,24 4,6 11,9 20,9 9,0 16,-3 21,-9 3,-3 5,-7 6,-11 l 16,0 c 0,3 -1,7 -4,12 -2,4 -5,8 -8,11 -5,5 -11,8 -19,10 -4,1 -8,1 -13,1 -13,0 -23,-4 -32,-13 -8,-9 -12,-22 -12,-38 0,-16 4,-29 12,-39 9,-10 20,-15 34,-15 7,0 14,2 21,5"
               style="fill:#000000;fill-opacity:1;fill-rule:nonzero;stroke:none"
               id="path6757"
               inkscape:connector-curvature="0" />
          </g>
        </g>
        <g
           id="g6759"
           transform="matrix(0.0435684,0,0,-0.0434922,73.5,785.66711)">
          <g
             id="g6761"
             transform="translate(516.9999,1085.9998)">
            <path
               d="m 0,0 0,0 26,0 39,115 39,-115 27,0 0,136 -18,0 0,-81 0,-13 0,-21 -39,115 -18,0 -39,-115 0,4 0,15 0,15 0,81 L 0,136 0,0 Z"
               style="fill:#000000;fill-opacity:1;fill-rule:nonzero;stroke:none"
               id="path6763"
               inkscape:connector-curvature="0" />
          </g>
        </g>
        <g
           id="g6765"
           transform="matrix(0.0435684,0,0,-0.0434922,73.5,785.66699)">
          <g
             id="g6767"
             transform="translate(671.9999,1122.9998)">
            <path
               d="M 0,0 0,0 17,0 17,99 0,99 0,0 Z m 0,-37 0,0 17,0 0,18 -17,0 0,-18 z"
               style="fill:#000000;fill-opacity:1;fill-rule:nonzero;stroke:none"
               id="path6769"
               inkscape:connector-curvature="0" />
          </g>
        </g>
        <g
           id="g6771"
           transform="matrix(0.0435684,0,0,-0.0434922,73.5,785.66687)">
          <g
             id="g6773"
             transform="translate(710.9999,1121.9998)">
            <path
               d="m 0,0 0,0 16,0 0,15 C 21,9 26,5 31,2 c 5,-2 11,-4 18,-4 14,0 23,5 28,15 3,5 4,13 4,23 l 0,64 -17,0 0,-63 C 64,31 64,26 62,23 59,16 53,13 46,13 c -4,0 -8,1 -10,1 -5,2 -9,5 -12,9 -3,3 -5,6 -6,10 0,3 -1,8 -1,15 L 17,100 0,100 0,0 Z"
               style="fill:#000000;fill-opacity:1;fill-rule:nonzero;stroke:none"
               id="path6775"
               inkscape:connector-curvature="0" />
          </g>
        </g>
        <g
           id="g6777"
           transform="matrix(0.0435684,0,0,-0.0434922,73.5,785.66675)">
          <g
             id="g6779"
             transform="translate(881.9998,1163.9998)">
            <path
               d="m 0,0 0,0 c 0,-7 -2,-13 -4,-17 -5,-8 -12,-12 -23,-12 -8,0 -14,3 -19,8 -5,6 -8,13 -8,21 L 0,0 Z m -6,-39 0,0 c 7,4 12,8 15,13 4,5 6,11 7,18 1,4 2,12 2,22 l -73,0 c 1,10 3,18 7,24 5,6 12,9 21,9 9,0 15,-3 21,-9 2,-3 5,-7 6,-11 l 16,0 c 0,3 -2,7 -4,12 -3,4 -5,8 -8,11 -5,5 -12,8 -19,10 -4,1 -9,1 -14,1 -12,0 -22,-4 -31,-13 -8,-9 -13,-22 -13,-38 0,-16 5,-29 13,-39 9,-10 20,-15 34,-15 7,0 14,2 20,5"
               style="fill:#000000;fill-opacity:1;fill-rule:nonzero;stroke:none"
               id="path6781"
               inkscape:connector-curvature="0" />
          </g>
        </g>
        <g
           id="g6783"
           transform="matrix(0.0435684,0,0,-0.0434922,73.5,785.66663)">
          <g
             id="g6785"
             transform="translate(927.9998,1190.9998)">
            <path
               d="m 0,0 0,0 c 0,5 2,10 4,13 4,5 12,8 22,8 7,0 12,-2 17,-4 5,-3 7,-7 7,-13 0,-4 -2,-7 -5,-10 -3,-1 -8,-3 -15,-4 l -13,-4 c -9,-2 -15,-4 -19,-7 -8,-4 -11,-11 -11,-19 0,-9 3,-17 10,-22 7,-6 16,-9 28,-9 15,0 26,4 32,13 5,6 7,12 7,18 l -16,0 c -1,-4 -2,-7 -4,-10 -4,-5 -11,-7 -21,-7 -6,0 -11,1 -14,4 -4,2 -5,5 -5,9 0,5 2,8 6,11 3,1 6,3 11,4 l 12,3 c 12,2 20,5 24,8 7,4 10,11 10,20 0,9 -4,17 -10,23 C 50,32 40,35 26,35 11,35 0,31 -6,25 -12,18 -16,10 -16,0 L 0,0 Z"
               style="fill:#000000;fill-opacity:1;fill-rule:nonzero;stroke:none"
               id="path6787"
               inkscape:connector-curvature="0" />
          </g>
        </g>
        <g
           id="g6789"
           transform="matrix(0.0435684,0,0,-0.0434922,73.5,785.6665)">
          <g
             id="g6791"
             transform="translate(1015.9998,1159.9998)">
            <path
               d="M 0,0 0,0 47,0 47,18 0,18 0,0 Z"
               style="fill:#000000;fill-opacity:1;fill-rule:nonzero;stroke:none"
               id="path6793"
               inkscape:connector-curvature="0" />
          </g>
        </g>
        <g
           id="g6795"
           transform="matrix(0.0435684,0,0,-0.0434922,73.5,785.66638)">
          <g
             id="g6797"
             transform="translate(1161.9998,1085.9998)">
            <path
               d="m 0,0 0,0 0,16 -45,0 0,120 -19,0 0,-120 -46,0 0,-16 110,0 z"
               style="fill:#000000;fill-opacity:1;fill-rule:nonzero;stroke:none"
               id="path6799"
               inkscape:connector-curvature="0" />
          </g>
        </g>
        <g
           id="g6801"
           transform="matrix(0.0435684,0,0,-0.0434922,73.5,785.66626)">
          <g
             id="g6803"
             transform="translate(1211.9998,1081.9998)">
            <path
               d="M 0,0 0,0 -25,27 -38,27 -21,0 0,0 Z m 6,82 0,0 C 6,75 4,69 2,65 -3,57 -10,53 -21,53 c -8,0 -14,3 -19,8 -5,6 -8,13 -8,21 L 6,82 Z M 0,43 0,43 c 7,4 12,8 15,13 4,5 6,11 7,18 1,4 2,12 2,22 l -73,0 c 1,10 3,18 7,24 5,6 12,9 21,9 9,0 15,-3 21,-9 3,-3 5,-7 6,-11 l 16,0 c 0,3 -2,7 -4,12 -3,4 -5,8 -8,11 -5,5 -12,8 -19,10 -4,1 -9,1 -14,1 -12,0 -22,-4 -31,-13 -8,-9 -13,-22 -13,-38 0,-16 5,-29 13,-39 9,-10 20,-15 34,-15 7,0 14,2 20,5"
               style="fill:#000000;fill-opacity:1;fill-rule:nonzero;stroke:none"
               id="path6805"
               inkscape:connector-curvature="0" />
          </g>
        </g>
        <g
           id="g6807"
           transform="matrix(0.0435684,0,0,-0.0434922,73.5,785.66614)">
          <g
             id="g6809"
             transform="translate(1253.9998,1085.9998)">
            <path
               d="M 0,0 0,0 17,0 17,136 0,136 0,0 Z"
               style="fill:#000000;fill-opacity:1;fill-rule:nonzero;stroke:none"
               id="path6811"
               inkscape:connector-curvature="0" />
          </g>
        </g>
        <g
           id="g6813"
           transform="matrix(0.0435684,0,0,-0.0434922,73.5,785.66602)">
          <g
             id="g6815"
             transform="translate(1354.9996,1081.9998)">
            <path
               d="M 0,0 0,0 -25,27 -38,27 -21,0 0,0 Z m 7,82 0,0 C 6,75 4,69 2,65 -3,57 -10,53 -21,53 c -7,0 -14,3 -19,8 -5,6 -8,13 -8,21 L 7,82 Z M 1,43 1,43 c 6,4 11,8 15,13 3,5 5,11 6,18 1,4 2,12 2,22 l -72,0 c 0,10 2,18 7,24 4,6 11,9 20,9 9,0 16,-3 21,-9 3,-3 5,-7 6,-11 l 16,0 c 0,3 -1,7 -4,12 -2,4 -5,8 -8,11 -5,5 -11,8 -19,10 -4,1 -8,1 -13,1 -13,0 -23,-4 -32,-13 -8,-9 -12,-22 -12,-38 0,-16 4,-29 13,-39 8,-10 19,-15 33,-15 7,0 14,2 21,5"
               style="fill:#000000;fill-opacity:1;fill-rule:nonzero;stroke:none"
               id="path6817"
               inkscape:connector-curvature="0" />
          </g>
        </g>
        <g
           id="g6819"
           transform="matrix(0.0435684,0,0,-0.0434922,73.5,785.66589)">
          <g
             id="g6821"
             transform="translate(1463.9998,1127.9998)">
            <path
               d="m 0,0 0,0 c 7,5 11,15 13,28 l -17,0 c -1,-6 -3,-11 -6,-15 -4,-4 -9,-6 -17,-6 -11,0 -19,5 -23,15 -3,7 -5,15 -5,25 0,10 3,18 7,25 4,7 11,10 20,10 7,0 12,-2 16,-6 4,-4 7,-10 8,-17 l 17,0 c -2,13 -7,23 -14,29 -8,6 -17,9 -29,9 -13,0 -23,-5 -31,-14 -8,-10 -11,-22 -11,-36 0,-18 4,-31 12,-41 9,-10 20,-14 33,-14 11,0 20,2 27,8"
               style="fill:#000000;fill-opacity:1;fill-rule:nonzero;stroke:none"
               id="path6823"
               inkscape:connector-curvature="0" />
          </g>
        </g>
        <g
           id="g6825"
           transform="matrix(0.0435684,0,0,-0.0434922,73.5,785.66577)">
          <g
             id="g6827"
             transform="translate(1554.9996,1197.9998)">
            <path
               d="m 0,0 0,0 c 5,-8 7,-17 7,-27 0,-10 -2,-17 -5,-23 -4,-9 -13,-14 -24,-14 -10,0 -17,4 -22,12 -5,8 -7,17 -7,28 0,11 2,19 7,26 5,8 12,11 22,11 11,0 18,-4 22,-13 m 11,-66 0,0 c 9,9 13,21 13,38 0,16 -4,29 -12,40 -7,10 -19,15 -36,15 -13,0 -24,-4 -32,-13 -8,-10 -12,-22 -12,-38 0,-16 4,-30 13,-40 8,-9 19,-14 34,-14 12,0 23,4 32,12"
               style="fill:#000000;fill-opacity:1;fill-rule:nonzero;stroke:none"
               id="path6829"
               inkscape:connector-curvature="0" />
          </g>
        </g>
        <g
           id="g6831"
           transform="matrix(0.0435684,0,0,-0.0434922,73.5,785.66565)">
          <g
             id="g6833"
             transform="translate(1596.9996,1121.9998)">
            <path
               d="m 0,0 0,0 17,0 0,15 c 4,-5 7,-9 10,-11 6,-4 12,-6 19,-6 8,0 15,2 19,6 3,2 6,6 8,10 4,-5 8,-9 13,-12 5,-2 11,-4 17,-4 13,0 22,5 27,15 3,5 4,12 4,21 l 0,66 -17,0 0,-69 c 0,-7 -2,-11 -5,-14 -4,-2 -8,-4 -12,-4 -7,0 -13,3 -17,7 -5,4 -7,12 -7,22 l 0,58 -17,0 0,-65 C 59,28 58,23 56,20 54,16 49,13 42,13 36,13 30,16 25,21 19,26 17,34 17,47 L 17,100 0,100 0,0 Z"
               style="fill:#000000;fill-opacity:1;fill-rule:nonzero;stroke:none"
               id="path6835"
               inkscape:connector-curvature="0" />
          </g>
        </g>
        <g
           id="g6837"
           transform="matrix(0.0435684,0,0,-0.0434922,73.5,785.66553)">
          <g
             id="g6839"
             transform="translate(0,1307.9998)">
            <path
               d="M 0,0 0,0 19,0 19,137 0,137 0,0 Z"
               style="fill:#000000;fill-opacity:1;fill-rule:nonzero;stroke:none"
               id="path6841"
               inkscape:connector-curvature="0" />
          </g>
        </g>
        <g
           id="g6843"
           transform="matrix(0.0435684,0,0,-0.0434922,73.5,785.66541)">
          <g
             id="g6845"
             transform="translate(46,1307.9998)">
            <path
               d="m 0,0 0,0 26,0 40,116 39,-116 26,0 0,137 -18,0 0,-81 0,-14 c 1,-6 1,-13 1,-20 L 75,137 56,137 17,22 l 0,4 0,15 c 1,7 1,12 1,15 L 18,137 0,137 0,0 Z"
               style="fill:#000000;fill-opacity:1;fill-rule:nonzero;stroke:none"
               id="path6847"
               inkscape:connector-curvature="0" />
          </g>
        </g>
        <g
           id="g6849"
           transform="matrix(0.0435684,0,0,-0.0434922,73.5,785.66528)">
          <g
             id="g6851"
             transform="translate(301.9999,1307.9998)">
            <path
               d="m 0,0 0,0 0,17 -46,0 0,120 -19,0 0,-120 -46,0 0,-17 111,0 z"
               style="fill:#000000;fill-opacity:1;fill-rule:nonzero;stroke:none"
               id="path6853"
               inkscape:connector-curvature="0" />
          </g>
        </g>
        <g
           id="g6855"
           transform="matrix(0.0435684,0,0,-0.0434922,73.5,785.66516)">
          <g
             id="g6857"
             transform="translate(302.9999,1382.9998)">
            <path
               d="M 0,0 0,0 46,0 46,17 0,17 0,0 Z"
               style="fill:#000000;fill-opacity:1;fill-rule:nonzero;stroke:none"
               id="path6859"
               inkscape:connector-curvature="0" />
          </g>
        </g>
        <g
           id="g6861"
           transform="matrix(0.0435684,0,0,-0.0434922,73.5,785.66504)">
          <g
             id="g6863"
             transform="translate(405.9999,1307.9998)">
            <path
               d="m 0,0 0,0 0,85 c 0,9 2,18 5,24 6,10 15,15 28,15 16,0 27,-5 33,-16 3,-6 4,-14 4,-23 l 0,-85 19,0 0,77 c 0,17 -2,30 -7,39 -8,16 -24,24 -47,24 -23,0 -39,-8 -47,-24 -5,-9 -7,-22 -7,-39 L -19,0 0,0 Z"
               style="fill:#000000;fill-opacity:1;fill-rule:nonzero;stroke:none"
               id="path6865"
               inkscape:connector-curvature="0" />
          </g>
        </g>
        <g
           id="g6867"
           transform="matrix(0.0435684,0,0,-0.0434922,73.5,785.66492)">
          <g
             id="g6869"
             transform="translate(517.9999,1344.9998)">
            <path
               d="m 0,0 0,0 16,0 0,14 C 21,9 26,4 31,2 c 6,-3 11,-4 18,-4 14,0 24,5 28,15 3,5 5,13 5,23 l 0,64 -17,0 0,-63 c 0,-6 -1,-11 -3,-15 -3,-6 -8,-9 -16,-9 -4,0 -8,0 -10,1 -5,2 -9,4 -12,8 -3,4 -5,7 -6,11 0,3 -1,8 -1,15 L 17,100 0,100 0,0 Z"
               style="fill:#000000;fill-opacity:1;fill-rule:nonzero;stroke:none"
               id="path6871"
               inkscape:connector-curvature="0" />
          </g>
        </g>
        <g
           id="g6873"
           transform="matrix(0.0435684,0,0,-0.0434922,73.5,785.66479)">
          <g
             id="g6875"
             transform="translate(621.9998,1345.9996)">
            <path
               d="M 0,0 0,0 17,0 17,99 0,99 0,0 Z m 0,-38 0,0 17,0 0,19 -17,0 0,-19 z"
               style="fill:#000000;fill-opacity:1;fill-rule:nonzero;stroke:none"
               id="path6877"
               inkscape:connector-curvature="0" />
          </g>
        </g>
        <g
           id="g6879"
           transform="matrix(0.0435684,0,0,-0.0434922,73.5,785.66467)">
          <g
             id="g6881"
             transform="translate(670.9998,1344.9998)">
            <path
               d="M 0,0 0,0 26,81 54,0 72,0 35,100 17,100 -20,0 0,0 Z"
               style="fill:#000000;fill-opacity:1;fill-rule:nonzero;stroke:none"
               id="path6883"
               inkscape:connector-curvature="0" />
          </g>
        </g>
        <g
           id="g6885"
           transform="matrix(0.0435684,0,0,-0.0434922,73.5,785.66455)">
          <g
             id="g6887"
             transform="translate(819.9998,1386.9998)">
            <path
               d="m 0,0 0,0 c -1,-7 -3,-13 -5,-17 -5,-8 -12,-12 -23,-12 -7,0 -14,2 -19,8 -5,5 -8,12 -8,21 L 0,0 Z m -6,-39 0,0 c 6,3 11,8 15,13 3,5 5,11 6,17 1,5 2,12 2,22 l -73,0 c 1,10 3,19 8,25 4,6 11,9 20,9 9,0 16,-3 21,-9 3,-3 5,-7 6,-12 l 16,0 c 0,4 -1,8 -4,13 -2,4 -5,8 -8,11 -5,5 -11,8 -19,10 -4,1 -8,1 -13,1 -13,0 -23,-4 -32,-13 -8,-9 -12,-22 -12,-38 0,-16 4,-29 12,-39 9,-10 20,-15 34,-15 7,0 14,2 21,5"
               style="fill:#000000;fill-opacity:1;fill-rule:nonzero;stroke:none"
               id="path6889"
               inkscape:connector-curvature="0" />
          </g>
        </g>
        <g
           id="g6891"
           transform="matrix(0.0435684,0,0,-0.0434922,73.5,785.66443)">
          <g
             id="g6893"
             transform="translate(855.9998,1344.9998)">
            <path
               d="m 0,0 0,0 15,0 0,17 c 2,-3 5,-7 10,-12 5,-5 11,-7 18,-7 l 1,0 4,0 0,18 -3,0 -3,0 c -8,0 -14,2 -19,8 -4,5 -7,11 -7,18 L 16,100 0,100 0,0 Z"
               style="fill:#000000;fill-opacity:1;fill-rule:nonzero;stroke:none"
               id="path6895"
               inkscape:connector-curvature="0" />
          </g>
        </g>
        <g
           id="g6897"
           transform="matrix(0.0435684,0,0,-0.0434922,73.5,785.66431)">
          <g
             id="g6899"
             transform="translate(927.9998,1412.9996)">
            <path
               d="m 0,0 0,0 c 0,6 2,10 4,13 4,6 12,8 22,8 7,0 12,-1 17,-4 5,-2 7,-7 7,-12 0,-4 -2,-8 -5,-10 -3,-1 -8,-3 -15,-5 l -14,-3 c -8,-2 -14,-4 -19,-7 -7,-5 -11,-11 -11,-19 0,-9 4,-17 11,-23 7,-5 16,-8 27,-8 16,0 27,4 33,13 5,5 7,11 6,18 l -15,0 c -1,-4 -2,-7 -4,-10 -4,-5 -11,-7 -21,-7 -6,0 -11,1 -15,4 -3,2 -5,5 -5,9 0,4 3,8 7,11 3,1 6,2 11,4 l 11,2 c 13,3 21,6 25,9 7,4 10,11 10,20 0,9 -4,16 -10,23 C 50,32 39,36 26,36 11,36 0,32 -6,25 -13,19 -16,10 -16,0 L 0,0 Z"
               style="fill:#000000;fill-opacity:1;fill-rule:nonzero;stroke:none"
               id="path6901"
               inkscape:connector-curvature="0" />
          </g>
        </g>
        <g
           id="g6903"
           transform="matrix(0.0435684,0,0,-0.0434922,73.5,785.66418)">
          <g
             id="g6905"
             transform="translate(1010.9998,1345.9996)">
            <path
               d="M 0,0 0,0 17,0 17,99 0,99 0,0 Z m 0,-38 0,0 17,0 0,19 -17,0 0,-19 z"
               style="fill:#000000;fill-opacity:1;fill-rule:nonzero;stroke:none"
               id="path6907"
               inkscape:connector-curvature="0" />
          </g>
        </g>
        <g
           id="g6909"
           transform="matrix(0.0435684,0,0,-0.0434922,73.5,785.66406)">
          <g
             id="g6911"
             transform="translate(1054.9998,1316.9996)">
            <path
               d="m 0,0 0,0 17,0 0,28 16,0 0,14 -16,0 0,65 c 0,3 1,6 3,7 2,0 4,1 7,1 l 2,0 c 1,0 2,0 4,-1 l 0,14 c -2,0 -4,1 -6,1 l -7,0 C 12,129 7,127 4,123 1,119 0,114 0,108 L 0,42 -14,42 -14,28 0,28 0,0 Z"
               style="fill:#000000;fill-opacity:1;fill-rule:nonzero;stroke:none"
               id="path6913"
               inkscape:connector-curvature="0" />
          </g>
        </g>
        <g
           id="g6915"
           transform="matrix(0.0435684,0,0,-0.0434922,73.5,785.66394)">
          <g
             id="g6917"
             transform="translate(1160.9998,1304.9996)">
            <path
               d="M 0,0 0,0 -25,27 -37,27 -21,0 0,0 Z m 7,82 0,0 C 6,75 5,69 2,65 -2,57 -10,53 -21,53 c -7,0 -14,2 -19,8 -5,5 -8,12 -8,21 L 7,82 Z M 1,43 1,43 c 6,3 11,8 15,13 3,5 5,11 6,17 1,5 2,12 2,22 l -72,0 c 0,10 2,19 7,25 4,6 11,9 20,9 9,0 16,-3 21,-9 3,-3 5,-7 6,-12 l 17,0 c -1,4 -2,8 -5,13 -2,4 -5,8 -8,11 -5,5 -11,8 -19,10 -4,1 -8,1 -13,1 -12,0 -23,-4 -31,-13 -9,-9 -13,-22 -13,-38 0,-16 4,-29 13,-39 8,-10 20,-15 33,-15 7,0 14,2 21,5"
               style="fill:#000000;fill-opacity:1;fill-rule:nonzero;stroke:none"
               id="path6919"
               inkscape:connector-curvature="0" />
          </g>
        </g>
        <g
           id="g6921"
           transform="matrix(0.0435684,0,0,-0.0434922,73.5,785.66382)">
          <g
             id="g6923"
             transform="translate(1275.9996,1422.9996)">
            <path
               d="m 0,0 0,0 c 5,7 12,11 22,11 8,0 14,-4 19,-10 5,-7 7,-17 7,-29 0,-13 -2,-22 -7,-28 -5,-6 -12,-9 -19,-9 -9,0 -15,3 -21,10 -5,6 -7,16 -7,28 0,11 2,20 6,27 m 38,-75 0,0 c 3,2 6,5 10,10 l 0,-50 16,0 0,137 -15,0 0,-14 c -4,6 -9,10 -14,13 -5,3 -11,4 -18,4 -11,0 -21,-4 -29,-14 -8,-9 -12,-21 -12,-37 0,-14 4,-27 11,-38 7,-10 18,-16 32,-16 7,0 13,2 19,5"
               style="fill:#000000;fill-opacity:1;fill-rule:nonzero;stroke:none"
               id="path6925"
               inkscape:connector-curvature="0" />
          </g>
        </g>
        <g
           id="g6927"
           transform="matrix(0.0435684,0,0,-0.0434922,73.5,785.6637)">
          <g
             id="g6929"
             transform="translate(1429.9996,1386.9998)">
            <path
               d="m 0,0 0,0 c 0,-7 -2,-13 -4,-17 -5,-8 -13,-12 -23,-12 -8,0 -14,2 -19,8 -6,5 -8,12 -9,21 L 0,0 Z m -6,-39 0,0 c 7,3 12,8 15,13 4,5 6,11 7,17 1,5 1,12 1,22 l -72,0 c 0,10 3,19 7,25 5,6 11,9 21,9 8,0 15,-3 20,-9 3,-3 5,-7 7,-12 l 16,0 c 0,4 -2,8 -4,13 -3,4 -6,8 -9,11 -5,5 -11,8 -18,10 -4,1 -9,1 -14,1 -12,0 -22,-4 -31,-13 -9,-9 -13,-22 -13,-38 0,-16 4,-29 13,-39 9,-10 20,-15 34,-15 7,0 14,2 20,5"
               style="fill:#000000;fill-opacity:1;fill-rule:nonzero;stroke:none"
               id="path6931"
               inkscape:connector-curvature="0" />
          </g>
        </g>
        <g
           id="g6933"
           transform="matrix(0.0435684,0,0,-0.0434922,73.5,785.66357)">
          <g
             id="g6935"
             transform="translate(1523.9998,1307.9998)">
            <path
               d="m 0,0 0,0 18,0 0,120 69,0 0,17 L 0,137 0,0 Z"
               style="fill:#000000;fill-opacity:1;fill-rule:nonzero;stroke:none"
               id="path6937"
               inkscape:connector-curvature="0" />
          </g>
        </g>
        <g
           id="g6939"
           transform="matrix(0.0435684,0,0,-0.0434922,73.5,785.66345)">
          <g
             id="g6941"
             transform="translate(1624.9996,1345.9996)">
            <path
               d="M 0,0 0,0 17,0 17,99 0,99 0,0 Z m 0,-38 0,0 17,0 0,19 -17,0 0,-19 z"
               style="fill:#000000;fill-opacity:1;fill-rule:nonzero;stroke:none"
               id="path6943"
               inkscape:connector-curvature="0" />
          </g>
        </g>
        <g
           id="g6945"
           transform="matrix(0.0435684,0,0,-0.0434922,73.5,785.66333)">
          <g
             id="g6947"
             transform="translate(1664.9996,1307.9998)">
            <path
               d="M 0,0 0,0 16,0 16,137 0,137 0,0 Z"
               style="fill:#000000;fill-opacity:1;fill-rule:nonzero;stroke:none"
               id="path6949"
               inkscape:connector-curvature="0" />
          </g>
        </g>
        <g
           id="g6951"
           transform="matrix(0.0435684,0,0,-0.0434922,73.5,785.66321)">
          <g
             id="g6953"
             transform="translate(1703.9996,1307.9998)">
            <path
               d="M 0,0 0,0 17,0 17,137 0,137 0,0 Z"
               style="fill:#000000;fill-opacity:1;fill-rule:nonzero;stroke:none"
               id="path6955"
               inkscape:connector-curvature="0" />
          </g>
        </g>
        <g
           id="g6957"
           transform="matrix(0.0435684,0,0,-0.0434922,73.5,785.66309)">
          <g
             id="g6959"
             transform="translate(1810.9995,1386.9998)">
            <path
               d="m 0,0 0,0 c 0,-7 -2,-13 -4,-17 -5,-8 -12,-12 -23,-12 -8,0 -14,2 -19,8 -5,5 -8,12 -8,21 L 0,0 Z m -6,-39 0,0 c 7,3 12,8 15,13 4,5 6,11 7,17 1,5 2,12 2,22 l -73,0 c 1,10 3,19 7,25 5,6 12,9 21,9 9,0 15,-3 21,-9 3,-3 5,-7 6,-12 l 16,0 c 0,4 -2,8 -4,13 -3,4 -5,8 -8,11 -5,5 -12,8 -19,10 -4,1 -9,1 -14,1 -12,0 -22,-4 -31,-13 -8,-9 -13,-22 -13,-38 0,-16 5,-29 13,-39 9,-10 20,-15 34,-15 7,0 14,2 20,5"
               style="fill:#000000;fill-opacity:1;fill-rule:nonzero;stroke:none"
               id="path6961"
               inkscape:connector-curvature="0" />
          </g>
        </g>
      </g>
    </g>
  </g>
  <g
     inkscape:groupmode="layer"
     id="layer2"
     inkscape:label="Logo"
     transform="translate(-893.102,-45.624125)">
    <g
       id="g6633"
       transform="matrix(0.0544605,0,0,0.05436525,900.18861,52.71142)">
      <g
         id="g6635"
         transform="translate(0.0072,-0.0117)">
        <path
           d="M 0,0 697.995,0 0,697.004 0,0 Z"
           style="fill:#00b8de;fill-opacity:1;fill-rule:nonzero;stroke:none"
           id="path6637"
           inkscape:connector-curvature="0" />
      </g>
    </g>
    <g
       id="g6639"
       transform="matrix(0.0544605,0,0,0.05436525,900.18861,52.71157)">
      <g
         id="g6641"
         transform="translate(703.9998,696.9996)">
        <path
           d="m 0,0 0,-697.015 6.002,0 L 352,-352 l 345.998,-345.015 6.002,0 L 704,0 0,0 Z"
           style="fill:#00b8de;fill-opacity:1;fill-rule:nonzero;stroke:none"
           id="path6643"
           inkscape:connector-curvature="0" />
      </g>
    </g>
    <g
       id="g6645"
       transform="matrix(0.0544605,0,0,0.05436525,900.18861,52.71172)">
      <g
         id="g6647"
         transform="translate(1759.9995,344.9997)">
        <path
           d="m 0,0 -352,0 346.001,-345.018 703.053,0 0,0.953 L 0,352 0,0 Z"
           style="fill:#00b8de;fill-opacity:1;fill-rule:nonzero;stroke:none"
           id="path6649"
           inkscape:connector-curvature="0" />
      </g>
    </g>
  </g>
</svg>
