<?xml version="1.0" encoding="UTF-8" standalone="no"?>
<!-- Created with Inkscape (http://www.inkscape.org/) -->

<svg
   xmlns:dc="http://purl.org/dc/elements/1.1/"
   xmlns:cc="http://creativecommons.org/ns#"
   xmlns:rdf="http://www.w3.org/1999/02/22-rdf-syntax-ns#"
   xmlns:svg="http://www.w3.org/2000/svg"
   xmlns="http://www.w3.org/2000/svg"
   xmlns:sodipodi="http://sodipodi.sourceforge.net/DTD/sodipodi-0.dtd"
   xmlns:inkscape="http://www.inkscape.org/namespaces/inkscape"
   width="41.76482mm"
   height="26.22513mm"
   viewBox="0 0 147.98558 92.923687"
   id="svg5157"
   version="1.1"
   inkscape:version="0.91 r13725"
   sodipodi:docname="imt_lille_douai_logo_inverted.svg"
   inkscape:export-filename="imt_lille_douai_logo_inverted.png"
   inkscape:export-xdpi="425.72"
   inkscape:export-ydpi="425.72">
  <defs
     id="defs5159">
    <clipPath
       id="clipPath6689-3"
       clipPathUnits="userSpaceOnUse">
      <path
         inkscape:connector-curvature="0"
         id="path6691-6"
         d="m 73.5,722.67 107.05,0 0,62.998 -107.05,0 0,-62.998 z" />
    </clipPath>
  </defs>
  <sodipodi:namedview
     id="base"
     pagecolor="#ff52ba"
     bordercolor="#666666"
     borderopacity="1.0"
     inkscape:pageopacity="0"
     inkscape:pageshadow="2"
     inkscape:zoom="5.6"
     inkscape:cx="95.853871"
     inkscape:cy="44.096699"
     inkscape:document-units="px"
     inkscape:current-layer="g6687"
     showgrid="false"
     fit-margin-top="2"
     fit-margin-left="2"
     fit-margin-right="2"
     fit-margin-bottom="2"
     inkscape:window-width="1920"
     inkscape:window-height="1027"
     inkscape:window-x="0"
     inkscape:window-y="0"
     inkscape:window-maximized="1" />
  <metadata
     id="metadata5162">
    <rdf:RDF>
      <cc:Work
         rdf:about="">
        <dc:format>image/svg+xml</dc:format>
        <dc:type
           rdf:resource="http://purl.org/dc/dcmitype/StillImage" />
        <dc:title></dc:title>
      </cc:Work>
    </rdf:RDF>
  </metadata>
  <g
     inkscape:label="Text"
     inkscape:groupmode="layer"
     id="layer1"
     transform="translate(-893.102,-45.624125)">
    <text
       id="text5187"
       style="font-variant:normal;font-weight:normal;font-size:15px;font-family:Cambria;-inkscape-font-specification:Cambria;writing-mode:lr-tb;fill:#000000;fill-opacity:1;fill-rule:nonzero;stroke:none"
       x="842.65356"
       y="391.7189">
      <tspan
         id="tspan5189"
         y="391.7189"
         x="842.65356" />
    </text>
    <text
       id="text5193"
       style="font-variant:normal;font-weight:normal;font-size:12.30000019px;font-family:Cambria;-inkscape-font-specification:Cambria;writing-mode:lr-tb;fill:#000000;fill-opacity:1;fill-rule:nonzero;stroke:none"
       x="842.65356"
       y="407.01889">
      <tspan
         id="tspan5195"
         y="407.01889"
         x="842.65356" />
    </text>
    <g
       id="g6685"
       transform="matrix(1.25,0,0,-1.25,808.31361,1034.7987)">
      <g
         id="g6687"
         clip-path="url(#clipPath6689-3)">
        <g
           id="g4605">
          <g
             id="g4549">
            <path
               transform="matrix(0.8,0,0,-0.8,-646.65089,827.83896)"
               inkscape:connector-curvature="0"
               id="path6653"
               style="fill:#ffffff;fill-opacity:1;fill-rule:nonzero;stroke:none"
               d="m 900.18899,97.400113 2.12358,0 0,9.622647 -2.12358,0 0,-9.622647 z" />
            <path
               transform="matrix(0.8,0,0,-0.8,-646.65089,827.83896)"
               d="m 912.49668,107.02291 0,-6.85002 -2.39626,6.85002 -1.63382,0 -2.39626,-6.74129 0,6.74129 -2.01504,0 0,-9.622649 2.99533,0 2.28734,6.632559 2.17842,-6.632559 2.99533,0 0,9.622649 -2.01504,0 z"
               style="fill:#ffffff;fill-opacity:1;fill-rule:nonzero;stroke:none"
               id="path6659"
               inkscape:connector-curvature="0" />
            <path
               transform="matrix(0.8,0,0,-0.8,-646.65089,827.83896)"
               d="m 918.32396,107.02306 0,-7.882961 -2.88641,0 0,-1.739688 7.89678,0 0,1.739688 -2.88641,0 0,7.882961 -2.12396,0 z"
               style="fill:#ffffff;fill-opacity:1;fill-rule:nonzero;stroke:none"
               id="path6665"
               inkscape:connector-curvature="0" />
            <path
               transform="matrix(0.8,0,0,-0.8,-646.65089,827.83896)"
               d="m 927.80007,107.02321 0,-9.622649 2.12401,0 0,7.828599 4.73801,0 0,1.79405 -6.86202,0 z"
               style="fill:#ffffff;fill-opacity:1;fill-rule:nonzero;stroke:none"
               id="path6671"
               inkscape:connector-curvature="0" />
            <path
               transform="matrix(0.8,0,0,-0.8,-646.65089,827.83896)"
               inkscape:connector-curvature="0"
               id="path6675"
               style="fill:#ffffff;fill-opacity:1;fill-rule:nonzero;stroke:none"
               d="m 935.53347,100.06461 1.96058,0 0,6.95875 -1.96058,0 0,-6.95875 z m 0,-2.663898 1.96058,0 0,1.576593 -1.96058,0 0,-1.576593 z" />
            <path
               transform="matrix(0.8,0,0,-0.8,-646.65089,827.83896)"
               inkscape:connector-curvature="0"
               id="path6679"
               style="fill:#ffffff;fill-opacity:1;fill-rule:nonzero;stroke:none"
               d="m 938.96449,97.400875 1.90611,0 0,9.622645 -1.90611,0 0,-9.622645 z" />
            <path
               transform="matrix(0.8,0,0,-0.8,-646.65089,827.83896)"
               inkscape:connector-curvature="0"
               id="path6683"
               style="fill:#ffffff;fill-opacity:1;fill-rule:nonzero;stroke:none"
               d="m 942.3955,97.401026 1.90612,0 0,9.622644 -1.90612,0 0,-9.622644 z" />
            <path
               d="m 113.75719,745.61215 0,0 c -0.13071,0.78286 -0.47925,1.17429 -1.21992,1.17429 -0.9585,0 -1.26348,-0.73937 -1.26348,-1.17429 l 2.4834,0 z m -2.4834,-0.95683 0,0 c 0.0436,-1.00032 0.52282,-1.43524 1.35062,-1.43524 0.65353,0 1.13278,0.39143 1.21992,0.73937 l 1.35062,0 c -0.43569,-1.34826 -1.35062,-1.91366 -2.61411,-1.91366 -1.74273,0 -2.87551,1.21778 -2.87551,2.95747 0,1.6962 1.17635,2.95747 2.87551,2.95747 1.91701,0 2.83195,-1.60921 2.74481,-3.30541 l -4.05186,0 z"
               style="fill:#ffffff;fill-opacity:1;fill-rule:nonzero;stroke:none"
               id="path6697"
               inkscape:connector-curvature="0" />
            <path
               d="m 121.07668,743.65488 0,0 1.52489,0 c 1.00208,0 1.91701,0.60889 1.91701,2.30509 0,1.56572 -0.52282,2.56604 -2.22198,2.56604 l -1.21992,0 0,-4.87113 z m -1.69917,6.26288 0,0 3.35477,0 c 2.00415,0 3.48547,-1.21778 3.48547,-3.78382 0,-2.2616 -1.13278,-3.9143 -3.48547,-3.9143 l -3.35477,0 0,7.69812 z"
               style="fill:#ffffff;fill-opacity:1;fill-rule:nonzero;stroke:none"
               id="path6703"
               inkscape:connector-curvature="0" />
            <path
               d="m 129.87749,743.21983 0,0 c 1.04564,0 1.35062,0.91334 1.35062,1.78318 0,0.91334 -0.30498,1.78318 -1.35062,1.78318 -1.04564,0 -1.35062,-0.86984 -1.35062,-1.78318 0,-0.86984 0.30498,-1.78318 1.35062,-1.78318 m 0,4.74065 0,0 c 1.7863,0 2.91908,-1.17429 2.91908,-2.95747 0,-1.78318 -1.13278,-2.95747 -2.91908,-2.95747 -1.74274,0 -2.87551,1.17429 -2.87551,2.95747 0,1.78318 1.13277,2.95747 2.87551,2.95747"
               style="fill:#ffffff;fill-opacity:1;fill-rule:nonzero;stroke:none"
               id="path6709"
               inkscape:connector-curvature="0" />
            <path
               d="m 138.93972,742.21939 0,0 -1.43776,0 0,0.78286 -0.0436,0 c -0.39211,-0.65238 -1.04564,-0.95683 -1.69916,-0.95683 -1.6556,0 -2.04772,0.91334 -2.04772,2.30509 l 0,3.43588 1.5249,0 0,-3.13144 c 0,-0.91333 0.26141,-1.39175 1.00207,-1.39175 0.8278,0 1.17635,0.47842 1.17635,1.60921 l 0,2.91398 1.52489,0 0,-5.567 z"
               style="fill:#ffffff;fill-opacity:1;fill-rule:nonzero;stroke:none"
               id="path6715"
               inkscape:connector-curvature="0" />
            <path
               d="m 143.60154,744.95928 0,0 c -0.26141,-0.21746 -0.78423,-0.26095 -1.26348,-0.34794 -0.47926,-0.087 -0.91494,-0.26095 -0.91494,-0.82635 0,-0.5654 0.43568,-0.69587 0.9585,-0.69587 1.17635,0 1.21992,0.95682 1.21992,1.30476 l 0,0.5654 z m -3.52904,1.1308 0,0 c 0.0871,1.43524 1.35062,1.87016 2.6141,1.87016 1.13278,0 2.4834,-0.26095 2.4834,-1.60921 l 0,-2.91398 c 0,-0.47841 0.0436,-1.00032 0.17428,-1.21778 l -1.56847,0 c -0.0436,0.17397 -0.0871,0.34794 -0.0871,0.52191 -0.47926,-0.47842 -1.21992,-0.69588 -1.91701,-0.69588 -1.04564,0 -1.87344,0.5654 -1.87344,1.6962 0,1.26127 0.9585,1.56572 1.87344,1.69619 0.9585,0.13048 1.82987,0.087 1.82987,0.73937 0,0.65238 -0.43568,0.73937 -1.00207,0.73937 -0.56639,0 -0.95851,-0.21746 -1.00208,-0.82635 l -1.52489,0 z"
               style="fill:#ffffff;fill-opacity:1;fill-rule:nonzero;stroke:none"
               id="path6721"
               inkscape:connector-curvature="0" />
            <path
               d="m 146.34635,747.78615 0,0 1.56846,0 0,-5.567 -1.56846,0 0,5.567 z m 1.56846,0.86984 0,0 -1.56846,0 0,1.26128 1.56846,0 0,-1.26128 z"
               style="fill:#ffffff;fill-opacity:1;fill-rule:nonzero;stroke:none"
               id="path6727"
               inkscape:connector-curvature="0" />
          </g>
          <g
             id="g4564">
            <path
               d="m 76.593356,740.0879 0,0 -1.08921,-1.17429 -0.566389,0 0.740663,1.17429 0.914936,0 z M 73.5,738.4352 l 0,0 4.269703,0 0,-0.69588 -3.485472,0 0,-1.82667 3.224061,0 0,-0.65238 -3.224061,0 0,-2.04414 3.572609,0 0,-0.69587 -4.35684,0 0,5.91494 z"
               style="fill:#ffffff;fill-opacity:1;fill-rule:nonzero;stroke:none"
               id="path6733"
               inkscape:connector-curvature="0" />
            <path
               d="m 81.473017,736.60841 0,0 c 0.304979,-0.21746 0.479252,-0.65238 0.522821,-1.21778 l -0.697095,0 c -0.04357,0.26095 -0.130705,0.47841 -0.304978,0.65238 -0.130706,0.17397 -0.392116,0.26095 -0.740663,0.26095 -0.435684,0 -0.784231,-0.21746 -1.002073,-0.65238 -0.08714,-0.30444 -0.174274,-0.65238 -0.174274,-1.0873 0,-0.43493 0.08714,-0.78286 0.26141,-1.08731 0.217842,-0.30444 0.479253,-0.43492 0.871368,-0.43492 0.304979,0 0.56639,0.087 0.740663,0.26095 0.174274,0.17397 0.304979,0.43492 0.348547,0.73937 l 0.697095,0 c -0.08714,-0.5654 -0.261411,-1.00032 -0.609958,-1.26127 -0.304979,-0.26096 -0.740663,-0.39143 -1.219915,-0.39143 -0.566389,0 -1.002073,0.21746 -1.35062,0.60889 -0.348548,0.43492 -0.522821,0.95683 -0.522821,1.56572 0,0.78286 0.174273,1.34825 0.566389,1.78318 0.348547,0.43492 0.8278,0.60889 1.394189,0.60889 0.522821,0 0.914936,-0.087 1.219915,-0.34794"
               style="fill:#ffffff;fill-opacity:1;fill-rule:nonzero;stroke:none"
               id="path6739"
               inkscape:connector-curvature="0" />
            <path
               d="m 85.437737,733.56383 0,0 c 0.174274,0.34794 0.26141,0.73937 0.26141,1.17429 0,0.43492 -0.04357,0.73937 -0.174273,1.00032 -0.217842,0.39143 -0.566389,0.60889 -1.045642,0.60889 -0.435684,0 -0.784231,-0.17397 -0.958505,-0.52191 -0.217842,-0.34793 -0.304978,-0.73936 -0.304978,-1.21778 0,-0.47841 0.08714,-0.82635 0.304978,-1.13079 0.174274,-0.34794 0.522821,-0.47842 0.958505,-0.47842 0.435684,0 0.784231,0.17397 0.958505,0.5654 m 0.435684,2.87049 0,0 c 0.392116,-0.39143 0.609958,-0.91334 0.609958,-1.65271 0,-0.69587 -0.174274,-1.26127 -0.522821,-1.73969 -0.348547,-0.43492 -0.871368,-0.65238 -1.568463,-0.65238 -0.609957,0 -1.045641,0.17397 -1.394188,0.5654 -0.348548,0.43492 -0.522821,0.95683 -0.522821,1.6527 0,0.69588 0.174273,1.30477 0.522821,1.73969 0.392115,0.39143 0.871368,0.60889 1.481325,0.60889 0.566389,0 1.045642,-0.17397 1.394189,-0.5219"
               style="fill:#ffffff;fill-opacity:1;fill-rule:nonzero;stroke:none"
               id="path6745"
               inkscape:connector-curvature="0" />
            <path
               d="m 87.26761,738.43484 0,0 0.740663,0 0,-5.91494 -0.740663,0 0,5.91494 z"
               style="fill:#ffffff;fill-opacity:1;fill-rule:nonzero;stroke:none"
               id="path6751"
               inkscape:connector-curvature="0" />
            <path
               d="m 91.972997,735.04233 0,0 c -0.04357,0.30445 -0.130705,0.5654 -0.217842,0.73937 -0.217842,0.34793 -0.522821,0.5219 -1.002073,0.5219 -0.304979,0 -0.609958,-0.13047 -0.8278,-0.34793 -0.217842,-0.26096 -0.348547,-0.5654 -0.348547,-0.91334 l 2.396262,0 z m -0.26141,1.6962 0,0 c 0.26141,-0.17397 0.479252,-0.34794 0.653526,-0.5654 0.130705,-0.21746 0.217842,-0.47842 0.26141,-0.78286 0.04357,-0.17397 0.08714,-0.52191 0.08714,-0.95683 l -3.180493,0 c 0.04357,-0.43492 0.130705,-0.78286 0.348547,-1.04381 0.174273,-0.26096 0.479252,-0.39143 0.871368,-0.39143 0.392115,0 0.697094,0.13047 0.914936,0.39143 0.130705,0.13047 0.217842,0.30444 0.261411,0.47841 l 0.697094,0 c 0,-0.13048 -0.04357,-0.30444 -0.174274,-0.52191 -0.08714,-0.17396 -0.217842,-0.34793 -0.348547,-0.47841 -0.217842,-0.21746 -0.479252,-0.34794 -0.827799,-0.43492 -0.174274,-0.0435 -0.348548,-0.0435 -0.56639,-0.0435 -0.566389,0 -1.002073,0.17396 -1.394188,0.56539 -0.348548,0.39143 -0.522821,0.95683 -0.522821,1.65271 0,0.69587 0.174273,1.26127 0.522821,1.69619 0.392115,0.43493 0.871368,0.65239 1.481325,0.65239 0.304979,0 0.609958,-0.087 0.914937,-0.21746"
               style="fill:#ffffff;fill-opacity:1;fill-rule:nonzero;stroke:none"
               id="path6757"
               inkscape:connector-curvature="0" />
            <path
               d="m 96.024858,738.43459 0,0 1.132778,0 1.699168,-5.0016 1.699166,5.0016 1.17635,0 0,-5.91494 -0.78423,0 0,3.52287 0,0.5654 0,0.91333 -1.69917,-5.0016 -0.784232,0 -1.699167,5.0016 0,-0.17397 0,-0.65238 0,-0.65238 0,-3.52287 -0.740663,0 0,5.91494 z"
               style="fill:#ffffff;fill-opacity:1;fill-rule:nonzero;stroke:none"
               id="path6763"
               inkscape:connector-curvature="0" />
            <path
               d="m 102.77796,736.82526 0,0 0.74066,0 0,-4.30573 -0.74066,0 0,4.30573 z m 0,1.60921 0,0 0.74066,0 0,-0.78286 -0.74066,0 0,0.78286 z"
               style="fill:#ffffff;fill-opacity:1;fill-rule:nonzero;stroke:none"
               id="path6769"
               inkscape:connector-curvature="0" />
            <path
               d="m 104.47713,736.86863 0,0 0.69709,0 0,-0.65238 c 0.21785,0.26095 0.43569,0.43492 0.65353,0.5654 0.21784,0.087 0.47925,0.17396 0.78423,0.17396 0.60996,0 1.00207,-0.21746 1.21992,-0.65238 0.1307,-0.21746 0.17427,-0.5654 0.17427,-1.00032 l 0,-2.7835 -0.74066,0 0,2.74001 c 0,0.26095 0,0.47841 -0.0871,0.60889 -0.1307,0.30444 -0.39211,0.43492 -0.69709,0.43492 -0.17428,0 -0.34855,-0.0435 -0.43569,-0.0435 -0.21784,-0.087 -0.39211,-0.21746 -0.52282,-0.39143 -0.1307,-0.13048 -0.21784,-0.26095 -0.26141,-0.43492 0,-0.13048 -0.0436,-0.34794 -0.0436,-0.65239 l 0,-2.26159 -0.74066,0 0,4.34922 z"
               style="fill:#ffffff;fill-opacity:1;fill-rule:nonzero;stroke:none"
               id="path6775"
               inkscape:connector-curvature="0" />
            <path
               d="m 111.92732,735.04184 0,0 c 0,0.30445 -0.0871,0.5654 -0.17427,0.73937 -0.21785,0.34793 -0.52282,0.5219 -1.00208,0.5219 -0.34854,0 -0.60995,-0.13047 -0.8278,-0.34793 -0.21784,-0.26096 -0.34854,-0.5654 -0.34854,-0.91334 l 2.35269,0 z m -0.26141,1.6962 0,0 c 0.30498,-0.17397 0.52282,-0.34794 0.65353,-0.5654 0.17427,-0.21746 0.26141,-0.47842 0.30497,-0.78286 0.0436,-0.17397 0.0871,-0.52191 0.0871,-0.95683 l -3.18049,0 c 0.0436,-0.43492 0.1307,-0.78286 0.30498,-1.04381 0.21784,-0.26096 0.52282,-0.39143 0.91493,-0.39143 0.39212,0 0.65353,0.13047 0.91494,0.39143 0.0871,0.13047 0.21784,0.30444 0.26141,0.47841 l 0.69709,0 c 0,-0.13048 -0.0871,-0.30444 -0.17427,-0.52191 -0.1307,-0.17396 -0.21784,-0.34793 -0.34855,-0.47841 -0.21784,-0.21746 -0.52282,-0.34794 -0.8278,-0.43492 -0.17427,-0.0435 -0.39211,-0.0435 -0.60995,-0.0435 -0.52282,0 -0.95851,0.17396 -1.35062,0.56539 -0.34855,0.39143 -0.56639,0.95683 -0.56639,1.65271 0,0.69587 0.21784,1.26127 0.56639,1.69619 0.39211,0.43493 0.87136,0.65239 1.48132,0.65239 0.30498,0 0.60996,-0.087 0.87137,-0.21746"
               style="fill:#ffffff;fill-opacity:1;fill-rule:nonzero;stroke:none"
               id="path6781"
               inkscape:connector-curvature="0" />
            <path
               d="m 113.93147,733.86743 0,0 c 0,-0.21746 0.0871,-0.43492 0.17427,-0.5654 0.17428,-0.21746 0.52282,-0.34794 0.95851,-0.34794 0.30498,0 0.52282,0.087 0.74066,0.17397 0.21784,0.13048 0.30498,0.30445 0.30498,0.5654 0,0.17397 -0.0871,0.30445 -0.21784,0.43492 -0.13071,0.0435 -0.34855,0.13048 -0.65353,0.17397 l -0.56639,0.17397 c -0.39211,0.087 -0.65352,0.17397 -0.8278,0.30445 -0.34854,0.17397 -0.47925,0.47841 -0.47925,0.82635 0,0.39143 0.13071,0.73937 0.43568,0.95683 0.30498,0.26095 0.6971,0.39143 1.21992,0.39143 0.65353,0 1.13278,-0.17397 1.39419,-0.5654 0.21784,-0.26096 0.30498,-0.52191 0.30498,-0.78286 l -0.6971,0 c -0.0436,0.17397 -0.0871,0.30444 -0.17427,0.43492 -0.17427,0.21746 -0.47925,0.30445 -0.91494,0.30445 -0.26141,0 -0.47925,-0.0435 -0.60995,-0.17397 -0.17428,-0.087 -0.21785,-0.21746 -0.21785,-0.39143 0,-0.21746 0.0871,-0.34794 0.26141,-0.47842 0.13071,-0.0435 0.26141,-0.13047 0.47926,-0.17397 l 0.52282,-0.13047 c 0.52282,-0.087 0.87137,-0.21746 1.04564,-0.34794 0.30498,-0.17397 0.43568,-0.47841 0.43568,-0.86984 0,-0.39143 -0.17427,-0.73937 -0.43568,-1.00033 -0.30498,-0.30444 -0.74066,-0.43492 -1.35062,-0.43492 -0.65353,0 -1.13278,0.17397 -1.39419,0.43492 -0.26141,0.30445 -0.43568,0.65239 -0.43568,1.08731 l 0.69709,0 z"
               style="fill:#ffffff;fill-opacity:1;fill-rule:nonzero;stroke:none"
               id="path6787"
               inkscape:connector-curvature="0" />
            <path
               d="m 117.76549,735.21556 0,0 2.04771,0 0,-0.78286 -2.04771,0 0,0.78286 z"
               style="fill:#ffffff;fill-opacity:1;fill-rule:nonzero;stroke:none"
               id="path6793"
               inkscape:connector-curvature="0" />
            <path
               d="m 124.12647,738.43386 0,0 0,-0.69588 -1.96058,0 0,-5.21906 -0.8278,0 0,5.21906 -2.00414,0 0,0.69588 4.79252,0 z"
               style="fill:#ffffff;fill-opacity:1;fill-rule:nonzero;stroke:none"
               id="path6799"
               inkscape:connector-curvature="0" />
            <path
               d="m 126.30489,738.60771 0,0 -1.08921,-1.17429 -0.56639,0 0.74066,1.17429 0.91494,0 z m 0.26141,-3.56636 0,0 c 0,0.30444 -0.0871,0.5654 -0.17427,0.73937 -0.21785,0.34793 -0.52282,0.5219 -1.00208,0.5219 -0.34854,0 -0.60995,-0.13047 -0.8278,-0.34793 -0.21784,-0.26096 -0.34854,-0.5654 -0.34854,-0.91334 l 2.35269,0 z m -0.26141,1.6962 0,0 c 0.30498,-0.17397 0.52282,-0.34794 0.65353,-0.5654 0.17427,-0.21746 0.26141,-0.47842 0.30497,-0.78286 0.0436,-0.17397 0.0871,-0.52191 0.0871,-0.95683 l -3.18049,0 c 0.0436,-0.43492 0.1307,-0.78286 0.30498,-1.04381 0.21784,-0.26096 0.52282,-0.39143 0.91493,-0.39143 0.39212,0 0.65353,0.13047 0.91494,0.39143 0.13071,0.13047 0.21784,0.30444 0.26141,0.47841 l 0.69709,0 c 0,-0.13048 -0.0871,-0.30445 -0.17427,-0.52191 -0.1307,-0.17396 -0.21784,-0.34793 -0.34855,-0.47841 -0.21784,-0.21746 -0.52282,-0.34794 -0.8278,-0.43492 -0.17427,-0.0435 -0.39211,-0.0435 -0.60995,-0.0435 -0.52282,0 -0.95851,0.17396 -1.35062,0.56539 -0.34855,0.39143 -0.56639,0.95683 -0.56639,1.65271 0,0.69587 0.21784,1.26127 0.56639,1.69619 0.39211,0.43493 0.87136,0.65239 1.48132,0.65239 0.30498,0 0.60996,-0.087 0.87137,-0.21746"
               style="fill:#ffffff;fill-opacity:1;fill-rule:nonzero;stroke:none"
               id="path6805"
               inkscape:connector-curvature="0" />
            <path
               d="m 128.13476,738.43362 0,0 0.74066,0 0,-5.91494 -0.74066,0 0,5.91494 z"
               style="fill:#ffffff;fill-opacity:1;fill-rule:nonzero;stroke:none"
               id="path6811"
               inkscape:connector-curvature="0" />
            <path
               d="m 132.53516,738.60747 0,0 -1.08921,-1.17429 -0.56639,0 0.74066,1.17429 0.91494,0 z m 0.30498,-3.56636 0,0 c -0.0436,0.30444 -0.13071,0.5654 -0.21784,0.73937 -0.21785,0.34793 -0.52282,0.5219 -1.00208,0.5219 -0.30498,0 -0.60995,-0.13047 -0.8278,-0.34793 -0.21784,-0.26096 -0.34854,-0.5654 -0.34854,-0.91334 l 2.39626,0 z m -0.26141,1.6962 0,0 c 0.26141,-0.17397 0.47925,-0.34794 0.65352,-0.5654 0.13071,-0.21746 0.21785,-0.47842 0.26141,-0.78286 0.0436,-0.17397 0.0871,-0.52191 0.0871,-0.95683 l -3.13692,0 c 0,-0.43492 0.0871,-0.78286 0.30498,-1.04381 0.17427,-0.26096 0.47925,-0.39143 0.87136,-0.39143 0.39212,0 0.6971,0.13047 0.91494,0.39143 0.13071,0.13047 0.21784,0.30444 0.26141,0.47841 l 0.69709,0 c 0,-0.13048 -0.0436,-0.30445 -0.17427,-0.52191 -0.0871,-0.17396 -0.21784,-0.34793 -0.34855,-0.47841 -0.21784,-0.21746 -0.47925,-0.34794 -0.8278,-0.43492 -0.17427,-0.0435 -0.34854,-0.0435 -0.56638,-0.0435 -0.56639,0 -1.00208,0.17396 -1.39419,0.56539 -0.34855,0.39143 -0.52282,0.95683 -0.52282,1.65271 0,0.69587 0.17427,1.26127 0.56638,1.69619 0.34855,0.43493 0.8278,0.65239 1.43776,0.65239 0.30498,0 0.60996,-0.087 0.91494,-0.21746"
               style="fill:#ffffff;fill-opacity:1;fill-rule:nonzero;stroke:none"
               id="path6817"
               inkscape:connector-curvature="0" />
            <path
               d="m 137.28413,736.6067 0,0 c 0.30498,-0.21746 0.47925,-0.65238 0.56639,-1.21778 l -0.74066,0 c -0.0436,0.26095 -0.13071,0.47841 -0.26141,0.65238 -0.17428,0.17397 -0.39212,0.26095 -0.74067,0.26095 -0.47925,0 -0.8278,-0.21746 -1.00207,-0.65238 -0.13071,-0.30444 -0.21784,-0.65238 -0.21784,-1.0873 0,-0.43493 0.1307,-0.78286 0.30498,-1.08731 0.17427,-0.30444 0.47925,-0.43492 0.87136,-0.43492 0.30498,0 0.52283,0.087 0.6971,0.26095 0.17427,0.17397 0.30498,0.43492 0.34855,0.73937 l 0.74066,0 c -0.0871,-0.5654 -0.30498,-1.00032 -0.60996,-1.26127 -0.34855,-0.26096 -0.74066,-0.39143 -1.26348,-0.39143 -0.56639,0 -1.00208,0.21746 -1.35062,0.60889 -0.34855,0.43492 -0.47925,0.95683 -0.47925,1.56572 0,0.78286 0.17427,1.34825 0.52282,1.78318 0.39211,0.43492 0.87136,0.60889 1.43775,0.60889 0.47926,0 0.87137,-0.087 1.17635,-0.34794"
               style="fill:#ffffff;fill-opacity:1;fill-rule:nonzero;stroke:none"
               id="path6823"
               inkscape:connector-curvature="0" />
            <path
               d="m 141.24884,733.56212 0,0 c 0.21784,0.34794 0.30498,0.73937 0.30498,1.17429 0,0.43492 -0.0871,0.73937 -0.21784,1.00032 -0.17428,0.39143 -0.56639,0.60889 -1.04564,0.60889 -0.43569,0 -0.74067,-0.17397 -0.95851,-0.52191 -0.21784,-0.34793 -0.30498,-0.73936 -0.30498,-1.21778 0,-0.47841 0.0871,-0.82635 0.30498,-1.13079 0.21784,-0.34794 0.52282,-0.47842 0.95851,-0.47842 0.47925,0 0.78423,0.17397 0.9585,0.5654 m 0.47925,2.87049 0,0 c 0.39212,-0.39143 0.56639,-0.91334 0.56639,-1.65271 0,-0.69587 -0.17427,-1.26127 -0.52282,-1.73969 -0.30498,-0.43492 -0.8278,-0.65238 -1.56846,-0.65238 -0.56639,0 -1.04564,0.17397 -1.39419,0.5654 -0.34855,0.43492 -0.52282,0.95683 -0.52282,1.6527 0,0.69588 0.17427,1.30477 0.56639,1.73969 0.34855,0.39143 0.8278,0.60889 1.48132,0.60889 0.52282,0 1.00208,-0.17397 1.39419,-0.5219"
               style="fill:#ffffff;fill-opacity:1;fill-rule:nonzero;stroke:none"
               id="path6829"
               inkscape:connector-curvature="0" />
            <path
               d="m 143.07872,736.86741 0,0 0.74066,0 0,-0.65238 c 0.17428,0.21746 0.30498,0.39143 0.43569,0.47841 0.26141,0.17397 0.52282,0.26095 0.8278,0.26095 0.34854,0 0.65352,-0.087 0.8278,-0.26095 0.1307,-0.087 0.26141,-0.26095 0.34854,-0.43492 0.17428,0.21746 0.34855,0.39143 0.56639,0.52191 0.21784,0.087 0.47925,0.17396 0.74067,0.17396 0.56638,0 0.9585,-0.21746 1.17634,-0.65238 0.13071,-0.21746 0.17428,-0.52191 0.17428,-0.91333 l 0,-2.87049 -0.74067,0 0,3.00096 c 0,0.30445 -0.0871,0.47842 -0.21784,0.60889 -0.17427,0.087 -0.34855,0.17397 -0.52282,0.17397 -0.30498,0 -0.56639,-0.13048 -0.74066,-0.30444 -0.21784,-0.17397 -0.30498,-0.52191 -0.30498,-0.95683 l 0,-2.52255 -0.74066,0 0,2.82699 c 0,0.30445 -0.0436,0.52191 -0.13071,0.65239 -0.0871,0.17396 -0.30498,0.30444 -0.60996,0.30444 -0.26141,0 -0.52282,-0.13048 -0.74066,-0.34794 -0.26141,-0.21746 -0.34855,-0.56539 -0.34855,-1.13079 l 0,-2.30509 -0.74066,0 0,4.34922 z"
               style="fill:#ffffff;fill-opacity:1;fill-rule:nonzero;stroke:none"
               id="path6835"
               inkscape:connector-curvature="0" />
            <path
               d="m 73.5,728.77774 0,0 0.8278,0 0,-5.95843 -0.8278,0 0,5.95843 z"
               style="fill:#ffffff;fill-opacity:1;fill-rule:nonzero;stroke:none"
               id="path6841"
               inkscape:connector-curvature="0" />
            <path
               d="m 75.504146,728.77762 0,0 1.132778,0 1.742736,-5.0451 1.699168,5.0451 1.132778,0 0,-5.95843 -0.784231,0 0,3.52287 0,0.60889 c 0.04357,0.26095 0.04357,0.5654 0.04357,0.86984 l -1.699168,-5.0016 -0.8278,0 -1.699167,5.0016 0,-0.17397 0,-0.65238 c 0.04357,-0.30445 0.04357,-0.52191 0.04357,-0.65238 l 0,-3.52287 -0.784231,0 0,5.95843 z"
               style="fill:#ffffff;fill-opacity:1;fill-rule:nonzero;stroke:none"
               id="path6847"
               inkscape:connector-curvature="0" />
            <path
               d="m 86.657652,728.77749 0,0 0,-0.73937 -2.004146,0 0,-5.21906 -0.8278,0 0,5.21906 -2.004146,0 0,0.73937 4.836092,0 z"
               style="fill:#ffffff;fill-opacity:1;fill-rule:nonzero;stroke:none"
               id="path6853"
               inkscape:connector-curvature="0" />
            <path
               d="m 86.701221,725.51546 0,0 2.004146,0 0,-0.73937 -2.004146,0 0,0.73937 z"
               style="fill:#ffffff;fill-opacity:1;fill-rule:nonzero;stroke:none"
               id="path6859"
               inkscape:connector-curvature="0" />
            <path
               d="m 91.188766,728.77725 0,0 0,-3.69684 c 0,-0.39143 0.08714,-0.78286 0.217842,-1.04381 0.26141,-0.43492 0.653526,-0.65238 1.219915,-0.65238 0.697095,0 1.176347,0.21746 1.437757,0.69587 0.130706,0.26096 0.174274,0.60889 0.174274,1.00032 l 0,3.69684 0.8278,0 0,-3.3489 c 0,-0.73937 -0.08714,-1.30477 -0.304979,-1.6962 -0.348547,-0.69587 -1.045642,-1.04381 -2.047715,-1.04381 -1.002073,0 -1.699168,0.34794 -2.047715,1.04381 -0.217842,0.39143 -0.304979,0.95683 -0.304979,1.6962 l 0,3.3489 0.8278,0 z"
               style="fill:#ffffff;fill-opacity:1;fill-rule:nonzero;stroke:none"
               id="path6865"
               inkscape:connector-curvature="0" />
            <path
               d="m 96.068427,727.16792 0,0 0.697094,0 0,-0.60889 c 0.217842,0.21746 0.435684,0.43492 0.653526,0.52191 0.261411,0.13047 0.479253,0.17396 0.784232,0.17396 0.609957,0 1.045641,-0.21746 1.219915,-0.65238 0.130705,-0.21746 0.217842,-0.5654 0.217842,-1.00032 l 0,-2.7835 -0.740663,0 0,2.74001 c 0,0.26095 -0.04357,0.47841 -0.130705,0.65238 -0.130705,0.26095 -0.348547,0.39143 -0.697095,0.39143 -0.174273,0 -0.348547,0 -0.435684,-0.0435 -0.217842,-0.087 -0.392115,-0.17397 -0.52282,-0.34794 -0.130706,-0.17397 -0.217842,-0.30444 -0.261411,-0.47841 0,-0.13048 -0.04357,-0.34794 -0.04357,-0.65239 l 0,-2.26159 -0.740663,0 0,4.34922 z"
               style="fill:#ffffff;fill-opacity:1;fill-rule:nonzero;stroke:none"
               id="path6871"
               inkscape:connector-curvature="0" />
            <path
               d="m 100.59954,727.12431 0,0 0.74066,0 0,-4.30573 -0.74066,0 0,4.30573 z m 0,1.6527 0,0 0.74066,0 0,-0.82635 -0.74066,0 0,0.82635 z"
               style="fill:#ffffff;fill-opacity:1;fill-rule:nonzero;stroke:none"
               id="path6877"
               inkscape:connector-curvature="0" />
            <path
               d="m 102.73439,727.16767 0,0 1.13278,-3.52287 1.21991,3.52287 0.78423,0 -1.61203,-4.34922 -0.78423,0 -1.61203,4.34922 0.87137,0 z"
               style="fill:#ffffff;fill-opacity:1;fill-rule:nonzero;stroke:none"
               id="path6883"
               inkscape:connector-curvature="0" />
            <path
               d="m 109.22608,725.34088 0,0 c -0.0436,0.30445 -0.13071,0.5654 -0.21784,0.73937 -0.21784,0.34793 -0.52282,0.5219 -1.00208,0.5219 -0.30497,0 -0.60995,-0.087 -0.82779,-0.34793 -0.21785,-0.21746 -0.34855,-0.52191 -0.34855,-0.91334 l 2.39626,0 z m -0.26141,1.6962 0,0 c 0.26141,-0.13048 0.47925,-0.34794 0.65353,-0.5654 0.1307,-0.21746 0.21784,-0.47842 0.26141,-0.73937 0.0436,-0.21746 0.0871,-0.52191 0.0871,-0.95683 l -3.18049,0 c 0.0436,-0.43492 0.1307,-0.82635 0.34855,-1.0873 0.17427,-0.26096 0.47925,-0.39143 0.87136,-0.39143 0.39212,0 0.6971,0.13047 0.91494,0.39143 0.13071,0.13047 0.21784,0.30444 0.26141,0.5219 l 0.6971,0 c 0,-0.17397 -0.0436,-0.34793 -0.17428,-0.5654 -0.0871,-0.17396 -0.21784,-0.34793 -0.34854,-0.47841 -0.21785,-0.21746 -0.47926,-0.34794 -0.8278,-0.43492 -0.17428,-0.0435 -0.34855,-0.0435 -0.56639,-0.0435 -0.56639,0 -1.00208,0.17396 -1.39419,0.56539 -0.34855,0.39143 -0.52282,0.95683 -0.52282,1.65271 0,0.69587 0.17427,1.26127 0.52282,1.69619 0.39211,0.43493 0.87137,0.65239 1.48132,0.65239 0.30498,0 0.60996,-0.087 0.91494,-0.21746"
               style="fill:#ffffff;fill-opacity:1;fill-rule:nonzero;stroke:none"
               id="path6889"
               inkscape:connector-curvature="0" />
            <path
               d="m 110.79454,727.16743 0,0 0.65353,0 0,-0.73937 c 0.0871,0.13048 0.21784,0.30445 0.43568,0.52191 0.21784,0.21746 0.47925,0.30444 0.78423,0.30444 l 0.0436,0 0.17427,0 0,-0.78286 -0.1307,0 -0.13071,0 c -0.34854,0 -0.60995,-0.087 -0.8278,-0.34793 -0.17427,-0.21746 -0.30498,-0.47842 -0.30498,-0.78286 l 0,-2.52255 -0.69709,0 0,4.34922 z"
               style="fill:#ffffff;fill-opacity:1;fill-rule:nonzero;stroke:none"
               id="path6895"
               inkscape:connector-curvature="0" />
            <path
               d="m 113.93147,724.20985 0,0 c 0,-0.26095 0.0871,-0.43492 0.17427,-0.5654 0.17428,-0.26095 0.52282,-0.34794 0.95851,-0.34794 0.30498,0 0.52282,0.0435 0.74066,0.17397 0.21784,0.087 0.30498,0.30445 0.30498,0.52191 0,0.17397 -0.0871,0.34794 -0.21784,0.43492 -0.13071,0.0435 -0.34855,0.13048 -0.65353,0.21746 l -0.60996,0.13048 c -0.34854,0.087 -0.60995,0.17397 -0.8278,0.30444 -0.30497,0.21746 -0.47925,0.47842 -0.47925,0.82636 0,0.39143 0.17428,0.73936 0.47925,1.00032 0.30498,0.21746 0.6971,0.34793 1.17635,0.34793 0.6971,0 1.17635,-0.17396 1.43776,-0.56539 0.21784,-0.21747 0.30498,-0.47842 0.26141,-0.78286 l -0.65353,0 c -0.0436,0.17396 -0.0871,0.30444 -0.17427,0.43492 -0.17427,0.21746 -0.47925,0.30444 -0.91494,0.30444 -0.26141,0 -0.47925,-0.0435 -0.65352,-0.17397 -0.13071,-0.087 -0.21784,-0.21746 -0.21784,-0.39143 0,-0.17396 0.1307,-0.34793 0.30497,-0.47841 0.13071,-0.0435 0.26141,-0.087 0.47926,-0.17397 l 0.47925,-0.087 c 0.56639,-0.13048 0.91494,-0.26096 1.08921,-0.39143 0.30498,-0.17397 0.43568,-0.47842 0.43568,-0.86985 0,-0.39143 -0.17427,-0.69587 -0.43568,-1.00032 -0.30498,-0.26095 -0.78423,-0.43492 -1.35062,-0.43492 -0.65353,0 -1.13278,0.17397 -1.39419,0.47841 -0.30498,0.26096 -0.43568,0.65239 -0.43568,1.08731 l 0.69709,0 z"
               style="fill:#ffffff;fill-opacity:1;fill-rule:nonzero;stroke:none"
               id="path6901"
               inkscape:connector-curvature="0" />
            <path
               d="m 117.54764,727.1237 0,0 0.74066,0 0,-4.30573 -0.74066,0 0,4.30573 z m 0,1.6527 0,0 0.74066,0 0,-0.82635 -0.74066,0 0,0.82635 z"
               style="fill:#ffffff;fill-opacity:1;fill-rule:nonzero;stroke:none"
               id="path6907"
               inkscape:connector-curvature="0" />
            <path
               d="m 119.46465,728.38485 0,0 0.74066,0 0,-1.21778 0.6971,0 0,-0.60889 -0.6971,0 0,-2.827 c 0,-0.13047 0.0436,-0.26095 0.13071,-0.30444 0.0871,0 0.17427,-0.0435 0.30498,-0.0435 l 0.0871,0 c 0.0436,0 0.0871,0 0.17428,0.0435 l 0,-0.60889 c -0.0871,0 -0.17428,-0.0435 -0.26141,-0.0435 l -0.30498,0 c -0.34855,0 -0.56639,0.087 -0.6971,0.26095 -0.1307,0.17397 -0.17427,0.39143 -0.17427,0.65238 l 0,2.87049 -0.60996,0 0,0.60889 0.60996,0 0,1.21778 z"
               style="fill:#ffffff;fill-opacity:1;fill-rule:nonzero;stroke:none"
               id="path6913"
               inkscape:connector-curvature="0" />
            <path
               d="m 124.0829,728.90664 0,0 -1.08921,-1.17429 -0.52282,0 0.69709,1.17429 0.91494,0 z m 0.30498,-3.56636 0,0 c -0.0436,0.30444 -0.0871,0.5654 -0.21784,0.73937 -0.17428,0.34793 -0.52282,0.5219 -1.00208,0.5219 -0.30498,0 -0.60995,-0.087 -0.8278,-0.34793 -0.21784,-0.21747 -0.34854,-0.52191 -0.34854,-0.91334 l 2.39626,0 z m -0.26141,1.6962 0,0 c 0.26141,-0.13048 0.47925,-0.34794 0.65352,-0.5654 0.13071,-0.21746 0.21785,-0.47842 0.26141,-0.73937 0.0436,-0.21746 0.0871,-0.52191 0.0871,-0.95683 l -3.13692,0 c 0,-0.43492 0.0871,-0.82635 0.30498,-1.0873 0.17427,-0.26096 0.47925,-0.39143 0.87136,-0.39143 0.39212,0 0.6971,0.13047 0.91494,0.39143 0.13071,0.13047 0.21784,0.30444 0.26141,0.5219 l 0.74066,0 c -0.0436,-0.17397 -0.0871,-0.34794 -0.21784,-0.5654 -0.0871,-0.17396 -0.21784,-0.34793 -0.34855,-0.47841 -0.21784,-0.21746 -0.47925,-0.34794 -0.8278,-0.43492 -0.17427,-0.0435 -0.34854,-0.0435 -0.56638,-0.0435 -0.52283,0 -1.00208,0.17396 -1.35063,0.56539 -0.39211,0.39143 -0.56638,0.95683 -0.56638,1.65271 0,0.69587 0.17427,1.26127 0.56638,1.69619 0.34855,0.43493 0.87137,0.65239 1.43776,0.65239 0.30498,0 0.60996,-0.087 0.91494,-0.21746"
               style="fill:#ffffff;fill-opacity:1;fill-rule:nonzero;stroke:none"
               id="path6919"
               inkscape:connector-curvature="0" />
            <path
               d="m 129.09326,723.77444 0,0 c 0.21784,-0.30445 0.52282,-0.47841 0.9585,-0.47841 0.34855,0 0.60996,0.17396 0.8278,0.43492 0.21785,0.30444 0.30498,0.73937 0.30498,1.26127 0,0.5654 -0.0871,0.95683 -0.30498,1.21778 -0.21784,0.26096 -0.52282,0.39143 -0.8278,0.39143 -0.39211,0 -0.65352,-0.13047 -0.91493,-0.43492 -0.21784,-0.26095 -0.30498,-0.69587 -0.30498,-1.21778 0,-0.47841 0.0871,-0.86984 0.26141,-1.17429 m 1.6556,3.26192 0,0 c 0.1307,-0.087 0.26141,-0.21747 0.43568,-0.43493 l 0,2.17461 0.6971,0 0,-5.95843 -0.65353,0 0,0.60889 c -0.17427,-0.26095 -0.39211,-0.43492 -0.60996,-0.5654 -0.21784,-0.13047 -0.47925,-0.17397 -0.78423,-0.17397 -0.47925,0 -0.91493,0.17397 -1.26348,0.6089 -0.34855,0.39143 -0.52282,0.91333 -0.52282,1.60921 0,0.60889 0.17427,1.17429 0.47925,1.6527 0.30498,0.43492 0.78423,0.69588 1.39419,0.69588 0.30498,0 0.56639,-0.087 0.8278,-0.21746"
               style="fill:#ffffff;fill-opacity:1;fill-rule:nonzero;stroke:none"
               id="path6925"
               inkscape:connector-curvature="0" />
            <path
               d="m 135.80279,725.34003 0,0 c 0,0.30445 -0.0871,0.5654 -0.17427,0.73937 -0.21785,0.34793 -0.56639,0.5219 -1.00208,0.5219 -0.34854,0 -0.60995,-0.087 -0.8278,-0.34793 -0.26141,-0.21746 -0.34854,-0.52191 -0.39211,-0.91334 l 2.39626,0 z m -0.26141,1.6962 0,0 c 0.30498,-0.13048 0.52282,-0.34794 0.65353,-0.5654 0.17427,-0.21746 0.26141,-0.47842 0.30497,-0.73937 0.0436,-0.21746 0.0436,-0.52191 0.0436,-0.95683 l -3.13692,0 c 0,-0.43492 0.1307,-0.82635 0.30498,-1.0873 0.21784,-0.26096 0.47925,-0.39143 0.91493,-0.39143 0.34855,0 0.65353,0.13047 0.87137,0.39143 0.13071,0.13047 0.21784,0.30444 0.30498,0.5219 l 0.69709,0 c 0,-0.17397 -0.0871,-0.34793 -0.17427,-0.5654 -0.1307,-0.17396 -0.26141,-0.34793 -0.39211,-0.47841 -0.21785,-0.21746 -0.47926,-0.34794 -0.78424,-0.43492 -0.17427,-0.0435 -0.39211,-0.0435 -0.60995,-0.0435 -0.52282,0 -0.95851,0.17396 -1.35062,0.56539 -0.39212,0.39143 -0.56639,0.95683 -0.56639,1.65271 0,0.69587 0.17427,1.26127 0.56639,1.69619 0.39211,0.43493 0.87136,0.65239 1.48132,0.65239 0.30498,0 0.60996,-0.087 0.87137,-0.21746"
               style="fill:#ffffff;fill-opacity:1;fill-rule:nonzero;stroke:none"
               id="path6931"
               inkscape:connector-curvature="0" />
            <path
               d="m 139.89823,728.77578 0,0 0.78423,0 0,-5.21906 3.00622,0 0,-0.73937 -3.79045,0 0,5.95843 z"
               style="fill:#ffffff;fill-opacity:1;fill-rule:nonzero;stroke:none"
               id="path6937"
               inkscape:connector-curvature="0" />
            <path
               d="m 144.29863,727.12297 0,0 0.74066,0 0,-4.30573 -0.74066,0 0,4.30573 z m 0,1.6527 0,0 0.74066,0 0,-0.82635 -0.74066,0 0,0.82635 z"
               style="fill:#ffffff;fill-opacity:1;fill-rule:nonzero;stroke:none"
               id="path6943"
               inkscape:connector-curvature="0" />
            <path
               d="m 146.04137,728.77554 0,0 0.69709,0 0,-5.95843 -0.69709,0 0,5.95843 z"
               style="fill:#ffffff;fill-opacity:1;fill-rule:nonzero;stroke:none"
               id="path6949"
               inkscape:connector-curvature="0" />
            <path
               d="m 147.74054,728.77542 0,0 0.74066,0 0,-5.95843 -0.74066,0 0,5.95843 z"
               style="fill:#ffffff;fill-opacity:1;fill-rule:nonzero;stroke:none"
               id="path6955"
               inkscape:connector-curvature="0" />
            <path
               d="m 152.40235,725.33942 0,0 c 0,0.30445 -0.0871,0.5654 -0.17427,0.73937 -0.21785,0.34794 -0.52282,0.5219 -1.00208,0.5219 -0.34854,0 -0.60995,-0.087 -0.8278,-0.34793 -0.21784,-0.21746 -0.34854,-0.52191 -0.34854,-0.91334 l 2.35269,0 z m -0.26141,1.6962 0,0 c 0.30498,-0.13048 0.52282,-0.34794 0.65353,-0.5654 0.17427,-0.21746 0.26141,-0.47842 0.30497,-0.73937 0.0436,-0.21746 0.0871,-0.52191 0.0871,-0.95683 l -3.18049,0 c 0.0436,-0.43492 0.1307,-0.82635 0.30498,-1.0873 0.21784,-0.26096 0.52282,-0.39143 0.91493,-0.39143 0.39212,0 0.65353,0.13047 0.91494,0.39143 0.1307,0.13047 0.21784,0.30444 0.26141,0.5219 l 0.69709,0 c 0,-0.17397 -0.0871,-0.34793 -0.17427,-0.5654 -0.1307,-0.17396 -0.21784,-0.34793 -0.34855,-0.47841 -0.21784,-0.21746 -0.52282,-0.34794 -0.8278,-0.43492 -0.17427,-0.0435 -0.39211,-0.0435 -0.60995,-0.0435 -0.52282,0 -0.95851,0.17396 -1.35062,0.56539 -0.34855,0.39143 -0.56639,0.95683 -0.56639,1.65271 0,0.69587 0.21784,1.26127 0.56639,1.69619 0.39211,0.43493 0.87136,0.65239 1.48132,0.65239 0.30498,0 0.60996,-0.087 0.87137,-0.21746"
               style="fill:#ffffff;fill-opacity:1;fill-rule:nonzero;stroke:none"
               id="path6961"
               inkscape:connector-curvature="0" />
          </g>
        </g>
      </g>
    </g>
  </g>
  <g
     inkscape:groupmode="layer"
     id="layer2"
     inkscape:label="Logo"
     transform="translate(-893.102,-45.624125)">
    <g
       id="g4387">
      <g
         transform="matrix(0.0544605,0,0,0.05436525,900.18861,52.71142)"
         id="g6633">
        <g
           transform="translate(0.0072,-0.0117)"
           id="g6635">
          <path
             inkscape:connector-curvature="0"
             id="path6637"
             style="fill:#ffffff;fill-opacity:1;fill-rule:nonzero;stroke:none"
             d="M 0,0 697.995,0 0,697.004 0,0 Z" />
        </g>
      </g>
      <path
         inkscape:connector-curvature="0"
         id="path6643"
         style="fill:#ffffff;fill-opacity:1;fill-rule:nonzero;stroke:none"
         d="m 938.52879,90.604128 0,-37.893395 0.32687,0 18.84323,18.756827 18.84322,-18.756827 0.32687,0 0,37.893395 -38.34019,0 z" />
      <path
         inkscape:connector-curvature="0"
         id="path6649"
         style="fill:#ffffff;fill-opacity:1;fill-rule:nonzero;stroke:none"
         d="m 996.03906,71.467715 -19.1701,0 18.84339,-18.75699 38.28865,0 0,0.05181 -37.96194,37.841748 0,-19.136568 z" />
    </g>
  </g>
</svg>
