<?xml version="1.0" encoding="UTF-8" standalone="no"?>
<!-- Created with Inkscape (http://www.inkscape.org/) -->

<svg
   xmlns:osb="http://www.openswatchbook.org/uri/2009/osb"
   xmlns:dc="http://purl.org/dc/elements/1.1/"
   xmlns:cc="http://creativecommons.org/ns#"
   xmlns:rdf="http://www.w3.org/1999/02/22-rdf-syntax-ns#"
   xmlns:svg="http://www.w3.org/2000/svg"
   xmlns="http://www.w3.org/2000/svg"
   xmlns:sodipodi="http://sodipodi.sourceforge.net/DTD/sodipodi-0.dtd"
   xmlns:inkscape="http://www.inkscape.org/namespaces/inkscape"
   width="33.866665mm"
   height="33.866665mm"
   viewBox="0 0 119.99999 119.99999"
   id="svg2"
   version="1.1"
   inkscape:version="0.91pre3 r13670"
   sodipodi:docname="prisma_icon.svg"
   inkscape:export-filename="prisma_icon.png"
   inkscape:export-xdpi="450"
   inkscape:export-ydpi="450">
  <defs
     id="defs4">
    <linearGradient
       id="linearGradient4285"
       osb:paint="solid">
      <stop
         style="stop-color:#ffff00;stop-opacity:1;"
         offset="0"
         id="stop4287" />
    </linearGradient>
  </defs>
  <sodipodi:namedview
     id="base"
     pagecolor="#ffffff"
     bordercolor="#666666"
     borderopacity="1.0"
     inkscape:pageopacity="0.0"
     inkscape:pageshadow="2"
     inkscape:zoom="5.6568543"
     inkscape:cx="42.117763"
     inkscape:cy="57.961068"
     inkscape:document-units="px"
     inkscape:current-layer="layer3"
     showgrid="false"
     showborder="true"
     fit-margin-top="0"
     fit-margin-left="0"
     fit-margin-right="0"
     fit-margin-bottom="0"
     inkscape:showpageshadow="false"
     inkscape:window-width="1920"
     inkscape:window-height="1017"
     inkscape:window-x="-8"
     inkscape:window-y="-8"
     inkscape:window-maximized="1"
     showguides="false" />
  <metadata
     id="metadata7">
    <rdf:RDF>
      <cc:Work
         rdf:about="">
        <dc:format>image/svg+xml</dc:format>
        <dc:type
           rdf:resource="http://purl.org/dc/dcmitype/StillImage" />
        <dc:title />
      </cc:Work>
    </rdf:RDF>
  </metadata>
  <g
     inkscape:label="BG"
     inkscape:groupmode="layer"
     id="layer1"
     transform="translate(-131.16754,-481.60516)"
     style="display:inline"
     sodipodi:insensitive="true">
    <rect
       style="fill:#ffffff;fill-opacity:1"
       id="rect4137"
       width="119.99998"
       height="119.99998"
       x="131.16754"
       y="481.60516" />
  </g>
  <g
     inkscape:groupmode="layer"
     id="layer3"
     inkscape:label="ICON"
     style="display:inline">
    <g
       id="g4157">
      <path
         id="path4625-6-6-1"
         d="m 59.919922,18.20117 c -0.50661,0.0272 -0.96512,0.308657 -1.21875,0.748047 L 28.712891,70.890624 c 0.874704,0.536328 1.535803,1.393552 1.802734,2.410156 l 9.628906,0 c 0.45032,-1.71504 2.006489,-3 3.855469,-3 0.4179,0 0.813579,0.08414 1.193359,0.205078 l 5.914063,-9.464843 C 50.426322,60.322615 50,59.36008 50,58.30078 c 0,-2.19594 1.80406,-4 4,-4 2.19594,0 4,1.80406 4,4 0,1.34469 -0.680284,2.537132 -1.708984,3.263672 l 9.291015,24.779297 c 0.13923,-0.0149 0.275039,-0.04297 0.417969,-0.04297 0.4179,0 0.813579,0.08414 1.193359,0.205078 l 5.914063,-9.464843 C 72.426322,76.322615 72,75.36008 72,74.30078 c 0,-2.19594 1.80407,-4 4,-4 1.84899,0 3.405149,1.28496 3.855469,3 l 9.628906,0 c 0.266925,-1.01661 0.92803,-1.87383 1.802734,-2.410156 L 61.298828,18.949217 c -0.28224,-0.48896 -0.815126,-0.778037 -1.378906,-0.748047 z m -7.113281,43.894532 -5.914063,9.462891 C 47.574288,72.277103 48,73.24094 48,74.30078 c 0,2.19594 -1.80406,4 -4,4 -1.84898,0 -3.405149,-1.28496 -3.855469,-3 l -9.628906,0 c -0.45032,1.71504 -2.006479,3 -3.855469,3 -0.700486,0 -1.350885,-0.200176 -1.925781,-0.521484 L 11.300781,101.04883 c -0.57707,0.99992 0.144338,2.24964 1.298828,2.25 l 94.800781,0 c 1.15449,-3.6e-4 1.8759,-1.25008 1.29883,-2.25 L 95.265625,77.779296 c -0.574896,0.321304 -1.225285,0.521484 -1.925781,0.521484 -1.84902,0 -3.405159,-1.28494 -3.855469,-3 l -9.628906,0 c -0.45032,1.71504 -2.006479,3 -3.855469,3 -0.4179,0 -0.813579,-0.08414 -1.193359,-0.205078 l -5.914063,9.462891 C 69.574288,88.277103 70,89.24094 70,90.30078 c 0,2.19594 -1.80406,4 -4,4 -2.19593,0 -4,-1.80406 -4,-4 0,-1.34469 0.680284,-2.537132 1.708984,-3.263672 L 54.417969,62.257811 c -0.13922,0.0149 -0.275029,0.04297 -0.417969,0.04297 -0.4179,0 -0.813579,-0.08414 -1.193359,-0.205078 z"
         style="color:#000000;font-style:normal;font-variant:normal;font-weight:normal;font-stretch:normal;font-size:medium;line-height:normal;font-family:sans-serif;text-indent:0;text-align:start;text-decoration:none;text-decoration-line:none;text-decoration-style:solid;text-decoration-color:#000000;letter-spacing:normal;word-spacing:normal;text-transform:none;direction:ltr;block-progression:tb;writing-mode:lr-tb;baseline-shift:baseline;text-anchor:start;white-space:normal;clip-rule:nonzero;display:inline;overflow:visible;visibility:visible;opacity:1;isolation:auto;mix-blend-mode:normal;color-interpolation:sRGB;color-interpolation-filters:linearRGB;solid-color:#000000;solid-opacity:1;fill:#04364e;fill-opacity:1;fill-rule:evenodd;stroke:none;stroke-width:3;stroke-linecap:butt;stroke-linejoin:round;stroke-miterlimit:4;stroke-dasharray:none;stroke-dashoffset:0;stroke-opacity:1;color-rendering:auto;image-rendering:auto;shape-rendering:auto;text-rendering:auto;enable-background:accumulate"
         inkscape:connector-curvature="0" />
      <path
         inkscape:connector-curvature="0"
         id="path4283-9-6-06-0-4"
         d="m 54,54.300781 c -2.19594,0 -4,1.80406 -4,4 0,1.0593 0.426322,2.021835 1.107422,2.740235 l -5.914063,9.464843 C 44.813579,70.384919 44.4179,70.300781 44,70.300781 c -1.84898,0 -3.405149,1.28496 -3.855469,3 l -9.628906,0 c -0.45032,-1.71504 -2.006479,-3 -3.855469,-3 -2.067684,0 -3.767046,1.604954 -3.960937,3.625 l -8.808594,2.484375 c -0.89885,-1.52849 -2.745761,-2.343587 -4.5253906,-1.841797 -2.11356,0.59595 -3.361575,2.821987 -2.765625,4.935547 0.59595,2.11358 2.8219868,3.359622 4.9355466,2.763672 1.77962,-0.50178 2.928505,-2.160704 2.896485,-3.933594 l 8.580078,-2.419922 c 0.625571,1.398805 2.026898,2.386719 3.648437,2.386719 1.84899,0 3.405149,-1.28496 3.855469,-3 l 9.628906,0 c 0.45032,1.71504 2.006489,3 3.855469,3 2.19594,0 4,-1.80406 4,-4 0,-1.05984 -0.425712,-2.023677 -1.107422,-2.742187 l 5.914063,-9.462891 c 0.37978,0.12094 0.775459,0.205078 1.193359,0.205078 0.14294,0 0.278749,-0.02807 0.417969,-0.04297 l 9.291015,24.779297 C 62.680284,87.763649 62,88.956091 62,90.300781 c 0,2.19594 1.80407,4 4,4 2.19594,0 4,-1.80406 4,-4 0,-1.05984 -0.425712,-2.023677 -1.107422,-2.742187 l 5.914063,-9.462891 c 0.37978,0.12094 0.775459,0.205078 1.193359,0.205078 1.84899,0 3.405149,-1.28496 3.855469,-3 l 9.628906,0 c 0.45031,1.71506 2.006449,3 3.855469,3 2.091116,0 3.807764,-1.640942 3.96875,-3.693359 l 8.511716,-2.882813 c 0.97651,1.48008 2.86388,2.198419 4.61524,1.605469 2.08,-0.7042 3.21007,-2.990302 2.50586,-5.070312 -0.7042,-2.08 -2.99227,-3.21006 -5.07227,-2.50586 -1.75137,0.59295 -2.8129,2.307292 -2.68945,4.076172 l -8.228518,2.785156 c -0.641564,-1.359323 -2.018554,-2.314453 -3.611328,-2.314453 -1.84902,0 -3.405159,1.28495 -3.855469,3 l -9.628906,0 c -0.45032,-1.71504 -2.006479,-3 -3.855469,-3 -2.19593,0 -4,1.80406 -4,4 0,1.0593 0.426322,2.021835 1.107422,2.740235 l -5.914063,9.464843 C 66.813579,86.384919 66.4179,86.300781 66,86.300781 c -0.14293,0 -0.278739,0.02807 -0.417969,0.04297 L 56.291016,61.564453 C 57.319716,60.837913 58,59.645471 58,58.300781 c 0,-2.19594 -1.80406,-4 -4,-4 z"
         style="color:#000000;font-style:normal;font-variant:normal;font-weight:normal;font-stretch:normal;font-size:medium;line-height:normal;font-family:sans-serif;text-indent:0;text-align:start;text-decoration:none;text-decoration-line:none;text-decoration-style:solid;text-decoration-color:#000000;letter-spacing:normal;word-spacing:normal;text-transform:none;direction:ltr;block-progression:tb;writing-mode:lr-tb;baseline-shift:baseline;text-anchor:start;white-space:normal;clip-rule:nonzero;display:inline;overflow:visible;visibility:visible;opacity:1;isolation:auto;mix-blend-mode:normal;color-interpolation:sRGB;color-interpolation-filters:linearRGB;solid-color:#000000;solid-opacity:1;fill:#ffffff;fill-opacity:1;fill-rule:evenodd;stroke:#ffffff;stroke-width:6;stroke-linecap:butt;stroke-linejoin:round;stroke-miterlimit:4;stroke-dasharray:none;stroke-dashoffset:0;stroke-opacity:1;color-rendering:auto;image-rendering:auto;shape-rendering:auto;text-rendering:auto;enable-background:accumulate" />
      <path
         inkscape:connector-curvature="0"
         id="path4283-9-6-06-0"
         d="m 54,54.300781 c -2.19594,0 -4,1.80406 -4,4 0,1.0593 0.426322,2.021835 1.107422,2.740235 l -5.914063,9.464843 C 44.813579,70.384919 44.4179,70.300781 44,70.300781 c -1.84898,0 -3.405149,1.28496 -3.855469,3 l -9.628906,0 c -0.45032,-1.71504 -2.006479,-3 -3.855469,-3 -2.067684,0 -3.767046,1.604954 -3.960937,3.625 l -8.808594,2.484375 c -0.89885,-1.52849 -2.745761,-2.343587 -4.5253906,-1.841797 -2.11356,0.59595 -3.361575,2.821987 -2.765625,4.935547 0.59595,2.11358 2.8219868,3.359622 4.9355466,2.763672 1.77962,-0.50178 2.928505,-2.160704 2.896485,-3.933594 l 8.580078,-2.419922 c 0.625571,1.398805 2.026898,2.386719 3.648437,2.386719 1.84899,0 3.405149,-1.28496 3.855469,-3 l 9.628906,0 c 0.45032,1.71504 2.006489,3 3.855469,3 2.19594,0 4,-1.80406 4,-4 0,-1.05984 -0.425712,-2.023677 -1.107422,-2.742187 l 5.914063,-9.462891 c 0.37978,0.12094 0.775459,0.205078 1.193359,0.205078 0.14294,0 0.278749,-0.02807 0.417969,-0.04297 l 9.291015,24.779297 C 62.680284,87.763649 62,88.956091 62,90.300781 c 0,2.19594 1.80407,4 4,4 2.19594,0 4,-1.80406 4,-4 0,-1.05984 -0.425712,-2.023677 -1.107422,-2.742187 l 5.914063,-9.462891 c 0.37978,0.12094 0.775459,0.205078 1.193359,0.205078 1.84899,0 3.405149,-1.28496 3.855469,-3 l 9.628906,0 c 0.45031,1.71506 2.006449,3 3.855469,3 2.091116,0 3.807764,-1.640942 3.96875,-3.693359 l 8.511716,-2.882813 c 0.97651,1.48008 2.86388,2.198419 4.61524,1.605469 2.08,-0.7042 3.21007,-2.990302 2.50586,-5.070312 -0.7042,-2.08 -2.99227,-3.21006 -5.07227,-2.50586 -1.75137,0.59295 -2.8129,2.307292 -2.68945,4.076172 l -8.228518,2.785156 c -0.641564,-1.359323 -2.018554,-2.314453 -3.611328,-2.314453 -1.84902,0 -3.405159,1.28495 -3.855469,3 l -9.628906,0 c -0.45032,-1.71504 -2.006479,-3 -3.855469,-3 -2.19593,0 -4,1.80406 -4,4 0,1.0593 0.426322,2.021835 1.107422,2.740235 l -5.914063,9.464843 C 66.813579,86.384919 66.4179,86.300781 66,86.300781 c -0.14293,0 -0.278739,0.02807 -0.417969,0.04297 L 56.291016,61.564453 C 57.319716,60.837913 58,59.645471 58,58.300781 c 0,-2.19594 -1.80406,-4 -4,-4 z"
         style="color:#000000;font-style:normal;font-variant:normal;font-weight:normal;font-stretch:normal;font-size:medium;line-height:normal;font-family:sans-serif;text-indent:0;text-align:start;text-decoration:none;text-decoration-line:none;text-decoration-style:solid;text-decoration-color:#000000;letter-spacing:normal;word-spacing:normal;text-transform:none;direction:ltr;block-progression:tb;writing-mode:lr-tb;baseline-shift:baseline;text-anchor:start;white-space:normal;clip-rule:nonzero;display:inline;overflow:visible;visibility:visible;opacity:1;isolation:auto;mix-blend-mode:normal;color-interpolation:sRGB;color-interpolation-filters:linearRGB;solid-color:#000000;solid-opacity:1;fill:#4db2b9;fill-opacity:1;fill-rule:evenodd;stroke:none;stroke-width:1.99999976;stroke-linecap:butt;stroke-linejoin:round;stroke-miterlimit:4;stroke-dasharray:none;stroke-dashoffset:0;stroke-opacity:1;color-rendering:auto;image-rendering:auto;shape-rendering:auto;text-rendering:auto;enable-background:accumulate" />
    </g>
  </g>
</svg>
