<?xml version="1.0" encoding="UTF-8" standalone="no"?>
<!-- Created with Inkscape (http://www.inkscape.org/) -->

<svg
   xmlns:osb="http://www.openswatchbook.org/uri/2009/osb"
   xmlns:dc="http://purl.org/dc/elements/1.1/"
   xmlns:cc="http://creativecommons.org/ns#"
   xmlns:rdf="http://www.w3.org/1999/02/22-rdf-syntax-ns#"
   xmlns:svg="http://www.w3.org/2000/svg"
   xmlns="http://www.w3.org/2000/svg"
   xmlns:sodipodi="http://sodipodi.sourceforge.net/DTD/sodipodi-0.dtd"
   xmlns:inkscape="http://www.inkscape.org/namespaces/inkscape"
   width="110.75682mm"
   height="33.866661mm"
   viewBox="0 0 392.44541 119.99998"
   id="svg2"
   version="1.1"
   inkscape:version="0.91pre3 r13670"
   sodipodi:docname="prisma_logo_light.svg"
   inkscape:export-filename="prisma_logo_light.png"
   inkscape:export-xdpi="300.00006"
   inkscape:export-ydpi="300.00006">
  <defs
     id="defs4">
    <linearGradient
       id="linearGradient4285"
       osb:paint="solid">
      <stop
         style="stop-color:#ffff00;stop-opacity:1;"
         offset="0"
         id="stop4287" />
    </linearGradient>
  </defs>
  <sodipodi:namedview
     id="base"
     pagecolor="#ffffff"
     bordercolor="#666666"
     borderopacity="1.0"
     inkscape:pageopacity="0.0"
     inkscape:pageshadow="2"
     inkscape:zoom="2"
     inkscape:cx="74.31008"
     inkscape:cy="51.400409"
     inkscape:document-units="px"
     inkscape:current-layer="layer3"
     showgrid="false"
     showborder="true"
     fit-margin-top="0"
     fit-margin-left="0"
     fit-margin-right="0"
     fit-margin-bottom="0"
     inkscape:showpageshadow="false"
     inkscape:window-width="1920"
     inkscape:window-height="1017"
     inkscape:window-x="-8"
     inkscape:window-y="-8"
     inkscape:window-maximized="1" />
  <metadata
     id="metadata7">
    <rdf:RDF>
      <cc:Work
         rdf:about="">
        <dc:format>image/svg+xml</dc:format>
        <dc:type
           rdf:resource="http://purl.org/dc/dcmitype/StillImage" />
        <dc:title />
      </cc:Work>
    </rdf:RDF>
  </metadata>
  <g
     inkscape:label="BG"
     inkscape:groupmode="layer"
     id="layer1"
     transform="translate(-111.72211,-481.60516)"
     style="display:inline"
     sodipodi:insensitive="true">
    <rect
       style="fill:#04364e;fill-opacity:1"
       id="rect4137"
       width="392.44543"
       height="119.99998"
       x="111.7221"
       y="481.60516" />
  </g>
  <g
     inkscape:groupmode="layer"
     id="layer3"
     inkscape:label="ICON"
     style="display:inline"
     transform="translate(19.445419,-1.4296875e-5)">
    <g
       id="g4144">
      <path
         inkscape:connector-curvature="0"
         id="path4283-9-6-06-0"
         d="m 40.000001,54.300771 c -2.19594,0 -4,1.80406 -4,4 0,1.0593 0.426322,2.021835 1.107422,2.740235 l -5.914063,9.464843 c -0.37978,-0.12094 -0.775459,-0.205078 -1.193359,-0.205078 -1.84898,0 -3.405149,1.28496 -3.855469,3 l -9.628906,0 c -0.45032,-1.71504 -2.006479,-3 -3.855469,-3 -2.067684,0 -3.767046,1.604954 -3.960937,3.625 l -8.808594,2.484375 c -0.89885,-1.52849 -2.745761,-2.343587 -4.5253906,-1.841797 -2.11356,0.59595 -3.361575,2.821987 -2.765625,4.935547 0.59595,2.11358 2.8219868,3.359622 4.9355466,2.763672 1.77962,-0.50178 2.928505,-2.160704 2.896485,-3.933594 L 9.01172,75.914052 c 0.625571,1.398805 2.026898,2.386719 3.648437,2.386719 1.84899,0 3.405149,-1.28496 3.855469,-3 l 9.628906,0 c 0.45032,1.71504 2.006489,3 3.855469,3 2.19594,0 4,-1.80406 4,-4 0,-1.05984 -0.425712,-2.023677 -1.107422,-2.742187 l 5.914063,-9.462891 c 0.37978,0.12094 0.775459,0.205078 1.193359,0.205078 0.14294,0 0.278749,-0.02807 0.417969,-0.04297 l 9.291015,24.779297 c -1.0287,0.726541 -1.708984,1.918983 -1.708984,3.263673 0,2.19594 1.80407,4 4,4 2.19594,0 4,-1.80406 4,-4 0,-1.05984 -0.425712,-2.023677 -1.107422,-2.742187 l 5.914063,-9.462891 c 0.37978,0.12094 0.775459,0.205078 1.193359,0.205078 1.84899,0 3.405149,-1.28496 3.855469,-3 l 9.628906,0 c 0.45031,1.71506 2.006449,3 3.855469,3 2.091116,0 3.807764,-1.640942 3.96875,-3.693359 l 8.511716,-2.882813 c 0.97651,1.48008 2.86388,2.198419 4.61524,1.605469 2.08,-0.7042 3.21007,-2.990302 2.50586,-5.070312 -0.7042,-2.08 -2.99227,-3.21006 -5.07227,-2.50586 -1.75137,0.59295 -2.8129,2.307292 -2.68945,4.076172 l -8.228518,2.785156 c -0.641564,-1.359323 -2.018554,-2.314453 -3.611328,-2.314453 -1.84902,0 -3.405159,1.28495 -3.855469,3 l -9.628906,0 c -0.45032,-1.71504 -2.006479,-3 -3.855469,-3 -2.19593,0 -4,1.80406 -4,4 0,1.0593 0.426322,2.021835 1.107422,2.740235 l -5.914063,9.464843 c -0.37978,-0.12094 -0.775459,-0.205078 -1.193359,-0.205078 -0.14293,0 -0.278739,0.02807 -0.417969,0.04297 L 42.291017,61.564443 c 1.0287,-0.72654 1.708984,-1.918982 1.708984,-3.263672 0,-2.19594 -1.80406,-4 -4,-4 z"
         style="color:#000000;font-style:normal;font-variant:normal;font-weight:normal;font-stretch:normal;font-size:medium;line-height:normal;font-family:sans-serif;text-indent:0;text-align:start;text-decoration:none;text-decoration-line:none;text-decoration-style:solid;text-decoration-color:#000000;letter-spacing:normal;word-spacing:normal;text-transform:none;direction:ltr;block-progression:tb;writing-mode:lr-tb;baseline-shift:baseline;text-anchor:start;white-space:normal;clip-rule:nonzero;display:inline;overflow:visible;visibility:visible;opacity:1;isolation:auto;mix-blend-mode:normal;color-interpolation:sRGB;color-interpolation-filters:linearRGB;solid-color:#000000;solid-opacity:1;fill:#4db2b9;fill-opacity:1;fill-rule:evenodd;stroke:none;stroke-width:1.99999976;stroke-linecap:butt;stroke-linejoin:round;stroke-miterlimit:4;stroke-dasharray:none;stroke-dashoffset:0;stroke-opacity:1;color-rendering:auto;image-rendering:auto;shape-rendering:auto;text-rendering:auto;enable-background:accumulate" />
      <path
         id="path4625-6-6-1-6"
         d="m 45.9198,18.201186 c -0.50661,0.0272 -0.96512,0.308657 -1.21875,0.748047 L 16.203004,68.310561 c 0.839592,0.511555 1.572276,1.186232 2.138671,1.990234 l 5.976563,0 c 1.194099,-1.69503 3.109836,-2.808291 5.298828,-2.933593 l 3.962891,-6.34375 c -0.360932,-0.838767 -0.580079,-1.754363 -0.580079,-2.722657 0,-3.839027 3.160973,-7 7,-7 3.839027,0 7,3.160973 7,7 10e-7,1.440584 -0.546192,2.697587 -1.300781,3.8125 l 7.199219,19.201172 2.681641,-4.291015 c -0.360932,-0.838769 -0.580079,-1.754363 -0.580079,-2.722657 0,-3.839036 3.160977,-7 7,-7 2.353764,0 4.415347,1.202487 5.681641,3 l 5.976563,0 c 0.566395,-0.804004 1.299079,-1.478679 2.138672,-1.990234 L 47.298707,18.949233 C 47.016467,18.460273 46.48358,18.171196 45.9198,18.201186 Z M 39.099488,67.287123 36.4198,71.578139 c 0.360755,0.839339 0.580078,1.75493 0.580078,2.722656 0,3.839027 -3.160972,7 -7,7 -2.353759,0 -4.415345,-1.202486 -5.68164,-3 l -5.976563,0 c -1.266294,1.797513 -3.327877,3 -5.68164,3 -1.250274,0 -2.401803,-0.361207 -3.40625,-0.957031 L -2.69934,101.04884 c -0.57707,0.99992 0.144338,2.24964 1.298828,2.25 l 94.800778,0 c 1.15449,-3.6e-4 1.8759,-1.25008 1.29883,-2.25 L 82.751836,80.35353 c -1.00491,0.591562 -2.15998,0.947265 -3.412114,0.947265 -2.353752,0 -4.415343,-1.202479 -5.68164,-3 l -5.976563,0 c -1.194098,1.69503 -3.109834,2.808291 -5.298828,2.933594 l -3.962891,6.34375 c 0.360755,0.839339 0.580078,1.75493 0.580078,2.722656 0,3.839027 -3.160972,7 -7,7 -3.839022,0 -7,-3.160964 -7,-7 10e-7,-1.440583 0.546193,-2.697587 1.300782,-3.8125 L 39.099488,67.287123 Z"
         style="color:#000000;font-style:normal;font-variant:normal;font-weight:normal;font-stretch:normal;font-size:medium;line-height:normal;font-family:sans-serif;text-indent:0;text-align:start;text-decoration:none;text-decoration-line:none;text-decoration-style:solid;text-decoration-color:#000000;letter-spacing:normal;word-spacing:normal;text-transform:none;direction:ltr;block-progression:tb;writing-mode:lr-tb;baseline-shift:baseline;text-anchor:start;white-space:normal;clip-rule:nonzero;display:inline;overflow:visible;visibility:visible;opacity:1;isolation:auto;mix-blend-mode:normal;color-interpolation:sRGB;color-interpolation-filters:linearRGB;solid-color:#000000;solid-opacity:1;fill:#ffffff;fill-opacity:1;fill-rule:evenodd;stroke:none;stroke-width:3;stroke-linecap:butt;stroke-linejoin:round;stroke-miterlimit:4;stroke-dasharray:none;stroke-dashoffset:0;stroke-opacity:1;color-rendering:auto;image-rendering:auto;shape-rendering:auto;text-rendering:auto;enable-background:accumulate"
         inkscape:connector-curvature="0" />
    </g>
  </g>
  <g
     inkscape:groupmode="layer"
     id="layer4"
     inkscape:label="LOGOTYPE"
     transform="translate(19.445419,-1.4296875e-5)">
    <path
       style="font-style:normal;font-weight:normal;font-size:40px;line-height:125%;font-family:sans-serif;letter-spacing:0px;word-spacing:0px;fill:#ffffff;fill-opacity:1;stroke:none;stroke-width:3;stroke-linecap:butt;stroke-linejoin:miter;stroke-miterlimit:4;stroke-dasharray:none;stroke-opacity:1"
       d="M 258.36719 38.839844 C 256.56165 38.839844 254.75522 38.974873 252.94727 39.244141 C 251.17634 39.507896 249.49061 39.958522 247.87891 40.595703 C 246.3532 41.214576 244.96183 42.062571 243.68359 43.158203 C 242.45331 44.212732 241.4418 45.551375 240.64062 47.226562 C 240.25295 48.037149 239.9526 48.905966 239.73633 49.835938 C 239.55809 50.734376 239.4668 51.626672 239.4668 52.519531 C 239.4668 55.218764 239.94326 57.270819 240.76562 58.724609 C 241.6835 60.234682 242.86937 61.420837 244.38281 62.335938 L 244.38867 62.339844 L 244.39648 62.34375 C 245.15698 62.814533 245.9762 63.233497 246.85547 63.601562 C 247.81478 63.946025 248.81377 64.273956 249.85352 64.582031 L 249.85938 64.583984 L 249.86719 64.585938 C 250.86327 64.892425 251.90101 65.161266 252.98047 65.392578 C 254.10722 65.634026 255.2547 65.896646 256.41992 66.177734 L 256.43945 66.181641 C 257.29186 66.375077 258.14229 66.550197 258.99414 66.705078 C 259.95734 66.880205 260.89984 67.143721 261.81836 67.492188 C 262.24548 67.636731 262.67612 67.818532 263.11719 68.039062 C 263.58259 68.271766 264.02227 68.554893 264.43945 68.873047 C 264.9341 69.207483 265.36052 69.637827 265.69727 70.130859 C 266.12209 70.710689 266.3457 71.438778 266.3457 72.140625 C 266.3457 73.296682 266.05353 74.409593 265.33594 75.261719 C 264.7631 75.947849 264.0026 76.46631 263.15234 76.785156 C 262.37125 77.078065 261.5236 77.262676 260.61523 77.353516 L 260.58008 77.355469 L 260.54492 77.357422 C 259.76147 77.398652 259.01605 77.419922 258.30664 77.419922 C 255.75188 77.419922 253.30503 77.125905 250.97656 76.533203 L 250.96094 76.529297 L 250.94531 76.525391 C 248.68592 75.897783 246.43481 75.022096 244.19531 73.902344 L 244.15234 73.880859 L 244.11133 73.855469 C 244.06519 73.828559 244.0133 73.813149 243.9668 73.787109 C 243.76781 74.126725 243.66149 74.323296 243.39258 74.771484 C 242.79106 75.774006 242.14996 76.836993 241.46875 77.958984 L 240.51758 79.625 L 240.50391 79.646484 C 240.19516 80.148208 239.92787 80.605537 239.70312 81.017578 L 239.68945 81.044922 L 239.67188 81.072266 C 239.63757 81.129477 239.62049 81.162197 239.58789 81.216797 C 242.19895 82.422505 244.90396 83.390649 247.73242 84.060547 L 247.73828 84.0625 L 247.74609 84.064453 C 250.71172 84.796231 253.68929 85.160156 256.6875 85.160156 C 259.11226 85.160156 261.53708 84.929601 263.9668 84.466797 L 263.97656 84.464844 L 263.98828 84.462891 C 266.35822 84.049091 268.44664 83.321953 270.2832 82.294922 C 272.07719 81.252161 273.50476 79.878624 274.61914 78.117188 C 275.67181 76.453291 276.24609 74.255975 276.24609 71.419922 C 276.24609 70.456845 276.17202 69.493073 276.02344 68.527344 L 276.02344 68.523438 L 276.02344 68.519531 C 275.88361 67.57563 275.62588 66.725006 275.25391 65.947266 L 275.24609 65.931641 L 275.24023 65.917969 C 274.75778 64.849688 274.12089 63.967593 273.3125 63.226562 L 273.30078 63.214844 L 273.28906 63.203125 C 272.43654 62.386128 271.45777 61.691287 270.33789 61.113281 L 270.3125 61.099609 L 270.28711 61.085938 C 269.18406 60.460878 267.98382 59.941735 266.67773 59.53125 L 266.65234 59.523438 L 266.62695 59.513672 C 265.30394 59.046729 263.98225 58.640466 262.66211 58.291016 C 261.29544 57.939845 259.99017 57.646594 258.75 57.414062 L 258.72852 57.410156 L 258.70508 57.40625 C 257.40914 57.122764 256.21116 56.838379 255.10938 56.552734 C 253.97775 56.259347 252.99452 55.939924 252.14453 55.582031 L 252.09961 55.564453 L 252.05664 55.541016 C 251.18757 55.10648 250.45412 54.57967 249.96094 53.804688 L 249.95117 53.789062 L 249.93945 53.771484 C 249.54056 53.10667 249.36719 52.334833 249.36719 51.560547 C 249.36719 50.575668 249.6189 49.605313 250.23047 48.841797 C 250.74063 48.17034 251.4186 47.633658 252.19531 47.300781 C 252.91586 46.991973 253.68931 46.816115 254.48633 46.765625 C 254.48833 46.765425 254.49019 46.763803 254.49219 46.763672 C 255.19262 46.684055 255.86471 46.640625 256.50586 46.640625 C 259.16583 46.640625 261.66829 47.021272 263.99219 47.794922 L 264 47.796875 C 265.84359 48.400552 267.74463 49.229955 269.65625 50.099609 C 270.38795 48.820906 271.11809 47.543951 271.82617 46.3125 L 271.83008 46.306641 L 271.83203 46.302734 C 272.53042 45.109647 273.25127 43.893757 273.9707 42.679688 C 271.77302 41.470038 269.51174 40.509458 267.13672 39.939453 L 267.12695 39.935547 L 267.11914 39.933594 C 264.2376 39.203604 261.32381 38.839844 258.36719 38.839844 z M 130.94531 40.160156 L 130.94531 83.720703 L 140.42578 83.720703 L 140.42578 69.259766 L 150.38477 69.259766 C 152.43515 69.259766 154.36903 68.880046 156.22852 68.115234 C 158.15102 67.30079 159.80826 66.222219 161.23242 64.871094 C 162.69781 63.478724 163.83952 61.883421 164.68164 60.052734 L 164.6875 60.041016 L 164.69336 60.03125 C 165.55544 58.235236 165.98438 56.312322 165.98438 54.199219 C 165.98438 52.129745 165.55692 50.277887 164.70312 48.570312 L 164.69727 48.558594 L 164.69336 48.548828 C 163.86015 46.809956 162.73566 45.349334 161.29297 44.123047 L 161.28711 44.117188 L 161.2793 44.111328 C 159.86389 42.877379 158.21366 41.911487 156.29102 41.208984 L 156.28516 41.207031 L 156.28125 41.205078 C 154.40956 40.507781 152.45513 40.160156 150.38477 40.160156 L 130.94531 40.160156 z M 174.19531 40.160156 L 174.19531 83.720703 L 184.0293 83.720703 L 183.96875 69.320312 L 194.21289 69.320312 L 202.31445 83.720703 L 212.83789 83.720703 L 202.52148 65.580078 L 203.62891 64.796875 C 205.37415 63.560664 206.70482 62.065655 207.67578 60.267578 C 208.64056 58.480946 209.11523 56.587241 209.11523 54.5 C 209.11523 53.257143 208.92142 51.938957 208.51562 50.537109 L 208.50781 50.515625 L 208.50391 50.492188 C 208.14202 49.080802 207.61018 47.893006 206.92383 46.896484 C 206.34821 46.069032 205.63617 45.24344 204.7793 44.423828 C 203.93171 43.613087 203.0132 42.896407 202.01758 42.269531 L 202 42.259766 L 201.98438 42.248047 C 201.00393 41.594421 200.00022 41.094631 198.9668 40.738281 L 198.94531 40.730469 L 198.92383 40.722656 C 197.9135 40.33943 196.95874 40.160156 196.03516 40.160156 L 174.19531 40.160156 z M 220.55664 40.160156 L 220.55664 83.720703 L 230.0957 83.720703 L 230.0957 40.160156 L 220.55664 40.160156 z M 286.5957 40.160156 L 286.5957 83.720703 L 295.77539 83.720703 L 295.77539 55.910156 L 308.42578 76.789062 C 308.48988 76.799213 308.57743 76.820312 308.61523 76.820312 C 308.61523 76.820312 308.70539 76.800322 308.74219 76.794922 L 321.39648 55.910156 L 321.39648 83.720703 L 330.57617 83.720703 L 330.57617 40.160156 L 320.82812 40.160156 L 308.55273 60.53125 L 296.3418 40.160156 L 286.5957 40.160156 z M 355.24805 40.160156 L 339.13672 83.720703 L 349.08398 83.720703 L 351.48438 77.300781 L 367.9043 77.300781 L 370.30469 83.720703 L 380.25195 83.720703 L 364.14062 40.160156 L 355.24805 40.160156 z M 140.72461 47.480469 L 149.48438 47.480469 C 150.38403 47.480469 151.266 47.666383 152.08398 48.017578 C 152.8919 48.326197 153.62471 48.795257 154.23828 49.402344 C 154.85004 49.96915 155.35039 50.646211 155.70508 51.40625 C 156.08231 52.214606 156.26562 53.105087 156.26562 54.019531 C 156.26562 54.933975 156.08231 55.82641 155.70508 56.634766 C 155.35099 57.393514 154.86347 58.081837 154.26562 58.679688 L 154.24219 58.703125 L 154.21875 58.726562 C 153.61079 59.283859 152.90513 59.733767 152.12695 60.074219 L 152.08984 60.089844 L 152.05273 60.103516 C 151.23958 60.408449 150.37104 60.560547 149.48438 60.560547 L 140.72461 60.560547 L 140.72461 47.480469 z M 183.61523 47.480469 L 192.375 47.480469 C 193.27464 47.480469 194.15662 47.666383 194.97461 48.017578 C 195.78253 48.326197 196.51534 48.795257 197.12891 49.402344 C 197.74068 49.96915 198.24102 50.646211 198.5957 51.40625 C 198.97293 52.214606 199.15625 53.105087 199.15625 54.019531 C 199.15625 54.933975 198.97293 55.82641 198.5957 56.634766 C 198.24162 57.393514 197.7541 58.081837 197.15625 58.679688 L 197.13281 58.703125 L 197.10938 58.726562 C 196.50141 59.283859 195.79575 59.733767 195.01758 60.074219 L 194.98047 60.089844 L 194.94336 60.103516 C 194.1302 60.408449 193.26166 60.560547 192.375 60.560547 L 183.61523 60.560547 L 183.61523 47.480469 z M 359.73633 50.480469 L 365.39648 69.5 L 353.98438 69.5 L 358.28906 55.265625 L 359.73633 50.480469 z M 238.6543 80.835938 C 238.6361 80.820008 238.71083 80.871729 238.76953 80.912109 C 238.77863 80.916509 238.78202 80.917875 238.79102 80.921875 C 238.7338 80.886855 238.6633 80.843637 238.6543 80.835938 z "
       transform="translate(-19.445434,1.4296875e-5)"
       id="text4161" />
  </g>
</svg>
