<?xml version="1.0" encoding="UTF-8" standalone="no"?>
<!-- Created with Inkscape (http://www.inkscape.org/) -->

<svg
   xmlns:dc="http://purl.org/dc/elements/1.1/"
   xmlns:cc="http://creativecommons.org/ns#"
   xmlns:rdf="http://www.w3.org/1999/02/22-rdf-syntax-ns#"
   xmlns:svg="http://www.w3.org/2000/svg"
   xmlns="http://www.w3.org/2000/svg"
   xmlns:sodipodi="http://sodipodi.sourceforge.net/DTD/sodipodi-0.dtd"
   xmlns:inkscape="http://www.inkscape.org/namespaces/inkscape"
   width="240.95"
   height="240.94501"
   id="svg2"
   version="1.1"
   inkscape:version="0.48.2 r9819"
   sodipodi:docname="uc3m_logo.svg"
   inkscape:export-filename="uc3m_logo.png"
   inkscape:export-xdpi="224.11288"
   inkscape:export-ydpi="224.11288">
  <defs
     id="defs4" />
  <sodipodi:namedview
     id="base"
     pagecolor="#ffffff"
     bordercolor="#666666"
     borderopacity="1.0"
     inkscape:pageopacity="0.0"
     inkscape:pageshadow="2"
     inkscape:zoom="1.979899"
     inkscape:cx="121.45911"
     inkscape:cy="107.98707"
     inkscape:document-units="px"
     inkscape:current-layer="layer2"
     showgrid="false"
     fit-margin-top="0"
     fit-margin-left="0"
     fit-margin-right="0"
     fit-margin-bottom="0"
     inkscape:window-width="1920"
     inkscape:window-height="1017"
     inkscape:window-x="-4"
     inkscape:window-y="-4"
     inkscape:window-maximized="1" />
  <metadata
     id="metadata7">
    <rdf:RDF>
      <cc:Work
         rdf:about="">
        <dc:format>image/svg+xml</dc:format>
        <dc:type
           rdf:resource="http://purl.org/dc/dcmitype/StillImage" />
        <dc:title></dc:title>
      </cc:Work>
    </rdf:RDF>
  </metadata>
  <g
     inkscape:groupmode="layer"
     id="layer2"
     inkscape:label="BG">
    <rect
       style="color:#000000;fill:#ffffff;fill-opacity:1;fill-rule:nonzero;stroke:none;stroke-width:5;marker:none;visibility:visible;display:inline;overflow:visible;enable-background:accumulate"
       id="rect3049"
       width="240.95"
       height="240.95"
       x="0"
       y="-0.0050003054" />
  </g>
  <g
     inkscape:label="logo"
     inkscape:groupmode="layer"
     id="layer1"
     transform="translate(-271.19502,-758.42085)"
     style="display:inline">
    <path
       id="path2999"
       style="fill:#4b5672;fill-opacity:1;fill-rule:evenodd;stroke:none"
       d="m 391.66752,770.7521 c -14.68375,0 -28.6825,2.8125 -42.06375,8.5075 -12.96875,5.49 -24.4275,13.245 -34.3775,23.19375 -9.95,9.95 -17.70375,21.40875 -23.1925,34.3775 -5.695,13.38125 -8.50875,27.44875 -8.50875,42.06375 0,14.68375 2.81375,28.75 8.50875,42.13125 5.48875,12.96875 13.2425,24.4275 23.1925,34.3775 9.95,9.95 21.40875,17.7025 34.3775,23.12375 13.38125,5.695 27.38,8.50875 42.06375,8.50875 14.685,0 28.75125,-2.81375 42.13125,-8.50875 12.9,-5.42125 24.35875,-13.17375 34.37875,-23.12375 9.94875,-10.01875 17.70375,-21.47875 23.12375,-34.3775 5.695,-13.38125 8.50875,-27.4475 8.50875,-42.13125 0,-14.6175 -2.81375,-28.6825 -8.50875,-42.06375 -5.42,-12.96875 -13.175,-24.4275 -23.12375,-34.3775 -10.02,-9.94875 -21.47875,-17.70375 -34.37875,-23.19375 -13.38,-5.695 -27.44625,-8.5075 -42.13125,-8.5075 l 0,0"
       inkscape:connector-curvature="0" />
    <g
       id="g3001"
       transform="matrix(0.125,0,0,-0.125,19.620017,1405.0746)">
      <path
         id="path3003"
         style="fill:none;stroke:#f89e20;stroke-width:19.75760078;stroke-linecap:round;stroke-linejoin:round;stroke-miterlimit:2.61310005;stroke-opacity:1;stroke-dasharray:none"
         d="m 2639.87,5006.52 c -103.75,-43.92 -195.42,-105.96 -275.02,-185.55 -79.6,-79.6 -141.63,-171.27 -185.54,-275.03 -45.56,-107.04 -68.07,-219.58 -68.07,-336.5 0,-117.47 22.51,-230 68.07,-337.05 43.91,-103.75 105.94,-195.42 185.54,-275.02 79.6,-79.6 171.27,-141.62 275.02,-184.99 107.05,-45.56 219.04,-68.07 336.51,-68.07 117.48,0 230.01,22.51 337.05,68.07 103.2,43.37 194.88,105.39 275.03,184.99 79.6,80.15 141.63,171.82 184.99,275.02 45.56,107.05 68.07,219.58 68.07,337.05 0,116.93 -22.51,229.46 -68.07,336.5 -43.36,103.76 -105.39,195.43 -184.99,275.03 -80.15,79.59 -171.83,141.63 -275.03,185.55 -107.04,45.56 -219.57,68.06 -337.05,68.06 -117.47,0 -229.46,-22.5 -336.51,-68.06 l 0,0 z"
         inkscape:connector-curvature="0" />
    </g>
    <path
       id="path3005"
       style="fill:#ffffff;fill-opacity:1;fill-rule:evenodd;stroke:none"
       d="m 451.09127,819.47085 c -7.75375,-7.75375 -16.60625,-13.725 -26.6925,-17.97875 -10.43,-4.39125 -21.34,-6.5875 -32.73125,-6.5875 -11.39,0 -22.30125,2.19625 -32.73,6.5875 -10.01875,4.25375 -18.94,10.225 -26.69375,17.97875 -7.75375,7.75375 -13.72375,16.675 -17.9775,26.76 -4.39125,10.36125 -6.5875,21.2725 -6.5875,32.66375 0,11.39 2.19625,22.3 6.5875,32.73 4.25375,10.0875 10.22375,18.93875 17.9775,26.6925 7.75375,7.75375 16.675,13.7925 26.69375,18.04625 10.42875,4.3925 21.34,6.5875 32.73,6.5875 11.39125,0 22.30125,-2.195 32.73125,-6.5875 10.08625,-4.25375 18.93875,-10.2925 26.6925,-18.04625 7.75375,-7.75375 13.7925,-16.605 17.9775,-26.6925 4.46125,-10.43 6.65625,-21.34 6.65625,-32.73 0,-11.39125 -2.195,-22.3025 -6.65625,-32.66375 -4.25375,-10.085 -10.22375,-19.00625 -17.9775,-26.76 l 0,0"
       inkscape:connector-curvature="0" />
    <path
       id="path3007"
       style="fill:#231f20;fill-opacity:1;fill-rule:evenodd;stroke:none"
       d="m 422.75252,810.3446 c -5.97125,-2.3325 -12.215,-3.5 -18.665,-3.5 -1.16625,0 -2.40125,0.0675 -3.5675,0.1375 6.175,0.41125 12.075,1.8525 17.635,4.39125 6.45,2.95125 12.07625,6.99875 16.81125,12.2825 l 3.2925,-3.77375 c -4.5975,-4.11625 -9.7425,-7.27375 -15.50625,-9.5375 l 0,0"
       inkscape:connector-curvature="0" />
    <path
       id="path3009"
       style="fill:#231f20;fill-opacity:1;fill-rule:evenodd;stroke:none"
       d="m 400.52002,806.9821 c -1.16625,-0.07 -2.4025,-0.1375 -3.57,-0.1375 -6.86125,0 -13.44875,1.30375 -19.76,3.91125 -6.1075,2.53875 -11.46,6.17625 -16.195,10.77375 -4.66625,4.5975 -8.30375,9.94875 -10.91,15.91875 -2.67625,6.245 -3.98,12.76375 -3.98,19.555 0,6.795 1.30375,13.3125 3.98,19.5575 2.60625,5.96875 6.24375,11.32125 10.91,15.92 4.735,4.665 10.0875,8.23375 16.195,10.7725 6.31125,2.67625 12.89875,3.98 19.76,3.98 1.1675,0 2.40375,0 3.57,-0.0688 -5.6275,-0.41125 -11.0475,-1.715 -16.26375,-3.91125 -6.10625,-2.53875 -11.45875,-6.1075 -16.1925,-10.7725 -4.6675,-4.59875 -8.30375,-9.95125 -10.8425,-15.92 -2.6775,-6.245 -4.0475,-12.7625 -4.0475,-19.5575 0,-6.79125 1.37,-13.31 4.0475,-19.555 2.53875,-5.97 6.175,-11.32125 10.8425,-15.91875 4.73375,-4.5975 10.08625,-8.235 16.1925,-10.77375 5.21625,-2.1275 10.63625,-3.43125 16.26375,-3.77375 l 0,0"
       inkscape:connector-curvature="0" />
    <path
       id="path3011"
       style="fill:#231f20;fill-opacity:1;fill-rule:evenodd;stroke:none"
       d="m 404.08752,907.23335 c 7.13625,0 13.92875,-1.44125 20.4475,-4.25375 6.245,-2.67625 11.735,-6.51875 16.47,-11.45875 l -4.325,-3.15625 c -4.73375,5.83125 -10.4975,10.42875 -17.29,13.72125 -5.97125,2.95125 -12.28375,4.5975 -18.87,5.07875 1.16625,0.0688 2.40125,0.0688 3.5675,0.0688 l 0,0"
       inkscape:connector-curvature="0" />
    <path
       id="path3013"
       style="fill:#231f20;fill-opacity:1;fill-rule:evenodd;stroke:none"
       d="m 424.60502,837.44835 c 2.67625,6.245 4.0475,12.76375 4.0475,19.555 0,6.795 -1.37125,13.3125 -4.0475,19.5575 -2.53875,5.96875 -6.1775,11.32125 -10.91125,15.92 -4.665,4.665 -10.0175,8.23375 -16.125,10.7725 -5.215,2.19625 -10.63625,3.5 -16.26375,3.91125 1.1675,0.0688 2.33375,0.0688 3.5,0.0688 6.93125,0 13.51875,-1.30375 19.83125,-3.98 6.10625,-2.53875 11.45875,-6.1075 16.195,-10.7725 4.665,-4.59875 8.30125,-9.95125 10.84,-15.92 2.67625,-6.245 4.04875,-12.7625 4.04875,-19.5575 0,-6.79125 -1.3725,-13.31 -4.04875,-19.555 -2.53875,-5.97 -6.175,-11.32125 -10.84,-15.91875 -4.73625,-4.5975 -10.08875,-8.235 -16.195,-10.77375 -6.3125,-2.6075 -12.9,-3.91125 -19.83125,-3.91125 -1.16625,0 -2.3325,0.0675 -3.5,0.1375 5.6275,0.3425 11.04875,1.64625 16.26375,3.77375 6.1075,2.53875 11.46,6.17625 16.125,10.77375 4.73375,4.5975 8.3725,9.94875 10.91125,15.91875 l 0,0"
       inkscape:connector-curvature="0" />
    <path
       id="path3015"
       style="fill:#231f20;fill-opacity:1;fill-rule:evenodd;stroke:none"
       d="m 381.30502,806.9821 c -1.165,-0.07 -2.40125,-0.1375 -3.5675,-0.1375 -6.45,0 -12.69375,1.1675 -18.66375,3.5 -5.76375,2.26375 -10.97875,5.42125 -15.57625,9.5375 l 3.36125,3.77375 c 4.73625,-5.28375 10.29375,-9.33125 16.8125,-12.2825 5.6275,-2.53875 11.5275,-3.98 17.63375,-4.39125 l 0,0"
       inkscape:connector-curvature="0" />
    <path
       id="path3017"
       style="fill:#231f20;fill-opacity:1;fill-rule:evenodd;stroke:none"
       d="m 381.30502,907.1646 c -6.58625,-0.48125 -12.89875,-2.1275 -18.86875,-5.07875 -6.79375,-3.2925 -12.5575,-7.89 -17.29125,-13.7225 l -4.32375,3.1575 c 4.735,4.94 10.225,8.7825 16.4675,11.45875 6.52,2.8125 13.3125,4.25375 20.44875,4.25375 1.16625,0 2.4025,0 3.5675,-0.0688 l 0,0"
       inkscape:connector-curvature="0" />
    <path
       id="path3019"
       style="fill:#f89e20;fill-opacity:1;fill-rule:evenodd;stroke:none"
       d="m 371.43752,913.5521 0,-5.92625 7.4025,0 0,-49.77625 -7.4025,0 0,-5.92625 17.24375,0 0,5.92625 -7.35625,0 0,49.77625 7.35625,0 0,5.92625 -17.24375,0"
       inkscape:connector-curvature="0" />
    <path
       id="path3021"
       style="fill:#f89e20;fill-opacity:1;fill-rule:evenodd;stroke:none"
       d="m 383.59377,913.5521 0,-5.92625 7.405,0 0,-49.77625 -7.405,0 0,-5.92625 17.24625,0 0,5.92625 -7.35875,0 0,49.77625 7.35875,0 0,5.92625 -17.24625,0"
       inkscape:connector-curvature="0" />
    <path
       id="path3023"
       style="fill:#f89e20;fill-opacity:1;fill-rule:evenodd;stroke:none"
       d="m 395.75377,913.5521 0,-5.92625 7.4025,0 0,-49.77625 -7.4025,0 0,-5.92625 17.24375,0 0,5.92625 -7.35875,0 0,49.77625 7.35875,0 0,5.92625 -17.24375,0"
       inkscape:connector-curvature="0" />
    <path
       id="path3025"
       style="fill:#f89e20;fill-opacity:1;fill-rule:evenodd;stroke:none"
       d="m 360.79002,787.1521 c -0.55,-1.92125 -0.61875,-3.295 -0.13875,-4.18625 0.4825,-0.8225 1.44125,-1.44125 2.95125,-1.8525 0.82375,-0.2075 1.5775,-0.275 2.33375,-0.0688 0.68625,0.205 1.23375,0.5475 1.64625,1.09875 0.41125,0.61625 0.82375,1.5775 1.16625,2.88 l 2.33375,8.78375 2.0575,-0.54875 -2.4,-8.7825 c -0.4125,-1.64875 -0.9625,-2.88375 -1.57875,-3.70625 -0.61875,-0.8225 -1.51,-1.3725 -2.53875,-1.57875 -1.03,-0.27375 -2.265,-0.205 -3.70625,0.1375 -1.44125,0.41125 -2.6075,1.03 -3.3625,1.85375 -0.755,0.75375 -1.16625,1.645 -1.30375,2.675 -0.0675,1.03 0.0687,2.265 0.48,3.8425 l 2.40375,8.78375 1.98875,-0.54875 -2.3325,-8.7825 0,0"
       inkscape:connector-curvature="0" />
    <path
       id="path3027"
       style="fill:#f89e20;fill-opacity:1;fill-rule:evenodd;stroke:none"
       d="m 339.58627,789.4846 -1.92125,1.03 7.205,14.06625 1.785,-0.8925 -5.6275,-11.0475 13.0375,7.27375 1.92125,-0.96 -7.205,-14.135 -1.78375,0.89125 5.62625,11.11625 -13.0375,-7.3425 0,0"
       inkscape:connector-curvature="0" />
    <path
       id="path3029"
       style="fill:#f89e20;fill-opacity:1;fill-rule:evenodd;stroke:none"
       d="m 330.25377,795.72835 -1.6475,1.305 9.745,12.4875 1.64625,-1.30375 -9.74375,-12.48875 0,0"
       inkscape:connector-curvature="0" />
    <path
       id="path3031"
       style="fill:#f89e20;fill-opacity:1;fill-rule:evenodd;stroke:none"
       d="m 321.26502,809.2471 11.185,5.00875 1.50875,-1.6475 -15.575,-6.5875 -1.51,1.57875 7.06625,15.44 1.51,-1.51 -5.35125,-11.11625 c -0.34375,-0.825 -0.755,-1.6475 -1.235,-2.40125 0.755,0.41 1.51,0.8225 2.40125,1.235 l 0,0"
       inkscape:connector-curvature="0" />
    <path
       id="path3033"
       style="fill:#f89e20;fill-opacity:1;fill-rule:evenodd;stroke:none"
       d="m 314.06002,825.44085 4.04875,2.67625 -5.0775,7.82125 1.57875,0.96125 6.24375,-9.5375 -13.3125,-8.6475 -6.45,9.88125 1.57875,1.03 5.2825,-8.09625 4.52875,2.88125 -4.73375,7.3425 1.51,1.02875 4.8025,-7.34125 0,0"
       inkscape:connector-curvature="0" />
    <path
       id="path3035"
       style="fill:#f89e20;fill-opacity:1;fill-rule:evenodd;stroke:none"
       d="m 298.00377,834.7721 -0.75625,1.99125 6.52,2.60625 -0.8925,2.26375 c -0.205,0.48125 -0.41125,0.82375 -0.5475,1.03 -0.20625,0.275 -0.4125,0.54875 -0.755,0.755 -0.27625,0.205 -0.755,0.4125 -1.37375,0.54875 -0.6175,0.20625 -1.44125,0.41125 -2.53875,0.6175 l -3.8425,0.68625 -1.02875,2.47 5.0775,-0.96 c 0.96125,-0.20625 1.785,-0.48125 2.54,-0.8225 0.3425,-0.2075 0.75375,-0.4825 1.23375,-0.89375 -0.34375,1.51 -0.34375,2.745 0.0688,3.70625 0.48,0.96 1.235,1.64625 2.265,2.0575 0.75375,0.34375 1.5775,0.4125 2.47,0.275 0.82375,-0.13625 1.50875,-0.48 2.05875,-1.02875 0.48,-0.6175 1.03,-1.51 1.5775,-2.81375 l 2.60875,-6.51875 -14.685,-5.97 0,0 z m 5.76375,9.47 1.6475,-4.18625 4.87125,1.99 -1.85125,4.5975 c -0.4825,1.0975 -1.03125,1.78375 -1.64875,2.1275 -0.6175,0.34375 -1.3025,0.34375 -1.99,0.0688 -0.48,-0.205 -0.89125,-0.48125 -1.16625,-0.96125 -0.3425,-0.41125 -0.48,-0.8925 -0.41125,-1.44 0,-0.61875 0.20625,-1.305 0.54875,-2.19625 l 0,0"
       inkscape:connector-curvature="0" />
    <path
       id="path3037"
       style="fill:#f89e20;fill-opacity:1;fill-rule:evenodd;stroke:none"
       d="m 294.16002,856.0446 c 0.55125,-0.2075 1.23625,-0.34375 2.06,-0.27625 l 0.205,-1.98875 c -1.02875,-0.13625 -2.0575,0 -2.95,0.34375 -0.96125,0.3425 -1.715,0.96 -2.265,1.8525 -0.6175,0.89125 -1.02875,1.98875 -1.30375,3.43125 -0.20625,1.0975 -0.20625,2.12625 0,3.0875 0.20625,0.96 0.68625,1.7825 1.30375,2.40125 0.6175,0.61875 1.3725,0.96125 2.19625,1.16625 0.82375,0.1375 1.57875,0.0688 2.3325,-0.275 0.755,-0.2725 1.3725,-0.8225 1.99125,-1.645 0.3425,-0.62 0.89125,-1.71625 1.64625,-3.295 0.68625,-1.57875 1.235,-2.53875 1.715,-2.8825 0.4125,-0.3425 0.8925,-0.41 1.50875,-0.27375 0.61875,0.0688 1.09875,0.48125 1.4425,1.16625 0.3425,0.6175 0.41125,1.5775 0.1375,2.81375 -0.20625,1.1675 -0.6175,2.05875 -1.23625,2.60625 -0.61625,0.48125 -1.44,0.6875 -2.47,0.61875 l -0.20625,1.99 c 0.8925,0.1375 1.785,0.0675 2.6075,-0.27375 0.82375,-0.34375 1.51,-0.89375 1.99,-1.71625 0.55,-0.82375 0.96125,-1.785 1.16625,-2.95125 0.2075,-1.02875 0.275,-2.0575 0.07,-2.95 -0.20625,-0.8925 -0.6175,-1.6475 -1.23625,-2.26375 -0.61625,-0.55 -1.3025,-0.89375 -2.0575,-1.09875 -0.68625,-0.13625 -1.37375,-0.0688 -2.05875,0.205 -0.6175,0.2075 -1.23625,0.6875 -1.71625,1.37375 -0.41125,0.48 -0.96,1.44125 -1.5775,2.8125 -0.61875,1.305 -1.09875,2.19625 -1.30375,2.6075 -0.3425,0.61875 -0.755,1.03 -1.16625,1.235 -0.4125,0.20625 -0.8925,0.20625 -1.37375,0.13875 -0.47875,-0.0688 -0.89125,-0.34375 -1.235,-0.6875 -0.3425,-0.3425 -0.61625,-0.89125 -0.685,-1.50875 -0.1375,-0.61875 -0.1375,-1.37375 0,-2.1275 0.205,-0.8925 0.48,-1.71625 0.96,-2.33375 0.48125,-0.61625 0.96,-1.0975 1.50875,-1.3025 l 0,0"
       inkscape:connector-curvature="0" />
    <path
       id="path3039"
       style="fill:#f89e20;fill-opacity:1;fill-rule:evenodd;stroke:none"
       d="m 288.74002,869.56085 -0.1375,2.12875 15.7825,1.3725 0.13625,-2.1275 -15.78125,-1.37375 0,0"
       inkscape:connector-curvature="0" />
    <path
       id="path3041"
       style="fill:#f89e20;fill-opacity:1;fill-rule:evenodd;stroke:none"
       d="m 288.32877,881.0896 0.3425,5.765 c 0.0688,0.89125 0.27375,1.715 0.48,2.47 0.2075,0.75375 0.54875,1.3725 0.8925,1.8525 0.41125,0.48 0.96,0.96 1.57875,1.30375 0.61625,0.41125 1.44,0.755 2.3325,0.96 0.96,0.205 2.05875,0.275 3.225,0.205 1.44125,-0.13625 2.67625,-0.41 3.70625,-0.89125 1.0975,-0.48 1.98875,-1.16625 2.6075,-2.0575 0.48,-0.68625 0.8225,-1.51 0.96,-2.4025 0.0675,-0.68625 0.0675,-1.64625 0,-2.81375 l -0.34375,-5.48875 -15.78125,1.0975 0,0 z m 3.5675,9.12625 c -0.3425,-0.34375 -0.68625,-0.755 -0.8925,-1.30375 -0.205,-0.6175 -0.41125,-1.44125 -0.48,-2.47125 l -0.205,-3.36 12.07625,-0.82375 0.205,3.2925 c 0.07,1.235 0.07,2.1275 -0.13625,2.745 -0.20625,0.755 -0.755,1.44125 -1.64625,2.05875 -0.82375,0.61625 -2.06,1.02875 -3.775,1.09875 -1.16625,0.0688 -2.195,0 -3.01875,-0.20625 -0.89125,-0.205 -1.5775,-0.54875 -2.1275,-1.03 l 0,0"
       inkscape:connector-curvature="0" />
    <path
       id="path3043"
       style="fill:#f89e20;fill-opacity:1;fill-rule:evenodd;stroke:none"
       d="m 290.45502,900.37085 0.54875,2.19625 5.07875,0.4125 1.78375,6.45 -4.18625,2.95 0.61875,2.3325 13.585,-10.2925 -0.5475,-2.26375 -16.88125,-1.785 0,0 z m 7.48,2.745 4.94,0.48125 c 1.03,0.0688 2.12875,0.1375 3.15625,0.0688 -0.755,0.48 -1.715,1.09625 -2.88125,1.92125 l -3.8425,2.74375 -1.3725,-5.215 0,0"
       inkscape:connector-curvature="0" />
    <path
       id="path3045"
       style="fill:#f89e20;fill-opacity:1;fill-rule:evenodd;stroke:none"
       d="m 298.07252,923.29085 2.81375,4.94 c 0.47875,0.82375 1.02875,1.51 1.50875,2.0575 0.54875,0.54875 1.09875,0.96 1.6475,1.235 0.54875,0.275 1.23375,0.48 1.98875,0.55 0.755,0.0688 1.5775,0 2.54,-0.20625 0.89125,-0.205 1.92125,-0.61875 2.95,-1.235 1.235,-0.755 2.1975,-1.5775 2.95,-2.47 0.755,-0.8925 1.1675,-1.8525 1.3725,-2.95 0.2075,-0.82375 0.1375,-1.64875 -0.13625,-2.54 -0.20625,-0.61875 -0.61875,-1.51 -1.23625,-2.6075 l -2.74375,-4.735 -13.655,7.96125 0,0 z m 7.20375,6.58625 c -0.48,-0.1375 -0.89125,-0.41125 -1.37125,-0.8225 -0.48,-0.4125 -1.03,-1.09875 -1.51,-1.9925 l -1.71625,-2.88 10.5,-6.03875 1.715,2.81375 c 0.6175,1.09625 0.96125,1.92125 1.03,2.53875 0.13625,0.8225 -0.0687,1.71625 -0.54875,2.6075 -0.48125,0.89125 -1.4425,1.78375 -2.8825,2.6075 -1.03,0.61625 -1.99,0.96 -2.8825,1.16625 -0.8925,0.205 -1.6475,0.205 -2.33375,0 l 0,0"
       inkscape:connector-curvature="0" />
    <path
       id="path3047"
       style="fill:#f89e20;fill-opacity:1;fill-rule:evenodd;stroke:none"
       d="m 319.61877,941.8171 c -0.54875,0.47875 -0.82375,1.16625 -0.82375,1.92 0,0.75625 0.275,1.37375 0.755,1.9225 0.54875,0.54875 1.16625,0.8225 1.92125,0.8225 0.755,0.07 1.44125,-0.205 1.99,-0.75375 0.5475,-0.48125 0.8225,-1.1675 0.8225,-1.9225 0,-0.75375 -0.275,-1.3725 -0.75375,-1.92125 -0.54875,-0.54875 -1.16625,-0.82375 -1.9225,-0.82375 -0.75375,-0.0675 -1.44,0.2075 -1.98875,0.75625 l 0,0"
       inkscape:connector-curvature="0" />
    <path
       id="path3049"
       style="fill:#f89e20;fill-opacity:1;fill-rule:evenodd;stroke:none"
       d="m 331.21502,948.67835 c 0.8925,-0.5475 1.785,-0.8225 2.81375,-0.755 1.02875,0.0688 1.99,0.41125 2.95,1.16625 0.82375,0.61875 1.3725,1.37375 1.5775,2.265 0.20625,0.82375 0.13875,1.785 -0.27375,2.95125 l 1.92125,0.89125 c 0.5475,-1.44125 0.6175,-2.8125 0.27625,-4.1175 -0.34375,-1.30375 -1.09875,-2.40125 -2.40375,-3.36125 -1.0975,-0.8925 -2.265,-1.44125 -3.5675,-1.6475 -1.305,-0.205 -2.6075,0 -3.8425,0.55 -1.235,0.61625 -2.40125,1.51 -3.43125,2.8125 -0.8925,1.16625 -1.5775,2.46875 -1.92125,3.91125 -0.34375,1.3725 -0.34375,2.675 0.0688,3.8425 0.41125,1.16625 1.30375,2.3325 2.6075,3.3625 1.3025,1.03 2.67625,1.5775 4.1175,1.50875 1.44,0 2.88125,-0.5475 4.3225,-1.64625 l -1.3725,-1.715 c -1.02875,0.8925 -2.0575,1.3725 -3.08875,1.3725 -1.0975,0.0675 -2.125,-0.275 -3.01875,-1.03 -0.755,-0.61625 -1.30375,-1.30375 -1.64625,-2.19625 -0.34375,-0.89125 -0.34375,-1.92125 0,-2.95 0.275,-1.02875 0.8225,-2.05875 1.64625,-3.08625 0.6175,-0.82625 1.3725,-1.51125 2.265,-2.12875 l 0,0"
       inkscape:connector-curvature="0" />
    <path
       id="path3051"
       style="fill:#f89e20;fill-opacity:1;fill-rule:evenodd;stroke:none"
       d="m 337.32127,967.13585 1.99,1.03 3.70625,-3.49875 5.90125,3.01875 -0.55,5.0775 2.12875,1.09875 1.44,-17.01875 -1.99,-1.09625 -12.62625,11.38875 0,0 z m 10.63625,-7.06625 c 0.755,-0.755 1.51,-1.51 2.19625,-2.33375 -0.20625,0.8925 -0.34375,1.99 -0.48,3.43125 l -0.54875,4.66625 -4.80375,-2.40125 3.63625,-3.3625 0,0"
       inkscape:connector-curvature="0" />
    <path
       id="path3053"
       style="fill:#f89e20;fill-opacity:1;fill-rule:evenodd;stroke:none"
       d="m 369.23002,963.4321 -6.79375,-1.92125 -4.3225,15.2325 1.99,0.6175 1.98875,-6.79375 2.33375,0.68625 c 0.48,0.13875 0.89125,0.275 1.0975,0.34375 0.275,0.20625 0.54875,0.41125 0.755,0.68625 0.275,0.275 0.54875,0.68625 0.755,1.30375 0.20625,0.6175 0.48,1.44125 0.8225,2.53875 l 1.09875,3.775 2.53875,0.685 -1.44125,-4.87125 c -0.275,-0.96125 -0.6175,-1.785 -1.0975,-2.54 -0.20625,-0.3425 -0.48,-0.68625 -0.96125,-1.0975 1.51,0.20625 2.74625,0.0688 3.6375,-0.48 0.89125,-0.54875 1.50875,-1.3725 1.78375,-2.40125 0.27375,-0.89375 0.27375,-1.71625 0.0687,-2.47125 -0.20625,-0.82375 -0.68625,-1.51 -1.305,-1.98875 -0.61625,-0.48125 -1.64625,-0.8925 -2.94875,-1.30375 l 0,0 z m -0.41125,1.71375 c 1.165,0.34375 1.92125,0.82375 2.26375,1.4425 0.3425,0.6175 0.48,1.235 0.27375,1.98875 -0.1375,0.48 -0.41125,0.8925 -0.82375,1.235 -0.34375,0.34375 -0.8225,0.55 -1.44125,0.6175 -0.54875,0 -1.3025,-0.13625 -2.195,-0.3425 l -4.3225,-1.235 1.44,-5.07625 4.805,1.37 0,0"
       inkscape:connector-curvature="0" />
    <path
       id="path3055"
       style="fill:#f89e20;fill-opacity:1;fill-rule:evenodd;stroke:none"
       d="m 377.32627,981.4096 9.88125,0.82375 0.1375,-1.85375 -7.75375,-0.68625 1.23375,-13.92875 -2.12625,-0.1375 -1.3725,15.7825 0,0"
       inkscape:connector-curvature="0" />
    <path
       id="path3057"
       style="fill:#f89e20;fill-opacity:1;fill-rule:evenodd;stroke:none"
       d="m 406.96877,980.3121 c 1.0975,-0.755 1.9225,-1.85375 2.4025,-3.15625 0.48,-1.305 0.68625,-2.815 0.48,-4.3925 -0.20625,-1.5775 -0.68625,-2.95125 -1.44125,-4.1175 -0.755,-1.16625 -1.7825,-1.99 -3.02,-2.5375 -1.3025,-0.55 -2.605,-0.755 -4.04625,-0.55 -2.26625,0.20625 -3.98125,1.16625 -5.21625,2.81375 -1.16625,1.64625 -1.64625,3.77375 -1.30375,6.38125 0.1375,1.44125 0.6175,2.67625 1.3725,3.8425 0.75375,1.16625 1.71625,1.99 3.01875,2.6075 1.235,0.55 2.60875,0.755 4.1175,0.55 1.30375,-0.13875 2.54,-0.61875 3.63625,-1.44125 l 0,0 z m -2.5375,-12.5575 c 0.89125,0.41125 1.64625,1.0975 2.19625,1.99 0.54875,0.8925 0.89125,1.98875 1.0275,3.29375 0.275,1.99 -0.0687,3.63625 -0.96,4.8025 -0.8925,1.23625 -2.05875,1.92125 -3.63625,2.1275 -1.51,0.20625 -2.8825,-0.20625 -4.04875,-1.16625 -1.16625,-0.96125 -1.8525,-2.40125 -2.06,-4.25375 -0.2725,-2.4025 0.0688,-4.11875 0.9625,-5.21625 0.96,-1.16625 2.19375,-1.78375 3.63625,-1.99 1.02875,-0.13625 1.99,0 2.8825,0.4125 l 0,0"
       inkscape:connector-curvature="0" />
    <path
       id="path3059"
       style="fill:#f89e20;fill-opacity:1;fill-rule:evenodd;stroke:none"
       d="m 418.01627,964.04835 c 1.16625,-0.3425 2.1275,-0.2725 2.8825,0.0688 0.755,0.34375 1.30375,0.96125 1.64625,1.8525 l 1.92125,-0.61625 c -0.2725,-0.8925 -0.755,-1.6475 -1.44125,-2.19625 -0.61625,-0.61875 -1.44,-0.96125 -2.40125,-1.09875 -0.95875,-0.13625 -1.98875,-0.0675 -3.155,0.275 -1.03,0.275 -1.9225,0.68625 -2.67625,1.235 -0.755,0.61875 -1.235,1.30375 -1.51,2.05875 -0.2075,0.755 -0.275,1.57875 -0.0687,2.33375 0.205,0.685 0.54875,1.30375 1.03,1.78375 0.54875,0.48 1.235,0.75375 2.0575,0.96 0.6175,0.1375 1.715,0.20625 3.15625,0.20625 1.51,-0.0688 2.47125,-0.0688 2.95125,0 0.68625,0.0675 1.235,0.20625 1.64625,0.54875 0.34375,0.27375 0.6175,0.6175 0.755,1.09875 0.0675,0.48 0.0675,0.96 -0.1375,1.44 -0.20625,0.48125 -0.54875,0.8925 -1.02875,1.305 -0.54875,0.3425 -1.235,0.68625 -1.99,0.89125 -0.89125,0.20625 -1.71625,0.275 -2.47125,0.13875 -0.755,-0.07 -1.37125,-0.34375 -1.85125,-0.75625 -0.48125,-0.4125 -0.82375,-0.96125 -1.09875,-1.715 l -1.8525,0.68625 c 0.275,1.02875 0.82375,1.8525 1.57875,2.5375 0.755,0.61875 1.64625,1.03 2.67625,1.16625 1.03,0.20625 2.26375,0.07 3.63625,-0.27375 1.0975,-0.3425 1.99,-0.75375 2.745,-1.3725 0.755,-0.61625 1.3025,-1.37125 1.5775,-2.265 0.27625,-0.8225 0.27625,-1.64625 0.0687,-2.46875 -0.20625,-0.82375 -0.6175,-1.51 -1.16625,-1.99 -0.61875,-0.48125 -1.3725,-0.825 -2.40125,-1.03 -0.68625,-0.13625 -1.92125,-0.13625 -3.6375,-0.0675 -1.78375,0.0675 -2.88125,-0.0687 -3.3625,-0.275 -0.48,-0.2075 -0.82375,-0.61875 -0.96,-1.1675 -0.20625,-0.6175 -0.0688,-1.23375 0.41125,-1.8525 0.4125,-0.6175 1.235,-1.0975 2.47,-1.44125 l 0,0"
       inkscape:connector-curvature="0" />
    <path
       id="path3061"
       style="fill:#f89e20;fill-opacity:1;fill-rule:evenodd;stroke:none"
       d="m 440.86627,969.8121 1.785,-1.0975 -7.89125,-13.65375 -1.85375,1.0275 7.96,13.72375 0,0"
       inkscape:connector-curvature="0" />
    <path
       id="path3063"
       style="fill:#f89e20;fill-opacity:1;fill-rule:evenodd;stroke:none"
       d="m 449.99252,964.2546 1.71625,-1.235 -9.12625,-12.96875 -1.71625,1.235 9.12625,12.96875 0,0"
       inkscape:connector-curvature="0" />
    <path
       id="path3065"
       style="fill:#f89e20;fill-opacity:1;fill-rule:evenodd;stroke:none"
       d="m 449.85627,944.2171 -1.5775,1.37375 10.42875,11.93875 1.57875,-1.37125 -10.43,-11.94125 0,0"
       inkscape:connector-curvature="0" />
    <path
       id="path3067"
       style="fill:#f89e20;fill-opacity:1;fill-rule:evenodd;stroke:none"
       d="m 460.21752,945.45335 c 0.54875,0.54875 1.235,0.82375 1.99,0.755 0.755,0 1.3725,-0.275 1.92125,-0.8225 0.48,-0.55 0.755,-1.16875 0.755,-1.9225 0,-0.755 -0.275,-1.44 -0.82375,-1.9225 -0.54875,-0.5475 -1.235,-0.8225 -1.98875,-0.75375 -0.755,0 -1.37375,0.27375 -1.9225,0.82375 -0.48125,0.54875 -0.755,1.16625 -0.755,1.9225 0,0.75375 0.27375,1.43875 0.82375,1.92 l 0,0"
       inkscape:connector-curvature="0" />
    <path
       id="path3069"
       style="fill:#f89e20;fill-opacity:1;fill-rule:evenodd;stroke:none"
       d="m 471.81377,917.18335 c -0.755,0.34375 -1.44125,0.8225 -2.0575,1.5775 -0.4125,0.48 -0.89375,1.30375 -1.4425,2.40125 l -2.47,4.8725 14.06625,7.205 2.6075,-5.1475 c 0.4125,-0.8225 0.6875,-1.5775 0.8925,-2.3325 0.20625,-0.755 0.20625,-1.44125 0.1375,-2.0575 -0.0675,-0.61875 -0.275,-1.305 -0.6175,-1.99125 -0.34375,-0.61625 -0.82375,-1.3025 -1.51,-1.99 -0.755,-0.61625 -1.64625,-1.235 -2.67625,-1.7825 -1.30375,-0.61875 -2.47,-1.03 -3.63625,-1.1675 -1.16625,-0.1375 -2.26375,0 -3.29375,0.4125 l 0,0 z m -3.3625,7.82125 1.51,-2.95125 c 0.54875,-1.16625 1.02875,-1.92 1.50875,-2.2625 0.61875,-0.55 1.44125,-0.8925 2.47125,-0.96125 1.02875,-0.0688 2.3325,0.275 3.77375,1.03 1.02875,0.48 1.92125,1.0975 2.53875,1.715 0.6175,0.6175 1.02875,1.30375 1.235,1.92125 0.20625,0.48125 0.20625,1.03 0.1375,1.6475 -0.0687,0.61625 -0.41125,1.44 -0.8925,2.3325 l -1.50875,3.02 -10.77375,-5.49125 0,0"
       inkscape:connector-curvature="0" />
    <path
       id="path3071"
       style="fill:#f89e20;fill-opacity:1;fill-rule:evenodd;stroke:none"
       d="m 476.96127,898.72585 -3.15875,10.9775 15.23375,4.39125 3.295,-11.39 -1.785,-0.48 -2.67625,9.33125 -5.21375,-1.50875 2.40125,-8.3725 -1.785,-0.48 -2.40125,8.37125 -4.66625,-1.3725 2.53875,-8.92 -1.7825,-0.5475 0,0"
       inkscape:connector-curvature="0" />
    <path
       id="path3073"
       style="fill:#f89e20;fill-opacity:1;fill-rule:evenodd;stroke:none"
       d="m 477.23377,860.2296 14.20375,2.19625 -12.555,6.7925 0.5475,3.0875 15.57625,-2.745 -0.3425,-1.98875 -13.3125,2.40125 12.49,-6.8625 -0.34375,-1.85125 -13.7925,-2.265 13.0375,-2.3325 -0.34375,-1.92125 -15.645,2.745 0.48,2.74375 0,0"
       inkscape:connector-curvature="0" />
    <path
       id="path3075"
       style="fill:#f89e20;fill-opacity:1;fill-rule:evenodd;stroke:none"
       d="m 483.06752,841.90835 -2.74625,-6.10625 3.6375,-3.6375 -0.96125,-2.195 -11.87125,12.35 0.9625,2.12875 16.9475,-0.89375 -0.89125,-2.0575 -5.0775,0.41125 0,0 z m -1.8525,0.1375 -4.94125,0.27375 c -1.02875,0.0687 -2.1275,0.27625 -3.15625,0.48125 0.685,-0.6175 1.57875,-1.37125 2.6075,-2.4025 l 3.29375,-3.29375 2.19625,4.94125 0,0"
       inkscape:connector-curvature="0" />
    <path
       id="path3077"
       style="fill:#f89e20;fill-opacity:1;fill-rule:evenodd;stroke:none"
       d="m 469.75627,812.74585 c -0.61875,-0.20625 -1.2375,-0.27375 -1.99,-0.27375 -0.755,0.0675 -1.58,0.27375 -2.47125,0.6175 -0.89125,0.3425 -1.85375,0.82375 -2.81375,1.5775 -1.0975,0.8925 -1.99,1.78375 -2.6075,2.81375 -0.6175,1.02875 -0.8925,2.0575 -0.96125,3.15625 -0.0675,0.8925 0.13875,1.71625 0.55,2.53875 0.275,0.6175 0.82375,1.37375 1.5775,2.3325 l 3.36375,4.3225 12.41875,-9.7425 -3.5,-4.52875 c -0.6175,-0.755 -1.16625,-1.30375 -1.78375,-1.785 -0.6175,-0.48 -1.16625,-0.8225 -1.7825,-1.02875 l 0,0 z m 0.5475,2.4025 c 0.48,0.3425 1.0975,0.96 1.71625,1.78375 l 2.0575,2.67625 -9.5375,7.41 -2.05875,-2.6075 c -0.75375,-0.96 -1.235,-1.715 -1.3725,-2.3325 -0.275,-0.755 -0.205,-1.64625 0.1375,-2.67625 0.4125,-0.96 1.235,-1.92125 2.53875,-2.95125 0.96125,-0.755 1.8525,-1.235 2.67625,-1.57875 0.8225,-0.3425 1.57875,-0.41125 2.26375,-0.3425 0.48,0.07 1.03125,0.275 1.57875,0.61875 l 0,0"
       inkscape:connector-curvature="0" />
    <path
       id="path3079"
       style="fill:#f89e20;fill-opacity:1;fill-rule:evenodd;stroke:none"
       d="m 449.58127,802.17835 c -1.3025,-0.75375 -2.53875,-1.03 -3.5675,-0.89125 -1.03,0.205 -1.92125,0.685 -2.6075,1.5775 -0.55,0.6875 -0.89375,1.4425 -0.96125,2.265 -0.0688,0.8225 0.0675,1.57875 0.48125,2.26375 0.34125,0.68625 1.09625,1.44125 2.2625,2.33375 l 5.49,4.3225 9.74375,-12.48875 -1.64625,-1.30375 -4.3225,5.55875 -1.92125,-1.50875 c -0.4125,-0.34375 -0.6875,-0.55 -0.82375,-0.755 -0.20625,-0.275 -0.4125,-0.55 -0.54875,-0.8925 -0.0687,-0.34375 -0.1375,-0.8925 -0.1375,-1.51125 0,-0.61625 0.0688,-1.50875 0.1375,-2.67625 l 0.3425,-3.84125 -2.05875,-1.6475 -0.48125,5.0775 c -0.0675,1.03 -0.0675,1.9225 0.07,2.745 0.0688,0.3425 0.27375,0.825 0.54875,1.3725 l 0,0 z m 0.54875,9.195 -3.97875,-3.0875 c -0.8925,-0.755 -1.4425,-1.44125 -1.57875,-2.1275 -0.0688,-0.755 0.0675,-1.37125 0.54875,-1.99 0.275,-0.41125 0.68625,-0.68625 1.16625,-0.8225 0.48125,-0.20625 1.02875,-0.20625 1.5775,0 0.55,0.20625 1.1675,0.54875 1.92125,1.0975 l 3.56875,2.8125 -3.225,4.1175 0,0"
       inkscape:connector-curvature="0" />
    <path
       id="path3081"
       style="fill:#f89e20;fill-opacity:1;fill-rule:evenodd;stroke:none"
       d="m 441.68877,788.4546 -1.8525,-0.89125 -7.2025,14.0675 1.92125,0.95875 7.13375,-14.135 0,0"
       inkscape:connector-curvature="0" />
    <path
       id="path3083"
       style="fill:#f89e20;fill-opacity:1;fill-rule:evenodd;stroke:none"
       d="m 417.40002,781.11335 c -0.61875,0.47875 -1.23625,1.0975 -1.785,1.8525 -0.6175,0.755 -1.0975,1.715 -1.44125,2.88125 -0.48,1.305 -0.68625,2.6075 -0.61625,3.77375 0,1.1675 0.2725,2.1975 0.89125,3.15625 0.41125,0.755 1.03,1.37375 1.78375,1.85375 0.54875,0.3425 1.44125,0.68625 2.60625,1.0975 l 5.1475,1.78375 5.14625,-14.9575 -5.42125,-1.85375 c -0.89125,-0.3425 -1.71375,-0.54875 -2.46875,-0.6175 -0.755,-0.0675 -1.44125,0 -2.06,0.13875 -0.61625,0.205 -1.16625,0.47875 -1.7825,0.89125 l 0,0 z m -0.4125,11.66375 c -0.6175,-0.5475 -1.02875,-1.3025 -1.23625,-2.3325 -0.205,-1.02875 -0.0675,-2.265 0.48125,-3.8425 0.34375,-1.16625 0.82375,-2.05875 1.3725,-2.81375 0.48125,-0.685 1.0975,-1.16625 1.71625,-1.50875 0.48,-0.20625 1.02875,-0.275 1.64625,-0.275 0.6175,0 1.3725,0.13875 2.40125,0.48125 l 3.1575,1.0975 -3.9125,11.45875 -3.15625,-1.0275 c -1.16625,-0.4125 -1.98875,-0.82375 -2.47,-1.2375 l 0,0"
       inkscape:connector-curvature="0" />
    <path
       id="path3085"
       style="fill:#f89e20;fill-opacity:1;fill-rule:evenodd;stroke:none"
       d="m 391.39377,784.8871 -2.265,0 0.0688,2.19625 2.19625,0 0,-2.19625"
       inkscape:connector-curvature="0" />
    <path
       id="path3087"
       style="fill:#f89e20;fill-opacity:1;fill-rule:evenodd;stroke:none"
       d="m 391.18752,775.62335 -2.19625,0 0.07,2.195 2.19375,0 -0.0675,-2.195 0,0"
       inkscape:connector-curvature="0" />
    <path
       id="path3089"
       style="fill:#231f20;fill-opacity:1;fill-rule:evenodd;stroke:none"
       d="m 369.43502,920.9571 c 0,-0.20625 0.275,-0.48125 0.8925,-0.68625 0.48,-0.275 0.96,-0.41125 1.37125,-0.41125 0.48,0 0.89375,0.13625 1.235,0.48 1.03,0.68625 1.37375,1.3025 1.09875,1.78375 l -0.205,4.11625 0.68625,1.09875 1.99,-0.755 -0.13875,-0.6175 0,-4.52875 c 0,-0.3425 -0.13625,-0.6175 -0.34375,-0.8925 -0.13625,-0.205 -0.5475,-0.685 -1.23375,-1.37125 -0.755,-0.82375 -1.715,-1.03 -2.81375,-0.55 l -2.53875,0.685 c -0.0688,-0.8225 -0.0688,-1.37 -0.0688,-1.645 0,-0.275 -0.205,-0.6875 -0.6175,-1.1675 l -0.54875,-0.47875 -1.92125,0.5475 c 0.13625,0.20625 0.275,0.41125 0.48,0.68625 0.20625,0.27625 0.34375,0.54875 0.41125,0.82375 0.07,4.18625 0.13875,6.655 0.07,7.34125 -0.07,0.6875 -0.48125,1.09875 -1.3725,1.30625 1.02875,0 1.92125,-0.07 2.6075,-0.13875 0.68625,-0.0688 0.96,-0.48 0.82375,-1.1675 0.0675,-2.67625 0.13625,-4.11625 0.13625,-4.45875 l 0,0"
       inkscape:connector-curvature="0" />
    <path
       id="path3091"
       style="fill:#231f20;fill-opacity:1;fill-rule:evenodd;stroke:none"
       d="m 398.87252,919.37835 c -0.54875,-0.48 -1.16625,-0.755 -1.78375,-0.8925 -0.54875,-0.0675 -0.96125,-0.13625 -1.16625,-0.13625 -0.275,-0.0688 -0.55,0 -0.755,0.13625 l -0.68625,0.4125 c -0.20625,0.0675 -0.41125,0.0675 -0.6175,0 -0.4125,-0.1375 -1.02875,-0.275 -1.9225,-0.4125 -0.5475,-0.0675 -0.89125,0.0688 -1.02875,0.275 -0.1375,0.205 -0.4125,0.4125 -0.82375,0.48 0.61875,0.0675 0.96125,0.34375 0.96125,0.755 l 0,6.1075 -0.41125,0.8225 0.89125,0.48 c 1.0975,-0.0675 1.64625,-0.27375 1.71625,-0.7525 0.0675,-0.4825 0.0675,-2.1975 0,-5.28375 0.6175,-1.03 1.09625,-1.51 1.44,-1.51 0.61875,0 1.0975,0.0675 1.30375,0.13625 0.6175,0.1375 1.02875,0.48 1.09875,1.03 0.0687,0.89125 0.13625,2.8125 0.13625,5.9 1.37375,0.4125 2.05875,0.20625 2.05875,-0.5475 0,-0.755 0.07,-2.54 0.1375,-5.21625 0.34375,-0.89125 0.82375,-1.3025 1.4425,-1.3025 1.5775,0 2.33125,0.48 2.4,1.44125 0.0687,0.54875 0,1.5775 -0.0688,3.0175 l -0.0688,2.33375 c 0,0.27375 0.20625,0.48 0.55,0.6175 l 1.71375,0 0.6875,-0.5475 c -0.34375,0.0675 -0.6175,-0.07 -0.6875,-0.4825 -0.0675,-0.41125 -0.0675,-1.99 0.07,-4.665 -0.20625,-1.09875 -0.55,-1.85375 -1.0975,-2.19625 l -0.6175,-0.48 c -0.27625,-0.205 -0.48125,-0.34375 -0.68625,-0.4125 -0.6175,-0.275 -1.3725,-0.275 -2.195,0.0688 -1.305,0.4825 -1.99125,0.75375 -1.99125,0.82375 l 0,0"
       inkscape:connector-curvature="0" />
    <path
       id="path3093"
       style="fill:#231f20;fill-opacity:1;fill-rule:evenodd;stroke:none"
       d="m 388.64877,921.6421 c -0.1375,-1.3025 -1.30375,-2.40125 -3.43125,-3.2925 -0.96125,-0.41125 -1.92125,-0.48125 -2.95,-0.13875 l -3.02,1.71625 c -1.16625,1.30375 -1.51,2.745 -0.96125,4.3225 0.34375,1.03 1.03,1.85375 1.92125,2.4725 0.6175,0.41 1.37375,0.8225 2.4025,1.165 1.02875,0.34375 2.47,-0.20625 4.46,-1.6475 0.6175,-0.48 1.02875,-1.0975 1.30375,-1.99 0.34375,-0.89125 0.4125,-1.715 0.275,-2.6075 l 0,0 z m -5.28375,-1.92125 2.195,1.09875 c 1.02875,0.68625 1.44125,1.6475 1.16625,2.8825 -0.27375,1.3025 -0.61625,2.0575 -0.96,2.26375 -0.96125,0.75625 -1.8525,0.82375 -2.6075,0.34375 -0.755,-0.48125 -1.5775,-1.23625 -2.47,-2.19625 -0.8925,-1.16625 -0.96125,-2.1275 -0.20625,-2.8825 l 1.16625,-1.16625 c 0.41125,-0.6175 0.96125,-0.68625 1.71625,-0.34375 l 0,0"
       inkscape:connector-curvature="0" />
    <path
       id="path3095"
       style="fill:#231f20;fill-opacity:1;fill-rule:evenodd;stroke:none"
       d="m 366.27877,926.37835 c 0.13625,0.205 0.275,0.41125 0.48,0.68625 0.20625,0.27375 0.34375,0.5475 0.41125,0.8225 0.07,4.18625 0.13875,6.65625 0.07,7.3425 -0.07,0.68625 -0.48125,1.0975 -1.3725,1.3025 1.02875,0 1.92125,-0.0675 2.6075,-0.13625 0.68625,-0.0688 0.96,-0.48 0.82375,-1.16625 0.0675,-2.6075 0.13625,-4.05 0.13625,-4.3925 0,-0.205 0.275,-0.48 0.8925,-0.755 0.48,-0.205 0.96,-0.34125 1.37125,-0.34125 0.48,0 0.89375,0.13625 1.235,0.47875 1.03,0.6875 1.37375,1.30375 1.09875,1.78375 l -0.205,4.04875 0.68625,1.09875 1.99,-0.755 -0.13875,-0.61875 0,-4.45875 c 0,-0.3425 -0.13625,-0.6175 -0.34375,-0.96125 -0.13625,-0.205 -0.5475,-0.61625 -1.23375,-1.3025 -0.755,-0.8925 -1.715,-1.03 -2.81375,-0.55 l -2.53875,0.68625 c -0.0688,-0.89125 -0.0688,-1.44125 -0.0688,-1.715 0,-0.275 -0.205,-0.68625 -0.6175,-1.16625 l -0.54875,-0.48125 -1.92125,0.55 0,0"
       inkscape:connector-curvature="0" />
    <path
       id="path3097"
       style="fill:#231f20;fill-opacity:1;fill-rule:evenodd;stroke:none"
       d="m 387.27627,928.6421 c -0.1375,0.205 -0.4125,0.4125 -0.82375,0.48 0.6175,0.0687 0.96,0.34375 0.96,0.755 l 0,6.03875 -0.41125,0.82375 0.8925,0.48 c 1.0975,-0.0688 1.64625,-0.275 1.715,-0.755 0.0688,-0.48125 0.0688,-2.19625 0,-5.215 0.54875,-1.03 1.03,-1.50875 1.3725,-1.50875 0.68625,0 1.1675,0 1.3725,0.0675 0.6175,0.1375 1.03,0.48 1.0975,1.09875 0.0687,0.89125 0.1375,2.8125 0.1375,5.8325 1.3725,0.41125 2.05875,0.205 2.05875,-0.55 0,-0.755 0.0688,-2.47 0.13625,-5.14625 0.34375,-0.89125 0.82375,-1.3025 1.44125,-1.3025 1.57875,0 2.33375,0.47875 2.40125,1.43875 0,0.4825 0,1.51125 -0.0675,2.9525 l -0.0687,2.3325 c 0,0.275 0.205,0.48 0.54875,0.61875 l 1.715,0 0.6875,-0.55125 c -0.34375,0.0688 -0.6175,-0.0675 -0.6875,-0.48 -0.0675,-0.41125 -0.0675,-1.92 0.07,-4.59625 -0.2075,-1.09875 -0.54875,-1.85375 -1.09875,-2.19625 l -0.61875,-0.48 c -0.2725,-0.2075 -0.48,-0.4125 -0.685,-0.48 -0.6175,-0.275 -1.3725,-0.2075 -2.19625,0.13625 -1.3025,0.48 -1.98875,0.755 -1.98875,0.82375 -0.55,-0.48 -1.16625,-0.755 -1.785,-0.8925 -0.5475,-0.13625 -0.96,-0.205 -1.16625,-0.205 -0.275,0 -0.54875,0.0688 -0.82375,0.205 l -0.6175,0.34375 c -0.205,0.0687 -0.48,0.13625 -0.685,0.0687 -0.34375,-0.1375 -0.96125,-0.275 -1.85375,-0.4125 -0.54875,-0.0675 -0.8925,0.0687 -1.02875,0.275 l 0,0"
       inkscape:connector-curvature="0" />
    <path
       id="path3099"
       style="fill:#231f20;fill-opacity:1;fill-rule:evenodd;stroke:none"
       d="m 380.68877,928.0246 -3.02,1.78375 c -1.165,1.30375 -1.50875,2.67625 -0.96,4.255 0.3425,1.02875 1.02875,1.8525 1.92125,2.5375 0.6175,0.41375 1.3725,0.75625 2.4025,1.09875 1.0275,0.3425 2.46875,-0.20625 4.45875,-1.6475 0.61875,-0.48 1.03,-1.0975 1.305,-1.98875 0.27375,-0.8925 0.3425,-1.71625 0.27375,-2.54 -0.1375,-1.30375 -1.30375,-2.40125 -3.43125,-3.2925 -0.96,-0.48125 -1.92125,-0.55 -2.95,-0.20625 l 0,0 z m -0.6175,1.92125 c 0.41125,-0.61875 0.96125,-0.68625 1.71625,-0.34375 l 2.19375,1.09875 c 1.03,0.68625 1.44125,1.64625 1.1675,2.8825 -0.27375,1.235 -0.6175,1.98875 -0.96125,2.19375 -0.96,0.755 -1.8525,0.82375 -2.60625,0.34375 -0.75625,-0.48 -1.57875,-1.235 -2.47,-2.19625 -0.8925,-1.09625 -0.96125,-2.0575 -0.2075,-2.8125 l 1.1675,-1.16625 0,0"
       inkscape:connector-curvature="0" />
    <path
       id="path3101"
       style="fill:#231f20;fill-opacity:1;fill-rule:evenodd;stroke:none"
       d="m 404.50002,930.1521 c -0.34375,-1.0975 -0.61875,-1.71625 -0.82375,-1.92125 -0.2075,-0.20625 -0.755,-0.0688 -1.6475,0.34125 0.4125,0.825 0.6175,1.51 0.6175,1.99125 0,0.48 0.0687,2.195 0.13625,5.14625 -0.0675,0.41125 0,0.755 0.27625,0.96125 0.27375,0.205 0.68625,0.34375 1.16625,0.34375 l 1.02875,-0.55 c -0.41125,-0.20625 -0.6175,-0.48125 -0.54875,-0.6875 0.0688,-0.205 0,-2.125 -0.205,-5.625 l 0,0"
       inkscape:connector-curvature="0" />
    <path
       id="path3103"
       style="fill:#231f20;fill-opacity:1;fill-rule:evenodd;stroke:none"
       d="m 405.11752,929.0546 0.205,0.41125 c 0.13625,0.275 0.275,0.61625 0.41125,1.03 l 0,5.625 c 0,0.55 -0.13625,0.82375 -0.34375,0.82375 0.4125,0.07 0.825,0.07 1.1675,0.07 0.20625,0 0.41125,0 0.54875,-0.07 l 0.34375,-0.1375 c 0.13625,0 0.205,-0.205 0.27375,-0.54875 l 0.07,-0.48125 c -0.07,-3.36 -0.07,-5.145 0.0675,-5.42 0.275,-0.48 1.09875,-0.68625 2.47,-0.54875 1.03,0.0688 1.57875,0.8925 1.71625,2.40125 -0.1375,2.40125 -0.20625,3.77375 -0.20625,4.1175 0,0.205 0.1375,0.48 0.3425,0.6875 0.20625,0.205 0.41125,0.3425 0.61875,0.41125 0.2725,0.0675 0.685,0.0675 1.235,-0.1375 0.0675,-0.34375 0,-0.54875 -0.2075,-0.6175 -0.20375,-0.07 -0.2725,-0.34375 -0.20375,-0.6875 0.20375,-2.675 0.27375,-4.2525 0.27375,-4.665 0,-0.68625 -0.1375,-1.16625 -0.3425,-1.51 -0.2075,-0.275 -0.4825,-0.54875 -0.9625,-0.8925 -0.47875,-0.34375 -0.95875,-0.61625 -1.44125,-0.82375 -0.61625,-0.2725 -1.645,0.13875 -3.155,1.235 -0.34375,-0.205 -0.68625,-0.48 -0.96,-0.8225 -0.275,-0.3425 -0.89375,-0.1375 -1.92125,0.55 l 0,0"
       inkscape:connector-curvature="0" />
    <path
       id="path3105"
       style="fill:#231f20;fill-opacity:1;fill-rule:evenodd;stroke:none"
       d="m 416.23252,928.23085 c -0.20625,-0.20625 -0.75375,-0.0688 -1.6475,0.34125 0.4125,0.825 0.61875,1.51 0.61875,1.99125 0,0.48 0.0675,2.195 0.13625,5.14625 -0.0687,0.41125 0,0.755 0.275,0.96125 0.275,0.205 0.68625,0.34375 1.16625,0.34375 l 1.03,-0.55 c -0.41125,-0.20625 -0.61875,-0.48125 -0.55,-0.6875 0.07,-0.205 0,-2.125 -0.205,-5.625 -0.3425,-1.0975 -0.6175,-1.71625 -0.82375,-1.92125 l 0,0"
       inkscape:connector-curvature="0" />
    <path
       id="path3107"
       style="fill:#231f20;fill-opacity:1;fill-rule:evenodd;stroke:none"
       d="m 370.05252,938.24835 c 0.20625,0 0.6175,0.1375 1.37125,0.48 0.755,0.34375 1.16875,0.54875 1.37375,0.61875 l 1.16625,-0.61875 c -0.755,-0.755 -1.30375,-1.16625 -1.71375,-1.235 -0.0713,0 -0.2075,-0.0675 -0.27625,-0.1375 l -0.0675,-0.13625 c -0.0688,-0.0688 -0.4125,0 -1.03,0.27375 l -1.715,0.82375 c -0.48125,0.20625 -0.755,0.48 -0.89375,0.755 -0.0675,0.0688 -0.20375,0.275 -0.41125,0.6175 -0.205,0.3425 -0.41125,0.6175 -0.48,0.82375 -0.20625,0.755 0.20625,1.5775 1.235,2.40125 l 2.54,0.68625 c 0.48,0.13625 0.8225,0.41125 1.0275,0.82375 l 0.55,0.96 c 0.0688,0.20625 -0.13625,0.48125 -0.47875,0.755 -0.4825,0.27375 -0.9625,0.4125 -1.51,0.48125 -0.61875,0.0675 -1.03,-0.0688 -1.09875,-0.4125 l -0.275,-1.02875 -1.44125,0.205 c -0.13625,1.30375 0.6175,1.99125 2.19625,2.05875 1.16625,-0.20625 1.99,-0.41125 2.33375,-0.6175 0.27375,-0.0687 0.47875,-0.27375 0.685,-0.54875 l 0.61875,-0.755 c 0.205,-0.3425 0.3425,-0.755 0.27375,-1.16625 0,-0.61875 -0.0687,-0.96125 -0.205,-1.16625 -0.13875,-0.20625 -0.48125,-0.48125 -1.03,-0.75625 -0.755,-0.48 -1.715,-0.8225 -2.88125,-1.0975 -0.8925,-0.6175 -1.1675,-1.30375 -0.825,-1.92 0.34375,-0.61875 0.68625,-1.03 0.96125,-1.1675 l 0,0"
       inkscape:connector-curvature="0" />
    <path
       id="path3109"
       style="fill:#231f20;fill-opacity:1;fill-rule:evenodd;stroke:none"
       d="m 389.74502,938.72835 c 0.61875,-0.48 1.305,-0.5475 1.99125,-0.205 1.09875,0.54875 1.78375,0.82375 2.05875,0.8925 l 1.0975,-0.6875 c -0.89125,-1.235 -2.1275,-1.645 -3.8425,-1.235 -1.3725,0.34375 -2.53875,0.96125 -3.43,1.78375 -1.03125,0.96125 -1.51,2.05875 -1.4425,3.29375 0.20625,2.54 1.1675,4.05 2.81375,4.52875 0.82375,0.205 1.78375,0.27625 2.8825,0.205 1.03,-0.0675 1.715,-0.2725 2.1275,-0.47875 0.48,-0.34375 0.75375,-0.54875 0.8225,-0.68625 0.20625,-0.20625 0.34375,-0.34375 0.34375,-0.54875 -0.07,-0.275 -0.20625,-0.54875 -0.4125,-0.755 l -0.89125,0.0687 -0.6175,0.68625 c -0.07,0.48 -0.3425,0.8225 -0.825,0.89125 -0.61625,0.13875 -1.23375,0.13875 -1.85125,0 -0.96125,-0.205 -1.57875,-0.8225 -1.78375,-1.715 -0.20625,-1.03 -0.34375,-1.99 -0.34375,-2.8825 0,-0.755 0.0688,-1.37125 0.275,-1.8525 0.27375,-0.54875 0.61625,-0.96 1.0275,-1.30375 l 0,0"
       inkscape:connector-curvature="0" />
    <path
       id="path3111"
       style="fill:#231f20;fill-opacity:1;fill-rule:evenodd;stroke:none"
       d="m 379.66002,937.28835 -1.03,1.02875 c 1.305,1.785 1.92125,3.01875 1.99,3.6375 -0.20625,0.0688 -0.48,0.0688 -0.82375,0.13625 -0.61625,0.0687 -1.16625,0.205 -1.64625,0.4125 -1.57875,0.54875 -2.40125,1.50875 -2.47,2.8825 0,0.48 0.0687,0.75375 0.13625,0.8225 0.1375,0.205 0.48,0.48 0.96,0.755 0.6875,0.34375 1.37375,0.4125 1.99125,0.27375 0.34375,-0.0688 0.755,-0.27375 1.3725,-0.61625 l 0.41125,-0.34375 0.41125,-0.20625 c 0.20625,-0.0687 0.48125,0 0.68625,0.20625 l 1.03,1.03 c 0.205,0 0.54875,-0.07 1.03,-0.2075 0.34125,-0.0675 0.685,-0.20625 0.89125,-0.41125 -0.0687,-0.0675 -0.275,-0.3425 -0.48,-0.68625 -0.20625,-0.41125 -0.48125,-1.3025 -0.755,-2.6075 -0.34375,-1.30375 -0.48125,-2.05875 -0.55,-2.195 l -0.2725,-0.48125 -0.34375,-0.82375 c -0.34375,-0.68625 -0.68625,-1.235 -1.03,-1.5775 -0.6175,-0.54875 -1.0975,-0.89125 -1.50875,-1.02875 l 0,0 z m -0.48,8.92 c -0.48125,-0.0688 -0.89375,-0.275 -1.305,-0.6175 -0.61625,-0.48 -0.54875,-1.16625 0.275,-2.0575 0.3425,-0.4125 0.89125,-0.55 1.5775,-0.4125 0.34375,0.13625 0.6175,0.27375 0.82375,0.3425 0.20625,0.07 0.41125,0.54875 0.48125,1.30375 0.0675,0.275 0,0.48 -0.07,0.68625 -0.1375,0.20625 -0.3425,0.4125 -0.6175,0.6175 -0.3425,0.20625 -0.685,0.20625 -1.165,0.1375 l 0,0"
       inkscape:connector-curvature="0" />
    <path
       id="path3113"
       style="fill:#231f20;fill-opacity:1;fill-rule:evenodd;stroke:none"
       d="m 412.87002,938.3171 c -0.6175,-0.55 -1.165,-0.89125 -1.5775,-1.02875 l -1.03,1.02875 c 1.305,1.785 1.99,3.01875 2.05875,3.63625 -0.205,0.07 -0.48,0.07 -0.82375,0.1375 -0.61625,0.0687 -1.16625,0.205 -1.64625,0.4125 -1.5775,0.54875 -2.47,1.50875 -2.53875,2.88125 0.0687,0.48125 0.1375,0.755 0.20625,0.82375 0.0675,0.205 0.41125,0.48 0.89125,0.755 0.68625,0.34125 1.3725,0.4125 2.06,0.27375 0.34125,-0.0688 0.75375,-0.27375 1.3025,-0.61625 l 0.8225,-0.55 c 0.2075,-0.0687 0.48,0 0.755,0.20625 l 1.03,1.0275 c 0.205,0 0.54875,-0.0675 1.03,-0.205 0.34125,-0.0675 0.685,-0.20625 0.89125,-0.41125 -0.0687,-0.0675 -0.275,-0.3425 -0.48,-0.68625 -0.20625,-0.41125 -0.48125,-1.3025 -0.82375,-2.6075 -0.27375,-1.30375 -0.4125,-2.05875 -0.48,-2.195 l -0.275,-0.48125 -0.3425,-0.82375 c -0.3425,-0.68625 -0.68625,-1.235 -1.03,-1.5775 l 0,0 z m -3.36125,7.27375 c -0.6175,-0.48 -0.48,-1.16625 0.27375,-2.0575 0.34375,-0.4125 0.8925,-0.55 1.57875,-0.4125 0.34375,0.13625 0.68625,0.27375 0.89125,0.3425 0.20625,0.07 0.3425,0.54875 0.48125,1.30375 0,0.275 -0.07,0.48 -0.13875,0.68625 -0.0675,0.20625 -0.27375,0.4125 -0.5475,0.6175 -0.3425,0.20625 -0.68625,0.20625 -1.16625,0.1375 -0.48125,-0.0688 -0.8925,-0.275 -1.3725,-0.6175 l 0,0"
       inkscape:connector-curvature="0" />
    <path
       id="path3115"
       style="fill:#231f20;fill-opacity:1;fill-rule:evenodd;stroke:none"
       d="m 405.73377,939.8271 -1.02875,-1.44125 c -0.3425,-0.48 -0.82375,-0.68625 -1.44125,-0.68625 -0.68625,0 -1.3725,0.0675 -2.05875,0.20625 -0.755,0.0675 -1.235,0.205 -1.44,0.3425 -0.20625,0.0688 -0.41125,0 -0.6875,-0.20625 -0.3425,-0.275 -0.54875,-0.41125 -0.6175,-0.3425 -0.205,0.0675 -0.75375,0.3425 -1.51,0.755 0.34375,0.27375 0.55,0.68625 0.55,1.30375 0,0.6175 0,2.95 -0.07,6.99875 l -0.34125,0.5475 2.60625,0 0.13875,-1.57625 c 0.89125,-0.1375 1.51,0 1.8525,0.3425 0.0675,0.0688 0.205,0.3425 0.5475,0.8225 0.2075,0.275 0.4125,0.41125 0.75625,0.4825 0.5475,0.0675 1.3025,0.0675 2.26375,0 -0.34375,-0.27625 -0.68625,-0.55 -1.02875,-0.82375 -0.34375,-0.275 -0.68625,-0.82375 -1.16625,-1.6475 1.5775,-1.1675 2.4,-1.99 2.60625,-2.47125 0.2075,-0.48 0.34375,-0.8925 0.4125,-1.0975 0.0675,-0.54875 0,-1.02875 -0.34375,-1.50875 l 0,0 z m -4.94,-0.41125 c 0.48125,-0.0688 1.0975,-0.0688 1.8525,0.13625 0.20625,0.0688 0.4125,0.3425 0.6175,0.68625 0.205,0.275 0.34375,0.54875 0.4125,0.89125 0.0688,0.275 0,0.755 -0.2075,1.37375 -0.205,0.6175 -0.47875,1.0975 -0.75375,1.3725 -0.205,0.205 -0.54875,0.34125 -0.96125,0.34125 l -0.89,0 c -0.34375,0 -0.7575,-0.27375 -1.305,-0.89125 l -0.0687,-3.3625 c 0.48,-0.27375 0.96,-0.48 1.30375,-0.5475 l 0,0"
       inkscape:connector-curvature="0" />
    <path
       id="path3117"
       style="fill:#231f20;fill-opacity:1;fill-rule:evenodd;stroke:none"
       d="m 388.03127,948.47335 c -0.41125,-0.48125 -0.8925,-0.68625 -1.51,-0.68625 -0.68625,0 -1.3725,0.0688 -2.0575,0.13625 -0.755,0.1375 -1.23625,0.275 -1.4425,0.41125 -0.20625,0.0688 -0.41125,0 -0.68625,-0.20375 -0.3425,-0.275 -0.5475,-0.4125 -0.6175,-0.34375 -0.205,0.0688 -0.755,0.34375 -1.51,0.755 0.34375,0.27375 0.55,0.68625 0.55,1.3025 0,0.61875 0,2.8825 -0.0688,6.93 l -0.34375,0.55 2.60875,0 0.13625,-1.5775 c 0.89125,-0.13875 1.51,0 1.85375,0.34125 0.0675,0.07 0.205,0.34375 0.5475,0.825 0.20625,0.3425 0.4125,0.48 0.755,0.48 0.55,0.0675 1.305,0.0675 2.265,0 -0.34375,-0.275 -0.68625,-0.55 -1.03,-0.82375 -0.3425,-0.27375 -0.685,-0.8225 -1.16625,-1.6475 1.57875,-1.16625 2.4025,-1.99 2.6075,-2.40125 0.275,-0.54875 0.41125,-0.96 0.41125,-1.16625 0.0687,-0.48 0,-0.96 -0.3425,-1.44125 l -0.96,-1.44125 0,0.001 z m -1.51,1.85125 c 0.205,0.275 0.3425,0.55 0.41125,0.8925 0.0687,0.20625 0,0.6875 -0.20625,1.30375 -0.205,0.61875 -0.48,1.09875 -0.75375,1.3725 -0.20625,0.20625 -0.55,0.34375 -0.96125,0.4125 l -0.48,-0.0687 -0.41125,0 c -0.34375,0 -0.755,-0.275 -1.305,-0.8925 l -0.0675,-3.29375 c 0.48,-0.275 0.96125,-0.48125 1.3025,-0.54875 0.48125,-0.1375 1.09875,-0.0688 1.85375,0.1375 0.20625,0.0688 0.41125,0.27375 0.6175,0.685 l 0,0"
       inkscape:connector-curvature="0" />
    <path
       id="path3119"
       style="fill:#231f20;fill-opacity:1;fill-rule:evenodd;stroke:none"
       d="m 404.70502,949.70835 1.1675,-0.61875 c -0.755,-0.755 -1.305,-1.16625 -1.71625,-1.23375 -0.13625,-0.0688 -0.205,-0.0688 -0.275,-0.1375 l -0.0687,-0.20625 c -0.0675,-0.0688 -0.41125,0.0688 -1.03,0.34375 l -1.71375,0.75375 c -0.48,0.20625 -0.82375,0.48 -0.8925,0.82375 -0.07,0.0688 -0.20625,0.275 -0.41125,0.6175 -0.20625,0.34375 -0.41125,0.6175 -0.48125,0.82375 -0.20625,0.755 0.20625,1.51 1.23625,2.3325 l 2.47,0.68625 c 0.54875,0.20625 0.89125,0.48 1.0975,0.82375 l 0.54875,1.03 c 0.0687,0.205 -0.13625,0.47875 -0.48,0.685 -0.48,0.3425 -0.96125,0.48125 -1.51,0.55 -0.6175,0.0675 -1.03,-0.13875 -1.0975,-0.48125 l -0.27375,-1.02875 -1.44125,0.205 c -0.13875,1.305 0.61625,1.99 2.195,2.05875 1.16625,-0.20625 1.9225,-0.41125 2.33375,-0.54875 0.27375,-0.1375 0.48,-0.34375 0.685,-0.6175 l 0.6175,-0.755 c 0.2075,-0.3425 0.34375,-0.68625 0.27625,-1.16625 -0.0687,-0.54875 -0.13875,-0.8925 -0.2075,-1.0975 -0.13625,-0.275 -0.48,-0.55 -1.02875,-0.82375 -0.75375,-0.41125 -1.715,-0.755 -2.88125,-1.03 -0.8925,-0.6175 -1.1675,-1.3025 -0.82375,-1.92125 0.34375,-0.6175 0.68625,-1.03 0.95875,-1.16625 0.2075,0 0.61875,0.13625 1.37375,0.48 0.755,0.34375 1.1675,0.55 1.3725,0.61875 l 0,0"
       inkscape:connector-curvature="0" />
    <path
       id="path3121"
       style="fill:#231f20;fill-opacity:1;fill-rule:evenodd;stroke:none"
       d="m 397.56877,949.43335 -0.13875,-0.755 c -0.41125,-0.48 -0.95875,-0.755 -1.71375,-0.8225 -0.48,-0.0688 -0.82375,-0.0688 -1.03,0 l -1.3725,0.75375 c -1.165,0.61875 -1.92,1.09875 -2.3325,1.51 -0.8225,0.755 -1.16625,1.715 -1.0975,2.8125 0.0687,1.1675 0.205,1.99 0.4125,2.33375 0.0675,0.20625 0.41125,0.6175 1.02875,1.16625 0.54875,0.55 1.3025,0.8925 2.195,1.02875 0.8925,0.20625 1.6475,0.1375 2.3325,-0.13625 1.23625,-0.48125 1.92125,-0.96125 2.06,-1.305 0.205,-0.68625 0.205,-1.0275 -0.13875,-1.0275 -0.205,0 -0.41125,0.205 -0.685,0.61625 -0.34375,0.48 -0.6175,0.6875 -0.825,0.755 -0.205,0.0688 -0.48,0.0688 -0.8225,0 -0.41125,-0.0675 -0.82375,-0.1375 -1.16625,-0.275 -0.96125,-0.48 -1.51,-1.235 -1.715,-2.2625 1.02875,-0.755 2.40125,-1.16875 4.1175,-1.09875 0.0675,0 0.0675,0 0.13625,-0.07 l 0.275,-0.2725 c 0.205,-0.275 0.0687,-0.4125 -0.275,-0.4125 -2.6075,0 -4.18625,-0.1375 -4.80375,-0.48125 -0.0688,0 0.07,-0.205 0.275,-0.61625 0.20625,-0.48 0.48,-0.755 0.68625,-0.96125 l 0.82375,-0.6875 c 0.3425,-0.205 0.6175,-0.205 0.89125,-0.13625 0.34375,0.13625 0.8925,0.34375 1.6475,0.68625 l 1.235,-0.3425 0,0"
       inkscape:connector-curvature="0" />
    <path
       id="path3123"
       style="fill:#231f20;fill-opacity:1;fill-rule:evenodd;stroke:none"
       d="m 414.79252,918.3496 c -0.9625,-0.41125 -1.99,-0.48125 -3.02,-0.13875 l -3.01875,1.71625 c -1.1675,1.30375 -1.51,2.745 -0.96,4.3225 0.3425,1.03 1.0275,1.85375 1.92125,2.4725 0.61625,0.41 1.43875,0.8225 2.40125,1.165 1.02875,0.34375 2.53875,-0.20625 4.52875,-1.6475 0.61625,-0.48 1.02875,-1.09625 1.30375,-1.99 0.27375,-0.89125 0.3425,-1.715 0.27375,-2.6075 -0.20625,-1.3025 -1.30375,-2.40125 -3.43,-3.2925 l 0,0 z m -3.63875,1.715 c 0.41375,-0.6175 1.03,-0.68625 1.785,-0.34375 l 2.19625,1.09875 c 1.03,0.68625 1.44125,1.6475 1.16625,2.8825 -0.275,1.3025 -0.6175,2.0575 -0.96125,2.26375 -0.96,0.75625 -1.85125,0.82375 -2.60625,0.34375 -0.82375,-0.48125 -1.6475,-1.23625 -2.53875,-2.19625 -0.8925,-1.16625 -0.96125,-2.1275 -0.20625,-2.8825 l 1.165,-1.16625 0,0"
       inkscape:connector-curvature="0" />
    <g
       id="g3125"
       transform="matrix(0.125,0,0,-0.125,19.620017,1405.0746)">
      <path
         id="path3127"
         style="fill:none;stroke:#231f20;stroke-width:1.09898996;stroke-linecap:round;stroke-linejoin:round;stroke-miterlimit:2.61310005;stroke-opacity:1;stroke-dasharray:none"
         d="m 2773.27,3748.34 0,159.19 m 118.57,-77.96 0,53.26 m 235.5,-53.26 0,53.26 m -247.57,-131.2 0,53.24 m 165.77,-142.17 0,61.48 m -133.39,-143.82 0,61.48"
         inkscape:connector-curvature="0" />
    </g>
    <path
       id="path3129"
       style="fill:none;stroke:#231f20;stroke-width:0.06849463;stroke-linecap:round;stroke-linejoin:round;stroke-miterlimit:2.61310005;stroke-opacity:1;stroke-dasharray:none"
       d="m 383.36502,943.0521 -0.8225,-4.46 -2.815,-1.09875 m 35.4075,5.8325 -0.8225,-4.46125 -2.815,-1.09625 m -18.38875,18.39 0,-6.1075"
       inkscape:connector-curvature="0" />
  </g>
</svg>
