<?xml version="1.0" encoding="UTF-8" standalone="no"?>
<!-- Created with Inkscape (http://www.inkscape.org/) -->

<svg
   xmlns:dc="http://purl.org/dc/elements/1.1/"
   xmlns:cc="http://creativecommons.org/ns#"
   xmlns:rdf="http://www.w3.org/1999/02/22-rdf-syntax-ns#"
   xmlns:svg="http://www.w3.org/2000/svg"
   xmlns="http://www.w3.org/2000/svg"
   xmlns:sodipodi="http://sodipodi.sourceforge.net/DTD/sodipodi-0.dtd"
   xmlns:inkscape="http://www.inkscape.org/namespaces/inkscape"
   width="241.93153"
   height="240.92139"
   id="svg2"
   version="1.1"
   inkscape:version="0.48.4 r9939"
   sodipodi:docname="uc3m_logo_light.svg"
   inkscape:export-filename="uc3m_logo_light.png"
   inkscape:export-xdpi="223.2"
   inkscape:export-ydpi="223.2">
  <defs
     id="defs4" />
  <sodipodi:namedview
     id="base"
     pagecolor="#ffffff"
     bordercolor="#666666"
     borderopacity="1.0"
     inkscape:pageopacity="0.0"
     inkscape:pageshadow="2"
     inkscape:zoom="3.000849"
     inkscape:cx="117.5736"
     inkscape:cy="96.031801"
     inkscape:document-units="px"
     inkscape:current-layer="layer2"
     showgrid="false"
     fit-margin-top="0"
     fit-margin-left="0"
     fit-margin-right="0"
     fit-margin-bottom="0"
     inkscape:window-width="1920"
     inkscape:window-height="1017"
     inkscape:window-x="-4"
     inkscape:window-y="-4"
     inkscape:window-maximized="1"
     showborder="true"
     inkscape:showpageshadow="false" />
  <metadata
     id="metadata7">
    <rdf:RDF>
      <cc:Work
         rdf:about="">
        <dc:format>image/svg+xml</dc:format>
        <dc:type
           rdf:resource="http://purl.org/dc/dcmitype/StillImage" />
        <dc:title />
      </cc:Work>
    </rdf:RDF>
  </metadata>
  <g
     inkscape:groupmode="layer"
     id="layer2"
     inkscape:label="BG"
     style="display:inline"
     transform="translate(0.50507629,-0.52870327)">
    <rect
       style="color:#000000;fill:#803300;fill-opacity:1;fill-rule:nonzero;stroke:none;stroke-width:1;marker:none;visibility:visible;display:inline;overflow:visible;enable-background:accumulate"
       id="rect3050"
       width="241.93153"
       height="240.92139"
       x="-0.50507629"
       y="0.52870327" />
  </g>
  <g
     inkscape:groupmode="layer"
     id="layer3"
     inkscape:label="logo"
     style="display:inline"
     transform="translate(0.50507629,-0.52870327)">
    <g
       id="g4059">
      <path
         id="path2999"
         d="m 120.46875,12.343751 c -11.01281,0 -21.635586,1.556406 -31.90625,4.75 -2.567666,0.798398 -5.101494,1.718445 -7.625,2.71875 -0.841169,0.333435 -1.694922,0.675312 -2.53125,1.03125 -1.174546,0.497215 -2.318974,1.028181 -3.46875,1.5625 -0.02973,0.01402 -0.06403,0.0172 -0.09375,0.03125 -0.0086,0.004 -0.02264,-0.004 -0.03125,0 -11.784128,5.574409 -22.570998,13.266638 -31.71875,22.5625 -0.64288,0.653288 -1.279996,1.3309 -1.90625,2 -0.733762,0.789609 -1.479942,1.567462 -2.1875,2.375 -0.175641,0.20046 -0.325976,0.423435 -0.5,0.625 -0.510272,0.591027 -1.034899,1.180723 -1.53125,1.78125 -6.635684,8.028398 -12.008438,16.8975 -16.125,26.625 -0.734139,1.724808 -1.423975,3.471393 -2.0625,5.21875 -0.290216,0.794191 -0.573243,1.576241 -0.84375,2.375 -3.751235,11.076724 -5.59375,22.594059 -5.59375,34.468749 0.0038,0.8879 0.0058,1.76862 0.03125,2.65625 7.24e-4,0.0311 -7.5e-4,0.0626 0,0.0937 0.03733,1.2637 0.07537,2.51942 0.15625,3.78125 6.67e-4,0.0104 -6.7e-4,0.0208 0,0.0312 0.755297,11.7311 3.396401,23.34704 7.78125,34.25 0.407443,1.01311 0.843614,2.03096 1.28125,3.03125 0.08567,0.19582 0.163175,0.39845 0.25,0.59375 0.01888,0.042 0.04357,0.0831 0.0625,0.125 0.07054,0.15812 0.147454,0.31097 0.21875,0.46875 0.39538,0.86456 0.802586,1.71184 1.21875,2.5625 0.150251,0.31043 0.284273,0.62854 0.4375,0.9375 0.235861,0.47068 0.476464,0.93988 0.71875,1.40625 0.28733,0.55308 0.578646,1.10923 0.875,1.65625 4.549155,8.39701 10.1608,16.06096 16.8125,23.03125 0.6047,0.63366 1.221875,1.25313 1.84375,1.875 0.689343,0.68934 1.389924,1.36305 2.09375,2.03125 0.566056,0.53741 1.143325,1.10132 1.71875,1.625 7.099955,6.46149 14.910751,11.8626 23.4375,16.1875 0.767501,0.38675 1.535887,0.788 2.3125,1.15625 0.0084,0.004 0.02281,-0.004 0.03125,0 0.404272,0.19156 0.812108,0.37597 1.21875,0.5625 0.593489,0.27379 1.181154,0.54887 1.78125,0.8125 0.476374,0.20818 0.958155,0.3924 1.4375,0.59375 0.116636,0.0492 0.226869,0.10739 0.34375,0.15625 0.836328,0.35594 1.690081,0.69781 2.53125,1.03125 0.135232,0.0523 0.270808,0.10448 0.40625,0.15625 11.217399,4.2877 23.15388,6.75488 35.15625,7.25 1.31603,0.0543 2.65187,0.0866 3.96875,0.0937 0.0313,0 0.0625,3e-5 0.0937,0 0.88814,0.004 1.76839,-0.0137 2.65625,-0.0312 0.10472,-0.003 0.20785,0.003 0.3125,0 2.63256,-0.0708 5.25214,-0.24554 7.84375,-0.5 10.77855,-1.05832 21.18375,-3.72875 31.21875,-8 0.40565,-0.17048 0.81595,-0.32492 1.21875,-0.5 0.39956,-0.1684 0.79055,-0.35769 1.1875,-0.53125 10.30101,-4.62585 19.65102,-10.77339 28.0625,-18.375 0.0274,-0.025 0.0664,-0.0375 0.0937,-0.0625 0.22715,-0.20569 0.46173,-0.41719 0.6875,-0.625 0.42019,-0.39165 0.83609,-0.78919 1.25,-1.1875 0.55173,-0.52338 1.0817,-1.05748 1.625,-1.59375 0.0831,-0.0834 0.16712,-0.16629 0.25,-0.25 0.85492,-0.8635 1.70546,-1.73334 2.53125,-2.625 0.90584,-0.9781 1.7864,-1.9582 2.65625,-2.96875 6.9588,-8.08436 12.74883,-17.17985 17.125,-26.90625 0.27826,-0.61846 0.54575,-1.25156 0.8125,-1.875 0.013,-0.0305 0.0183,-0.0633 0.0312,-0.0937 0.34217,-0.80603 0.67871,-1.59527 1,-2.40625 0.66689,-1.68333 1.29789,-3.38928 1.875,-5.09375 0.28856,-0.85223 0.57759,-1.70503 0.84375,-2.5625 0.53232,-1.71494 1.02581,-3.42056 1.46875,-5.15625 2.21472,-8.67844 3.3125,-17.63516 3.3125,-26.8125 0,-0.91352 -0.009,-1.80956 -0.0312,-2.71875 -0.32998,-13.63778 -3.16094,-26.799999 -8.5,-39.343749 -0.27185,-0.650533 -0.52893,-1.29457 -0.8125,-1.9375 -0.0709,-0.156995 -0.14713,-0.312088 -0.21875,-0.46875 -0.46447,-1.016048 -0.94211,-2.029709 -1.4375,-3.03125 -5.14599,-10.403698 -11.95403,-20.002007 -20.0625,-28.3125 -0.81339,-0.83366 -1.62932,-1.661486 -2.46875,-2.46875 -0.0911,-0.08644 -0.18989,-0.163913 -0.28125,-0.25 -0.54369,-0.519275 -1.10197,-1.023353 -1.65625,-1.53125 -0.0217,-0.01968 -0.0408,-0.04284 -0.0625,-0.0625 -0.62733,-0.567215 -1.26841,-1.136377 -1.90625,-1.6875 -0.65995,-0.570224 -1.32879,-1.134536 -2,-1.6875 -6.71196,-5.529589 -13.97491,-10.18424 -21.8124,-13.9687 -0.78375,-0.378446 -1.58,-0.732947 -2.375,-1.09375 -0.795,-0.360803 -1.6,-0.719375 -2.40625,-1.0625 -0.83625,-0.355938 -1.65841,-0.697815 -2.5,-1.03125 -0.83816,-0.333019 -1.68491,-0.65791 -2.53125,-0.96875 -0.84691,-0.310967 -1.71031,-0.617717 -2.5625,-0.90625 -1.69847,-0.574092 -3.39973,-1.107609 -5.125,-1.59375 -0.01,-0.0027 -0.0216,0.0027 -0.0312,0 -0.8675,-0.244175 -1.72032,-0.465591 -2.59375,-0.6875 -1.72707,-0.438792 -3.47177,-0.867138 -5.21875,-1.21875 -0.0199,-0.004 -0.0425,0.004 -0.0625,0 -0.86352,-0.173285 -1.72617,-0.348042 -2.59375,-0.5 -0.0203,-0.0036 -0.0422,0.0035 -0.0625,0 -0.85756,-0.149698 -1.73275,-0.277404 -2.59375,-0.40625 -0.0307,-0.0046 -0.063,0.0046 -0.0937,0 -0.86067,-0.128043 -1.69891,-0.267809 -2.5625,-0.375 -0.0308,-0.0038 -0.0629,0.0038 -0.0937,0 -0.86377,-0.106454 -1.72759,-0.195671 -2.59375,-0.28125 -0.0307,-0.003 -0.063,0.003 -0.0937,0 -0.86652,-0.08486 -1.75661,-0.18605 -2.625,-0.25 -0.031,-0.0023 -0.0627,0.0022 -0.0937,0 -0.87835,-0.06393 -1.74527,-0.11373 -2.625,-0.15625 -0.0208,-10e-4 -0.0417,9.99e-4 -0.0625,0 -0.89017,-0.04251 -1.76523,-0.07318 -2.65625,-0.09375 -0.0104,-2.5e-4 -0.0209,2.47e-4 -0.0312,0 -0.9015,-0.02055 -1.81694,-0.03318 -2.71875,-0.03125 z m -2.6875,4.84375 2.21875,0 0.0625,2.21875 -2.1875,0 -0.0937,-2.21875 z m -24.0625,3.40625 c 0.617656,-0.02578 1.20375,0.05063 1.71875,0.1875 1.02875,0.20625 1.9125,0.74 2.53125,1.5625 0.61625,0.8225 1.15,2.07 1.5625,3.71875 l 2.40625,8.78125 -2.0625,0.53125 -2.3125,-8.78125 c -0.3425,-1.3025 -0.77625,-2.25875 -1.1875,-2.875 -0.4125,-0.55125 -0.93875,-0.88875 -1.625,-1.09375 -0.75625,-0.2062 -1.52,-0.145 -2.34375,0.0625 -1.51,0.41125 -2.455,1.02125 -2.9375,1.84375 -0.48,0.89125 -0.425,2.26625 0.125,4.1875 l 2.34375,8.78125 -2,0.5625 -2.40625,-8.78125 c -0.4113,-1.5775 -0.53625,-2.81375 -0.46875,-3.84375 0.1375,-1.03 0.52625,-1.93375 1.28125,-2.6875 0.755,-0.82375 1.93375,-1.4325 3.375,-1.84375 0.720625,-0.17125 1.382344,-0.286719 2,-0.3125 z m 55.25,1.0625 c 0.34328,-0.02578 0.71625,-0.03375 1.09375,0 0.755,0.06875 1.5775,0.2825 2.46875,0.625 l 5.40625,1.84375 -5.15625,14.96875 -5.125,-1.78125 c -1.165,-0.41125 -2.07625,-0.75125 -2.625,-1.09375 -0.75375,-0.48 -1.37,-1.12 -1.78125,-1.875 -0.61875,-0.95875 -0.875,-1.98875 -0.875,-3.15625 -0.07,-1.16625 0.11375,-2.445 0.59375,-3.75 0.34375,-1.16625 0.82,-2.15125 1.4375,-2.90625 0.54875,-0.755 1.19375,-1.365 1.8125,-1.84375 0.61625,-0.4125 1.165,-0.67 1.78125,-0.875 0.30937,-0.06938 0.62547,-0.130469 0.96875,-0.15625 z m 0.8125,1.9375 c -0.6175,0 -1.17625,0.04375 -1.65625,0.25 -0.61875,0.3425 -1.2375,0.84625 -1.71875,1.53125 -0.54875,0.755 -1.03125,1.64625 -1.375,2.8125 -0.54875,1.5775 -0.67375,2.815 -0.46875,3.84375 0.2075,1.03 0.60125,1.765 1.21875,2.3125 0.48125,0.41375 1.3025,0.8375 2.46875,1.25 l 3.15625,1.03125 3.9375,-11.46875 -3.15625,-1.09375 c -1.02875,-0.3425 -1.78875,-0.46875 -2.40625,-0.46875 z m -72.1875,2.8125 7.1875,14.125 -1.90625,0.96875 -13.03125,-7.28125 5.625,11.0625 -1.78125,0.875 -7.21875,-14.0625 1.9375,-1.03125 13.03125,7.34375 -5.625,-11.125 1.78125,-0.875 z m 40.34375,0.0625 2.25,0 0,2.1875 -2.1875,0 -0.0625,-2.1875 z m 50.71875,2.6875 1.84375,0.875 -7.125,14.125 -1.9375,-0.9375 7.21875,-14.0625 z m 9.59375,5.40625 2.0625,1.65625 -0.34375,3.84375 c -0.0687,1.1675 -0.15625,2.04 -0.15625,2.65625 0,0.61875 0.0875,1.1875 0.15625,1.53125 0.13625,0.3425 0.325,0.6 0.53125,0.875 0.13625,0.205 0.43125,0.40625 0.84375,0.75 l 1.90625,1.53125 4.34375,-5.5625 1.625,1.28125 -9.75,12.5 L 174,51.312501 c -1.16625,-0.8925 -1.94,-1.6575 -2.28125,-2.34375 -0.41375,-0.685 -0.53755,-1.4275 -0.46875,-2.25 0.0675,-0.8225 0.41875,-1.59375 0.96875,-2.28125 0.68625,-0.8925 1.56375,-1.3575 2.59375,-1.5625 1.02875,-0.13875 2.26,0.12125 3.5625,0.875 -0.275,-0.5475 -0.46245,-1.0325 -0.53125,-1.375 -0.1375,-0.8225 -0.13,-1.72 -0.0625,-2.75 l 0.46875,-5.0625 z m -57.78125,1.90625 c 11.39125,0 22.32,2.2025 32.75,6.59375 10.08625,4.25375 18.93375,10.24625 26.6875,18 7.75375,7.75375 13.715,16.665 17.96875,26.75 4.46125,10.36125 6.65625,21.264999 6.65625,32.656249 0,11.39 -2.195,22.32 -6.65625,32.75 -4.185,10.0875 -10.215,18.93375 -17.96875,26.6875 -7.75375,7.75375 -16.60125,13.7775 -26.6875,18.03125 -10.43,4.3925 -21.35875,6.59375 -32.75,6.59375 -11.39,0 -22.29,-2.20125 -32.71875,-6.59375 -10.01875,-4.25375 -18.93375,-10.2775 -26.6875,-18.03125 -7.75375,-7.75375 -13.74625,-16.6 -18,-26.6875 -4.39125,-10.43 -6.59375,-21.36 -6.59375,-32.75 0,-11.39125 2.2025,-22.294999 6.59375,-32.656249 4.25375,-10.085 10.24625,-18.99625 18,-26.75 7.75375,-7.75375 16.66875,-13.74625 26.6875,-18 10.42875,-4.39125 21.32875,-6.59375 32.71875,-6.59375 z m -61.40625,0.84375 9.75,12.46875 -1.65625,1.3125 -9.75,-12.46875 1.65625,-1.3125 z m 116.78125,7.46875 c -0.26563,0 -0.50938,0.05313 -0.75,0.15625 -0.48,0.13625 -0.88125,0.40125 -1.15625,0.8125 -0.48125,0.61875 -0.6313,1.245 -0.5625,2 0.13625,0.68625 0.70125,1.37 1.59375,2.125 l 3.96875,3.0625 3.21875,-4.09375 -3.5625,-2.8125 c -0.75375,-0.54875 -1.3875,-0.8875 -1.9375,-1.09375 -0.27437,-0.103125 -0.54687,-0.15625 -0.8125,-0.15625 z m -128.65625,2.8125 15.5625,6.59375 -1.5,1.65625 -11.1875,-5.03125 c -0.89125,-0.4125 -1.65125,-0.80875 -2.40625,-1.21875 0.48,0.75375 0.90625,1.58125 1.25,2.40625 l 5.34375,11.09375 -1.5,1.53125 -7.0625,-15.4375 1.5,-1.59375 z m 149.375,6.46875 c 0.7525,0 1.38125,0.04375 2,0.25 0.61625,0.20625 1.16375,0.55125 1.78125,1.03125 0.6175,0.48125 1.16375,1.02625 1.78125,1.78125 l 3.5,4.53125 -12.40625,9.75 -3.375,-4.3125 c -0.75375,-0.95875 -1.2875,-1.72625 -1.5625,-2.34375 -0.41125,-0.8225 -0.63,-1.63875 -0.5625,-2.53125 0.0687,-1.09875 0.35125,-2.1275 0.96875,-3.15625 0.6175,-1.03 1.49625,-1.92 2.59375,-2.8125 0.96,-0.75375 1.92125,-1.25125 2.8125,-1.59375 0.89125,-0.34375 1.71375,-0.52625 2.46875,-0.59375 z M 197,56.093751 c -0.54023,0.0064 -1.10188,0.08687 -1.71875,0.34375 -0.82375,0.34375 -1.72625,0.83875 -2.6875,1.59375 -1.30375,1.03 -2.11875,1.9775 -2.53125,2.9375 -0.3425,1.03 -0.43125,1.9325 -0.15625,2.6875 0.1375,0.6175 0.62125,1.38375 1.375,2.34375 l 2.0625,2.59375 9.53125,-7.40625 -2.0625,-2.6875 c -0.61875,-0.82375 -1.23875,-1.43875 -1.71875,-1.78125 -0.5475,-0.34375 -1.0825,-0.555 -1.5625,-0.625 -0.17125,-0.01719 -0.35117,-0.0021 -0.53125,0 z m -160.65625,4.1875 13.3125,8.65625 -6.25,9.53125 -1.5625,-0.9375 5.0625,-7.84375 -4.03125,-2.65625 -4.8125,7.34375 -1.5,-1.03125 4.71875,-7.34375 -4.53125,-2.90625 -5.28125,8.125 -1.5625,-1.03125 6.4375,-9.90625 z m 175.46875,11.28125 0.9375,2.1875 -3.625,3.625 2.75,6.125 5.0625,-0.4375 0.90625,2.0625 -16.9375,0.90625 -0.96875,-2.125 11.875,-12.34375 z m -185,4.78125 14.6875,5.96875 -2.625,6.53125 c -0.5475,1.30375 -1.0825,2.195 -1.5625,2.8125 -0.55,0.54875 -1.23875,0.895 -2.0625,1.03125 -0.8925,0.1375 -1.715,0.0625 -2.46875,-0.28125 -1.03,-0.41125 -1.80125,-1.1025 -2.28125,-2.0625 -0.41255,-0.96125 -0.40625,-2.1775 -0.0625,-3.6875 -0.48,0.41125 -0.87625,0.6675 -1.21875,0.875 -0.755,0.34125 -1.60125,0.6375 -2.5625,0.84375 l -5.0625,0.9375 1.03125,-2.46875 3.84375,-0.6875 c 1.0975,-0.20625 1.91375,-0.41875 2.53125,-0.625 0.61875,-0.13625 1.09875,-0.32625 1.375,-0.53125 0.3425,-0.20625 0.54375,-0.475 0.75,-0.75 0.13625,-0.20625 0.3575,-0.55 0.5625,-1.03125 l 0.875,-2.28125 -6.5,-2.59375 0.75,-2 z m 181,2.34375 -3.28125,3.28125 c -1.02875,1.03125 -1.90875,1.78875 -2.59375,2.40625 1.02875,-0.205 2.1275,-0.40005 3.15625,-0.46875 l 4.9375,-0.28125 -2.21875,-4.9375 z m -173.59375,2.9375 -1.65625,4.1875 c -0.3425,0.89125 -0.53125,1.6 -0.53125,2.21875 -0.06875,0.5475 0.06375,1.02625 0.40625,1.4375 0.275,0.48 0.67625,0.7325 1.15625,0.9375 0.6875,0.27495 1.3825,0.28125 2,-0.0625 0.6175,-0.34375 1.17375,-1.0275 1.65625,-2.125 l 1.84375,-4.59375 -4.875,-2 z m -9.75,13.6875 c 0.255059,0.001 0.492812,-0.0028 0.75,0.03125 l -0.1875,2 c -0.82375,-0.0675 -1.51125,0.07375 -2.0625,0.28125 -0.54875,0.205 -1.01875,0.69625 -1.5,1.3125 -0.48,0.6175 -0.76375,1.419999 -0.96875,2.312499 -0.1375,0.75375 -0.1375,1.50625 0,2.125 0.06875,0.6175 0.345,1.18875 0.6875,1.53125 0.34375,0.34375 0.74,0.6187 1.21875,0.6875 0.48125,0.0675 0.9625,0.05 1.375,-0.15625 0.41125,-0.205 0.845,-0.6 1.1875,-1.21875 0.205,-0.41125 0.6625,-1.32 1.28125,-2.625 0.6175,-1.37125 1.1825,-2.332499 1.59375,-2.812499 0.48,-0.68625 1.10125,-1.1675 1.71875,-1.375 0.685,-0.2738 1.37625,-0.32375 2.0625,-0.1875 0.755,0.205 1.415,0.54375 2.03125,1.09375 0.61875,0.61625 1.04375,1.3575 1.25,2.249999 0.205,0.8925 0.145,1.94 -0.0625,2.96875 -0.205,1.16625 -0.6375,2.11375 -1.1875,2.9375 -0.48,0.8225 -1.145,1.375 -1.96875,1.71875 -0.8225,0.34125 -1.7325,0.41875 -2.625,0.28125 l 0.21875,-2 c 1.03,0.0687 1.8525,-0.14375 2.46875,-0.625 0.61875,-0.5475 1.04375,-1.42625 1.25,-2.59375 0.27375,-1.23625 0.18625,-2.195 -0.15625,-2.8125 C 32.5,99.752501 32.025,99.350051 31.40625,99.281251 c -0.61625,-0.13625 -1.0875,-0.0925 -1.5,0.25 -0.48,0.34375 -1.0325,1.327499 -1.71875,2.906249 -0.755,1.57875 -1.31375,2.66125 -1.65625,3.28125 -0.61875,0.8225 -1.245,1.38375 -2,1.65625 -0.75375,0.3438 -1.48875,0.41875 -2.3125,0.28125 C 21.395,107.45125 20.6175,107.0875 20,106.46875 19.3825,105.85 18.925,105.0225 18.71875,104.0625 c -0.20625,-0.96125 -0.20625,-1.965 0,-3.0625 0.275,-1.442499 0.66375,-2.546249 1.28125,-3.437499 0.55,-0.8925 1.32,-1.5325 2.28125,-1.875 0.669375,-0.257812 1.422324,-0.378047 2.1875,-0.375 z m 196.75,1 0.34375,1.9375 -13.0625,2.312499 13.8125,2.28125 0.34375,1.84375 -12.5,6.875 13.3125,-2.40625 0.34375,1.96875 -15.5625,2.75 -0.5625,-3.0625 L 220.25,104 l -14.21875,-2.1875 -0.46875,-2.749999 15.65625,-2.75 z M 17.53125,111.125 33.3125,112.5 l -0.125,2.15625 -15.78125,-1.375 0.125,-2.15625 z m 15.375,10.4375 0.34375,5.5 c 0.0675,1.1675 0.0675,2.12625 0,2.8125 -0.1375,0.8925 -0.4575,1.72 -0.9375,2.40625 -0.61875,0.89125 -1.5275,1.5825 -2.625,2.0625 -1.03,0.48125 -2.24625,0.73875 -3.6875,0.875 -1.16625,0.07 -2.29,0.0175 -3.25,-0.1875 -0.8925,-0.205 -1.69625,-0.5575 -2.3125,-0.96875 -0.61875,-0.34375 -1.1825,-0.8325 -1.59375,-1.3125 -0.34375,-0.48 -0.6675,-1.09 -0.875,-1.84375 -0.20625,-0.755 -0.4312,-1.5775 -0.5,-2.46875 L 17.125,122.65625 32.90625,121.5625 z m -1.71875,2.28125 -12.0625,0.8125 0.21875,3.375 c 0.06875,1.03 0.26375,1.85125 0.46875,2.46875 0.20625,0.54875 0.5325,0.9375 0.875,1.28125 0.55,0.48125 1.265,0.82625 2.15625,1.03125 0.82375,0.20625 1.83375,0.28755 3,0.21875 1.715,-0.07 2.9575,-0.4775 3.78125,-1.09375 0.89125,-0.6175 1.45,-1.3075 1.65625,-2.0625 0.20625,-0.6175 0.195,-1.515 0.125,-2.75 l -0.21875,-3.28125 z m 174.59375,16.46875 1.78125,0.53125 -2.5625,8.9375 4.6875,1.375 2.375,-8.375 1.8125,0.46875 -2.40625,8.375 5.21875,1.5 2.65625,-9.3125 1.78125,0.46875 -3.28125,11.40625 -15.25,-4.40625 3.1875,-10.96875 z M 19.25,141.9375 36.15625,143.75 36.6875,146 23.09375,156.28125 22.5,153.96875 26.65625,151 24.875,144.5625 19.8125,144.15625 19.25,141.9375 z m 7.5,2.75 1.375,5.21875 3.84375,-2.75 c 1.16625,-0.825 2.12,-1.42625 2.875,-1.90625 -1.0275,0.0687 -2.12625,0.006 -3.15625,-0.0625 l -4.9375,-0.5 z m 13.78125,12.21875 2.75,4.75 c 0.6175,1.0975 1.0125,1.975 1.21875,2.59375 0.27375,0.89125 0.36375,1.7075 0.15625,2.53125 -0.205,1.0975 -0.62,2.07625 -1.375,2.96875 -0.7525,0.8925 -1.73375,1.71375 -2.96875,2.46875 -1.02875,0.61625 -2.04625,1.01375 -2.9375,1.21875 -0.9625,0.20625 -1.77625,0.28755 -2.53125,0.21875 -0.755,-0.07 -1.45125,-0.2875 -2,-0.5625 -0.54875,-0.275 -1.1075,-0.67 -1.65625,-1.21875 -0.48,-0.5475 -1.02125,-1.23875 -1.5,-2.0625 l -2.8125,-4.9375 13.65625,-7.96875 z m 162.53125,1.40625 c 0.28299,0 0.55219,-0.003 0.84375,0.0312 1.16625,0.1375 2.3525,0.56875 3.65625,1.1875 1.03,0.5475 1.90125,1.165 2.65625,1.78125 0.68625,0.6875 1.1875,1.3525 1.53125,1.96875 0.3425,0.68625 0.52625,1.38125 0.59375,2 0.0687,0.61625 0.0813,1.3075 -0.125,2.0625 -0.205,0.755 -0.49375,1.49 -0.90625,2.3125 l -2.59375,5.15625 -14.0625,-7.1875 2.46875,-4.875 c 0.54875,-1.0975 1.025,-1.92625 1.4375,-2.40625 0.61625,-0.755 1.3075,-1.25 2.0625,-1.59375 0.7725,-0.30938 1.58854,-0.4375 2.4375,-0.4375 z m -163.09375,1.40625 -10.5,6.03125 1.71875,2.90625 c 0.48,0.89375 1.05125,1.55625 1.53125,1.96875 0.48,0.41125 0.895,0.70625 1.375,0.84375 0.68625,0.205 1.42,0.205 2.3125,0 0.8925,-0.20625 1.87625,-0.57125 2.90625,-1.1875 1.44,-0.82375 2.39375,-1.7025 2.875,-2.59375 0.48005,-0.89125 0.6675,-1.8025 0.53125,-2.625 C 42.65,164.445 42.305,163.6275 41.6875,162.53125 l -1.71875,-2.8125 z m 162.78125,0.6875 c -1.03,0.0687 -1.85,0.41875 -2.46875,0.96875 -0.48,0.3425 -0.95125,1.08375 -1.5,2.25 l -1.53125,2.96875 10.78125,5.46875 1.5,-3 c 0.48125,-0.8925 0.83755,-1.7275 0.90625,-2.34375 0.0687,-0.6175 0.05,-1.175 -0.15625,-1.65625 -0.20625,-0.6175 -0.60125,-1.28875 -1.21875,-1.90625 -0.6175,-0.6175 -1.5025,-1.23875 -2.53125,-1.71875 -1.44125,-0.755 -2.7525,-1.10005 -3.78125,-1.03125 z M 190.875,182.375 c 0.75375,-0.0687 1.45125,0.2025 2,0.75 0.54875,0.4825 0.8125,1.15125 0.8125,1.90625 0,0.75375 -0.27,1.3875 -0.75,1.9375 -0.54875,0.5475 -1.1825,0.8125 -1.9375,0.8125 -0.755,0.0687 -1.42,-0.20125 -1.96875,-0.75 -0.55,-0.48125 -0.84375,-1.1525 -0.84375,-1.90625 0,-0.75625 0.3,-1.38875 0.78125,-1.9375 0.54875,-0.55 1.15125,-0.8125 1.90625,-0.8125 z m -140.46875,0.25 c 0.75625,0 1.38875,0.295 1.9375,0.84375 0.47875,0.54875 0.75,1.1525 0.75,1.90625 0,0.755 -0.265,1.45625 -0.8125,1.9375 -0.54875,0.54875 -1.245,0.82 -2,0.75 -0.755,0 -1.38875,-0.26375 -1.9375,-0.8125 -0.48,-0.54875 -0.75,-1.18125 -0.75,-1.9375 0,-0.75375 0.295,-1.4275 0.84375,-1.90625 0.54875,-0.54875 1.215,-0.84875 1.96875,-0.78125 z m 128.25,3.15625 10.4375,11.96875 -1.59375,1.34375 -10.40625,-11.9375 1.5625,-1.375 z m -116.3125,1.78125 c 0.324922,0.001 0.6425,0.0425 0.96875,0.0937 1.3025,0.20625 2.465,0.76375 3.5625,1.65625 1.305,0.96 2.0625,2.04 2.40625,3.34375 0.34125,1.305 0.26625,2.68375 -0.28125,4.125 l -1.90625,-0.9062 c 0.4125,-1.16625 0.4875,-2.11375 0.28125,-2.9375 -0.205,-0.89125 -0.77,-1.6625 -1.59375,-2.28125 -0.96,-0.755 -1.90875,-1.08745 -2.9375,-1.15625 -1.02875,-0.0675 -1.92,0.2025 -2.8125,0.75 -0.8925,0.6175 -1.66375,1.29875 -2.28125,2.125 -0.82375,1.0275 -1.38125,2.065 -1.65625,3.09375 -0.34375,1.02875 -0.34375,2.0775 0,2.96875 0.3425,0.8925 0.90125,1.57125 1.65625,2.1875 0.89375,0.755 1.93375,1.09875 3.03125,1.03125 1.03125,0 2.065,-0.4825 3.09375,-1.375 L 65.25,202 c -1.44125,1.09875 -2.90375,1.625 -4.34375,1.625 -1.44125,0.0687 -2.8225,-0.47 -4.125,-1.5 -1.30375,-1.03 -2.1825,-2.1775 -2.59375,-3.34375 -0.41255,-1.1675 -0.40625,-2.47125 -0.0625,-3.84375 0.34375,-1.4425 1.01375,-2.77125 1.90625,-3.9375 1.03,-1.3025 2.2025,-2.19625 3.4375,-2.8125 0.92625,-0.4125 1.900234,-0.62805 2.875,-0.625 z m 109.03125,4.0625 9.125,12.96875 -1.6875,1.25 -9.15625,-12.96875 1.71875,-1.25 z m -7.8125,5 7.90625,13.65625 -1.8125,1.125 -7.9375,-13.75 1.84375,-1.03125 z m -84.8125,0.6875 2,1.125 -1.4375,17 -2.125,-1.09375 0.53125,-5.09375 -5.90625,-3 -3.6875,3.5 -2,-1.03125 12.625,-11.40625 z m 0.21875,2 C 78.2825,200.13625 77.505,200.90125 76.75,201.65625 L 73.125,205 l 4.8125,2.40625 0.53125,-4.65625 c 0.13625,-1.44125 0.29375,-2.545 0.5,-3.4375 z M 91.25,203.09375 98.03125,205 c 1.3025,0.41125 2.32125,0.83125 2.9375,1.3125 0.61875,0.47875 1.10625,1.17625 1.3125,2 0.20505,0.755 0.21125,1.575 -0.0625,2.46875 -0.275,1.02875 -0.89,1.8575 -1.78125,2.40625 -0.89125,0.5488 -2.115,0.675 -3.625,0.46875 0.48125,0.41125 0.73125,0.75125 0.9375,1.09375 0.48,0.755 0.81875,1.57 1.09375,2.53125 l 1.46875,4.875 -2.5625,-0.6875 -1.09375,-3.75 c -0.3425,-1.0975 -0.60625,-1.945 -0.8125,-2.5625 -0.20625,-0.6175 -0.475,-1.00625 -0.75,-1.28125 -0.20625,-0.275 -0.475,-0.48125 -0.75,-0.6875 -0.20625,-0.0687 -0.645,-0.205 -1.125,-0.34375 l -2.3125,-0.6875 -2,6.78125 -2,-0.625 4.34375,-15.21875 z m 57.4375,0.46875 c 0.24961,0.007 0.51031,0.0284 0.75,0.0625 0.96125,0.1375 1.79,0.50625 2.40625,1.125 0.68625,0.54875 1.165,1.295 1.4375,2.1875 l -1.9375,0.625 c -0.3425,-0.89125 -0.87,-1.53125 -1.625,-1.875 -0.755,-0.3413 -1.74,-0.405 -2.90625,-0.0625 -1.235,0.34375 -2.05625,0.82 -2.46875,1.4375 -0.48005,0.61875 -0.6125,1.22625 -0.40625,1.84375 0.13625,0.54875 0.48875,0.98 0.96875,1.1875 0.48125,0.2063 1.56,0.34875 3.34375,0.28125 1.71625,-0.0687 2.97,-0.0737 3.65625,0.0625 1.02875,0.205 1.7875,0.55 2.40625,1.03125 0.54875,0.48 0.95,1.145 1.15625,1.96875 0.20755,0.8225 0.21375,1.64625 -0.0625,2.46875 -0.275,0.89375 -0.83875,1.665 -1.59375,2.28125 -0.755,0.61875 -1.6525,1.0325 -2.75,1.375 -1.3725,0.34375 -2.595,0.4875 -3.625,0.28125 -1.03,-0.13625 -1.9325,-0.56875 -2.6875,-1.1875 -0.755,-0.685 -1.2875,-1.5025 -1.5625,-2.53125 l 1.84375,-0.6875 c 0.275,0.75375 0.6125,1.30625 1.09375,1.71875 0.48,0.4125 1.12,0.68 1.875,0.75 0.755,0.13625 1.5775,0.0813 2.46875,-0.125 0.755,-0.205 1.42,-0.56375 1.96875,-0.90625 0.48,-0.4125 0.825,-0.83125 1.03125,-1.3125 0.205,-0.48 0.22375,-0.9575 0.15625,-1.4375 -0.1375,-0.48125 -0.40625,-0.82 -0.75,-1.09375 -0.41125,-0.3425 -0.97,-0.46375 -1.65625,-0.53125 -0.48,-0.0688 -1.45875,-0.0688 -2.96875,0 -1.44125,0 -2.53875,-0.0813 -3.15625,-0.21875 -0.8225,-0.20625 -1.4825,-0.48875 -2.03125,-0.96875 -0.48125,-0.48 -0.82625,-1.09625 -1.03125,-1.78125 -0.2063,-0.755 -0.145,-1.5575 0.0625,-2.3125 0.275,-0.755 0.745,-1.44375 1.5,-2.0625 0.75375,-0.54875 1.6575,-0.975 2.6875,-1.25 0.87469,-0.25687 1.65742,-0.36584 2.40625,-0.34375 z m -55.875,1.78125 -1.4375,5.09375 4.3125,1.21875 C 96.58,211.8625 97.3575,212 97.90625,212 98.525,211.9325 99,211.75 99.34375,211.40625 c 0.4125,-0.3425 0.675,-0.77 0.8125,-1.25 0.20625,-0.75375 0.0613,-1.3825 -0.28125,-2 -0.3425,-0.61875 -1.085,-1.09375 -2.25,-1.4375 l -4.8125,-1.375 z m 38.40625,1.71875 c 1.03541,-0.003 1.99187,0.2125 2.96875,0.625 1.2375,0.5475 2.27625,1.365 3.03125,2.53125 0.755,1.16625 1.23125,2.5475 1.4375,4.125 0.20625,1.5775 0.0112,3.10125 -0.46875,4.40625 -0.48,1.3025 -1.30875,2.40125 -2.40625,3.15625 -1.09625,0.8225 -2.3525,1.29875 -3.65625,1.4375 -1.50875,0.205 -2.85875,-0.0125 -4.09375,-0.5625 -1.3025,-0.6175 -2.2775,-1.4275 -3.03125,-2.59375 -0.755,-1.16625 -1.2375,-2.4025 -1.375,-3.84375 -0.3425,-2.6075 0.14625,-4.76 1.3125,-6.40625 1.235,-1.6475 2.9525,-2.60625 5.21875,-2.8125 0.36031,-0.0513 0.71736,-0.0615 1.0625,-0.0625 z m -23.71875,0.15625 2.125,0.125 -1.21875,13.9375 7.75,0.6875 L 116,223.8125 106.125,223 107.5,207.21875 z m 23.625,1.65625 c -0.24873,-6e-5 -0.52406,-0.003 -0.78125,0.0312 -1.4425,0.20625 -2.665,0.83375 -3.625,2 -0.8937,1.0975 -1.24125,2.81625 -0.96875,5.21875 0.2075,1.8525 0.89625,3.28875 2.0625,4.25 1.16625,0.96 2.5525,1.39375 4.0625,1.1875 1.5775,-0.20625 2.7325,-0.92 3.625,-2.15625 0.8913,-1.16625 1.24375,-2.79125 0.96875,-4.78125 -0.13625,-1.305 -0.4825,-2.42 -1.03125,-3.3125 -0.55,-0.8925 -1.29625,-1.5575 -2.1875,-1.96875 -0.66938,-0.30938 -1.37881,-0.46857 -2.125,-0.46875 z"
         style="fill:#ffffff;fill-opacity:1;fill-rule:evenodd;stroke:none;display:inline"
         inkscape:connector-curvature="0" />
      <g
         id="g4028">
        <path
           id="path3007"
           style="fill:#ffffff;fill-opacity:1;fill-rule:evenodd;stroke:none"
           d="m 151.5575,51.923748 c -5.97125,-2.3325 -12.215,-3.5 -18.665,-3.5 -1.16625,0 -2.40125,0.0675 -3.5675,0.1375 6.175,0.41125 12.075,1.8525 17.635,4.39125 6.45,2.95125 12.07625,6.99875 16.81125,12.2825 l 3.2925,-3.77375 c -4.5975,-4.11625 -9.7425,-7.27375 -15.50625,-9.5375 l 0,0"
           inkscape:connector-curvature="0" />
        <path
           id="path3009"
           style="fill:#ffffff;fill-opacity:1;fill-rule:evenodd;stroke:none"
           d="m 129.325,48.561248 c -1.16625,-0.07 -2.4025,-0.1375 -3.57,-0.1375 -6.86125,0 -13.44875,1.30375 -19.76,3.91125 -6.1075,2.53875 -11.46,6.17625 -16.195,10.77375 -4.66625,4.5975 -8.30375,9.94875 -10.91,15.91875 -2.67625,6.245 -3.98,12.76375 -3.98,19.555 0,6.795002 1.30375,13.312502 3.98,19.557502 2.60625,5.96875 6.24375,11.32125 10.91,15.92 4.735,4.665 10.0875,8.23375 16.195,10.7725 6.31125,2.67625 12.89875,3.98 19.76,3.98 1.1675,0 2.40375,0 3.57,-0.0688 -5.6275,-0.41125 -11.0475,-1.715 -16.26375,-3.91125 -6.10625,-2.53875 -11.45875,-6.1075 -16.1925,-10.7725 -4.6675,-4.59875 -8.30375,-9.95125 -10.8425,-15.92 -2.6775,-6.245 -4.0475,-12.7625 -4.0475,-19.557502 0,-6.79125 1.37,-13.31 4.0475,-19.555 2.53875,-5.97 6.175,-11.32125 10.8425,-15.91875 4.73375,-4.5975 10.08625,-8.235 16.1925,-10.77375 5.21625,-2.1275 10.63625,-3.43125 16.26375,-3.77375 l 0,0"
           inkscape:connector-curvature="0" />
        <path
           id="path3011"
           style="fill:#ffffff;fill-opacity:1;fill-rule:evenodd;stroke:none"
           d="m 132.8925,148.8125 c 7.13625,0 13.92875,-1.44125 20.4475,-4.25375 6.245,-2.67625 11.735,-6.51875 16.47,-11.45875 l -4.325,-3.15625 c -4.73375,5.83125 -10.4975,10.42875 -17.29,13.72125 -5.97125,2.95125 -12.28375,4.5975 -18.87,5.07875 1.16625,0.0688 2.40125,0.0688 3.5675,0.0688 l 0,0"
           inkscape:connector-curvature="0" />
        <path
           id="path3013"
           style="fill:#ffffff;fill-opacity:1;fill-rule:evenodd;stroke:none"
           d="m 153.41,79.027498 c 2.67625,6.245 4.0475,12.76375 4.0475,19.555 0,6.795002 -1.37125,13.312502 -4.0475,19.557502 -2.53875,5.96875 -6.1775,11.32125 -10.91125,15.92 -4.665,4.665 -10.0175,8.23375 -16.125,10.7725 -5.215,2.19625 -10.63625,3.5 -16.26375,3.91125 1.1675,0.0688 2.33375,0.0688 3.5,0.0688 6.93125,0 13.51875,-1.30375 19.83125,-3.98 6.10625,-2.53875 11.45875,-6.1075 16.195,-10.7725 4.665,-4.59875 8.30125,-9.95125 10.84,-15.92 2.67625,-6.245 4.04875,-12.7625 4.04875,-19.557502 0,-6.79125 -1.3725,-13.31 -4.04875,-19.555 -2.53875,-5.97 -6.175,-11.32125 -10.84,-15.91875 -4.73625,-4.5975 -10.08875,-8.235 -16.195,-10.77375 -6.3125,-2.6075 -12.9,-3.91125 -19.83125,-3.91125 -1.16625,0 -2.3325,0.0675 -3.5,0.1375 5.6275,0.3425 11.04875,1.64625 16.26375,3.77375 6.1075,2.53875 11.46,6.17625 16.125,10.77375 4.73375,4.5975 8.3725,9.94875 10.91125,15.91875 l 0,0"
           inkscape:connector-curvature="0" />
        <path
           id="path3015"
           style="fill:#ffffff;fill-opacity:1;fill-rule:evenodd;stroke:none"
           d="m 110.11,48.561248 c -1.165,-0.07 -2.40125,-0.1375 -3.5675,-0.1375 -6.45,0 -12.69375,1.1675 -18.66375,3.5 -5.76375,2.26375 -10.97875,5.42125 -15.57625,9.5375 l 3.36125,3.77375 c 4.73625,-5.28375 10.29375,-9.33125 16.8125,-12.2825 5.6275,-2.53875 11.5275,-3.98 17.63375,-4.39125 l 0,0"
           inkscape:connector-curvature="0" />
        <path
           id="path3017"
           style="fill:#ffffff;fill-opacity:1;fill-rule:evenodd;stroke:none"
           d="M 110.11,148.74375 C 103.52375,148.2625 97.21125,146.61625 91.24125,143.665 84.4475,140.3725 78.68375,135.775 73.95,129.9425 L 69.62625,133.1 c 4.735,4.94 10.225,8.7825 16.4675,11.45875 6.52,2.8125 13.3125,4.25375 20.44875,4.25375 1.16625,0 2.4025,0 3.5675,-0.0688 l 0,0"
           inkscape:connector-curvature="0" />
        <path
           id="path3019"
           style="fill:#ffffff;fill-opacity:1;fill-rule:evenodd;stroke:none"
           d="m 100.2425,155.13125 0,-5.92625 7.4025,0 0,-49.776252 -7.4025,0 0,-5.92625 17.24375,0 0,5.92625 -7.35625,0 0,49.776252 7.35625,0 0,5.92625 -17.24375,0"
           inkscape:connector-curvature="0" />
        <path
           id="path3021"
           style="fill:#ffffff;fill-opacity:1;fill-rule:evenodd;stroke:none"
           d="m 112.39875,155.13125 0,-5.92625 7.405,0 0,-49.776252 -7.405,0 0,-5.92625 17.24625,0 0,5.92625 -7.35875,0 0,49.776252 7.35875,0 0,5.92625 -17.24625,0"
           inkscape:connector-curvature="0" />
        <path
           id="path3023"
           style="fill:#ffffff;fill-opacity:1;fill-rule:evenodd;stroke:none"
           d="m 124.55875,155.13125 0,-5.92625 7.4025,0 0,-49.776252 -7.4025,0 0,-5.92625 17.24375,0 0,5.92625 -7.35875,0 0,49.776252 7.35875,0 0,5.92625 -17.24375,0"
           inkscape:connector-curvature="0" />
        <path
           id="path3089"
           style="fill:#ffffff;fill-opacity:1;fill-rule:evenodd;stroke:none"
           d="m 98.24,162.53625 c 0,-0.20625 0.275,-0.48125 0.8925,-0.68625 0.48,-0.275 0.96,-0.41125 1.37125,-0.41125 0.48,0 0.89375,0.13625 1.235,0.48 1.03,0.68625 1.37375,1.3025 1.09875,1.78375 l -0.205,4.11625 0.68625,1.09875 1.99,-0.755 -0.13875,-0.6175 0,-4.52875 c 0,-0.3425 -0.13625,-0.6175 -0.34375,-0.8925 -0.13625,-0.205 -0.5475,-0.685 -1.23375,-1.37125 -0.755,-0.82375 -1.715,-1.03 -2.81375,-0.55 l -2.53875,0.685 c -0.0688,-0.8225 -0.0688,-1.37 -0.0688,-1.645 0,-0.275 -0.205,-0.6875 -0.6175,-1.1675 l -0.54875,-0.47875 -1.92125,0.5475 c 0.13625,0.20625 0.275,0.41125 0.48,0.68625 0.20625,0.27625 0.34375,0.54875 0.41125,0.82375 0.07,4.18625 0.13875,6.655 0.07,7.34125 -0.07,0.6875 -0.48125,1.09875 -1.3725,1.30625 1.02875,0 1.92125,-0.07 2.6075,-0.13875 0.68625,-0.0688 0.96,-0.48 0.82375,-1.1675 0.0675,-2.67625 0.13625,-4.11625 0.13625,-4.45875 l 0,0"
           inkscape:connector-curvature="0" />
        <path
           id="path3091"
           style="fill:#ffffff;fill-opacity:1;fill-rule:evenodd;stroke:none"
           d="m 127.6775,160.9575 c -0.54875,-0.48 -1.16625,-0.755 -1.78375,-0.8925 -0.54875,-0.0675 -0.96125,-0.13625 -1.16625,-0.13625 -0.275,-0.0688 -0.55,0 -0.755,0.13625 l -0.68625,0.4125 c -0.20625,0.0675 -0.41125,0.0675 -0.6175,0 -0.4125,-0.1375 -1.02875,-0.275 -1.9225,-0.4125 -0.5475,-0.0675 -0.89125,0.0688 -1.02875,0.275 -0.1375,0.205 -0.4125,0.4125 -0.82375,0.48 0.61875,0.0675 0.96125,0.34375 0.96125,0.755 l 0,6.1075 -0.41125,0.8225 0.89125,0.48 c 1.0975,-0.0675 1.64625,-0.27375 1.71625,-0.7525 0.0675,-0.4825 0.0675,-2.1975 0,-5.28375 0.6175,-1.03 1.09625,-1.51 1.44,-1.51 0.61875,0 1.0975,0.0675 1.30375,0.13625 0.6175,0.1375 1.02875,0.48 1.09875,1.03 0.0687,0.89125 0.13625,2.8125 0.13625,5.9 1.37375,0.4125 2.05875,0.20625 2.05875,-0.5475 0,-0.755 0.07,-2.54 0.1375,-5.21625 0.34375,-0.89125 0.82375,-1.3025 1.4425,-1.3025 1.5775,0 2.33125,0.48 2.4,1.44125 0.0687,0.54875 0,1.5775 -0.0688,3.0175 l -0.0688,2.33375 c 0,0.27375 0.20625,0.48 0.55,0.6175 l 1.71375,0 0.6875,-0.5475 c -0.34375,0.0675 -0.6175,-0.07 -0.6875,-0.4825 -0.0675,-0.41125 -0.0675,-1.99 0.07,-4.665 -0.20625,-1.09875 -0.55,-1.85375 -1.0975,-2.19625 l -0.6175,-0.48 c -0.27625,-0.205 -0.48125,-0.34375 -0.68625,-0.4125 -0.6175,-0.275 -1.3725,-0.275 -2.195,0.0688 -1.305,0.4825 -1.99125,0.75375 -1.99125,0.82375 l 0,0"
           inkscape:connector-curvature="0" />
        <path
           id="path3093"
           style="fill:#ffffff;fill-opacity:1;fill-rule:evenodd;stroke:none"
           d="m 117.45375,163.22125 c -0.1375,-1.3025 -1.30375,-2.40125 -3.43125,-3.2925 -0.96125,-0.41125 -1.92125,-0.48125 -2.95,-0.13875 l -3.02,1.71625 c -1.16625,1.30375 -1.51,2.745 -0.96125,4.3225 0.34375,1.03 1.03,1.85375 1.92125,2.4725 0.6175,0.41 1.37375,0.8225 2.4025,1.165 1.02875,0.34375 2.47,-0.20625 4.46,-1.6475 0.6175,-0.48 1.02875,-1.0975 1.30375,-1.99 0.34375,-0.89125 0.4125,-1.715 0.275,-2.6075 l 0,0 z M 112.17,161.3 l 2.195,1.09875 c 1.02875,0.68625 1.44125,1.6475 1.16625,2.8825 -0.27375,1.3025 -0.61625,2.0575 -0.96,2.26375 -0.96125,0.75625 -1.8525,0.82375 -2.6075,0.34375 -0.755,-0.48125 -1.5775,-1.23625 -2.47,-2.19625 -0.8925,-1.16625 -0.96125,-2.1275 -0.20625,-2.8825 l 1.16625,-1.16625 C 110.865,161.02625 111.415,160.9575 112.17,161.3 l 0,0"
           inkscape:connector-curvature="0" />
        <path
           id="path3095"
           style="fill:#ffffff;fill-opacity:1;fill-rule:evenodd;stroke:none"
           d="m 95.08375,167.9575 c 0.13625,0.205 0.275,0.41125 0.48,0.68625 0.20625,0.27375 0.34375,0.5475 0.41125,0.8225 0.07,4.18625 0.13875,6.65625 0.07,7.3425 -0.07,0.68625 -0.48125,1.0975 -1.3725,1.3025 1.02875,0 1.92125,-0.0675 2.6075,-0.13625 0.68625,-0.0688 0.96,-0.48 0.82375,-1.16625 0.0675,-2.6075 0.13625,-4.05 0.13625,-4.3925 0,-0.205 0.275,-0.48 0.8925,-0.755 0.48,-0.205 0.96,-0.34125 1.37125,-0.34125 0.48,0 0.89375,0.13625 1.235,0.47875 1.03,0.6875 1.37375,1.30375 1.09875,1.78375 l -0.205,4.04875 0.68625,1.09875 1.99,-0.755 -0.13875,-0.61875 0,-4.45875 c 0,-0.3425 -0.13625,-0.6175 -0.34375,-0.96125 -0.13625,-0.205 -0.5475,-0.61625 -1.23375,-1.3025 -0.755,-0.8925 -1.715,-1.03 -2.81375,-0.55 L 98.24,170.77 c -0.0688,-0.89125 -0.0688,-1.44125 -0.0688,-1.715 0,-0.275 -0.205,-0.68625 -0.6175,-1.16625 l -0.54875,-0.48125 -1.92125,0.55 0,0"
           inkscape:connector-curvature="0" />
        <path
           id="path3097"
           style="fill:#ffffff;fill-opacity:1;fill-rule:evenodd;stroke:none"
           d="m 116.08125,170.22125 c -0.1375,0.205 -0.4125,0.4125 -0.82375,0.48 0.6175,0.0687 0.96,0.34375 0.96,0.755 l 0,6.03875 -0.41125,0.82375 0.8925,0.48 c 1.0975,-0.0688 1.64625,-0.275 1.715,-0.755 0.0688,-0.48125 0.0688,-2.19625 0,-5.215 0.54875,-1.03 1.03,-1.50875 1.3725,-1.50875 0.68625,0 1.1675,0 1.3725,0.0675 0.6175,0.1375 1.03,0.48 1.0975,1.09875 0.0687,0.89125 0.1375,2.8125 0.1375,5.8325 1.3725,0.41125 2.05875,0.205 2.05875,-0.55 0,-0.755 0.0688,-2.47 0.13625,-5.14625 0.34375,-0.89125 0.82375,-1.3025 1.44125,-1.3025 1.57875,0 2.33375,0.47875 2.40125,1.43875 0,0.4825 0,1.51125 -0.0675,2.9525 l -0.0687,2.3325 c 0,0.275 0.205,0.48 0.54875,0.61875 l 1.715,0 0.6875,-0.55125 c -0.34375,0.0688 -0.6175,-0.0675 -0.6875,-0.48 -0.0675,-0.41125 -0.0675,-1.92 0.07,-4.59625 -0.2075,-1.09875 -0.54875,-1.85375 -1.09875,-2.19625 l -0.61875,-0.48 c -0.2725,-0.2075 -0.48,-0.4125 -0.685,-0.48 -0.6175,-0.275 -1.3725,-0.2075 -2.19625,0.13625 -1.3025,0.48 -1.98875,0.755 -1.98875,0.82375 -0.55,-0.48 -1.16625,-0.755 -1.785,-0.8925 -0.5475,-0.13625 -0.96,-0.205 -1.16625,-0.205 -0.275,0 -0.54875,0.0688 -0.82375,0.205 l -0.6175,0.34375 c -0.205,0.0687 -0.48,0.13625 -0.685,0.0687 -0.34375,-0.1375 -0.96125,-0.275 -1.85375,-0.4125 -0.54875,-0.0675 -0.8925,0.0687 -1.02875,0.275 l 0,0"
           inkscape:connector-curvature="0" />
        <path
           id="path3099"
           style="fill:#ffffff;fill-opacity:1;fill-rule:evenodd;stroke:none"
           d="m 109.49375,169.60375 -3.02,1.78375 c -1.165,1.30375 -1.50875,2.67625 -0.96,4.255 0.3425,1.02875 1.02875,1.8525 1.92125,2.5375 0.6175,0.41375 1.3725,0.75625 2.4025,1.09875 1.0275,0.3425 2.46875,-0.20625 4.45875,-1.6475 0.61875,-0.48 1.03,-1.0975 1.305,-1.98875 0.27375,-0.8925 0.3425,-1.71625 0.27375,-2.54 -0.1375,-1.30375 -1.30375,-2.40125 -3.43125,-3.2925 -0.96,-0.48125 -1.92125,-0.55 -2.95,-0.20625 l 0,0 z m -0.6175,1.92125 c 0.41125,-0.61875 0.96125,-0.68625 1.71625,-0.34375 l 2.19375,1.09875 c 1.03,0.68625 1.44125,1.64625 1.1675,2.8825 -0.27375,1.235 -0.6175,1.98875 -0.96125,2.19375 -0.96,0.755 -1.8525,0.82375 -2.60625,0.34375 -0.75625,-0.48 -1.57875,-1.235 -2.47,-2.19625 -0.8925,-1.09625 -0.96125,-2.0575 -0.2075,-2.8125 l 1.1675,-1.16625 0,0"
           inkscape:connector-curvature="0" />
        <path
           id="path3101"
           style="fill:#ffffff;fill-opacity:1;fill-rule:evenodd;stroke:none"
           d="m 133.305,171.73125 c -0.34375,-1.0975 -0.61875,-1.71625 -0.82375,-1.92125 -0.2075,-0.20625 -0.755,-0.0688 -1.6475,0.34125 0.4125,0.825 0.6175,1.51 0.6175,1.99125 0,0.48 0.0687,2.195 0.13625,5.14625 -0.0675,0.41125 0,0.755 0.27625,0.96125 0.27375,0.205 0.68625,0.34375 1.16625,0.34375 l 1.02875,-0.55 c -0.41125,-0.20625 -0.6175,-0.48125 -0.54875,-0.6875 0.0688,-0.205 0,-2.125 -0.205,-5.625 l 0,0"
           inkscape:connector-curvature="0" />
        <path
           id="path3103"
           style="fill:#ffffff;fill-opacity:1;fill-rule:evenodd;stroke:none"
           d="m 133.9225,170.63375 0.205,0.41125 c 0.13625,0.275 0.275,0.61625 0.41125,1.03 l 0,5.625 c 0,0.55 -0.13625,0.82375 -0.34375,0.82375 0.4125,0.07 0.825,0.07 1.1675,0.07 0.20625,0 0.41125,0 0.54875,-0.07 l 0.34375,-0.1375 c 0.13625,0 0.205,-0.205 0.27375,-0.54875 l 0.07,-0.48125 c -0.07,-3.36 -0.07,-5.145 0.0675,-5.42 0.275,-0.48 1.09875,-0.68625 2.47,-0.54875 1.03,0.0688 1.57875,0.8925 1.71625,2.40125 -0.1375,2.40125 -0.20625,3.77375 -0.20625,4.1175 0,0.205 0.1375,0.48 0.3425,0.6875 0.20625,0.205 0.41125,0.3425 0.61875,0.41125 0.2725,0.0675 0.685,0.0675 1.235,-0.1375 0.0675,-0.34375 0,-0.54875 -0.2075,-0.6175 -0.20375,-0.07 -0.2725,-0.34375 -0.20375,-0.6875 0.20375,-2.675 0.27375,-4.2525 0.27375,-4.665 0,-0.68625 -0.1375,-1.16625 -0.3425,-1.51 -0.2075,-0.275 -0.4825,-0.54875 -0.9625,-0.8925 -0.47875,-0.34375 -0.95875,-0.61625 -1.44125,-0.82375 -0.61625,-0.2725 -1.645,0.13875 -3.155,1.235 -0.34375,-0.205 -0.68625,-0.48 -0.96,-0.8225 -0.275,-0.3425 -0.89375,-0.1375 -1.92125,0.55 l 0,0"
           inkscape:connector-curvature="0" />
        <path
           id="path3105"
           style="fill:#ffffff;fill-opacity:1;fill-rule:evenodd;stroke:none"
           d="m 145.0375,169.81 c -0.20625,-0.20625 -0.75375,-0.0688 -1.6475,0.34125 0.4125,0.825 0.61875,1.51 0.61875,1.99125 0,0.48 0.0675,2.195 0.13625,5.14625 -0.0687,0.41125 0,0.755 0.275,0.96125 0.275,0.205 0.68625,0.34375 1.16625,0.34375 l 1.03,-0.55 c -0.41125,-0.20625 -0.61875,-0.48125 -0.55,-0.6875 0.07,-0.205 0,-2.125 -0.205,-5.625 -0.3425,-1.0975 -0.6175,-1.71625 -0.82375,-1.92125 l 0,0"
           inkscape:connector-curvature="0" />
        <path
           id="path3107"
           style="fill:#ffffff;fill-opacity:1;fill-rule:evenodd;stroke:none"
           d="m 98.8575,179.8275 c 0.20625,0 0.6175,0.1375 1.37125,0.48 0.755,0.34375 1.16875,0.54875 1.37375,0.61875 l 1.16625,-0.61875 c -0.755,-0.755 -1.30375,-1.16625 -1.71375,-1.235 -0.0713,0 -0.2075,-0.0675 -0.27625,-0.1375 l -0.0675,-0.13625 c -0.0688,-0.0688 -0.4125,0 -1.03,0.27375 l -1.715,0.82375 c -0.48125,0.20625 -0.755,0.48 -0.89375,0.755 -0.0675,0.0688 -0.20375,0.275 -0.41125,0.6175 -0.205,0.3425 -0.41125,0.6175 -0.48,0.82375 -0.20625,0.755 0.20625,1.5775 1.235,2.40125 l 2.54,0.68625 c 0.48,0.13625 0.8225,0.41125 1.0275,0.82375 l 0.55,0.96 c 0.0688,0.20625 -0.13625,0.48125 -0.47875,0.755 -0.4825,0.27375 -0.9625,0.4125 -1.51,0.48125 -0.61875,0.0675 -1.03,-0.0688 -1.09875,-0.4125 l -0.275,-1.02875 -1.44125,0.205 c -0.13625,1.30375 0.6175,1.99125 2.19625,2.05875 1.16625,-0.20625 1.99,-0.41125 2.33375,-0.6175 0.27375,-0.0687 0.47875,-0.27375 0.685,-0.54875 l 0.61875,-0.755 c 0.205,-0.3425 0.3425,-0.755 0.27375,-1.16625 0,-0.61875 -0.0687,-0.96125 -0.205,-1.16625 -0.13875,-0.20625 -0.48125,-0.48125 -1.03,-0.75625 -0.755,-0.48 -1.715,-0.8225 -2.88125,-1.0975 -0.8925,-0.6175 -1.1675,-1.30375 -0.825,-1.92 0.34375,-0.61875 0.68625,-1.03 0.96125,-1.1675 l 0,0"
           inkscape:connector-curvature="0" />
        <path
           id="path3109"
           style="fill:#ffffff;fill-opacity:1;fill-rule:evenodd;stroke:none"
           d="m 118.55,180.3075 c 0.61875,-0.48 1.305,-0.5475 1.99125,-0.205 1.09875,0.54875 1.78375,0.82375 2.05875,0.8925 l 1.0975,-0.6875 c -0.89125,-1.235 -2.1275,-1.645 -3.8425,-1.235 -1.3725,0.34375 -2.53875,0.96125 -3.43,1.78375 -1.03125,0.96125 -1.51,2.05875 -1.4425,3.29375 0.20625,2.54 1.1675,4.05 2.81375,4.52875 0.82375,0.205 1.78375,0.27625 2.8825,0.205 1.03,-0.0675 1.715,-0.2725 2.1275,-0.47875 0.48,-0.34375 0.75375,-0.54875 0.8225,-0.68625 0.20625,-0.20625 0.34375,-0.34375 0.34375,-0.54875 -0.07,-0.275 -0.20625,-0.54875 -0.4125,-0.755 l -0.89125,0.0687 -0.6175,0.68625 c -0.07,0.48 -0.3425,0.8225 -0.825,0.89125 -0.61625,0.13875 -1.23375,0.13875 -1.85125,0 -0.96125,-0.205 -1.57875,-0.8225 -1.78375,-1.715 -0.20625,-1.03 -0.34375,-1.99 -0.34375,-2.8825 0,-0.755 0.0688,-1.37125 0.275,-1.8525 0.27375,-0.54875 0.61625,-0.96 1.0275,-1.30375 l 0,0"
           inkscape:connector-curvature="0" />
        <path
           id="path3111"
           style="fill:#ffffff;fill-opacity:1;fill-rule:evenodd;stroke:none"
           d="m 108.465,178.8675 -1.03,1.02875 c 1.305,1.785 1.92125,3.01875 1.99,3.6375 -0.20625,0.0688 -0.48,0.0688 -0.82375,0.13625 -0.61625,0.0687 -1.16625,0.205 -1.64625,0.4125 -1.57875,0.54875 -2.40125,1.50875 -2.47,2.8825 0,0.48 0.0687,0.75375 0.13625,0.8225 0.1375,0.205 0.48,0.48 0.96,0.755 0.6875,0.34375 1.37375,0.4125 1.99125,0.27375 0.34375,-0.0688 0.755,-0.27375 1.3725,-0.61625 l 0.41125,-0.34375 0.41125,-0.20625 c 0.20625,-0.0687 0.48125,0 0.68625,0.20625 l 1.03,1.03 c 0.205,0 0.54875,-0.07 1.03,-0.2075 0.34125,-0.0675 0.685,-0.20625 0.89125,-0.41125 -0.0687,-0.0675 -0.275,-0.3425 -0.48,-0.68625 -0.20625,-0.41125 -0.48125,-1.3025 -0.755,-2.6075 -0.34375,-1.30375 -0.48125,-2.05875 -0.55,-2.195 l -0.2725,-0.48125 -0.34375,-0.82375 c -0.34375,-0.68625 -0.68625,-1.235 -1.03,-1.5775 -0.6175,-0.54875 -1.0975,-0.89125 -1.50875,-1.02875 l 0,0 z m -0.48,8.92 c -0.48125,-0.0688 -0.89375,-0.275 -1.305,-0.6175 -0.61625,-0.48 -0.54875,-1.16625 0.275,-2.0575 0.3425,-0.4125 0.89125,-0.55 1.5775,-0.4125 0.34375,0.13625 0.6175,0.27375 0.82375,0.3425 0.20625,0.07 0.41125,0.54875 0.48125,1.30375 0.0675,0.275 0,0.48 -0.07,0.68625 -0.1375,0.20625 -0.3425,0.4125 -0.6175,0.6175 -0.3425,0.20625 -0.685,0.20625 -1.165,0.1375 l 0,0"
           inkscape:connector-curvature="0" />
        <path
           id="path3113"
           style="fill:#ffffff;fill-opacity:1;fill-rule:evenodd;stroke:none"
           d="m 141.675,179.89625 c -0.6175,-0.55 -1.165,-0.89125 -1.5775,-1.02875 l -1.03,1.02875 c 1.305,1.785 1.99,3.01875 2.05875,3.63625 -0.205,0.07 -0.48,0.07 -0.82375,0.1375 -0.61625,0.0687 -1.16625,0.205 -1.64625,0.4125 -1.5775,0.54875 -2.47,1.50875 -2.53875,2.88125 0.0687,0.48125 0.1375,0.755 0.20625,0.82375 0.0675,0.205 0.41125,0.48 0.89125,0.755 0.68625,0.34125 1.3725,0.4125 2.06,0.27375 0.34125,-0.0688 0.75375,-0.27375 1.3025,-0.61625 l 0.8225,-0.55 c 0.2075,-0.0687 0.48,0 0.755,0.20625 l 1.03,1.0275 c 0.205,0 0.54875,-0.0675 1.03,-0.205 0.34125,-0.0675 0.685,-0.20625 0.89125,-0.41125 -0.0687,-0.0675 -0.275,-0.3425 -0.48,-0.68625 -0.20625,-0.41125 -0.48125,-1.3025 -0.82375,-2.6075 -0.27375,-1.30375 -0.4125,-2.05875 -0.48,-2.195 l -0.275,-0.48125 -0.3425,-0.82375 c -0.3425,-0.68625 -0.68625,-1.235 -1.03,-1.5775 l 0,0 z m -3.36125,7.27375 c -0.6175,-0.48 -0.48,-1.16625 0.27375,-2.0575 0.34375,-0.4125 0.8925,-0.55 1.57875,-0.4125 0.34375,0.13625 0.68625,0.27375 0.89125,0.3425 0.20625,0.07 0.3425,0.54875 0.48125,1.30375 0,0.275 -0.07,0.48 -0.13875,0.68625 -0.0675,0.20625 -0.27375,0.4125 -0.5475,0.6175 -0.3425,0.20625 -0.68625,0.20625 -1.16625,0.1375 -0.48125,-0.0688 -0.8925,-0.275 -1.3725,-0.6175 l 0,0"
           inkscape:connector-curvature="0" />
        <path
           id="path3115"
           style="fill:#ffffff;fill-opacity:1;fill-rule:evenodd;stroke:none"
           d="M 134.53875,181.40625 133.51,179.965 c -0.3425,-0.48 -0.82375,-0.68625 -1.44125,-0.68625 -0.68625,0 -1.3725,0.0675 -2.05875,0.20625 -0.755,0.0675 -1.235,0.205 -1.44,0.3425 -0.20625,0.0688 -0.41125,0 -0.6875,-0.20625 -0.3425,-0.275 -0.54875,-0.41125 -0.6175,-0.3425 -0.205,0.0675 -0.75375,0.3425 -1.51,0.755 0.34375,0.27375 0.55,0.68625 0.55,1.30375 0,0.6175 0,2.95 -0.07,6.99875 l -0.34125,0.5475 2.60625,0 0.13875,-1.57625 c 0.89125,-0.1375 1.51,0 1.8525,0.3425 0.0675,0.0688 0.205,0.3425 0.5475,0.8225 0.2075,0.275 0.4125,0.41125 0.75625,0.4825 0.5475,0.0675 1.3025,0.0675 2.26375,0 -0.34375,-0.27625 -0.68625,-0.55 -1.02875,-0.82375 -0.34375,-0.275 -0.68625,-0.82375 -1.16625,-1.6475 1.5775,-1.1675 2.4,-1.99 2.60625,-2.47125 0.2075,-0.48 0.34375,-0.8925 0.4125,-1.0975 0.0675,-0.54875 0,-1.02875 -0.34375,-1.50875 l 0,0 z m -4.94,-0.41125 c 0.48125,-0.0688 1.0975,-0.0688 1.8525,0.13625 0.20625,0.0688 0.4125,0.3425 0.6175,0.68625 0.205,0.275 0.34375,0.54875 0.4125,0.89125 0.0688,0.275 0,0.755 -0.2075,1.37375 -0.205,0.6175 -0.47875,1.0975 -0.75375,1.3725 -0.205,0.205 -0.54875,0.34125 -0.96125,0.34125 l -0.89,0 c -0.34375,0 -0.7575,-0.27375 -1.305,-0.89125 l -0.0687,-3.3625 c 0.48,-0.27375 0.96,-0.48 1.30375,-0.5475 l 0,0"
           inkscape:connector-curvature="0" />
        <path
           id="path3117"
           style="fill:#ffffff;fill-opacity:1;fill-rule:evenodd;stroke:none"
           d="m 116.83625,190.0525 c -0.41125,-0.48125 -0.8925,-0.68625 -1.51,-0.68625 -0.68625,0 -1.3725,0.0688 -2.0575,0.13625 -0.755,0.1375 -1.23625,0.275 -1.4425,0.41125 -0.20625,0.0688 -0.41125,0 -0.68625,-0.20375 -0.3425,-0.275 -0.5475,-0.4125 -0.6175,-0.34375 -0.205,0.0688 -0.755,0.34375 -1.51,0.755 0.34375,0.27375 0.55,0.68625 0.55,1.3025 0,0.61875 0,2.8825 -0.0688,6.93 l -0.34375,0.55 2.60875,0 0.13625,-1.5775 c 0.89125,-0.13875 1.51,0 1.85375,0.34125 0.0675,0.07 0.205,0.34375 0.5475,0.825 0.20625,0.3425 0.4125,0.48 0.755,0.48 0.55,0.0675 1.305,0.0675 2.265,0 -0.34375,-0.275 -0.68625,-0.55 -1.03,-0.82375 -0.3425,-0.27375 -0.685,-0.8225 -1.16625,-1.6475 1.57875,-1.16625 2.4025,-1.99 2.6075,-2.40125 0.275,-0.54875 0.41125,-0.96 0.41125,-1.16625 0.0687,-0.48 0,-0.96 -0.3425,-1.44125 l -0.96,-1.44125 0,10e-4 z m -1.51,1.85125 c 0.205,0.275 0.3425,0.55 0.41125,0.8925 0.0687,0.20625 0,0.6875 -0.20625,1.30375 -0.205,0.61875 -0.48,1.09875 -0.75375,1.3725 -0.20625,0.20625 -0.55,0.34375 -0.96125,0.4125 l -0.48,-0.0687 -0.41125,0 c -0.34375,0 -0.755,-0.275 -1.305,-0.8925 l -0.0675,-3.29375 c 0.48,-0.275 0.96125,-0.48125 1.3025,-0.54875 0.48125,-0.1375 1.09875,-0.0688 1.85375,0.1375 0.20625,0.0688 0.41125,0.27375 0.6175,0.685 l 0,0"
           inkscape:connector-curvature="0" />
        <path
           id="path3119"
           style="fill:#ffffff;fill-opacity:1;fill-rule:evenodd;stroke:none"
           d="m 133.51,191.2875 1.1675,-0.61875 c -0.755,-0.755 -1.305,-1.16625 -1.71625,-1.23375 -0.13625,-0.0688 -0.205,-0.0688 -0.275,-0.1375 l -0.0687,-0.20625 c -0.0675,-0.0688 -0.41125,0.0688 -1.03,0.34375 l -1.71375,0.75375 c -0.48,0.20625 -0.82375,0.48 -0.8925,0.82375 -0.07,0.0688 -0.20625,0.275 -0.41125,0.6175 -0.20625,0.34375 -0.41125,0.6175 -0.48125,0.82375 -0.20625,0.755 0.20625,1.51 1.23625,2.3325 l 2.47,0.68625 c 0.54875,0.20625 0.89125,0.48 1.0975,0.82375 l 0.54875,1.03 c 0.0687,0.205 -0.13625,0.47875 -0.48,0.685 -0.48,0.3425 -0.96125,0.48125 -1.51,0.55 -0.6175,0.0675 -1.03,-0.13875 -1.0975,-0.48125 l -0.27375,-1.02875 -1.44125,0.205 c -0.13875,1.305 0.61625,1.99 2.195,2.05875 1.16625,-0.20625 1.9225,-0.41125 2.33375,-0.54875 0.27375,-0.1375 0.48,-0.34375 0.685,-0.6175 l 0.6175,-0.755 c 0.2075,-0.3425 0.34375,-0.68625 0.27625,-1.16625 -0.0687,-0.54875 -0.13875,-0.8925 -0.2075,-1.0975 -0.13625,-0.275 -0.48,-0.55 -1.02875,-0.82375 -0.75375,-0.41125 -1.715,-0.755 -2.88125,-1.03 -0.8925,-0.6175 -1.1675,-1.3025 -0.82375,-1.92125 0.34375,-0.6175 0.68625,-1.03 0.95875,-1.16625 0.2075,0 0.61875,0.13625 1.37375,0.48 0.755,0.34375 1.1675,0.55 1.3725,0.61875 l 0,0"
           inkscape:connector-curvature="0" />
        <path
           id="path3121"
           style="fill:#ffffff;fill-opacity:1;fill-rule:evenodd;stroke:none"
           d="m 126.37375,191.0125 -0.13875,-0.755 c -0.41125,-0.48 -0.95875,-0.755 -1.71375,-0.8225 -0.48,-0.0688 -0.82375,-0.0688 -1.03,0 l -1.3725,0.75375 c -1.165,0.61875 -1.92,1.09875 -2.3325,1.51 -0.8225,0.755 -1.16625,1.715 -1.0975,2.8125 0.0687,1.1675 0.205,1.99 0.4125,2.33375 0.0675,0.20625 0.41125,0.6175 1.02875,1.16625 0.54875,0.55 1.3025,0.8925 2.195,1.02875 0.8925,0.20625 1.6475,0.1375 2.3325,-0.13625 1.23625,-0.48125 1.92125,-0.96125 2.06,-1.305 0.205,-0.68625 0.205,-1.0275 -0.13875,-1.0275 -0.205,0 -0.41125,0.205 -0.685,0.61625 -0.34375,0.48 -0.6175,0.6875 -0.825,0.755 -0.205,0.0688 -0.48,0.0688 -0.8225,0 -0.41125,-0.0675 -0.82375,-0.1375 -1.16625,-0.275 -0.96125,-0.48 -1.51,-1.235 -1.715,-2.2625 1.02875,-0.755 2.40125,-1.16875 4.1175,-1.09875 0.0675,0 0.0675,0 0.13625,-0.07 l 0.275,-0.2725 c 0.205,-0.275 0.0687,-0.4125 -0.275,-0.4125 -2.6075,0 -4.18625,-0.1375 -4.80375,-0.48125 -0.0688,0 0.07,-0.205 0.275,-0.61625 0.20625,-0.48 0.48,-0.755 0.68625,-0.96125 L 122.6,190.805 c 0.3425,-0.205 0.6175,-0.205 0.89125,-0.13625 0.34375,0.13625 0.8925,0.34375 1.6475,0.68625 l 1.235,-0.3425 0,0"
           inkscape:connector-curvature="0" />
        <path
           id="path3123"
           style="fill:#ffffff;fill-opacity:1;fill-rule:evenodd;stroke:none"
           d="m 143.5975,159.92875 c -0.9625,-0.41125 -1.99,-0.48125 -3.02,-0.13875 l -3.01875,1.71625 c -1.1675,1.30375 -1.51,2.745 -0.96,4.3225 0.3425,1.03 1.0275,1.85375 1.92125,2.4725 0.61625,0.41 1.43875,0.8225 2.40125,1.165 1.02875,0.34375 2.53875,-0.20625 4.52875,-1.6475 0.61625,-0.48 1.02875,-1.09625 1.30375,-1.99 0.27375,-0.89125 0.3425,-1.715 0.27375,-2.6075 -0.20625,-1.3025 -1.30375,-2.40125 -3.43,-3.2925 l 0,0 z m -3.63875,1.715 c 0.41375,-0.6175 1.03,-0.68625 1.785,-0.34375 l 2.19625,1.09875 c 1.03,0.68625 1.44125,1.6475 1.16625,2.8825 -0.275,1.3025 -0.6175,2.0575 -0.96125,2.26375 -0.96,0.75625 -1.85125,0.82375 -2.60625,0.34375 -0.82375,-0.48125 -1.6475,-1.23625 -2.53875,-2.19625 -0.8925,-1.16625 -0.96125,-2.1275 -0.20625,-2.8825 l 1.165,-1.16625 0,0"
           inkscape:connector-curvature="0" />
        <path
           inkscape:connector-curvature="0"
           d="m 95.08375,178.11125 0,-19.89875 m 14.82125,9.745 0,-6.6575 m 29.4375,6.6575 0,-6.6575 m -30.94625,16.4 0,-6.655 m 20.72125,17.77125 0,-7.685 m -16.67375,17.9775 0,-7.685"
           style="fill:#ffffff;stroke:#ffffff;stroke-width:0.13737374999999999;stroke-linecap:round;stroke-linejoin:round;stroke-miterlimit:2.61310004999999990;stroke-opacity:1;stroke-dasharray:none"
           id="path3127" />
        <path
           id="path3129"
           style="fill:#ffffff;stroke:#ffffff;stroke-width:0.06849463000000000;stroke-linecap:round;stroke-linejoin:round;stroke-miterlimit:2.61310004999999990;stroke-opacity:1;stroke-dasharray:none"
           d="m 112.17,184.63125 -0.8225,-4.46 -2.815,-1.09875 m 35.4075,5.8325 -0.8225,-4.46125 -2.815,-1.09625 m -18.38875,18.39 0,-6.1075"
           inkscape:connector-curvature="0" />
      </g>
    </g>
  </g>
</svg>
