<?xml version="1.0" encoding="UTF-8" standalone="no"?>
<!-- Created with Inkscape (http://www.inkscape.org/) -->

<svg
   xmlns:dc="http://purl.org/dc/elements/1.1/"
   xmlns:cc="http://creativecommons.org/ns#"
   xmlns:rdf="http://www.w3.org/1999/02/22-rdf-syntax-ns#"
   xmlns:svg="http://www.w3.org/2000/svg"
   xmlns="http://www.w3.org/2000/svg"
   xmlns:sodipodi="http://sodipodi.sourceforge.net/DTD/sodipodi-0.dtd"
   xmlns:inkscape="http://www.inkscape.org/namespaces/inkscape"
   width="41.366573mm"
   height="22.793087mm"
   viewBox="0 0 146.57447 80.762906"
   id="svg5155"
   version="1.1"
   inkscape:version="0.91 r13725"
   sodipodi:docname="uimp_logo.svg"
   inkscape:export-filename="uimp_logo.png"
   inkscape:export-xdpi="368.41"
   inkscape:export-ydpi="368.41">
  <defs
     id="defs5157">
    <clipPath
       id="clipPath4364"
       clipPathUnits="userSpaceOnUse">
      <path
         inkscape:connector-curvature="0"
         id="path4366"
         d="m 32.315,482.74 102.208,0 0,24.575 -102.208,0 0,-24.575 z" />
    </clipPath>
    <clipPath
       id="clipPath4200"
       clipPathUnits="userSpaceOnUse">
      <path
         inkscape:connector-curvature="0"
         id="path4202"
         d="m 34.583,501.457 104.046,0 0,31.72 -104.046,0 0,-31.72 z" />
    </clipPath>
  </defs>
  <sodipodi:namedview
     id="base"
     pagecolor="#ffffff"
     bordercolor="#666666"
     borderopacity="1.0"
     inkscape:pageopacity="0.0"
     inkscape:pageshadow="2"
     inkscape:zoom="3.959798"
     inkscape:cx="93.996889"
     inkscape:cy="59.808757"
     inkscape:document-units="px"
     inkscape:current-layer="layer1"
     showgrid="false"
     fit-margin-top="3"
     fit-margin-left="3"
     fit-margin-right="3"
     fit-margin-bottom="2"
     inkscape:window-width="1920"
     inkscape:window-height="1017"
     inkscape:window-x="-8"
     inkscape:window-y="-8"
     inkscape:window-maximized="1" />
  <metadata
     id="metadata5160">
    <rdf:RDF>
      <cc:Work
         rdf:about="">
        <dc:format>image/svg+xml</dc:format>
        <dc:type
           rdf:resource="http://purl.org/dc/dcmitype/StillImage" />
        <dc:title></dc:title>
      </cc:Work>
    </rdf:RDF>
  </metadata>
  <g
     inkscape:label="logo"
     inkscape:groupmode="layer"
     id="layer1"
     transform="translate(-257.1872,-267.35169)">
    <g
       id="g6425">
      <path
         d="m 303.66298,309.09361 0,6.15875 14.65125,0 0,-6.15875 -3.72,0 0,-24.92 3.72,0 0,-6.19125 -14.65125,0 0,6.19125 3.81375,0 0,24.92 -3.81375,0 z"
         style="fill:#942d42;fill-opacity:1;fill-rule:nonzero;stroke:none"
         id="path4346"
         inkscape:connector-curvature="0" />
      <path
         d="m 284.45461,315.62661 c 3.445,0 6.665,-0.8125 9.23125,-3.3725 2.91875,-2.915 3.56625,-6.14125 3.56625,-10.09125 l 0,-17.96875 3.8175,0 0,-6.2125 -14.0975,0 0,6.2125 3.22125,0 0,17.26375 c 0,3.47125 -0.9425,7.39625 -5.75125,7.39625 -4.80875,0 -5.74875,-3.925 -5.74875,-7.39625 l 0,-17.26375 3.22,0 0,-6.2125 -14.09625,0 0,6.2125 3.81625,0 0,17.96875 c 0,3.95 0.65,7.17625 3.56625,10.09125 2.56875,2.56 5.81125,3.3725 9.255,3.3725"
         style="fill:#942d42;fill-opacity:1;fill-rule:nonzero;stroke:none"
         id="path4350"
         inkscape:connector-curvature="0" />
      <path
         d="m 364.21924,278.00099 0,6.1875 3.9525,0 0,24.90125 -3.9525,0 0,6.1575 14.99875,0 0,-6.1575 -4.005,0 0,-6.71 5.03125,0 c 3.69875,0 6.675,-0.67875 9.345,-3.445 2.31125,-2.2975 3.5425,-5.48125 3.5425,-8.77 0,-3.86375 -1.4375,-7.4125 -4.51875,-9.70875 -2.71875,-2.0375 -6.46875,-2.455 -9.75375,-2.455 l -14.64,0 z m 10.99375,17.9575 0,-11.48375 3.85125,0 c 1.695,0 3.23375,0.0525 4.725,1.1475 1.435,0.9925 2.3075,2.715 2.3075,4.5425 0,1.7225 -0.66625,3.3925 -2.00125,4.54125 -1.3875,1.2 -2.97875,1.2525 -4.72375,1.2525 l -4.15875,0"
         style="fill:#942d42;fill-opacity:1;fill-rule:nonzero;stroke:none"
         id="path4354"
         inkscape:connector-curvature="0" />
      <path
         d="m 343.33536,309.55161 7.33625,-22.96 0.004,22.50375 -4.09,0 0,6.1575 15.0325,0 0,-6.1575 -3.87875,0 0,-24.8975 3.87875,0 0,-6.21625 -14.535,0 -5.82125,19.77875 -5.81875,-19.77875 -14.53625,0 0,6.21625 3.87625,0 0,24.8975 -3.87625,0 0,6.1575 15.0325,0 0,-6.1575 -4.0925,0 0.004,-22.50375 7.32875,22.96 4.15625,0 z"
         style="fill:#942d42;fill-opacity:1;fill-rule:nonzero;stroke:none"
         id="path4358"
         inkscape:connector-curvature="0" />
    </g>
    <g
       id="g6192">
      <g
         transform="matrix(1.25,0,0,-1.25,268.02036,338.67723)"
         id="g4368">
        <path
           inkscape:connector-curvature="0"
           id="path4370"
           style="fill:#000000;fill-opacity:1;fill-rule:nonzero;stroke:none"
           d="m 0,0 0,6.396 1.274,0 1.514,-4.529 C 2.928,1.445 3.029,1.13 3.093,0.921 3.166,1.153 3.279,1.495 3.434,1.945 l 1.531,4.451 1.14,0 0,-6.396 -0.817,0 0,5.353 L 3.43,0 2.665,0 0.816,5.445 0.816,0 0,0" />
      </g>
      <g
         transform="matrix(1.25,0,0,-1.25,281.19498,336.81211)"
         id="g4372">
        <path
           inkscape:connector-curvature="0"
           id="path4374"
           style="fill:#000000;fill-opacity:1;fill-rule:nonzero;stroke:none"
           d="M 0,0 0.812,-0.101 C 0.684,-0.574 0.446,-0.942 0.101,-1.203 c -0.347,-0.263 -0.788,-0.395 -1.326,-0.395 -0.678,0 -1.216,0.21 -1.614,0.625 -0.396,0.419 -0.595,1.005 -0.595,1.758 0,0.78 0.202,1.383 0.604,1.814 0.4,0.431 0.921,0.646 1.561,0.646 0.62,0 1.125,-0.21 1.518,-0.632 C 0.641,2.192 0.838,1.598 0.838,0.834 0.838,0.787 0.837,0.718 0.834,0.625 l -3.457,0 c 0.032,-0.511 0.175,-0.9 0.434,-1.17 0.258,-0.272 0.58,-0.407 0.967,-0.407 0.289,0 0.535,0.077 0.738,0.226 C -0.281,-0.572 -0.119,-0.332 0,0 m -2.578,1.269 2.587,0 c -0.035,0.39 -0.134,0.681 -0.296,0.877 -0.251,0.302 -0.575,0.453 -0.973,0.453 -0.36,0 -0.664,-0.12 -0.912,-0.362 -0.244,-0.241 -0.38,-0.563 -0.406,-0.968" />
      </g>
      <g
         transform="matrix(1.25,0,0,-1.25,283.44198,338.67723)"
         id="g4376">
        <path
           inkscape:connector-curvature="0"
           id="path4378"
           style="fill:#000000;fill-opacity:1;fill-rule:nonzero;stroke:none"
           d="m 0,0 0,4.634 0.707,0 0,-0.66 C 1.048,4.482 1.54,4.738 2.181,4.738 2.46,4.738 2.717,4.687 2.949,4.585 3.186,4.485 3.362,4.354 3.477,4.192 3.594,4.029 3.674,3.835 3.722,3.612 3.751,3.467 3.766,3.212 3.766,2.849 L 3.766,0 2.98,0 l 0,2.818 C 2.98,3.139 2.949,3.376 2.888,3.534 2.827,3.693 2.719,3.82 2.561,3.913 2.407,4.009 2.225,4.057 2.016,4.057 1.681,4.057 1.393,3.951 1.147,3.739 0.907,3.527 0.785,3.123 0.785,2.53 L 0.785,0 0,0" />
      </g>
      <g
         transform="matrix(1.25,0,0,-1.25,293.61736,336.81211)"
         id="g4380">
        <path
           inkscape:connector-curvature="0"
           id="path4382"
           style="fill:#000000;fill-opacity:1;fill-rule:nonzero;stroke:none"
           d="M 0,0 0.812,-0.101 C 0.684,-0.574 0.447,-0.942 0.101,-1.203 c -0.347,-0.263 -0.788,-0.395 -1.326,-0.395 -0.678,0 -1.216,0.21 -1.614,0.625 -0.396,0.419 -0.595,1.005 -0.595,1.758 0,0.78 0.202,1.383 0.603,1.814 0.401,0.431 0.922,0.646 1.562,0.646 0.62,0 1.125,-0.21 1.518,-0.632 C 0.641,2.192 0.838,1.598 0.838,0.834 0.838,0.787 0.837,0.718 0.834,0.625 l -3.457,0 c 0.03,-0.511 0.175,-0.9 0.434,-1.17 0.258,-0.272 0.58,-0.407 0.967,-0.407 0.289,0 0.535,0.077 0.738,0.226 C -0.281,-0.572 -0.119,-0.332 0,0 m -2.578,1.269 2.587,0 c -0.035,0.39 -0.134,0.681 -0.296,0.877 -0.251,0.302 -0.576,0.453 -0.973,0.453 -0.36,0 -0.664,-0.12 -0.912,-0.362 -0.244,-0.241 -0.38,-0.563 -0.406,-0.968 m 0.846,2.448 0.58,1.22 1.03,0 -0.959,-1.22 -0.651,0" />
      </g>
      <g
         transform="matrix(1.25,0,0,-1.25,295.86436,338.67723)"
         id="g4384">
        <path
           inkscape:connector-curvature="0"
           id="path4386"
           style="fill:#000000;fill-opacity:1;fill-rule:nonzero;stroke:none"
           d="m 0,0 0,4.634 0.707,0 0,-0.66 C 1.048,4.482 1.538,4.738 2.181,4.738 2.46,4.738 2.717,4.687 2.949,4.585 3.184,4.485 3.362,4.354 3.477,4.192 3.594,4.029 3.674,3.835 3.722,3.612 3.751,3.467 3.766,3.212 3.766,2.849 L 3.766,0 2.98,0 l 0,2.818 C 2.98,3.139 2.949,3.376 2.888,3.534 2.827,3.693 2.717,3.82 2.561,3.913 2.407,4.009 2.225,4.057 2.016,4.057 1.681,4.057 1.391,3.951 1.147,3.739 0.905,3.527 0.785,3.123 0.785,2.53 L 0.785,0 0,0" />
      </g>
      <g
         transform="matrix(1.25,0,0,-1.25,305.83361,338.67723)"
         id="g4388">
        <path
           inkscape:connector-curvature="0"
           id="path4390"
           style="fill:#000000;fill-opacity:1;fill-rule:nonzero;stroke:none"
           d="m 0,0 0,0.585 c -0.293,-0.46 -0.727,-0.691 -1.297,-0.691 -0.368,0 -0.708,0.103 -1.02,0.306 -0.308,0.205 -0.548,0.489 -0.719,0.852 -0.17,0.366 -0.254,0.787 -0.254,1.26 0,0.463 0.077,0.882 0.231,1.256 0.154,0.379 0.386,0.669 0.695,0.869 0.307,0.202 0.652,0.301 1.034,0.301 0.277,0 0.527,-0.06 0.745,-0.179 0.218,-0.116 0.396,-0.269 0.532,-0.458 l 0,2.295 0.782,0 L 0.729,0 0,0 Z m -2.482,2.312 c 0,-0.594 0.124,-1.037 0.375,-1.33 0.25,-0.293 0.545,-0.442 0.885,-0.442 0.344,0 0.634,0.141 0.872,0.419 0.241,0.283 0.363,0.712 0.363,1.288 0,0.634 -0.123,1.099 -0.367,1.395 -0.245,0.297 -0.545,0.447 -0.903,0.447 -0.35,0 -0.642,-0.144 -0.877,-0.429 C -2.367,3.375 -2.482,2.925 -2.482,2.312" />
      </g>
      <g
         transform="matrix(1.25,0,0,-1.25,312.25186,336.81211)"
         id="g4392">
        <path
           inkscape:connector-curvature="0"
           id="path4394"
           style="fill:#000000;fill-opacity:1;fill-rule:nonzero;stroke:none"
           d="M 0,0 0.811,-0.101 C 0.683,-0.574 0.446,-0.942 0.099,-1.203 c -0.345,-0.263 -0.788,-0.395 -1.325,-0.395 -0.679,0 -1.216,0.21 -1.615,0.625 -0.396,0.419 -0.593,1.005 -0.593,1.758 0,0.78 0.201,1.383 0.603,1.814 0.401,0.431 0.922,0.646 1.56,0.646 0.62,0 1.127,-0.21 1.52,-0.632 C 0.641,2.192 0.837,1.598 0.837,0.834 0.837,0.787 0.835,0.718 0.832,0.625 l -3.455,0 c 0.03,-0.511 0.173,-0.9 0.433,-1.17 0.258,-0.272 0.582,-0.407 0.968,-0.407 0.289,0 0.533,0.077 0.738,0.226 C -0.281,-0.572 -0.119,-0.332 0,0 m -2.578,1.269 2.587,0 c -0.035,0.39 -0.134,0.681 -0.298,0.877 -0.249,0.302 -0.574,0.453 -0.972,0.453 -0.361,0 -0.665,-0.12 -0.912,-0.362 C -2.418,1.996 -2.552,1.674 -2.578,1.269" />
      </g>
      <g
         transform="matrix(1.25,0,0,-1.25,313.97961,338.67723)"
         id="g4396">
        <path
           inkscape:connector-curvature="0"
           id="path4398"
           style="fill:#000000;fill-opacity:1;fill-rule:nonzero;stroke:none"
           d="M 0,0 0,0.637 2.949,4.023 C 2.615,4.004 2.32,3.995 2.064,3.995 l -1.89,0 0,0.639 3.787,0 0,-0.519 L 1.452,1.174 0.968,0.637 C 1.321,0.663 1.651,0.675 1.96,0.675 l 2.141,0 L 4.101,0 0,0" />
      </g>
      <g
         transform="matrix(1.25,0,0,-1.25,323.62436,338.67723)"
         id="g4400">
        <path
           inkscape:connector-curvature="0"
           id="path4402"
           style="fill:#000000;fill-opacity:1;fill-rule:nonzero;stroke:none"
           d="m 0,0 0,6.396 2.412,0 C 2.836,6.396 3.161,6.375 3.384,6.335 3.699,6.283 3.961,6.181 4.174,6.034 4.386,5.887 4.556,5.683 4.684,5.419 4.815,5.153 4.881,4.863 4.881,4.546 4.881,4.003 4.707,3.54 4.36,3.163 4.015,2.787 3.391,2.601 2.487,2.601 l -1.641,0 L 0.846,0 0,0 Z m 0.846,3.355 1.652,0 c 0.548,0 0.936,0.101 1.166,0.305 0.229,0.204 0.344,0.49 0.345,0.859 0,0.269 -0.07,0.496 -0.206,0.686 C 3.668,5.396 3.491,5.523 3.272,5.584 3.128,5.622 2.865,5.64 2.482,5.64 l -1.636,0 0,-2.285" />
      </g>
      <g
         transform="matrix(1.25,0,0,-1.25,334.91086,336.81211)"
         id="g4404">
        <path
           inkscape:connector-curvature="0"
           id="path4406"
           style="fill:#000000;fill-opacity:1;fill-rule:nonzero;stroke:none"
           d="M 0,0 0.812,-0.101 C 0.684,-0.575 0.446,-0.942 0.101,-1.203 c -0.347,-0.263 -0.788,-0.395 -1.326,-0.395 -0.678,0 -1.217,0.21 -1.614,0.625 -0.398,0.419 -0.595,1.005 -0.595,1.758 0,0.78 0.201,1.383 0.603,1.814 0.401,0.431 0.922,0.646 1.562,0.646 0.62,0 1.125,-0.21 1.518,-0.632 C 0.641,2.191 0.837,1.598 0.837,0.834 0.837,0.787 0.835,0.717 0.834,0.624 l -3.457,0.001 c 0.03,-0.511 0.175,-0.9 0.433,-1.17 0.258,-0.272 0.581,-0.407 0.968,-0.407 0.289,0 0.535,0.077 0.738,0.226 C -0.281,-0.572 -0.119,-0.332 0,0 m -2.578,1.269 2.587,0 c -0.035,0.39 -0.134,0.681 -0.296,0.877 -0.251,0.302 -0.576,0.453 -0.973,0.453 -0.362,0 -0.664,-0.12 -0.912,-0.362 -0.244,-0.241 -0.38,-0.563 -0.406,-0.968" />
      </g>
      <path
         inkscape:connector-curvature="0"
         id="path4408"
         style="fill:#000000;fill-opacity:1;fill-rule:nonzero;stroke:none"
         d="m 337.13486,338.67711 0.98375,0 0,-7.995 -0.98375,0 0,7.995 z" />
      <g
         transform="matrix(1.25,0,0,-1.25,343.41773,337.96323)"
         id="g4410">
        <path
           inkscape:connector-curvature="0"
           id="path4412"
           style="fill:#000000;fill-opacity:1;fill-rule:nonzero;stroke:none"
           d="m 0,0 c -0.29,-0.246 -0.571,-0.421 -0.841,-0.524 -0.268,-0.101 -0.556,-0.152 -0.865,-0.152 -0.509,0 -0.899,0.123 -1.173,0.37 -0.273,0.251 -0.409,0.569 -0.409,0.957 0,0.226 0.05,0.432 0.151,0.618 0.105,0.189 0.241,0.341 0.406,0.455 0.17,0.114 0.358,0.199 0.567,0.257 0.154,0.04 0.388,0.079 0.699,0.118 0.634,0.075 1.1,0.166 1.401,0.27 0.001,0.108 0.003,0.175 0.003,0.204 0,0.321 -0.075,0.546 -0.221,0.677 -0.202,0.177 -0.5,0.266 -0.896,0.267 -0.37,0 -0.642,-0.065 -0.82,-0.197 C -2.172,3.192 -2.301,2.964 -2.386,2.634 L -3.154,2.74 c 0.071,0.328 0.185,0.593 0.345,0.794 0.159,0.203 0.391,0.359 0.694,0.466 0.302,0.112 0.653,0.166 1.051,0.166 0.395,0 0.718,-0.046 0.963,-0.14 C 0.147,3.933 0.33,3.815 0.444,3.673 0.562,3.534 0.643,3.357 0.69,3.141 0.716,3.008 0.729,2.766 0.729,2.416 l 0,-1.046 c 0,-0.73 0.015,-1.193 0.047,-1.387 0.035,-0.193 0.104,-0.377 0.201,-0.554 l -0.82,0 C 0.077,-0.408 0.023,-0.217 0,0 M -0.064,1.755 C -0.35,1.638 -0.777,1.538 -1.349,1.457 -1.671,1.411 -1.899,1.357 -2.033,1.3 -2.167,1.242 -2.269,1.156 -2.341,1.043 -2.416,0.932 -2.451,0.809 -2.451,0.672 c 0,-0.209 0.078,-0.383 0.235,-0.524 0.16,-0.139 0.392,-0.209 0.698,-0.209 0.302,0 0.573,0.066 0.808,0.197 0.235,0.134 0.407,0.314 0.519,0.545 0.084,0.178 0.125,0.439 0.127,0.785 l 0,0.289" />
      </g>
      <g
         transform="matrix(1.25,0,0,-1.25,345.80598,340.90798)"
         id="g4414">
        <path
           inkscape:connector-curvature="0"
           id="path4416"
           style="fill:#000000;fill-opacity:1;fill-rule:nonzero;stroke:none"
           d="M 0,0 -0.087,0.737 C 0.085,0.691 0.234,0.668 0.362,0.668 c 0.176,0 0.314,0.029 0.418,0.087 0.106,0.057 0.191,0.14 0.258,0.244 0.051,0.079 0.13,0.274 0.241,0.584 0.014,0.044 0.038,0.108 0.07,0.193 l -1.758,4.642 0.846,0 L 1.4,3.735 C 1.526,3.394 1.639,3.037 1.738,2.661 1.827,3.021 1.935,3.373 2.059,3.717 l 0.991,2.701 0.785,0 L 2.072,1.705 C 1.883,1.197 1.738,0.846 1.631,0.654 1.492,0.396 1.332,0.207 1.153,0.088 0.971,-0.034 0.756,-0.096 0.507,-0.096 0.354,-0.096 0.186,-0.064 0,0" />
      </g>
      <g
         transform="matrix(1.25,0,0,-1.25,351.06936,335.78211)"
         id="g4418">
        <path
           inkscape:connector-curvature="0"
           id="path4420"
           style="fill:#000000;fill-opacity:1;fill-rule:nonzero;stroke:none"
           d="M 0,0 C 0,0.858 0.238,1.494 0.715,1.906 1.113,2.25 1.599,2.422 2.172,2.422 2.809,2.422 3.33,2.212 3.734,1.793 4.137,1.377 4.341,0.801 4.341,0.066 4.341,-0.53 4.251,-0.999 4.07,-1.343 3.893,-1.684 3.632,-1.949 3.288,-2.137 2.949,-2.327 2.577,-2.422 2.172,-2.422 c -0.65,0 -1.173,0.209 -1.575,0.625 C 0.199,-1.382 0,-0.782 0,0 m 0.806,0 c 0,-0.593 0.13,-1.038 0.388,-1.335 0.26,-0.293 0.585,-0.441 0.978,-0.441 0.389,0 0.714,0.149 0.972,0.446 0.261,0.297 0.389,0.748 0.389,1.356 0,0.574 -0.13,1.007 -0.393,1.3 C 2.882,1.623 2.559,1.773 2.172,1.773 1.779,1.773 1.454,1.624 1.194,1.331 0.936,1.037 0.806,0.593 0.806,0" />
      </g>
      <g
         transform="matrix(1.25,0,0,-1.25,273.29886,319.51486)"
         id="g4422">
        <path
           inkscape:connector-curvature="0"
           id="path4424"
           style="fill:#000000;fill-opacity:1;fill-rule:nonzero;stroke:none"
           d="m 0,0 0.846,0 0,-3.696 c 0,-0.642 -0.072,-1.152 -0.218,-1.53 -0.146,-0.378 -0.408,-0.687 -0.788,-0.925 -0.379,-0.235 -0.877,-0.353 -1.492,-0.353 -0.601,0 -1.091,0.102 -1.471,0.309 -0.382,0.206 -0.654,0.505 -0.816,0.895 -0.163,0.392 -0.244,0.926 -0.244,1.604 l 0,3.696 0.846,0 0,-3.691 c 0,-0.556 0.05,-0.965 0.153,-1.231 0.104,-0.261 0.282,-0.463 0.532,-0.604 0.253,-0.144 0.561,-0.214 0.925,-0.214 0.623,0 1.065,0.14 1.33,0.423 C -0.131,-5.036 0,-4.494 0,-3.691 L 0,0" />
      </g>
      <g
         transform="matrix(1.25,0,0,-1.25,275.99273,327.50911)"
         id="g4426">
        <path
           inkscape:connector-curvature="0"
           id="path4428"
           style="fill:#000000;fill-opacity:1;fill-rule:nonzero;stroke:none"
           d="m 0,0 0,4.633 0.707,0 0,-0.658 c 0.341,0.509 0.831,0.763 1.475,0.763 0.28,0 0.535,-0.051 0.767,-0.153 C 3.186,4.487 3.362,4.355 3.477,4.193 3.594,4.03 3.674,3.836 3.722,3.612 3.751,3.467 3.764,3.212 3.766,2.849 l 0,-2.849 -0.784,0 0,2.818 C 2.982,3.137 2.949,3.376 2.888,3.534 2.827,3.694 2.719,3.821 2.561,3.914 2.407,4.009 2.225,4.057 2.016,4.057 1.681,4.057 1.393,3.951 1.149,3.739 0.907,3.527 0.785,3.123 0.785,2.53 L 0.785,0 0,0" />
      </g>
      <path
         inkscape:connector-curvature="0"
         id="path4430"
         style="fill:#000000;fill-opacity:1;fill-rule:nonzero;stroke:none"
         d="m 282.20986,319.51461 0.98125,0 0,1.1275 -0.98125,0 0,-1.1275 z m 0,2.2025 0.98125,0 0,5.7925 -0.98125,0 0,-5.7925 z" />
      <g
         transform="matrix(1.25,0,0,-1.25,286.29411,327.50911)"
         id="g4432">
        <path
           inkscape:connector-curvature="0"
           id="path4434"
           style="fill:#000000;fill-opacity:1;fill-rule:nonzero;stroke:none"
           d="m 0,0 -1.763,4.633 0.83,0 0.994,-2.774 C 0.17,1.559 0.267,1.248 0.357,0.924 0.428,1.17 0.525,1.463 0.651,1.806 l 1.029,2.827 0.807,0 L 0.733,0 0,0" />
      </g>
      <g
         transform="matrix(1.25,0,0,-1.25,294.23398,325.64398)"
         id="g4436">
        <path
           inkscape:connector-curvature="0"
           id="path4438"
           style="fill:#000000;fill-opacity:1;fill-rule:nonzero;stroke:none"
           d="m 0,0 0.811,-0.101 c -0.127,-0.473 -0.365,-0.841 -0.71,-1.102 -0.347,-0.263 -0.788,-0.393 -1.327,-0.393 -0.677,0 -1.216,0.206 -1.613,0.623 -0.396,0.419 -0.595,1.005 -0.595,1.758 0,0.779 0.202,1.384 0.603,1.814 0.401,0.431 0.922,0.646 1.562,0.646 0.62,0 1.125,-0.211 1.518,-0.632 C 0.641,2.192 0.838,1.598 0.838,0.832 0.838,0.787 0.837,0.716 0.834,0.623 l -3.457,0 c 0.03,-0.509 0.175,-0.898 0.433,-1.168 0.259,-0.271 0.582,-0.407 0.968,-0.407 0.289,0 0.535,0.077 0.738,0.226 C -0.281,-0.572 -0.119,-0.332 0,0 m -2.578,1.269 2.587,0 C -0.026,1.659 -0.125,1.952 -0.287,2.146 -0.538,2.448 -0.863,2.599 -1.26,2.599 -1.622,2.599 -1.926,2.48 -2.173,2.238 -2.416,1.996 -2.552,1.674 -2.578,1.269" />
      </g>
      <g
         transform="matrix(1.25,0,0,-1.25,296.46948,327.50911)"
         id="g4440">
        <path
           inkscape:connector-curvature="0"
           id="path4442"
           style="fill:#000000;fill-opacity:1;fill-rule:nonzero;stroke:none"
           d="m 0,0 0,4.633 0.707,0 0,-0.702 C 0.888,4.26 1.053,4.477 1.205,4.58 1.359,4.685 1.527,4.738 1.711,4.738 1.974,4.738 2.243,4.654 2.517,4.485 L 2.247,3.757 C 2.056,3.87 1.863,3.926 1.671,3.926 1.5,3.926 1.346,3.875 1.208,3.769 1.072,3.667 0.974,3.525 0.916,3.341 0.83,3.062 0.785,2.758 0.785,2.426 L 0.785,0 0,0" />
      </g>
      <g
         transform="matrix(1.25,0,0,-1.25,299.80661,325.78136)"
         id="g4444">
        <path
           inkscape:connector-curvature="0"
           id="path4446"
           style="fill:#000000;fill-opacity:1;fill-rule:nonzero;stroke:none"
           d="m 0,0 0.777,0.122 c 0.043,-0.31 0.165,-0.55 0.362,-0.715 0.2,-0.165 0.48,-0.248 0.837,-0.248 0.362,0 0.629,0.073 0.804,0.218 0.173,0.148 0.261,0.322 0.261,0.519 0,0.177 -0.077,0.317 -0.231,0.418 C 2.702,0.385 2.434,0.473 2.007,0.58 1.433,0.727 1.031,0.851 0.808,0.956 0.586,1.064 0.418,1.21 0.301,1.396 0.189,1.585 0.131,1.793 0.131,2.021 c 0,0.206 0.046,0.396 0.14,0.571 C 0.367,2.77 0.497,2.917 0.66,3.032 0.782,3.123 0.947,3.198 1.156,3.26 1.37,3.324 1.596,3.355 1.838,3.355 2.2,3.355 2.519,3.303 2.792,3.198 3.068,3.094 3.272,2.951 3.403,2.771 3.534,2.594 3.624,2.355 3.674,2.056 L 2.907,1.95 C 2.871,2.19 2.769,2.376 2.601,2.509 2.434,2.643 2.2,2.709 1.894,2.709 1.533,2.709 1.275,2.65 1.121,2.531 0.966,2.412 0.891,2.272 0.891,2.112 0.891,2.01 0.923,1.918 0.987,1.838 1.051,1.753 1.15,1.683 1.287,1.628 1.365,1.599 1.598,1.532 1.981,1.426 2.537,1.28 2.923,1.157 3.142,1.061 3.363,0.968 3.535,0.831 3.661,0.651 3.786,0.471 3.849,0.246 3.849,-0.021 3.849,-0.282 3.771,-0.53 3.617,-0.762 3.466,-0.993 3.245,-1.171 2.958,-1.3 2.671,-1.423 2.344,-1.486 1.981,-1.486 1.379,-1.486 0.92,-1.361 0.602,-1.112 0.289,-0.862 0.087,-0.492 0,0" />
      </g>
      <path
         inkscape:connector-curvature="0"
         id="path4448"
         style="fill:#000000;fill-opacity:1;fill-rule:nonzero;stroke:none"
         d="m 305.78986,319.51461 0.98125,0 0,1.1275 -0.98125,0 0,-1.1275 z m 0,2.2025 0.98125,0 0,5.7925 -0.98125,0 0,-5.7925 z" />
      <g
         transform="matrix(1.25,0,0,-1.25,312.02273,327.50911)"
         id="g4450">
        <path
           inkscape:connector-curvature="0"
           id="path4452"
           style="fill:#000000;fill-opacity:1;fill-rule:nonzero;stroke:none"
           d="m 0,0 0,0.585 c -0.295,-0.46 -0.727,-0.689 -1.297,-0.689 -0.368,0 -0.708,0.101 -1.02,0.304 -0.308,0.203 -0.548,0.487 -0.719,0.851 -0.17,0.367 -0.254,0.787 -0.254,1.261 0,0.463 0.077,0.882 0.231,1.256 0.156,0.379 0.386,0.668 0.695,0.869 0.307,0.201 0.652,0.301 1.034,0.301 0.277,0 0.527,-0.06 0.745,-0.178 0.217,-0.117 0.396,-0.27 0.532,-0.459 l 0,2.295 0.782,0 L 0.729,0 0,0 Z m -2.482,2.312 c 0,-0.592 0.124,-1.037 0.375,-1.33 0.25,-0.295 0.545,-0.442 0.885,-0.442 0.344,0 0.634,0.141 0.872,0.419 0.241,0.283 0.363,0.712 0.363,1.288 0,0.634 -0.123,1.099 -0.367,1.395 -0.245,0.298 -0.545,0.446 -0.903,0.446 -0.35,0 -0.642,-0.144 -0.877,-0.428 C -2.365,3.375 -2.482,2.926 -2.482,2.312" />
      </g>
      <g
         transform="matrix(1.25,0,0,-1.25,318.25598,326.79511)"
         id="g4454">
        <path
           inkscape:connector-curvature="0"
           id="path4456"
           style="fill:#000000;fill-opacity:1;fill-rule:nonzero;stroke:none"
           d="m 0,0 c -0.292,-0.247 -0.572,-0.421 -0.843,-0.524 -0.267,-0.101 -0.554,-0.151 -0.863,-0.151 -0.509,0 -0.899,0.124 -1.175,0.369 -0.273,0.251 -0.409,0.57 -0.409,0.957 0,0.226 0.05,0.434 0.153,0.618 0.105,0.189 0.24,0.341 0.406,0.454 0.169,0.115 0.358,0.2 0.567,0.258 0.154,0.04 0.387,0.079 0.698,0.118 0.634,0.074 1.101,0.166 1.4,0.27 0.003,0.107 0.005,0.177 0.005,0.204 0,0.321 -0.075,0.546 -0.223,0.678 -0.2,0.176 -0.5,0.265 -0.894,0.265 -0.37,0 -0.642,-0.065 -0.821,-0.196 C -2.173,3.192 -2.303,2.964 -2.387,2.634 L -3.154,2.74 c 0.069,0.328 0.185,0.593 0.344,0.794 0.16,0.204 0.391,0.359 0.693,0.466 0.303,0.111 0.654,0.166 1.053,0.166 0.394,0 0.716,-0.046 0.963,-0.139 C 0.147,3.934 0.328,3.816 0.444,3.674 0.561,3.534 0.641,3.356 0.689,3.142 0.715,3.007 0.729,2.766 0.729,2.418 l 0,-1.048 c 0,-0.73 0.015,-1.193 0.047,-1.386 0.035,-0.194 0.102,-0.378 0.201,-0.555 l -0.82,0 C 0.075,-0.407 0.023,-0.218 0,0 M -0.066,1.753 C -0.351,1.637 -0.779,1.54 -1.349,1.457 -1.673,1.411 -1.9,1.357 -2.035,1.3 -2.167,1.243 -2.271,1.156 -2.343,1.043 -2.416,0.933 -2.451,0.808 -2.451,0.672 c 0,-0.209 0.078,-0.383 0.235,-0.524 0.16,-0.139 0.392,-0.209 0.698,-0.209 0.301,0 0.571,0.066 0.806,0.197 0.236,0.133 0.408,0.314 0.52,0.545 0.083,0.178 0.126,0.439 0.126,0.785 l 0,0.287" />
      </g>
      <g
         transform="matrix(1.25,0,0,-1.25,324.44524,327.50911)"
         id="g4458">
        <path
           inkscape:connector-curvature="0"
           id="path4460"
           style="fill:#000000;fill-opacity:1;fill-rule:nonzero;stroke:none"
           d="m 0,0 0,0.585 c -0.293,-0.46 -0.727,-0.689 -1.297,-0.689 -0.368,0 -0.71,0.101 -1.02,0.304 -0.308,0.203 -0.548,0.487 -0.719,0.851 -0.17,0.367 -0.254,0.787 -0.254,1.261 0,0.463 0.077,0.882 0.231,1.256 0.154,0.379 0.386,0.668 0.695,0.869 0.307,0.201 0.652,0.301 1.032,0.301 0.279,0 0.529,-0.06 0.747,-0.178 0.218,-0.117 0.396,-0.27 0.532,-0.459 l 0,2.295 0.782,0 L 0.729,0 0,0 Z m -2.482,2.312 c 0,-0.592 0.124,-1.037 0.375,-1.33 0.25,-0.295 0.545,-0.442 0.885,-0.442 0.344,0 0.634,0.141 0.872,0.419 0.241,0.283 0.363,0.712 0.363,1.288 0,0.634 -0.123,1.099 -0.367,1.395 -0.245,0.298 -0.545,0.446 -0.903,0.446 -0.35,0 -0.642,-0.144 -0.877,-0.428 C -2.367,3.375 -2.482,2.926 -2.482,2.312" />
      </g>
      <path
         inkscape:connector-curvature="0"
         id="path4462"
         style="fill:#000000;fill-opacity:1;fill-rule:nonzero;stroke:none"
         d="m 330.61986,327.50961 1.0575,0 0,-7.995 -1.0575,0 0,7.995 z" />
      <g
         transform="matrix(1.25,0,0,-1.25,333.41611,327.50911)"
         id="g4464">
        <path
           inkscape:connector-curvature="0"
           id="path4466"
           style="fill:#000000;fill-opacity:1;fill-rule:nonzero;stroke:none"
           d="m 0,0 0,4.633 0.707,0 0,-0.658 C 1.048,4.484 1.54,4.738 2.182,4.738 2.462,4.738 2.717,4.687 2.95,4.585 3.186,4.487 3.362,4.355 3.477,4.193 3.594,4.03 3.674,3.836 3.722,3.612 3.751,3.467 3.766,3.212 3.766,2.849 L 3.766,0 2.98,0 l 0,2.818 C 2.98,3.137 2.95,3.376 2.889,3.534 2.828,3.694 2.719,3.821 2.561,3.914 2.407,4.009 2.225,4.057 2.016,4.057 1.681,4.057 1.393,3.951 1.149,3.739 0.907,3.527 0.787,3.123 0.787,2.53 L 0.787,0 0,0" />
      </g>
      <g
         transform="matrix(1.25,0,0,-1.25,341.77211,326.63098)"
         id="g4468">
        <path
           inkscape:connector-curvature="0"
           id="path4470"
           style="fill:#000000;fill-opacity:1;fill-rule:nonzero;stroke:none"
           d="m 0,0 0.113,-0.694 c -0.222,-0.047 -0.419,-0.07 -0.594,-0.07 -0.285,0 -0.506,0.045 -0.663,0.136 -0.157,0.09 -0.267,0.207 -0.332,0.353 -0.064,0.148 -0.096,0.458 -0.096,0.929 l 0,2.665 -0.575,0 0,0.611 0.575,0 0,1.148 0.782,0.471 0,-1.619 0.79,0 0,-0.611 -0.79,0 0,-2.708 c 0,-0.225 0.013,-0.369 0.039,-0.433 l 0.136,-0.152 c 0.062,-0.039 0.154,-0.056 0.27,-0.056 0.087,0 0.201,0.01 0.345,0.03" />
      </g>
      <g
         transform="matrix(1.25,0,0,-1.25,346.69561,325.64486)"
         id="g4472">
        <path
           inkscape:connector-curvature="0"
           id="path4474"
           style="fill:#000000;fill-opacity:1;fill-rule:nonzero;stroke:none"
           d="M 0,0 0.811,-0.1 C 0.683,-0.573 0.446,-0.942 0.099,-1.203 c -0.345,-0.262 -0.786,-0.393 -1.325,-0.393 -0.677,0 -1.216,0.207 -1.615,0.623 -0.396,0.419 -0.593,1.006 -0.593,1.759 0,0.779 0.201,1.384 0.603,1.814 0.401,0.431 0.921,0.646 1.562,0.646 0.618,0 1.125,-0.211 1.518,-0.633 0.392,-0.421 0.588,-1.015 0.588,-1.78 0,-0.046 0,-0.116 -0.003,-0.209 l -3.457,0 c 0.032,-0.509 0.173,-0.898 0.433,-1.169 0.259,-0.271 0.582,-0.406 0.968,-0.406 0.288,0 0.535,0.076 0.738,0.226 C -0.281,-0.572 -0.119,-0.332 0,0 m -2.578,1.27 2.586,0 C -0.026,1.659 -0.125,1.952 -0.289,2.146 -0.538,2.449 -0.863,2.6 -1.261,2.6 -1.622,2.6 -1.926,2.48 -2.173,2.239 -2.418,1.996 -2.552,1.675 -2.578,1.27" />
      </g>
      <g
         transform="matrix(1.25,0,0,-1.25,348.93111,327.50911)"
         id="g4476">
        <path
           inkscape:connector-curvature="0"
           id="path4478"
           style="fill:#000000;fill-opacity:1;fill-rule:nonzero;stroke:none"
           d="m 0,0 0,4.633 0.707,0 0,-0.702 C 0.888,4.26 1.053,4.477 1.205,4.58 1.357,4.685 1.527,4.738 1.711,4.738 1.974,4.738 2.243,4.654 2.517,4.485 L 2.247,3.757 C 2.054,3.87 1.863,3.926 1.671,3.926 1.5,3.926 1.346,3.875 1.208,3.769 1.072,3.667 0.974,3.525 0.916,3.341 0.83,3.062 0.785,2.757 0.785,2.426 L 0.785,0 0,0" />
      </g>
      <g
         transform="matrix(1.25,0,0,-1.25,352.66148,327.50911)"
         id="g4480">
        <path
           inkscape:connector-curvature="0"
           id="path4482"
           style="fill:#000000;fill-opacity:1;fill-rule:nonzero;stroke:none"
           d="m 0,0 0,4.633 0.707,0 0,-0.658 C 1.048,4.484 1.538,4.738 2.181,4.738 2.46,4.738 2.716,4.687 2.949,4.585 3.184,4.487 3.36,4.355 3.476,4.193 3.594,4.03 3.674,3.836 3.721,3.612 3.751,3.467 3.764,3.212 3.764,2.849 L 3.764,0 2.98,0 l 0,2.818 C 2.98,3.137 2.949,3.376 2.888,3.534 2.827,3.694 2.717,3.821 2.559,3.914 2.405,4.009 2.225,4.057 2.014,4.057 1.68,4.057 1.391,3.951 1.147,3.739 0.906,3.527 0.785,3.123 0.785,2.53 L 0.785,0 0,0" />
      </g>
      <g
         transform="matrix(1.25,0,0,-1.25,362.65174,326.79511)"
         id="g4484">
        <path
           inkscape:connector-curvature="0"
           id="path4486"
           style="fill:#000000;fill-opacity:1;fill-rule:nonzero;stroke:none"
           d="m 0,0 c -0.292,-0.247 -0.571,-0.421 -0.841,-0.524 -0.269,-0.101 -0.556,-0.152 -0.865,-0.152 -0.509,0 -0.899,0.124 -1.175,0.37 -0.273,0.251 -0.409,0.569 -0.409,0.957 0,0.226 0.05,0.433 0.153,0.618 0.105,0.189 0.24,0.341 0.406,0.454 0.168,0.114 0.358,0.2 0.567,0.258 0.154,0.04 0.387,0.079 0.698,0.118 0.634,0.074 1.101,0.166 1.4,0.27 0.003,0.107 0.005,0.176 0.005,0.204 0,0.321 -0.075,0.546 -0.223,0.678 -0.2,0.176 -0.498,0.265 -0.894,0.265 C -1.547,3.516 -1.82,3.451 -1.999,3.32 -2.173,3.192 -2.303,2.964 -2.387,2.634 L -3.154,2.74 c 0.069,0.328 0.185,0.593 0.344,0.794 0.16,0.204 0.391,0.359 0.695,0.466 0.301,0.111 0.652,0.166 1.051,0.166 0.395,0 0.716,-0.046 0.963,-0.139 C 0.147,3.934 0.328,3.816 0.444,3.674 0.561,3.534 0.643,3.356 0.689,3.141 0.715,3.007 0.729,2.766 0.729,2.417 l 0,-1.047 c 0,-0.73 0.015,-1.193 0.047,-1.387 0.035,-0.193 0.102,-0.377 0.201,-0.554 l -0.82,0 C 0.075,-0.408 0.023,-0.218 0,0 M -0.066,1.753 C -0.351,1.637 -0.779,1.539 -1.349,1.457 -1.671,1.411 -1.9,1.357 -2.033,1.3 -2.167,1.243 -2.271,1.156 -2.343,1.043 -2.416,0.933 -2.451,0.808 -2.451,0.672 c 0,-0.209 0.078,-0.383 0.235,-0.524 0.16,-0.139 0.392,-0.209 0.698,-0.209 0.302,0 0.571,0.066 0.806,0.196 0.236,0.134 0.409,0.315 0.52,0.546 0.085,0.178 0.126,0.439 0.126,0.785 l 0,0.287" />
      </g>
      <g
         transform="matrix(1.25,0,0,-1.25,368.86198,325.38811)"
         id="g4488">
        <path
           inkscape:connector-curvature="0"
           id="path4490"
           style="fill:#000000;fill-opacity:1;fill-rule:nonzero;stroke:none"
           d="M 0,0 0.773,-0.1 C 0.687,-0.633 0.472,-1.05 0.122,-1.353 c -0.346,-0.299 -0.773,-0.449 -1.279,-0.449 -0.633,0 -1.143,0.208 -1.53,0.62 -0.385,0.416 -0.575,1.01 -0.575,1.784 0,0.5 0.083,0.938 0.248,1.313 0.165,0.376 0.418,0.656 0.755,0.842 0.339,0.19 0.709,0.284 1.107,0.284 0.503,0 0.915,-0.127 1.236,-0.384 C 0.404,2.404 0.608,2.043 0.698,1.575 L -0.066,1.457 C -0.138,1.769 -0.267,2.003 -0.454,2.16 -0.637,2.317 -0.86,2.395 -1.121,2.395 -1.516,2.395 -1.838,2.253 -2.085,1.968 -2.332,1.685 -2.456,1.237 -2.456,0.625 c 0,-0.623 0.12,-1.075 0.357,-1.358 0.239,-0.282 0.551,-0.424 0.935,-0.424 0.309,0 0.565,0.096 0.771,0.285 C -0.185,-0.683 -0.055,-0.393 0,0" />
      </g>
      <path
         inkscape:connector-curvature="0"
         id="path4492"
         style="fill:#000000;fill-opacity:1;fill-rule:nonzero;stroke:none"
         d="m 370.67361,319.51461 0.98125,0 0,1.1275 -0.98125,0 0,-1.1275 z m 0,2.2025 0.98125,0 0,5.7925 -0.98125,0 0,-5.7925 z" />
      <g
         transform="matrix(1.25,0,0,-1.25,372.78323,324.61298)"
         id="g4494">
        <path
           inkscape:connector-curvature="0"
           id="path4496"
           style="fill:#000000;fill-opacity:1;fill-rule:nonzero;stroke:none"
           d="M 0,0 C 0,0.857 0.238,1.494 0.716,1.906 1.113,2.25 1.601,2.421 2.171,2.421 2.81,2.421 3.33,2.212 3.734,1.793 4.139,1.377 4.341,0.801 4.341,0.066 4.341,-0.532 4.251,-1.002 4.07,-1.344 3.893,-1.684 3.632,-1.949 3.29,-2.138 2.949,-2.328 2.577,-2.422 2.171,-2.422 1.524,-2.422 0.999,-2.215 0.597,-1.799 0.2,-1.383 0,-0.782 0,0 m 0.806,0 c 0,-0.594 0.13,-1.038 0.39,-1.335 0.258,-0.295 0.583,-0.441 0.975,-0.441 0.39,0 0.715,0.148 0.973,0.444 0.261,0.298 0.39,0.75 0.39,1.357 0,0.574 -0.131,1.007 -0.392,1.3 C 2.882,1.623 2.559,1.771 2.171,1.771 1.779,1.771 1.454,1.624 1.196,1.329 0.936,1.036 0.806,0.593 0.806,0" />
      </g>
      <g
         transform="matrix(1.25,0,0,-1.25,379.36011,327.50911)"
         id="g4498">
        <path
           inkscape:connector-curvature="0"
           id="path4500"
           style="fill:#000000;fill-opacity:1;fill-rule:nonzero;stroke:none"
           d="m 0,0 0,4.633 0.707,0 0,-0.658 C 1.046,4.484 1.538,4.738 2.181,4.738 2.46,4.738 2.716,4.687 2.949,4.585 3.184,4.487 3.36,4.355 3.477,4.193 3.592,4.03 3.674,3.836 3.721,3.612 3.749,3.467 3.764,3.212 3.764,2.849 L 3.764,0 2.98,0 l 0,2.818 C 2.98,3.137 2.949,3.376 2.888,3.534 2.827,3.694 2.717,3.821 2.561,3.914 2.407,4.009 2.225,4.057 2.016,4.057 1.681,4.057 1.391,3.951 1.147,3.739 0.906,3.527 0.785,3.123 0.785,2.53 L 0.785,0 0,0" />
      </g>
      <g
         transform="matrix(1.25,0,0,-1.25,389.35023,326.79511)"
         id="g4502">
        <path
           inkscape:connector-curvature="0"
           id="path4504"
           style="fill:#000000;fill-opacity:1;fill-rule:nonzero;stroke:none"
           d="m 0,0 c -0.292,-0.247 -0.571,-0.421 -0.841,-0.524 -0.269,-0.101 -0.558,-0.152 -0.865,-0.152 -0.509,0 -0.901,0.124 -1.173,0.37 -0.273,0.251 -0.411,0.569 -0.411,0.957 0,0.226 0.05,0.433 0.153,0.618 0.105,0.189 0.24,0.341 0.406,0.454 0.168,0.114 0.358,0.2 0.567,0.258 0.154,0.04 0.387,0.079 0.698,0.118 0.634,0.074 1.101,0.166 1.4,0.27 0.003,0.107 0.003,0.176 0.003,0.204 0,0.321 -0.073,0.546 -0.221,0.678 -0.202,0.176 -0.5,0.265 -0.895,0.265 -0.368,0 -0.643,-0.065 -0.819,-0.196 C -2.172,3.192 -2.301,2.964 -2.387,2.634 L -3.154,2.74 c 0.069,0.328 0.183,0.593 0.344,0.794 0.16,0.204 0.391,0.359 0.693,0.466 0.304,0.111 0.654,0.166 1.053,0.166 0.395,0 0.716,-0.046 0.963,-0.139 C 0.147,3.934 0.328,3.816 0.444,3.674 0.562,3.534 0.643,3.356 0.69,3.141 0.715,3.007 0.729,2.766 0.729,2.417 l 0,-1.047 c 0,-0.73 0.015,-1.193 0.047,-1.387 0.035,-0.193 0.102,-0.377 0.2,-0.554 l -0.819,0 C 0.075,-0.408 0.023,-0.218 0,0 M -0.066,1.753 C -0.35,1.637 -0.779,1.539 -1.349,1.457 -1.671,1.411 -1.9,1.357 -2.033,1.3 -2.167,1.243 -2.269,1.156 -2.343,1.043 c -0.073,-0.11 -0.11,-0.235 -0.11,-0.371 0,-0.209 0.08,-0.383 0.237,-0.524 0.159,-0.139 0.392,-0.209 0.698,-0.209 0.302,0 0.571,0.066 0.808,0.196 0.235,0.134 0.407,0.315 0.518,0.546 0.083,0.178 0.126,0.439 0.126,0.785 l 0,0.287" />
      </g>
      <path
         inkscape:connector-curvature="0"
         id="path4506"
         style="fill:#000000;fill-opacity:1;fill-rule:nonzero;stroke:none"
         d="m 391.76111,327.50961 0.98125,0 0,-7.995 -0.98125,0 0,7.995 z" />
    </g>
  </g>
</svg>
