<?xml version="1.0" encoding="UTF-8" standalone="no"?>
<!-- Created with Inkscape (http://www.inkscape.org/) -->

<svg
   xmlns:dc="http://purl.org/dc/elements/1.1/"
   xmlns:cc="http://creativecommons.org/ns#"
   xmlns:rdf="http://www.w3.org/1999/02/22-rdf-syntax-ns#"
   xmlns:svg="http://www.w3.org/2000/svg"
   xmlns="http://www.w3.org/2000/svg"
   xmlns:sodipodi="http://sodipodi.sourceforge.net/DTD/sodipodi-0.dtd"
   xmlns:inkscape="http://www.inkscape.org/namespaces/inkscape"
   id="svg2"
   version="1.1"
   inkscape:version="0.48.2 r9819"
   width="176.75"
   height="176.75"
   xml:space="preserve"
   sodipodi:docname="unican_logo.svg"
   inkscape:export-filename="unican_logo.png"
   inkscape:export-xdpi="302.10001"
   inkscape:export-ydpi="302.10001"><metadata
     id="metadata8"><rdf:RDF><cc:Work
         rdf:about=""><dc:format>image/svg+xml</dc:format><dc:type
           rdf:resource="http://purl.org/dc/dcmitype/StillImage" /><dc:title></dc:title></cc:Work></rdf:RDF></metadata><defs
     id="defs6" /><sodipodi:namedview
     pagecolor="#ffffff"
     bordercolor="#666666"
     borderopacity="1"
     objecttolerance="10"
     gridtolerance="10"
     guidetolerance="10"
     inkscape:pageopacity="0"
     inkscape:pageshadow="2"
     inkscape:window-width="1920"
     inkscape:window-height="1017"
     id="namedview4"
     showgrid="false"
     inkscape:showpageshadow="false"
     fit-margin-top="0"
     fit-margin-left="0"
     fit-margin-right="0"
     fit-margin-bottom="0"
     showborder="true"
     inkscape:zoom="3.734315"
     inkscape:cx="132.68761"
     inkscape:cy="92.759947"
     inkscape:window-x="-4"
     inkscape:window-y="-4"
     inkscape:window-maximized="1"
     inkscape:current-layer="layer1" /><g
     inkscape:groupmode="layer"
     id="layer1"
     inkscape:label="BG"
     transform="translate(-1.3964875,-1.16455)"><path
       inkscape:connector-curvature="0"
       id="path14"
       style="fill:#4a6474;fill-opacity:1;fill-rule:nonzero;stroke:none"
       d="m 1.3964875,177.91455 176.7500025,0 0,-176.75 -176.7500025,0 0,176.75 z" /></g><g
     id="g10"
     inkscape:groupmode="layer"
     inkscape:label="logo"
     transform="matrix(1.25,0,0,-1.25,-1.3964875,177.58545)"><g
       id="g3089"><path
         d="m 48.648,84.2348 c 1.8993,1.4992 2.8489,3.5984 2.8489,6.2476 l 0,40.5836 21.6914,0 0,-42.3332 c 0,-7.9469 -3.0488,-14.2941 -9.0965,-19.1422 -5.6977,-4.498 -12.7949,-6.7472 -21.2914,-6.7472 -8.4965,0 -15.5938,2.2492 -21.2414,6.7472 -6.0977,4.8481 -9.1465,11.1953 -9.1465,19.1422 l 0,42.3332 22.0914,0 0,-40.484 c 0,-2.7488 0.9496,-4.848 2.8488,-6.3472 1.5993,-1.2496 3.4985,-1.8993 5.6477,-1.8993 2.1492,0 4.0484,0.6497 5.6476,1.8993"
         style="fill:#ffffff;fill-opacity:1;fill-rule:nonzero;stroke:none"
         id="path16"
         inkscape:connector-curvature="0" /><path
         d="m 131.465,66.8418 c -3.999,-2.7988 -10.096,-4.1984 -18.243,-4.1984 -9.746,0 -18.0427,2.9488 -24.9396,8.8464 -7.6472,6.4973 -11.4457,15.1438 -11.4457,25.9395 0,10.6957 3.7985,19.3427 11.4457,25.8897 3.3485,2.849 7.2469,5.098 11.6453,6.647 4.2983,1.5 8.7463,2.25 13.2943,2.25 7.647,0 13.745,-1.3 18.293,-3.899 l -0.05,-19.642 c -2.249,1.499 -4.448,2.549 -6.547,3.199 -2.499,0.749 -5.498,1.149 -8.997,1.149 -5.198,0 -9.346,-1.649 -12.395,-4.898 -2.799,-2.949 -4.1983,-6.497 -4.1983,-10.6957 0,-4.198 1.4993,-7.7469 4.4483,-10.6957 3.249,-3.2484 7.697,-4.8981 13.245,-4.8981 6.147,0 10.945,1.3497 14.494,4.0485 l -0.05,-19.0422"
         style="fill:#ffffff;fill-opacity:1;fill-rule:nonzero;stroke:none"
         id="path18"
         inkscape:connector-curvature="0" /><path
         d="m 22.6586,33.5051 c 0,-1.4496 -0.5,-2.6488 -1.4496,-3.4985 -0.9496,-0.85 -2.1492,-1.2996 -3.6985,-1.2996 -1.5492,0 -2.7988,0.4496 -3.7484,1.2996 -0.9496,0.8497 -1.4496,2.0489 -1.4496,3.4985 l 0,8.6465 1.3996,0 0,-8.5465 c 0,-2.4492 1.2496,-3.6485 3.7984,-3.6485 2.5489,0 3.7985,1.1993 3.7985,3.6485 l 0,8.5465 1.3496,0 0,-8.6465"
         style="fill:#ffffff;fill-opacity:1;fill-rule:nonzero;stroke:none"
         id="path20"
         inkscape:connector-curvature="0" /><path
         d="m 37.4027,28.657 -0.4,0 -9.6961,11.2453 -0.05,-0.05 0.05,-10.9453 -1.3996,0 0,13.2446 0.9496,0 9.1465,-10.5957 0.05,0.05 -0.05,10.5457 1.3996,0 0,-13.4946"
         style="fill:#ffffff;fill-opacity:1;fill-rule:nonzero;stroke:none"
         id="path22"
         inkscape:connector-curvature="0" /><path
         d="m 41.0012,28.907 1.39961,0 0,13.2445 -1.39961,0 0,-13.2445 z"
         style="fill:#ffffff;fill-opacity:1;fill-rule:nonzero;stroke:none"
         id="path24"
         inkscape:connector-curvature="0" /><path
         d="m 50.5973,28.707 -0.3996,0 -5.2981,13.4446 1.4992,0 4.0485,-10.6457 0.05,0 4.0484,10.6457 1.2996,0 -5.248,-13.4446"
         style="fill:#ffffff;fill-opacity:1;fill-rule:nonzero;stroke:none"
         id="path26"
         inkscape:connector-curvature="0" /><path
         d="m 65.6414,30.1063 0,-1.1993 -7.5969,0 0,13.2446 6.8969,0 0,-1.1996 -5.4976,0 0,-4.7981 4.498,0 0,-1.1996 -4.498,0 0,-4.848 6.1976,0"
         style="fill:#ffffff;fill-opacity:1;fill-rule:nonzero;stroke:none"
         id="path28"
         inkscape:connector-curvature="0" /><path
         d="m 77.6363,28.907 -1.5992,0 -4.398,6.0473 -2.2993,0 0,-6.0473 -1.3996,0 0,13.2446 3.7985,0 c 1.0496,0 1.9492,-0.3 2.6992,-0.9496 0.7496,-0.6997 1.1496,-1.5993 1.1496,-2.6489 0,-1.7492 -0.85,-2.8488 -2.5992,-3.3988 l 4.648,-6.2473 z m -6.1472,12.045 -2.1493,0 0,-4.7981 2.2493,0 c 0.6996,0 1.2992,0.2 1.7992,0.6496 0.5496,0.45 0.7996,0.9996 0.7996,1.7496 0,0.7496 -0.25,1.2992 -0.7996,1.7492 -0.5,0.4497 -1.1496,0.6497 -1.8992,0.6497"
         style="fill:#ffffff;fill-opacity:1;fill-rule:nonzero;stroke:none"
         id="path30"
         inkscape:connector-curvature="0" /><path
         d="m 86.5328,32.4555 c 0,-1.1496 -0.3996,-2.0492 -1.1496,-2.6989 -0.7496,-0.7 -1.7992,-1.0496 -3.0984,-1.0496 -1.3996,0 -2.5493,0.3496 -3.4989,0.9996 l -0.3996,1.6493 c 1.2492,-0.9496 2.5489,-1.4493 3.9485,-1.4493 0.8496,0 1.4992,0.2497 1.9992,0.6997 0.5496,0.4496 0.7996,0.9996 0.7996,1.7492 0,1.2496 -0.8996,2.1992 -2.6492,2.8488 -2.3489,0.7996 -3.4985,2.0492 -3.4985,3.7984 0,0.8996 0.3,1.6496 0.9496,2.2993 0.7497,0.6996 1.7493,1.0496 2.9989,1.0496 1.1496,0 2.0492,-0.25 2.7488,-0.7496 l -0.25,-1.1497 c -0.7996,0.4997 -1.6492,0.7497 -2.5488,0.7497 -0.7496,0 -1.3996,-0.2 -1.8992,-0.6497 -0.45,-0.45 -0.6497,-0.8996 -0.6497,-1.4496 0,-1.0496 0.7997,-1.8492 2.4489,-2.4988 2.4992,-0.9496 3.7484,-2.3492 3.7484,-4.1484"
         style="fill:#ffffff;fill-opacity:1;fill-rule:nonzero;stroke:none"
         id="path32"
         inkscape:connector-curvature="0" /><path
         d="m 89.5816,28.907 1.39961,0 0,13.2445 -1.39961,0 0,-13.2445 z"
         style="fill:#ffffff;fill-opacity:1;fill-rule:nonzero;stroke:none"
         id="path34"
         inkscape:connector-curvature="0" /><path
         d="m 105.375,35.5043 c 0,-2.0492 -0.699,-3.6484 -2.149,-4.848 -1.349,-1.1497 -3.099,-1.7493 -5.1479,-1.7493 l -3.4984,0 0,13.2446 3.4984,0 c 2.0489,0 3.7989,-0.5996 5.1479,-1.7493 1.45,-1.2496 2.149,-2.8488 2.149,-4.898 z m -1.399,0 c 0,1.7492 -0.6,3.0988 -1.749,4.0484 -1.15,0.9496 -2.5993,1.3993 -4.3985,1.3993 l -1.8492,0 0,-10.8457 1.8492,0 c 1.7992,0 3.2485,0.45 4.3985,1.3996 1.149,0.9496 1.749,2.2992 1.749,3.9984"
         style="fill:#ffffff;fill-opacity:1;fill-rule:nonzero;stroke:none"
         id="path36"
         inkscape:connector-curvature="0" /><path
         d="m 117.171,28.907 -1.5,3.7485 -5.598,0 -1.499,-3.7485 -1.349,0 5.448,13.4946 0.449,0 5.448,-13.4946 -1.399,0 z m -4.249,10.9453 -0.05,0 -2.299,-6.0972 4.598,0 -2.249,6.0972"
         style="fill:#ffffff;fill-opacity:1;fill-rule:nonzero;stroke:none"
         id="path38"
         inkscape:connector-curvature="0" /><path
         d="m 131.765,35.5043 c 0,-2.0492 -0.7,-3.6484 -2.149,-4.848 -1.35,-1.1497 -3.099,-1.7493 -5.198,-1.7493 l -3.449,0 0,13.2446 3.449,0 c 2.049,0 3.798,-0.5996 5.198,-1.7493 1.449,-1.2496 2.149,-2.8488 2.149,-4.898 z m -3.199,4.0484 c -1.1,0.9496 -2.549,1.3993 -4.348,1.3993 l -1.849,0 0,-10.8457 1.849,0 c 1.799,0 3.248,0.45 4.348,1.3996 1.15,0.9496 1.749,2.2992 1.749,3.9984 0,1.7492 -0.599,3.0988 -1.749,4.0484"
         style="fill:#ffffff;fill-opacity:1;fill-rule:nonzero;stroke:none"
         id="path40"
         inkscape:connector-curvature="0" /><path
         d="m 22.2086,17.9613 c 0,-1.8492 -0.6496,-3.3488 -1.9992,-4.4484 -1.2492,-1.0496 -2.7989,-1.5992 -4.6981,-1.5992 l -3.1488,0 0,12.0953 3.1488,0 c 1.8992,0 3.4489,-0.55 4.6981,-1.5996 1.3496,-1.0996 1.9992,-2.5989 1.9992,-4.4481 z m -1.2992,0 c 0,1.5492 -0.55,2.7989 -1.5996,3.6985 -0.9996,0.8496 -2.3489,1.2496 -3.9985,1.2496 l -1.6992,0 0,-9.8961 1.6992,0 c 1.6496,0 2.9989,0.3996 3.9985,1.2496 1.0496,0.8996 1.5996,2.1488 1.5996,3.6984"
         style="fill:#ffffff;fill-opacity:1;fill-rule:nonzero;stroke:none"
         id="path42"
         inkscape:connector-curvature="0" /><path
         d="m 31.7051,13.0133 0,-1.0996 -6.9973,0 0,12.0953 6.2973,0 0,-1.0996 -4.9981,0 0,-4.3985 4.0985,0 0,-1.0996 -4.0985,0 0,-4.398 5.6981,0"
         style="fill:#ffffff;fill-opacity:1;fill-rule:nonzero;stroke:none"
         id="path44"
         inkscape:connector-curvature="0" /><path
         d="m 44.5496,11.7137 c -1.6992,0 -3.1484,0.55 -4.398,1.6496 -1.3496,1.1992 -1.9993,2.7488 -1.9993,4.598 0,1.8492 0.6497,3.3985 1.9993,4.5981 1.2496,1.0996 2.6988,1.6492 4.398,1.6492 1.4496,0 2.6492,-0.2996 3.5988,-0.8496 l -0.25,-1.0996 c -0.8496,0.55 -1.9492,0.85 -3.1988,0.85 -1.4492,0 -2.6488,-0.45 -3.6484,-1.3496 -1.0496,-0.9996 -1.5992,-2.2493 -1.5992,-3.7985 0,-1.5496 0.5496,-2.7988 1.5992,-3.7484 0.9996,-0.9496 2.1992,-1.3996 3.6484,-1.3996 1.3496,0 2.4992,0.25 3.3988,0.7996 l -0.3,-1.2992 c -0.7496,-0.4 -1.7992,-0.6 -3.2488,-0.6"
         style="fill:#ffffff;fill-opacity:1;fill-rule:nonzero;stroke:none"
         id="path46"
         inkscape:connector-curvature="0" /><path
         d="m 59.9938,11.9137 -1.2997,0 -1.3996,3.3988 -5.098,0 -1.3492,-3.3988 -1.2996,0 5.048,12.2949 0.4,0 4.9981,-12.2949 z m -7.3973,4.3984 4.2484,0 -2.0492,5.5977 -0.05,0 -2.1492,-5.5977"
         style="fill:#ffffff;fill-opacity:1;fill-rule:nonzero;stroke:none"
         id="path48"
         inkscape:connector-curvature="0" /><path
         d="m 72.6387,11.6137 -0.3,0 -8.8965,10.3461 -0.05,-0.05 0.05,-9.9961 -1.2996,0 0,12.0953 0.8996,0 8.3469,-9.6961 0.05,0.0496 -0.05,9.6465 1.2496,0 0,-12.3953"
         style="fill:#ffffff;fill-opacity:1;fill-rule:nonzero;stroke:none"
         id="path50"
         inkscape:connector-curvature="0" /><path
         d="m 84.8336,22.9094 -4.1984,0 0,-10.9957 -1.2493,0 0,10.9957 -4.1484,0 0,1.0996 9.5961,0 0,-1.0996"
         style="fill:#ffffff;fill-opacity:1;fill-rule:nonzero;stroke:none"
         id="path52"
         inkscape:connector-curvature="0" /><path
         d="m 95.0797,11.9137 -1.2996,0 -1.3496,3.3988 -5.1477,0 -1.3496,-3.3988 -1.2496,0 4.998,12.2949 0.4,0 4.9981,-12.2949 z m -3.0988,4.3984 -2.0993,5.5977 -2.1492,-5.5977 4.2485,0"
         style="fill:#ffffff;fill-opacity:1;fill-rule:nonzero;stroke:none"
         id="path54"
         inkscape:connector-curvature="0" /><path
         d="m 103.576,12.8633 c -0.749,-0.6496 -1.599,-0.9496 -2.649,-0.9496 l -3.6485,0 0,12.0953 2.9485,0 c 0.9,0 1.65,-0.25 2.25,-0.8 0.649,-0.5496 0.999,-1.2992 0.999,-2.1988 0,-1.1497 -0.45,-1.8993 -1.299,-2.2493 0.7,-0.15 1.299,-0.5496 1.799,-1.1496 0.5,-0.6496 0.75,-1.3492 0.75,-2.0992 0,-1.0996 -0.4,-1.9992 -1.15,-2.6488 z m -0.999,0.7996 c 0.549,0.45 0.849,1.0996 0.849,1.8492 0,0.75 -0.3,1.3996 -0.849,1.8492 -0.55,0.45 -1.2,0.65 -2,0.65 l -2.0489,0 0,-4.998 2.1489,0 c 0.75,0 1.4,0.2 1.9,0.6496 z m -0.4,7.3473 c 0,1.2492 -0.7,1.8992 -2.1,1.8992 l -1.5489,0 0,-3.7985 1.5989,0 c 1.35,0 2.05,0.6496 2.05,1.8993"
         style="fill:#ffffff;fill-opacity:1;fill-rule:nonzero;stroke:none"
         id="path56"
         inkscape:connector-curvature="0" /><path
         d="m 116.071,11.9137 -1.449,0 -4.049,5.4976 -2.099,0 0,-5.4976 -1.249,0 0,12.0953 3.448,0 c 0.95,0 1.8,-0.3 2.449,-0.8996 0.75,-0.6 1.1,-1.3996 1.1,-2.3992 0,-1.5993 -0.8,-2.6489 -2.399,-3.0989 l 4.248,-5.6976 z m -7.597,10.9957 0,-4.3985 2.049,0 c 0.65,0 1.2,0.2 1.65,0.6 0.5,0.3996 0.749,0.9496 0.749,1.5993 0,0.6496 -0.249,1.1996 -0.749,1.5992 -0.45,0.4 -1.05,0.6 -1.7,0.6 l -1.999,0"
         style="fill:#ffffff;fill-opacity:1;fill-rule:nonzero;stroke:none"
         id="path58"
         inkscape:connector-curvature="0" /><path
         d="m 117.92,11.9137 1.24961,0 0,12.0953 -1.24961,0 0,-12.0953 z"
         style="fill:#ffffff;fill-opacity:1;fill-rule:nonzero;stroke:none"
         id="path60"
         inkscape:connector-curvature="0" /><path
         d="m 132.065,11.9137 -1.3,0 -1.349,3.3988 -5.148,0 -1.35,-3.3988 -1.249,0 4.998,12.2949 0.4,0 4.998,-12.2949 z m -7.347,4.3984 4.248,0 -2.099,5.5977 -0.05,0 -2.099,-5.5977"
         style="fill:#ffffff;fill-opacity:1;fill-rule:nonzero;stroke:none"
         id="path62"
         inkscape:connector-curvature="0" /></g></g></svg>